<svg width="391" height="280" viewBox="0 0 391 280" fill="none" xmlns="http://www.w3.org/2000/svg">
<g clip-path="url(#clip0_19_7812)">
<path d="M255.656 280.03H366.245C366.245 280.03 392.461 187.166 391 170.456C386.079 113.887 378.801 73.3092 349.663 56.0899C320.524 38.8707 260.1 43.4825 243.696 64.7145C227.263 85.9466 215.9 128.441 213.036 151.29C210.561 171.264 236.956 233.254 241.31 267.363C242.265 274.58 248.349 280.03 255.656 280.03Z" fill="#F5F5F5"/>
<path d="M376.445 159.705C364.456 150.601 367.975 215.765 367.557 215.016C367.14 214.268 356.134 171.743 348.052 175.906C339.97 180.069 349.752 238.374 349.752 238.374C349.752 238.374 328.189 201.48 324.52 215.016C321.389 226.516 339.343 266.195 352.317 280.03H366.245C366.245 280.03 375.938 245.651 383.215 214.956C384.319 197.947 385.124 166.263 376.445 159.705Z" fill="#50456D"/>
<path d="M323.566 112.958L329.323 83.4609H361.652L367.558 112.958H350.766V118.379H348.44V280.03H345.547V118.498H343.579V113.228L323.566 112.958Z" fill="#50456D"/>
<path d="M29.6746 284.672H204.476C204.476 284.672 221.924 248.466 212.887 207.05C205.073 171.294 196.036 142.036 197.736 130.717C202.448 99.0032 204.804 85.8567 190.578 55.8802C168.687 9.79253 63.6447 25.5145 41.0079 109.604C18.4009 193.724 18.2219 264.068 29.6746 284.672Z" fill="#F5F5F5"/>
<path d="M205.282 210.913H67.582V214.836H205.282V210.913Z" fill="#FFAB7D"/>
<path d="M115.689 210.913H52.4912V214.836H115.689V210.913Z" fill="#BF7349"/>
<path d="M129.648 153.117H192.309C193.711 153.117 194.695 154.255 194.486 155.662L188.879 197.647C188.7 199.055 187.418 200.193 186.016 200.193H123.355C121.953 200.193 120.969 199.055 121.177 197.647L126.755 155.662C126.963 154.255 128.246 153.117 129.648 153.117Z" fill="#54678C"/>
<path d="M133.376 153.117H196.037C197.439 153.117 198.423 154.255 198.214 155.662L192.637 197.647C192.458 199.055 191.176 200.193 189.774 200.193H127.112C125.711 200.193 124.726 199.055 124.935 197.647L130.542 155.662C130.691 154.255 131.974 153.117 133.376 153.117Z" fill="#434A59"/>
<path d="M188.432 174.079H192.786C193.323 174.079 193.681 174.499 193.621 175.038C193.562 175.577 193.055 175.996 192.548 175.996H188.193C187.656 175.996 187.298 175.577 187.358 175.038C187.418 174.529 187.925 174.079 188.432 174.079Z" fill="#54678C"/>
<path d="M188.044 177.044H192.398C192.935 177.044 193.293 177.463 193.234 178.002C193.174 178.541 192.667 178.961 192.16 178.961H187.805C187.269 178.961 186.911 178.541 186.97 178.002C187.03 177.463 187.507 177.044 188.044 177.044Z" fill="#54678C"/>
<path d="M187.656 179.979H192.011C192.548 179.979 192.905 180.398 192.846 180.937C192.786 181.476 192.279 181.895 191.772 181.895H187.418C186.881 181.895 186.523 181.476 186.583 180.937C186.642 180.428 187.12 179.979 187.656 179.979Z" fill="#54678C"/>
<path d="M135.374 174.079H131.02C130.483 174.079 130.006 174.499 129.946 175.038C129.886 175.577 130.244 175.996 130.781 175.996H135.135C135.672 175.996 136.149 175.577 136.209 175.038C136.269 174.529 135.911 174.079 135.374 174.079Z" fill="#54678C"/>
<path d="M134.986 177.044H130.632C130.095 177.044 129.618 177.463 129.558 178.002C129.499 178.541 129.856 178.961 130.393 178.961H134.748C135.285 178.961 135.762 178.541 135.821 178.002C135.881 177.463 135.523 177.044 134.986 177.044Z" fill="#54678C"/>
<path d="M134.599 179.979H130.244C129.707 179.979 129.23 180.398 129.171 180.937C129.111 181.476 129.469 181.895 130.006 181.895H134.36C134.897 181.895 135.374 181.476 135.434 180.937C135.493 180.428 135.135 179.979 134.599 179.979Z" fill="#54678C"/>
<path d="M158.16 206.751C161.828 198.126 158.518 183.333 156.967 178.362C155.863 174.858 157.891 171.145 161.5 170.066C165.139 168.988 168.956 170.935 170.09 174.469C170.149 174.708 171.879 180.099 172.863 187.166C174.086 195.85 173.728 203.277 171.819 209.296H157.653C157.653 208.428 157.832 207.589 158.16 206.751Z" fill="#54678C"/>
<path d="M119.417 214.866H111.395V357.023H119.417V214.866Z" fill="#FFAB7D"/>
<path d="M65.0775 214.866H57.0547V357.023H65.0775V214.866Z" fill="#FFAB7D"/>
<path d="M200.719 214.866H192.696V357.023H200.719V214.866Z" fill="#FFAB7D"/>
<path d="M164.691 214.866H156.668V357.023H164.691V214.866Z" fill="#FFAB7D"/>
<path d="M175.875 208.877H149.003C148.019 208.877 147.214 209.686 147.214 210.674V210.944H177.635V210.674C177.665 209.686 176.859 208.877 175.875 208.877Z" fill="#54678C"/>
<path d="M125.829 208.877H98.9574C97.9732 208.877 97.168 209.686 97.168 210.674V210.944H127.589V210.674C127.619 209.686 126.814 208.877 125.829 208.877Z" fill="#54678C"/>
<path d="M141.368 46.9262L172.088 66.2117C172.088 66.2117 141.458 37.5529 141.338 36.0256C141.219 34.4984 150.286 22.5497 152.254 21.3219C154.223 20.0941 239.402 73.9978 213.872 98.1347C198.542 112.659 136.716 96.9968 132.152 81.724C129.796 73.7283 141.368 46.9262 141.368 46.9262Z" fill="#F3D430"/>
<path d="M145.126 28.629C145.126 28.629 146.736 26.5927 146.199 24.9755C145.663 23.3584 139.757 16.2611 137.282 15.3627C134.806 14.4643 133.613 14.4344 132.719 14.9734C131.824 15.4825 135.433 23.8975 136.208 25.9338C136.954 27.9702 141.338 32.2525 142.352 31.5937C143.336 30.9349 145.126 28.629 145.126 28.629Z" fill="#FF867A"/>
<path d="M125.919 14.2546L130.84 11.6492C131.854 11.1401 133.047 11.3198 133.465 12.0984L141.607 26.6225C142.024 27.3712 141.547 28.4193 140.533 28.9583L135.612 31.5637C134.598 32.0728 133.405 31.8931 132.988 31.1145L124.846 16.5904C124.398 15.8118 124.875 14.7637 125.919 14.2546Z" fill="#4D648C"/>
<path d="M137.819 16.9796C137.819 16.9796 135.91 16.5304 134.419 16.6203C132.957 16.7101 131.436 17.2192 131.705 18.0577C131.973 18.9262 134.508 18.477 134.508 18.477C134.508 18.477 133.136 19.0759 132.928 20.0641C132.719 21.0224 133.822 21.6812 134.747 21.7711C135.672 21.8609 138.982 21.8909 139.757 21.7112C140.503 21.5315 138.803 18.2973 137.819 16.9796Z" fill="#FF867A"/>
<path d="M138.684 21.6213C138.684 21.6213 135.731 22.1604 135.88 23.1786C136.03 24.1967 140.205 24.1368 140.294 23.4181C140.414 22.6695 138.684 21.6213 138.684 21.6213Z" fill="#FF867A"/>
<path d="M131.257 148.655L61.1697 153.835L21.0557 387.658C28.2434 392.419 35.3715 391.281 42.2013 389.484L99.3153 207.35C99.3153 207.35 100.568 244.274 105.101 284.522C110.529 332.556 125.233 388.706 127.112 388.706L150.196 387.568C142.412 229.36 131.257 148.655 131.257 148.655Z" fill="#5CBEC6"/>
<path d="M26.0957 386.28C26.036 386.28 26.0062 386.28 25.9466 386.25C25.708 386.161 25.5588 385.891 25.6483 385.652C25.6781 385.562 28.8097 376.039 28.5711 371.966C28.3325 367.684 37.6974 320.697 41.1571 305.305C42.9466 297.399 46.8834 273.532 50.6711 250.443C54.1606 229.331 57.4413 209.386 58.3957 205.942C60.3343 198.995 65.7325 170.815 65.7922 170.546C65.8518 170.276 66.0904 170.096 66.3588 170.156C66.6273 170.216 66.8062 170.456 66.7466 170.725C66.6869 170.995 61.2887 199.204 59.3501 206.212C58.3957 209.596 55.115 229.51 51.6553 250.593C47.8378 273.681 43.9009 297.579 42.1115 305.515C38.7413 320.458 29.3167 367.773 29.5553 371.906C29.7939 376.188 26.6922 385.562 26.5729 385.951C26.4834 386.161 26.2746 386.28 26.0957 386.28Z" fill="#4389A8"/>
<path d="M98.928 209.266C98.8385 209.266 98.749 209.266 98.6595 209.236C98.1525 209.087 97.8841 208.548 98.0332 208.039C98.7192 205.793 104.833 186.088 106.951 183.482C109.188 180.727 113.96 179.26 114.168 179.17C114.675 179.02 115.212 179.29 115.361 179.799C115.51 180.308 115.242 180.847 114.735 180.997C114.705 180.997 110.291 182.374 108.442 184.68C107.01 186.447 102.537 199.953 99.8823 208.608C99.7034 208.997 99.3157 209.266 98.928 209.266Z" fill="#4389A8"/>
<path d="M130.751 386.939C130.512 386.939 130.303 386.759 130.244 386.52C130.214 386.37 126.665 370.169 125.919 365.108C125.144 359.837 121.117 326.357 119.865 315.367C118.851 306.563 117.18 298.327 115.242 288.804C114.586 285.63 113.93 282.366 113.273 278.892C110.589 265.147 103.67 201.181 103.58 200.522C103.551 200.252 103.73 200.013 103.998 199.983C104.266 199.953 104.505 200.163 104.535 200.462C104.594 201.121 111.544 265.027 114.198 278.742C114.884 282.216 115.54 285.48 116.166 288.655C118.105 298.208 119.775 306.443 120.789 315.307C122.221 327.825 126.098 360.047 126.844 365.018C127.589 370.049 131.138 386.19 131.168 386.34C131.228 386.61 131.079 386.879 130.81 386.909C130.81 386.939 130.78 386.939 130.751 386.939Z" fill="#4389A8"/>
<path d="M72.5629 50.7892C84.5822 29.6769 133.703 27.8203 149.749 57.4074C155.923 68.817 148.317 79.7475 145.782 113.917C145.365 119.397 146.647 160.513 150.972 183.123C151.389 185.399 122.251 187.315 122.251 187.315L118.94 161.711L88.9962 158.237C88.9962 158.237 83.2401 183.722 80.6155 183.093C67.0155 179.889 38.4734 175.217 41.8436 169.527C57.8296 142.665 60.812 71.3924 72.5629 50.7892Z" fill="#FFE145"/>
<path d="M118.91 161.741C118.91 161.741 138.504 43.5123 125.531 38.5711C113.154 33.8395 111.155 36.385 109.634 41.1764C107.547 47.7647 88.9658 158.267 88.9658 158.267C106.652 161.472 110.022 161.741 118.91 161.741Z" fill="white"/>
<path d="M87.3557 68.1884C96.1837 58.9648 100.747 36.4151 87.3557 38.8108C80.6451 40.0087 51.4767 57.198 34.8048 68.7274C30.5995 71.6322 26.6627 74.567 23.3223 77.2921C11.1837 87.2943 7.30654 96.0686 7.75391 108.556C8.55917 131.885 27.1995 181.805 37.1908 183.932C41.8136 184.92 49.9557 179.559 49.8662 176.774C49.8065 175.337 40.2627 102.357 40.2627 102.357C40.2627 102.357 79.4522 76.4536 87.3557 68.1884Z" fill="#FFE145"/>
<path d="M27.5872 110.113C27.796 110.143 28.0345 110.113 28.2135 109.994L40.4117 103.615C40.9486 103.345 41.1574 102.657 40.8889 102.118C40.5907 101.579 39.9345 101.369 39.3977 101.639L27.1995 108.017C26.6626 108.287 26.4538 108.975 26.7223 109.514C26.9012 109.844 27.2293 110.053 27.5872 110.113Z" fill="#D5B513"/>
<path d="M50.0451 174.289C50.0451 174.289 65.4942 175.936 65.8222 179.32C66.1503 182.674 67.9398 190.49 66.1503 190.28C64.3907 190.071 63.824 184.171 63.824 184.171C63.824 184.171 63.5556 192.257 62.5415 192.736C61.5275 193.215 60.8714 192.017 60.8714 192.017C60.8714 192.017 59.8573 192.975 58.7538 192.975C57.6503 192.975 56.1591 186.417 56.1591 186.417C56.1591 186.417 40.0836 187.166 41.9924 178.631C43.9012 170.096 50.0451 174.289 50.0451 174.289Z" fill="#FF867A"/>
<path d="M61.9149 87.5937C61.6166 87.4739 61.378 87.2343 61.2587 86.9349C61.0201 86.306 61.3184 85.5873 61.9447 85.3477C74.1728 80.4664 85.3868 73.4589 85.5061 73.399C86.0728 73.0397 86.8184 73.2193 87.1763 73.7883C87.5342 74.3573 87.3552 75.106 86.7886 75.4653C86.6693 75.5252 75.2763 82.6525 62.8394 87.6236C62.5412 87.7135 62.1833 87.7135 61.9149 87.5937Z" fill="#D5B513"/>
<path d="M62.0343 136.436C61.5869 136.347 61.229 135.957 61.1694 135.448C61.1396 134.849 61.5869 134.34 62.1834 134.28L81.3308 132.873C81.9273 132.843 82.4343 133.292 82.4939 133.891C82.5238 134.49 82.0764 134.999 81.4799 135.059L62.3325 136.466C62.2431 136.466 62.1238 136.466 62.0343 136.436Z" fill="#D5B513"/>
<path d="M142.62 144.372C142.56 144.372 142.501 144.342 142.441 144.312L128.394 138.563C127.827 138.323 127.589 137.694 127.797 137.155C128.036 136.586 128.662 136.347 129.199 136.556L143.246 142.306C143.813 142.545 144.052 143.174 143.843 143.713C143.634 144.222 143.127 144.462 142.62 144.372Z" fill="#D5B513"/>
<path d="M114.406 15.8119C114.406 15.8119 116.047 22.5499 117.21 25.2451C118.343 27.9403 120.133 28.5691 121.833 27.3713C123.562 26.2034 128.543 12.0087 126.276 11.4098C123.98 10.8109 115.42 13.8055 114.406 15.8119Z" fill="#7F635D"/>
<path d="M125.024 43.213C120.401 44.7103 113.542 38.7509 113.87 36.7445L119.775 20.9627L119.984 20.4536L120.163 20.6033L125.829 25.3049L125.233 36.6846C125.203 36.6547 126.157 42.8237 125.024 43.213Z" fill="#FF867A"/>
<path d="M121.386 25.5444C121.386 25.5444 120.73 28.5391 122.131 31.4439C122.758 32.7615 124.1 33.3006 125.352 33.5402L125.651 27.6706L121.386 25.5444Z" fill="#C66C67"/>
<path d="M118.522 43.5423C118.522 43.5423 118.164 45.6985 119.178 46.8065C119.178 46.8065 109.217 118.469 110.738 118.978C112.259 119.517 117.717 120.146 118.492 119.157C119.268 118.169 122.638 47.4054 122.638 47.4054C122.638 47.4054 124.04 45.8782 123.712 44.5306C123.384 43.183 122.668 42.2546 121.385 42.1348C120.103 42.075 118.582 42.7937 118.522 43.5423Z" fill="#ED6966"/>
<path d="M132.54 26.1733C132.48 27.1016 132.301 27.8503 131.914 28.4492C131.794 28.6289 131.645 28.7786 131.496 28.9284C131.407 29.0182 131.317 29.0781 131.198 29.1679C130.243 29.8567 127.44 30.8749 122.817 29.0182C122.638 28.9583 122.489 28.8385 122.34 28.7487C120.401 27.5808 118.284 24.107 118.194 22.1305C118.194 21.861 118.194 21.5915 118.254 21.3219L118.403 19.4653L118.672 19.1957C120.252 17.5187 120.491 14.6439 120.491 14.6439C120.759 11.4995 124.129 10.5113 125.472 10.1818C130.124 8.98398 129.379 11.1701 130.422 13.6556C130.75 14.4642 131.198 17.6685 131.198 17.6685C131.198 17.6685 132.898 20.6931 132.54 26.1733Z" fill="#FF867A"/>
<path d="M123.145 16.8898C124.07 16.2609 124.905 15.7818 126.068 16.1112C126.396 16.201 126.367 16.6502 125.919 16.7101C124.726 16.8898 124.338 16.9198 123.324 17.4289C122.877 17.6385 122.609 17.2492 123.145 16.8898Z" fill="#7F635D"/>
<path d="M131.049 15.4823C130.512 15.2427 129.945 15.3924 129.468 15.5422C129.14 15.632 129.021 16.0213 129.468 16.0513C130.691 16.1411 130.631 16.0213 131.228 16.1411C131.645 16.2609 131.645 15.7518 131.049 15.4823Z" fill="#7F635D"/>
<path d="M125.889 18.5668C125.889 18.8962 125.74 19.1358 125.531 19.1657C125.322 19.1657 125.144 18.9261 125.144 18.5967C125.144 18.2673 125.293 18.0277 125.501 17.9978C125.71 17.9978 125.889 18.2673 125.889 18.5668Z" fill="#434A59"/>
<path d="M131.138 17.5788C131.138 17.9082 130.989 18.1477 130.78 18.1777C130.572 18.1777 130.393 17.9381 130.393 17.6087C130.393 17.2793 130.542 17.0397 130.75 17.0098C130.929 17.0098 131.108 17.2493 131.138 17.5788Z" fill="#434A59"/>
<path d="M131.317 21.4417C131.317 21.4417 128.723 22.3999 126.188 22.3999C126.188 22.3999 127.231 24.3165 129.438 24.1368C131.645 23.9871 131.317 21.4417 131.317 21.4417Z" fill="white"/>
<path d="M127.976 21.2919C127.947 21.3518 128.096 21.4417 128.334 21.4716C128.573 21.5015 128.931 21.4417 129.289 21.1721C129.289 21.1721 129.289 21.1721 129.319 21.1422C129.527 20.9625 129.676 20.7828 129.766 20.6032C129.885 20.3336 129.915 20.0941 129.885 19.9743C129.855 19.9144 129.855 19.8545 129.796 19.8545C129.766 19.8545 129.766 19.8545 129.736 19.8545C129.676 19.9144 129.587 20.0641 129.438 20.2438C129.319 20.3935 129.199 20.5133 129.05 20.663C129.02 20.693 129.02 20.693 128.99 20.7229C128.752 20.9326 128.483 21.0224 128.275 21.1122C128.126 21.2021 128.006 21.232 127.976 21.2919Z" fill="#C66C67"/>
<path d="M118.821 18.8363C118.493 17.908 117.747 16.6203 116.643 17.8182C115.033 19.5251 116.643 24.0171 119.059 23.538C120.849 23.2085 119 19.3155 118.821 18.8363Z" fill="#FF867A"/>
<path d="M119.297 14.6439C119.297 14.6439 129.885 13.1466 130.81 11.0503C131.734 8.95405 131.346 6.4086 128.99 5.42036C126.634 4.43212 120.669 7.54656 118.85 7.99576C117.001 8.44496 116.017 7.90592 115.659 8.71448C115.301 9.52303 116.464 10.3016 116.464 10.3016C116.464 10.3016 113.81 10.7508 113.631 12.8471C113.452 14.9434 114.138 17.1594 115.39 16.8C116.613 16.4706 119.297 14.6439 119.297 14.6439Z" fill="#7F635D"/>
<path d="M122.041 39.739C122.041 39.739 114.943 35.0374 114.675 34.678C114.406 34.3187 112.617 35.1272 111.99 36.3251C111.364 37.523 110.141 39.6192 110.738 40.3679C111.364 41.1166 114.734 47.3155 115.45 46.7465C116.166 46.1775 120.938 42.4641 121.564 43.093C122.19 43.7219 126.217 48.4534 126.873 47.4353C127.261 46.8064 127.469 43.8716 127.439 41.2663C127.41 39.5593 127.529 37.9722 126.694 37.4631C125.471 36.7144 122.041 39.739 122.041 39.739Z" fill="white"/>
<path d="M198.422 95.9187C198.72 96.0385 199.048 95.9786 199.287 95.7391C199.615 95.4096 199.585 94.9005 199.287 94.6011C184.882 80.1968 172.832 65.8225 172.713 65.6727C172.415 65.3433 171.908 65.2834 171.58 65.5829C171.252 65.8824 171.192 66.3915 171.49 66.7209C171.61 66.8706 183.689 81.3048 198.153 95.7391C198.243 95.8289 198.332 95.8888 198.422 95.9187Z" fill="#D5B513"/>
<path d="M257.922 76.6031C257.833 75.1357 242.891 48.3935 234.42 48.7529C225.95 49.0823 246.589 113.946 260.517 109.395C274.415 104.843 257.922 76.6031 257.922 76.6031Z" fill="#F27C79"/>
<path d="M271.373 20.7229C271.373 20.7229 271.999 12.4277 281.543 15.1529C289.148 17.309 291.296 34.9176 297.41 38.6309C308.743 45.4587 314.619 51.8673 314.589 62.0192C314.559 68.3978 303.524 92.3251 280.648 81.7539C275.996 79.5978 264.483 65.2833 264.812 57.4972C265.169 49.1122 265.348 41.9251 266.213 36.6545C267.257 30.3058 266.601 18.5069 271.373 20.7229Z" fill="#F2C3A7"/>
<path d="M311.488 104.633C311.219 101.908 310.981 99.2427 310.742 96.6074C308.774 73.7582 307.67 54.4128 295.412 46.2074C288.165 41.3561 269.644 42.3144 264.991 48.8128C264.991 48.8128 250.765 66.6609 252.614 76.8128C253.986 84.3892 257.386 92.7144 258.967 100.53C259.504 103.196 259.832 105.801 259.802 108.287C259.802 108.466 259.772 108.706 259.772 109.005C267.974 108.676 297.381 107.298 311.488 104.633Z" fill="#7F635D"/>
<path d="M277.756 31.9827L281.484 43.1228C282.08 44.9495 279.098 51.1484 275.459 49.741C274.386 49.3217 274.684 46.4468 274.893 44.2607L273.998 33.9591L277.756 31.9827Z" fill="#FF867A"/>
<path d="M299.259 64.7144C299.259 64.7144 302.003 81.3347 297.589 92.6245C293.175 103.944 282.915 107.029 276.89 105.531C270.836 104.034 269.345 98.3443 271.313 92.325C273.252 86.3058 299.259 64.7144 299.259 64.7144Z" fill="#604843"/>
<path d="M280.023 25.5743L280.59 29.8866C281.067 33.4801 278.711 36.9539 275.132 37.5229C271.851 38.032 268.719 36.0555 268.332 31.893C268.153 30.0662 268.898 28.3892 269.495 26.9817C270.091 25.5443 270.509 24.3764 271.016 23.5379C272.149 21.6213 273.79 21.3817 275.639 21.771C277.428 22.0705 279.516 23.0288 280.023 25.5743Z" fill="#FF867A"/>
<path d="M280.888 29.078C281.156 28.7786 281.395 28.4791 281.604 28.1197C282.021 27.4909 282.767 26.6224 283.423 27.7005C284.377 29.2577 282.021 32.5818 280.261 31.8331C278.979 31.2641 280.202 29.7967 280.888 29.078Z" fill="#FF867A"/>
<path d="M269.256 31.7134C269.256 31.7134 269.524 33.3305 270.986 33.8695C271.97 34.2289 273.103 33.6 273.7 32.492C273.73 32.462 272.387 32.3722 269.256 31.7134Z" fill="white"/>
<path d="M271.254 31.1143C270.807 30.7549 270.718 30.2758 270.747 30.0063C270.747 29.8865 270.867 29.7966 270.986 29.7966C271.105 29.7966 271.195 29.9164 271.195 30.0362C271.195 30.0961 271.165 30.725 272.06 30.9945C272.179 31.0244 272.239 31.1442 272.209 31.264C272.179 31.3838 272.06 31.4437 271.94 31.4137C271.642 31.3539 271.433 31.2341 271.254 31.1143Z" fill="#C66C67"/>
<path d="M274.982 37.433C274.923 37.3731 274.863 37.3132 274.863 37.2234C274.833 37.0437 274.982 36.864 275.161 36.864C276.414 36.7143 277.577 36.1752 278.621 35.2768C278.77 35.1571 278.979 35.1571 279.098 35.3068C279.218 35.4565 279.218 35.6661 279.068 35.7859C277.965 36.7742 276.623 37.3731 275.251 37.5528C275.132 37.5228 275.042 37.4929 274.982 37.433Z" fill="#C66C67"/>
<path d="M274.326 27.7604C274.266 27.7305 274.087 27.6706 273.938 27.8503C273.819 28 273.759 28.2096 273.729 28.4192C273.729 28.6588 273.938 28.8086 274.147 28.7786C274.475 28.7187 274.744 27.9102 274.326 27.7604Z" fill="#434A59"/>
<path d="M270.359 27.0417C270.3 27.0117 270.121 26.9518 269.971 27.1315C269.852 27.2812 269.793 27.4909 269.763 27.7005C269.763 27.9401 269.971 28.0898 270.18 28.0599C270.478 28 270.747 27.1914 270.359 27.0417Z" fill="#434A59"/>
<path d="M274.504 25.4245C275.011 25.6341 275.548 25.9336 275.966 26.3229C276.174 26.5025 275.876 26.802 275.697 26.6223C275.339 26.2929 274.862 26.0234 274.415 25.8437C274.176 25.7239 274.266 25.3346 274.504 25.4245Z" fill="#F2C3A7"/>
<path d="M270.061 24.7058C270.419 24.7058 270.747 24.7058 271.105 24.7358C271.374 24.7657 271.374 25.155 271.105 25.1251C270.747 25.0951 270.419 25.0951 270.061 25.0951C269.793 25.0951 269.823 24.7058 270.061 24.7058Z" fill="#F2C3A7"/>
<path d="M318.794 128.92C315.334 122.391 312.74 116.073 311.994 109.604C311.815 107.927 311.636 106.28 311.457 104.633C297.38 107.298 267.973 108.676 259.741 109.005C259.503 112.03 258.31 120.954 257.027 130.986C279.605 136.736 308.027 131.375 318.794 128.92Z" fill="#FF867A"/>
<path d="M285.54 52.5261C285.54 52.5261 287.569 47.4951 294.369 47.4951C301.169 47.4951 301.109 64.385 299.2 74.1176C296.993 85.2577 288.076 105.651 278.174 101.908C258.639 94.571 285.54 52.5261 285.54 52.5261Z" fill="#FF867A"/>
<path d="M356.462 263.679C356.462 263.679 356.612 171.444 340.298 149.882C327.384 133.442 316.885 125.057 316.378 124.128C306.834 127.812 279.605 136.766 257.027 131.016C255.417 143.713 253.657 158.207 253.627 164.826C253.568 174.588 248.468 239.931 255.924 289.044C265.498 352.201 282.11 398.618 282.11 398.618L292.489 398.079L293.473 282.965L297.469 183.153C307.013 203.127 313.933 272.693 318.347 280.06C323.775 289.163 352.257 384.902 355.717 383.645C359.176 382.417 368.512 378.614 371.226 377.236C373.94 375.889 369.168 280.15 356.462 263.679Z" fill="#FFE9D4"/>
<path d="M284.556 35.9357C284.556 35.9357 284.884 33.4202 285.182 32.7015C285.451 31.9828 284.049 31.9229 283.602 33.3004C283.124 34.678 284.198 36.1454 284.556 35.9357Z" fill="#FF867A"/>
<path d="M278.651 26.2331L284.347 27.4609C284.705 27.5507 284.944 27.8801 284.854 28.2395L282.438 39.6192C282.349 39.9785 282.021 40.2181 281.663 40.1282L275.966 38.9004C275.608 38.8106 275.37 38.4812 275.459 38.1218L277.875 26.7421C277.965 26.3828 278.293 26.1732 278.651 26.2331Z" fill="#CE4949"/>
<path d="M279.247 26.3529L284.944 27.5807C285.302 27.6706 285.54 28 285.451 28.3593L283.035 39.739C282.945 40.0984 282.617 40.338 282.26 40.2481L276.563 39.0203C276.205 38.9305 275.967 38.6011 276.056 38.2417L278.472 26.862C278.531 26.5027 278.889 26.293 279.247 26.3529Z" fill="#FF5F4A"/>
<path d="M280.797 30.1559C280.738 30.4853 280.917 30.7848 281.245 30.8447C281.573 30.9046 281.871 30.7249 281.931 30.3955C281.99 30.0661 281.812 29.7666 281.483 29.7067C281.185 29.6468 280.887 29.8265 280.797 30.1559Z" fill="#434A59"/>
<path d="M279.426 26.7721L280.411 26.9817C280.679 27.0416 280.828 27.3111 280.798 27.5507L280.769 27.7004C280.709 27.9699 280.44 28.1197 280.202 28.0897L279.218 27.8801C278.949 27.8202 278.8 27.5507 278.83 27.3111L278.86 27.1614C278.919 26.8919 279.158 26.7421 279.426 26.7721Z" fill="white"/>
<path d="M279.068 27.2813C279.038 27.461 279.128 27.6107 279.307 27.6706C279.486 27.7005 279.635 27.6107 279.694 27.431C279.724 27.2513 279.635 27.1016 279.456 27.0417C279.277 26.9818 279.098 27.1016 279.068 27.2813Z" fill="#434A59"/>
<path d="M283.96 38.3314C283.96 38.3314 284.825 35.8758 284.855 35.217C284.855 34.5582 283.304 30.9047 283.065 30.9646C282.439 31.1742 283.423 33.8694 283.423 33.8694C283.423 33.8694 282.17 31.4138 281.783 31.4737C281.395 31.5336 281.365 31.7432 281.365 31.7432C281.365 31.7432 281.037 31.6234 280.769 31.9828C280.619 32.1924 281.126 34.4384 281.126 34.4384C281.126 34.4384 280.798 33.5101 280.411 33.0309C280.023 32.5518 280.47 34.3486 280.53 35.1571C280.619 35.9657 279.904 37.5229 279.993 39.0502C280.083 40.6074 281.395 40.1881 281.872 40.1881C282.319 40.1582 283.572 39.4395 283.96 38.3314Z" fill="#FF867A"/>
<path d="M283.81 40.6373C283.81 40.6373 291.982 90.2587 286.315 98.2844C280.828 106.071 270.18 99.1828 269.524 94.5411C267.317 79.2983 277.249 40.6074 280.35 37.8823C283.422 35.1871 283.81 40.6373 283.81 40.6373Z" fill="#FF867A"/>
<path d="M284.168 100.979C283.929 100.979 283.721 100.83 283.661 100.59C283.571 100.321 283.75 100.021 284.019 99.9314C284.019 99.9314 286.017 99.1228 287.777 92.7143C289.656 85.9763 285.838 56.2394 285.779 55.9399C285.749 55.6405 285.957 55.3709 286.226 55.341C286.524 55.311 286.793 55.5207 286.822 55.7902C286.972 57.018 290.7 86.0362 288.791 92.9838C286.852 99.9913 284.556 100.86 284.317 100.92C284.257 100.979 284.198 100.979 284.168 100.979Z" fill="#C66C67"/>
<path d="M237.552 48.8726C237.552 48.8726 236.27 46.6865 235.017 45.6384C233.765 44.5903 232.93 43.7218 232.244 42.2844C231.289 40.1881 230.484 40.9368 230.752 42.0748C231.17 43.7518 232.542 46.7165 232.214 47.0459C231.886 47.3753 224.937 45.0994 224.101 46.447C223.594 47.2555 228.426 47.7347 229.142 48.3336C229.887 48.9026 223.475 48.5432 223.505 49.5315C223.594 51.3881 226.428 53.6341 228.635 54.8919C230.812 56.1496 236.896 55.2812 237.851 53.8138C238.805 52.3464 238.596 49.771 237.552 48.8726Z" fill="#F27C79"/>
<path d="M297.5 184.111C297.053 184.111 296.635 183.782 296.575 183.303C296.546 183.183 294.756 171.204 291.893 167.671C287.21 161.891 274.416 163.418 274.296 163.448C273.789 163.508 273.312 163.149 273.253 162.61C273.193 162.1 273.551 161.621 274.088 161.561C274.654 161.502 288.046 159.884 293.384 166.473C296.575 170.396 298.395 182.524 298.454 183.033C298.544 183.542 298.186 184.051 297.649 184.111C297.589 184.081 297.56 184.111 297.5 184.111Z" fill="#F2C3A7"/>
</g>
<defs>
<clipPath id="clip0_19_7812">
<rect width="391" height="280" fill="white"/>
</clipPath>
</defs>
</svg>
