<svg width="464" height="227" viewBox="0 0 464 227" fill="none" xmlns="http://www.w3.org/2000/svg">
<g clip-path="url(#clip0_15_2822)">
<path d="M408.672 23.2272L393.287 43.238C393.287 43.238 393.48 20.0552 391.524 17.5649C389.567 15.0747 381.267 16.7497 380.393 17.5501C379.504 18.3506 371.396 58.2238 380.141 65.4128C387.211 71.2234 398.445 64.4049 402.358 60.1359C404.922 57.3641 416.646 41.311 416.661 37.5905C416.705 27.4073 410.599 23.0642 408.672 23.2272Z" fill="#F2C3A7"/>
<path d="M402.906 222.475C404.789 221.689 405.115 220.059 405.989 218.517C406.049 218.413 406.478 216.19 406.493 216.012C406.552 215.241 408.879 213.225 409.813 214.826C411.666 217.984 414.497 213.166 414.304 214.485C413.726 218.399 414.838 224.624 413.355 225.039C410.199 225.929 395.659 226.907 395.481 225.38C395.348 224.461 399.646 223.839 402.906 222.475Z" fill="#404859"/>
<path d="M456.56 222.549C454.677 221.749 454.366 220.118 453.492 218.576C453.432 218.473 453.003 216.249 453.003 216.071C452.958 215.301 450.616 213.27 449.683 214.871C447.815 218.028 444.999 213.211 445.192 214.515C445.755 218.428 444.628 224.654 446.111 225.069C449.268 225.973 463.792 226.981 463.985 225.454C464.104 224.55 459.806 223.928 456.56 222.549Z" fill="#404859"/>
<path d="M447.785 89.9001C447.415 89.2331 405.678 80.2505 402.906 89.6926C402.906 89.6926 398.682 116.151 399.868 144.314C401.306 178.333 400.98 215.241 402.417 216.279C405.041 218.176 420.277 216.19 421.67 213.226C424.131 207.963 419.936 147.59 419.936 147.59C419.936 147.59 423.182 115.38 422.96 110.771C423.73 114.995 438.226 212.099 440.286 214.663C442.346 217.242 460.917 217.939 463.318 216.22C464.726 215.212 457.019 175.679 454.129 140.431C451.713 111.141 449.712 93.3538 447.785 89.9001Z" fill="#84C0CE"/>
<path d="M400.787 98.5269C400.787 89.1738 402.491 75.6406 402.195 68.3033C401.128 42.1263 399.038 36.7456 402.136 29.6603C404.952 23.2273 407.086 22.4713 415.831 21.6412C425.316 20.737 434.031 19.7884 440.286 27.5259C447.667 36.6715 449.594 71.1344 451.313 96.2738C451.772 103.003 400.787 98.8678 400.787 98.5269Z" fill="#FFE9D4"/>
<path d="M381.979 17.3426C381.742 15.7418 382.809 12.2584 385.788 10.7613C388.782 9.26422 391.642 10.702 389.197 13.0144C386.751 15.3267 387.27 18.395 386.025 19.0621C384.78 19.7291 382.216 18.9435 381.979 17.3426Z" fill="#F27C79"/>
<path d="M423.034 56.9935C418.202 59.0835 405.678 61.6775 401.928 62.4335C402.017 64.2715 402.121 66.2281 402.195 68.3181C402.269 70.1413 402.225 72.3351 402.106 74.7512C407.56 75.9815 421.27 75.9222 428.725 68.4367C438.196 58.9057 440.656 45.6245 440.656 45.6245C440.656 45.6245 428.755 54.5181 423.034 56.9935Z" fill="#F2C3A7"/>
<path d="M416.142 157.61C416.083 157.61 416.008 157.596 415.949 157.566C415.682 157.462 415.549 157.151 415.653 156.884L419.432 147.412C419.536 147.146 419.847 147.012 420.114 147.116C420.381 147.22 420.514 147.531 420.41 147.798L416.631 157.27C416.557 157.492 416.349 157.61 416.142 157.61Z" fill="#66A3AD"/>
<path d="M388.041 21.2559L404.967 21.6116C405.248 21.6116 405.471 21.3893 405.485 21.1225L405.708 10.3167C405.708 10.035 405.5 9.81271 405.219 9.81271L388.278 9.44214C387.996 9.44214 387.774 9.64966 387.774 9.93129L387.552 20.7519C387.537 21.0187 387.759 21.2559 388.041 21.2559Z" fill="#434A59"/>
<path d="M389.315 10.954L391.731 10.9985L391.776 8.93814C391.776 8.87885 391.731 8.83439 391.672 8.83439L389.463 8.78992C389.404 8.78992 389.36 8.83439 389.36 8.89368L389.315 10.954Z" fill="#434A59"/>
<path d="M393.865 6.13664L398.208 6.22557C398.919 6.2404 399.483 6.83331 399.468 7.5448L399.394 11.1764L392.472 11.0282L392.546 7.39657C392.561 6.68508 393.154 6.12182 393.865 6.13664Z" fill="#434A59"/>
<path d="M393.287 7.41137C393.287 7.11491 393.539 6.87775 393.851 6.87775L398.193 6.96668C398.49 6.96668 398.727 7.21867 398.727 7.52995L398.697 8.70095L393.258 8.58236L393.287 7.41137Z" fill="#5CBEC6"/>
<path d="M394.918 11.5766C396.4 11.6063 397.571 13.7111 397.541 15.5936C397.511 17.4761 396.266 19.5216 394.784 19.492L389.123 19.7143L389.226 11.2061L394.918 11.5766Z" fill="#363B44"/>
<path d="M391.932 15.4871C391.955 13.5308 390.726 11.9304 389.187 11.9126C387.648 11.8948 386.383 13.4663 386.36 15.4227C386.337 17.379 387.566 18.9794 389.105 18.9972C390.644 19.015 391.91 17.4435 391.932 15.4871Z" fill="#5CBEC6"/>
<path d="M389.063 19.7143C390.916 19.7588 392.457 17.8763 392.502 15.5343C392.546 13.1923 391.079 11.2357 389.226 11.206C387.374 11.1616 385.832 13.0441 385.788 15.3861C385.743 17.7281 387.211 19.6698 389.063 19.7143ZM386.351 15.4009C386.381 13.4443 387.67 11.8879 389.211 11.9175C390.753 11.9472 391.968 13.5629 391.939 15.5195C391.909 17.4761 390.62 19.0325 389.078 19.0028C387.537 18.9732 386.321 17.3575 386.351 15.4009Z" fill="#5A667A"/>
<path d="M409.517 18.5581C409.517 18.5581 409.235 13.3257 407.738 11.9472C406.241 10.5687 403.04 9.11602 402.832 9.57552C402.654 9.97574 404.611 10.7169 404.611 10.7169C404.611 10.7169 402.61 10.0943 402.032 10.6131C401.439 11.1319 401.913 11.3246 401.913 11.3246C401.913 11.3246 400.476 11.3839 401.083 12.718C402.047 14.8524 404.077 16.0975 404.181 16.2458C404.3 16.4088 404.477 20.2479 406.552 20.8853C408.613 21.5375 409.472 20.2479 409.517 18.5581Z" fill="#FF867A"/>
<path d="M433.424 26.2511L413.192 48.2332C413.192 48.2332 414.171 23.1383 412.214 20.6481C410.258 18.1579 401.958 19.8328 401.083 20.6333C400.194 21.4337 392.087 61.3069 400.831 68.496C407.901 74.3065 417.861 69.2519 422.619 65.9464C425.894 63.6637 440.805 49.5525 442.45 40.9997C443.991 32.9954 435.914 22.9011 433.424 26.2511Z" fill="#FFE9D4"/>
<path d="M413.178 60.1804C413.533 60.1804 413.83 59.8988 413.83 59.543L413.845 48.2481C413.845 47.8923 413.563 47.5959 413.207 47.5959C412.852 47.5959 412.555 47.8775 412.555 48.2333L412.54 59.5282C412.54 59.8988 412.822 60.1804 413.178 60.1804Z" fill="#F2C3A7"/>
<path d="M389.908 59.8692C390.145 59.8692 390.368 59.7506 390.486 59.5282C394.073 52.7542 393.954 43.6086 393.94 43.2232C393.94 42.8675 393.643 42.5858 393.287 42.5858C392.932 42.5858 392.65 42.8823 392.65 43.238C392.65 43.327 392.769 52.443 389.345 58.9057C389.182 59.217 389.3 59.6172 389.612 59.7802C389.701 59.8543 389.804 59.8692 389.908 59.8692Z" fill="#CE9D84"/>
<path d="M447.548 19.2844C448.497 19.8922 449.475 20.7667 450.246 22.0563C452.306 25.51 457.153 35.4561 458.086 39.4582L456.263 39.8881C455.389 36.1824 450.676 26.429 448.63 23.0198C447.415 21.0039 445.577 20.2627 444.48 19.9959C445.473 19.7291 446.511 19.4919 447.548 19.2844Z" fill="white"/>
<path d="M412.466 4.68402C412.881 2.4606 415.119 -0.874521 417.891 0.207541C421.211 1.49712 421.789 3.49819 421.789 3.49819C421.789 3.49819 421.907 3.54266 422.085 3.60195C422.693 3.57231 424.131 3.55749 424.872 4.20969C425.82 5.05458 426.176 6.25523 425.687 6.01806C425.183 5.7809 424.872 4.936 424.427 4.8026C424.338 4.77295 424.264 4.77295 424.175 4.77295C424.368 4.95083 424.501 5.14352 424.56 5.35104C425.968 10.6428 423.879 11.0578 423.701 12.1399C423.508 13.2664 422.293 14.6894 421.952 14.7635C421.403 14.8673 416.246 9.60517 415.831 9.73858C415.416 9.87198 414.971 8.43418 414.778 7.51516C414.615 6.59615 412.14 6.49239 412.466 4.68402Z" fill="#7F635D"/>
<path d="M418.839 26.177C423.167 26.7403 425.064 22.8271 424.886 21.6116L423.093 12.6735L419.729 15.2082L419.091 21.078C419.091 21.0928 417.431 25.9991 418.839 26.177Z" fill="#FF867A"/>
<path d="M422.856 9.5755C423.063 8.9233 423.538 8.01911 424.338 8.80472C425.509 9.96089 424.486 13.1033 422.797 12.8365C421.552 12.6438 422.752 9.91642 422.856 9.5755Z" fill="#FF867A"/>
<path d="M423.093 14.2002L419.684 15.6676L419.314 19.0917C419.847 18.8694 420.573 18.484 421.27 17.8318C422.619 16.5718 423.093 14.2002 423.093 14.2002Z" fill="#C66C67"/>
<path d="M414.497 16.5867C414.497 16.5867 414.497 16.6015 414.497 16.5867C414.6 16.7201 414.689 16.8387 414.808 16.9128C416.972 18.4395 420.04 17.3278 421.359 16.4977C422.871 15.5343 424.071 13.6073 423.716 12.1398L423.567 11.7396L421.907 7.4262C421.018 5.30654 419.684 5.0842 417.728 4.80257C415.727 4.52094 415.564 5.63264 415.015 7.14457C414.482 8.5972 413.874 12.0361 414.022 15.0155C414.052 15.6825 414.2 16.2013 414.497 16.5867Z" fill="#FF867A"/>
<path d="M416.972 11.9471C416.987 11.9916 416.883 12.0657 416.72 12.0657C416.542 12.0805 416.305 12.0509 416.053 11.8878L416.038 11.873C415.89 11.7693 415.786 11.6359 415.727 11.5173C415.623 11.3394 415.608 11.1615 415.623 11.0726C415.638 11.0133 415.653 10.9985 415.682 10.9985C415.697 10.9985 415.712 10.9985 415.727 11.0133C415.771 11.0429 415.845 11.1615 415.934 11.2801C416.008 11.369 416.097 11.4728 416.216 11.5617C416.231 11.5766 416.246 11.5766 416.26 11.5914C416.438 11.7248 416.631 11.7841 416.779 11.8285C416.868 11.873 416.957 11.9027 416.972 11.9471Z" fill="#C66C67"/>
<path d="M419.625 8.12289C418.988 7.79679 418.424 7.5448 417.713 7.88573C417.505 7.98949 417.565 8.27112 417.846 8.27112C418.632 8.28594 418.884 8.27112 419.566 8.49346C419.847 8.61204 419.995 8.31559 419.625 8.12289Z" fill="#7F635D"/>
<path d="M414.719 7.66337C415.09 7.52996 415.475 7.64854 415.816 7.76712C416.038 7.84124 416.112 8.10805 415.801 8.12287C414.956 8.15252 414.986 8.04876 414.571 8.12287C414.274 8.16734 414.289 7.81159 414.719 7.66337Z" fill="#7F635D"/>
<path d="M418.098 9.9164C418.083 10.1536 418.172 10.3463 418.321 10.3611C418.454 10.3759 418.587 10.198 418.602 9.96087C418.617 9.7237 418.528 9.53101 418.38 9.51618C418.246 9.50136 418.113 9.67923 418.098 9.9164Z" fill="#434A59"/>
<path d="M414.838 9.70891C414.852 9.94608 414.971 10.124 415.104 10.124C415.238 10.124 415.342 9.93125 415.342 9.69409C415.327 9.45693 415.208 9.27905 415.075 9.27905C414.941 9.29388 414.838 9.48657 414.838 9.70891Z" fill="#434A59"/>
<path d="M418.602 13.0144C418.602 13.0144 418.439 14.6004 416.898 14.6153C415.015 14.6301 414.823 12.7921 414.823 12.7921L418.602 13.0144Z" fill="white"/>
<path d="M419.818 24.3686C419.818 24.3686 424.383 20.989 424.664 20.5295C424.931 20.07 425.583 21.7598 425.968 22.4416C426.369 23.1235 423.256 29.2008 422.811 28.8599C422.382 28.519 419.951 26.0436 419.388 26.3548C418.825 26.6661 417.165 27.8519 416.942 27.3924C416.72 26.9329 418.009 21.5967 418.869 21.3447C419.284 21.2262 419.165 22.1896 419.299 22.9456C419.447 23.7757 419.818 24.3686 419.818 24.3686Z" fill="white"/>
</g>
<g clip-path="url(#clip1_15_2822)">
<path d="M73.5161 21.5859C77.9535 19.9306 85.3714 32.6437 86.8947 46.1515C88.418 59.6592 96.3657 69.3927 103.452 66.6779C107.89 64.9564 129.15 57.9376 130.475 65.3537C131.865 73.5642 108.685 97.6001 80.4703 78.4641C64.31 67.4725 61.8595 25.8236 73.5161 21.5859Z" fill="#AD263D"/>
<path d="M73.5163 21.5859C77.9537 19.9306 85.3716 32.6437 86.8949 46.1515C87.7559 53.5013 90.4713 59.7916 93.9815 63.4997C92.4582 67.009 88.5506 73.6305 79.7419 77.8682C64.244 66.1482 62.0583 25.7574 73.5163 21.5859Z" fill="#311E69"/>
<path d="M84.7091 82.437C83.9143 77.6695 79.808 69.3927 80.0067 60.1227C80.2716 42.9732 84.0468 23.0426 72.1253 19.6657C60.27 16.355 28.2143 22.7115 30.7973 41.4502C31.7907 48.8 35.301 51.6473 35.5659 60.3213C35.7646 66.4131 34.1751 83.9599 34.0426 85.6153C33.579 92.8326 43.7785 89.9854 50.9977 90.0516C69.476 90.1178 85.9675 89.7206 84.7091 82.437Z" fill="#614CD4"/>
<path d="M97.6241 134.813C97.2929 131.436 96.4982 127.066 95.4385 122.232C92.2594 107.93 86.7622 89.853 84.7753 83.364C84.7753 83.0329 84.7753 82.7681 84.7091 82.437C83.9143 77.6696 79.808 69.3928 80.0067 60.1227C80.0729 56.2161 80.3379 52.177 80.5366 48.2042C79.7418 45.1583 78.8808 41.9138 78.2847 39.4639C77.1588 34.8951 72.2577 24.698 69.476 19.136C67.3566 18.8712 64.9061 18.7387 62.1906 18.8712L70.5357 37.7423L59.8063 38.6693L46.7589 21.9832C44.6395 22.7778 42.5864 23.7048 40.6657 24.7643C44.2421 29.8628 55.0377 45.6218 54.5741 50.1244C54.1767 54.3621 40.5994 68.7306 34.9036 74.5575C34.5062 79.9209 32.5855 94.157 32.5855 94.9515C28.6779 115.544 26.4923 149.115 26.4923 149.115C26.4923 149.115 5.29846 189.373 4.9673 196.723C4.83484 199.239 10.332 208.575 20.9951 206.655C30.3999 204.934 47.0238 173.217 52.256 156.067C54.6403 148.188 58.2168 131.369 61.3296 115.809C64.1113 121.967 66.6943 126.734 67.4229 128.191C70.4695 134.415 76.364 145.937 75.6355 148.122C72.3902 157.855 72.059 193.942 75.8342 209.039C76.4303 211.489 80.9339 217.25 90.5374 212.35C99.0149 208.112 99.2136 151.83 97.6241 134.813Z" fill="#FFD140"/>
<path d="M97.6241 134.813C97.2929 131.436 96.4982 127.066 95.4385 122.232C92.2594 107.93 86.7622 89.853 84.7753 83.364C84.7753 83.0329 84.7753 82.7681 84.7091 82.437C83.9143 77.6696 79.808 69.3928 80.0067 60.1228C80.0729 56.2161 80.3379 52.177 80.5366 48.2042C79.7418 45.1583 78.8808 41.9138 78.2847 39.4639C77.1588 34.8951 72.2577 24.698 69.476 19.136C67.3566 18.8712 64.9061 18.7387 62.1906 18.8712L70.5357 37.7423L63.5153 38.3382C64.3763 40.126 65.3035 41.7814 66.2969 43.1056C72.3239 51.5149 77.2912 82.6357 80.1392 97.269C82.9871 111.902 86.9609 145.076 88.9479 157.061C90.3387 165.602 80.3379 187.453 74.3109 200.762C74.7082 203.94 75.1719 206.854 75.7679 209.171C76.364 211.621 80.8677 217.382 90.4712 212.482C99.0149 208.112 99.2136 151.83 97.6241 134.813Z" fill="#F4A53B"/>
<path d="M40.467 32.9086C52.1236 36.6828 55.0377 69.1279 62.9854 73.7629C68.5488 77.0074 96.6969 64.5591 103.055 69.79C109.413 75.021 79.3444 94.2894 59.8726 91.7732C40.2683 89.3895 29.274 45.688 30.5986 39.1327C31.9232 32.5113 36.4269 31.6505 40.467 32.9086Z" fill="#FF6161"/>
<path d="M84.6429 83.0329C85.3052 85.0856 86.3649 88.5287 87.557 92.7002C80.6028 94.157 62.9192 97.2028 58.0181 91.5084C53.382 86.145 74.1784 83.8275 84.6429 83.0329Z" fill="#311E69"/>
<path d="M34.3075 58.5336L52.9846 73.6967C52.9846 73.6967 52.1898 80.4505 56.8922 83.1653C61.5946 85.8801 63.714 85.8801 68.5488 84.4896C73.3174 83.0991 79.3444 79.987 84.7753 78.7952C90.2725 77.5371 100.075 70.7832 102.459 73.8291C102.591 74.0277 102.724 74.2264 102.79 74.425C97.6903 81.9735 75.3706 93.8259 59.8063 91.8394C47.7523 90.3165 38.9437 73.0345 34.3075 58.5336Z" fill="#AD263D"/>
<path d="M30.5986 39.1327C31.9232 32.5113 36.4269 31.6505 40.4007 32.9748C49.3419 35.8882 53.117 55.6201 57.9519 66.7442C56.6273 71.1143 51.1964 77.1398 41.1955 78.7952C32.5193 64.5591 29.7376 43.4367 30.5986 39.1327Z" fill="#614CD4"/>
<path d="M41.2617 78.729C32.5193 64.5591 29.7376 43.4367 30.5986 39.1327C31.5921 34.1666 34.3737 32.4451 37.4204 32.4451C37.5528 34.2991 37.6191 36.9476 37.1554 39.3976C36.3607 43.834 35.6321 44.9596 39.3411 50.1905C43.05 55.4215 45.3018 58.3349 45.3018 62.2416C45.3018 66.1482 51.5275 68.863 52.6534 72.571C52.7859 72.9021 52.8521 73.2994 52.9846 73.6967C50.2029 75.948 46.2953 77.9344 41.2617 78.729Z" fill="#311E69"/>
<path d="M104.181 64.8902C104.181 64.8902 98.75 66.8766 99.2136 69.9887C99.6772 73.1007 102.724 72.571 104.313 71.8427C105.903 71.1805 106.367 64.8239 104.181 64.8902Z" fill="#FF6161"/>
<path d="M79.9405 216.918C80.4703 216.256 81.0002 210.628 81.1989 210.032C81.8612 207.98 83.5832 206.721 85.7688 206.126C87.0934 205.794 93.1204 204.867 93.9814 205.927C94.7099 206.92 90.8023 212.747 91.9282 214.601C92.4581 215.396 101.465 219.898 101.465 223.739C101.465 225.526 81.7949 225.526 78.5496 223.672C76.8939 222.745 78.2847 219.104 79.9405 216.918Z" fill="#1E1240"/>
<path d="M61.727 4.10532C61.727 4.10532 61.3296 -1.39047 56.4286 0.331102C51.5937 2.05268 50.2029 7.94576 53.3157 11.1241C53.3157 11.1241 55.1702 9.13762 56.8922 8.1444C56.8922 8.1444 59.4752 7.28362 60.2037 6.55526C61.992 4.83368 61.727 4.10532 61.727 4.10532Z" fill="#614CD4"/>
<path d="M55.104 8.54167C55.104 8.54167 60.7998 0.198655 66.1645 1.19187C70.4033 1.98644 64.9061 6.3566 64.31 7.15117C63.6477 7.94574 55.7663 9.6011 55.104 8.54167Z" fill="#FFCBCA"/>
<path d="M62.588 9.33625C62.588 9.33625 65.8333 6.15795 65.3035 4.50259C64.0451 0.927015 57.8857 5.76067 57.8857 5.76067C57.8857 5.76067 53.8456 8.6741 53.4482 9.99839C51.5937 15.759 55.7 16.2225 59.0116 15.6266C62.2569 14.9645 62.588 9.33625 62.588 9.33625Z" fill="#311E69"/>
<path d="M54.3754 12.647L51.9249 22.844C51.9911 23.5061 55.104 24.1683 57.5545 24.0359C60.2037 23.9034 62.1907 22.9102 61.7933 22.1818L57.3558 14.3685L54.3754 12.647Z" fill="#FF6161"/>
<path d="M58.2168 15.9577C56.6273 15.8253 54.3754 15.5604 54.3754 15.5604C54.3754 15.5604 54.7066 18.0766 57.0909 19.7981C58.3493 20.7252 59.7401 21.0562 61.0647 21.0562L58.2168 15.9577Z" fill="#311E69"/>
<path d="M56.2299 8.80652L54.5079 14.5672C54.1105 16.4874 55.3027 18.4076 57.2233 18.9373C58.7467 19.3346 59.7401 19.3346 61.727 19.0035C63.3828 18.8049 64.1776 17.2158 64.1113 15.0307C64.0451 12.2497 63.1841 9.73352 62.6543 8.40924C61.3959 5.29716 57.6207 5.09852 56.2299 8.80652Z" fill="#FF6161"/>
<path d="M58.6142 6.22416C58.6142 6.22416 55.8987 8.07816 57.687 10.8592C58.548 12.2497 57.0909 13.0442 56.3623 11.5875C55.6338 10.1308 55.104 8.47545 55.8325 7.8133C57.7532 6.02551 58.6142 6.22416 58.6142 6.22416Z" fill="#311E69"/>
<path d="M56.3623 11.6537C56.2961 11.3227 56.2299 10.9254 56.2299 10.5281C56.2299 9.79973 56.0312 8.7403 54.9715 9.33623C53.4482 10.1308 53.7794 13.905 55.5013 14.1699C56.826 14.3023 56.561 12.5145 56.3623 11.6537Z" fill="#FF6161"/>
<path d="M60.005 12.8456C60.005 12.8456 61.3959 13.1767 63.2503 12.8456C63.2503 12.8456 63.3166 14.1037 62.588 14.5672C61.8595 15.0307 60.5349 14.3685 60.005 12.8456Z" fill="white"/>
<path d="M62.1244 16.8185C60.27 16.4874 58.9453 19.3346 55.6338 16.7523C55.0377 16.2888 54.7066 15.0969 54.5079 14.4348V14.5672C54.1105 16.4874 55.3027 18.4076 57.2233 18.9373C58.7467 19.3346 59.7401 19.3346 61.727 19.0035C62.7205 18.8711 63.3828 18.209 63.7802 17.282C63.3828 17.282 62.6543 16.9509 62.1244 16.8185Z" fill="#AD263D"/>
<path d="M154.318 207.185L154.185 206.788L156.702 206.126C156.901 206.059 157.099 205.993 157.298 205.993H157.364C158.093 205.861 158.821 205.728 159.55 205.794C164.981 205.861 169.418 210.297 169.352 215.727C169.352 220.097 166.438 223.805 162.464 225.063C162.133 225.195 161.735 225.261 161.404 225.328L159.748 225.725L159.682 225.46C159.616 225.46 159.55 225.46 159.417 225.46C153.986 225.394 149.549 220.958 149.615 215.528C149.615 212.019 151.47 208.907 154.318 207.185Z" fill="#311E69"/>
<path d="M165.604 220.364C167.804 215.379 165.545 209.555 160.558 207.355C155.572 205.156 149.747 207.415 147.547 212.4C145.347 217.385 147.606 223.209 152.593 225.408C157.579 227.607 163.404 225.349 165.604 220.364Z" fill="#1E1240"/>
<path d="M158.56 219.835C160.464 218.742 161.121 216.314 160.028 214.411C158.935 212.509 156.506 211.852 154.603 212.945C152.699 214.037 152.042 216.466 153.135 218.368C154.228 220.271 156.657 220.928 158.56 219.835Z" fill="#EAE8FF"/>
<path d="M376.124 214.866H165.511V213.012C165.511 208.642 169.087 205.066 173.458 205.066H368.177C372.548 205.066 376.124 208.642 376.124 213.012V214.866Z" fill="#C63F20"/>
<path d="M133.587 158.848C132.329 158.848 131.203 157.988 131.004 156.663L114.182 66.6779C113.917 65.2212 114.844 63.8969 116.301 63.6321C117.758 63.3672 119.083 64.2942 119.348 65.7509L136.17 155.736C136.435 157.193 135.508 158.517 134.051 158.782C133.919 158.848 133.72 158.848 133.587 158.848Z" fill="#311E69"/>
<path d="M119.48 94.7529C114.712 94.7529 108.552 91.3097 103.055 77.4709C101.929 74.6899 102.062 71.644 103.452 68.9955C104.777 66.3469 107.228 64.4267 110.075 63.6983L120.606 61.1159C123.851 60.3214 127.097 61.0497 129.68 63.2348C132.197 65.3537 133.521 68.4657 133.322 71.7765C132.925 77.206 132.064 81.7748 130.739 85.2842C128.753 90.5814 125.64 93.6934 121.6 94.5542C120.871 94.6867 120.209 94.7529 119.48 94.7529ZM111.334 68.863C109.943 69.1941 108.751 70.1211 108.089 71.4454C107.426 72.7035 107.36 74.2264 107.89 75.5507C109.612 79.8546 114.049 89.4557 119.48 89.4557C119.811 89.4557 120.076 89.4557 120.407 89.3895C124.448 88.5287 127.229 81.9735 127.958 71.4454C128.09 69.8562 127.428 68.3333 126.17 67.2739C124.911 66.2144 123.322 65.8834 121.798 66.2807L111.334 68.863Z" fill="#311E69"/>
<path d="M128.951 126.933L127.097 127.132C123.785 127.529 121.401 130.509 121.798 133.819L123.851 151.697C124.249 155.008 127.229 157.392 130.541 156.994L132.395 156.796C135.707 156.398 138.091 153.419 137.694 150.108L135.641 132.23C135.243 128.92 132.263 126.536 128.951 126.933Z" fill="#311E69"/>
<path d="M151.271 207.715H113.122V202.418C113.122 189.771 123.388 179.441 136.104 179.441H151.337V207.715H151.271Z" fill="#311E69"/>
<path d="M126.17 153.949C122.063 153.949 118.752 157.259 118.752 161.365V185.268H145.708V153.882H126.17V153.949Z" fill="#311E69"/>
<path d="M139.018 207.185L138.886 206.788L141.403 206.125C141.601 206.059 141.8 205.993 141.999 205.993H142.065C142.793 205.861 143.522 205.728 144.25 205.794C149.681 205.861 154.119 210.297 154.053 215.727C154.053 220.097 151.138 223.805 147.165 225.063C146.833 225.195 146.436 225.261 146.105 225.328L144.449 225.725L144.383 225.46C144.317 225.46 144.25 225.46 144.118 225.46C138.687 225.394 134.25 220.958 134.316 215.528C134.316 212.019 136.237 208.906 139.018 207.185Z" fill="#311E69"/>
<path d="M148.315 223.341C152.169 219.488 152.169 213.241 148.315 209.388C144.462 205.535 138.213 205.535 134.36 209.388C130.506 213.241 130.506 219.488 134.36 223.341C138.213 227.194 144.462 227.194 148.315 223.341Z" fill="#1E1240"/>
<path d="M137.362 216.323C137.362 218.508 139.084 220.295 141.336 220.295C143.522 220.295 145.31 218.574 145.31 216.323C145.31 214.137 143.588 212.35 141.336 212.35C139.151 212.416 137.362 214.137 137.362 216.323Z" fill="#EAE8FF"/>
<path d="M299.561 207.185L299.429 206.788L301.946 206.126C302.144 206.059 302.343 205.993 302.542 205.993H302.608C303.337 205.861 304.065 205.728 304.794 205.794C310.225 205.861 314.662 210.297 314.596 215.727C314.596 220.097 311.682 223.805 307.708 225.063C307.377 225.195 306.979 225.261 306.648 225.328L304.992 225.725L304.926 225.46C304.86 225.46 304.794 225.46 304.661 225.46C299.23 225.394 294.793 220.958 294.859 215.528C294.925 212.019 296.78 208.907 299.561 207.185Z" fill="#311E69"/>
<path d="M310.863 220.469C313.132 215.515 310.955 209.66 306 207.391C301.044 205.122 295.187 207.299 292.918 212.253C290.649 217.207 292.826 223.062 297.781 225.331C302.736 227.6 308.593 225.423 310.863 220.469Z" fill="#1E1240"/>
<path d="M303.771 219.879C305.704 218.84 306.428 216.431 305.389 214.499C304.35 212.566 301.94 211.842 300.007 212.881C298.074 213.92 297.35 216.329 298.389 218.261C299.428 220.194 301.837 220.918 303.771 219.879Z" fill="#EAE8FF"/>
<path d="M284.328 207.185L284.196 206.788L286.713 206.126C286.911 206.059 287.11 205.993 287.309 205.993H287.375C288.104 205.861 288.832 205.728 289.561 205.794C294.992 205.861 299.429 210.297 299.363 215.727C299.363 220.097 296.449 223.805 292.475 225.063C292.144 225.195 291.746 225.261 291.415 225.328L289.759 225.725L289.693 225.46C289.627 225.46 289.561 225.46 289.428 225.46C283.997 225.394 279.56 220.958 279.626 215.528C279.626 212.019 281.547 208.907 284.328 207.185Z" fill="#311E69"/>
<path d="M293.848 223.119C297.577 219.145 297.378 212.902 293.403 209.173C289.428 205.445 283.183 205.645 279.454 209.618C275.725 213.592 275.924 219.836 279.899 223.564C283.874 227.292 290.119 227.093 293.848 223.119Z" fill="#1E1240"/>
<path d="M282.673 216.323C282.673 218.508 284.395 220.295 286.647 220.295C288.832 220.295 290.62 218.574 290.62 216.323C290.62 214.137 288.898 212.35 286.647 212.35C284.461 212.416 282.673 214.137 282.673 216.323Z" fill="#EAE8FF"/>
<path d="M145.112 142.692H167.961C174.054 142.692 179.618 146.069 182.466 151.432L210.879 205.066H126.633L128.753 158.385C129.084 149.645 136.303 142.692 145.112 142.692Z" fill="#F46822"/>
<path d="M153.589 142.692H176.439C182.532 142.692 188.095 146.069 190.943 151.432L219.356 205.066H135.111L137.23 158.385C137.561 149.645 144.78 142.692 153.589 142.692Z" fill="#C63F20"/>
<path d="M273.665 136.004H237.768V196.524H273.665V136.004Z" fill="#EDAEAE"/>
<path d="M237.768 136.004H177.233V196.524H237.768V136.004Z" fill="#FFCBCA"/>
<path d="M212.137 136.004H202.931V151.366H212.137V136.004Z" fill="#DE9999"/>
<path d="M260.353 136.004H251.147V151.366H260.353V136.004Z" fill="#C77D7D"/>
<path d="M229.821 182.487L227.834 186.394H228.363V193.148H231.211V186.394H231.741L229.821 182.487Z" fill="#311E69"/>
<path d="M225.383 182.487L223.462 186.394H223.992V193.148H226.84V186.394H227.37L225.383 182.487Z" fill="#311E69"/>
<path d="M241.212 186.592H240.616V193.081H241.212V186.592Z" fill="#311E69"/>
<path d="M251.147 186.592H250.551V193.081H251.147V186.592Z" fill="#311E69"/>
<path d="M242.537 188.314H241.941V193.148H242.537V188.314Z" fill="#311E69"/>
<path d="M243.663 188.314H242.736V193.148H243.663V188.314Z" fill="#311E69"/>
<path d="M246.908 188.314H246.312V193.148H246.908V188.314Z" fill="#311E69"/>
<path d="M248.034 188.314H247.107V193.148H248.034V188.314Z" fill="#311E69"/>
<path d="M244.656 187.784H244.06V193.081H244.656V187.784Z" fill="#311E69"/>
<path d="M245.848 188.314H244.921V193.148H245.848V188.314Z" fill="#311E69"/>
<path d="M248.961 188.314H248.365V193.148H248.961V188.314Z" fill="#311E69"/>
<path d="M250.153 188.314H249.226V193.148H250.153V188.314Z" fill="#311E69"/>
<path d="M273.665 75.6831H237.768V136.203H273.665V75.6831Z" fill="#EDAEAE"/>
<path d="M237.768 75.6831H177.233V136.203H237.768V75.6831Z" fill="#FFCBCA"/>
<path d="M212.137 75.6831H202.931V91.0449H212.137V75.6831Z" fill="#DE9999"/>
<path d="M260.353 75.6831H251.147V91.0449H260.353V75.6831Z" fill="#C77D7D"/>
<path d="M229.821 122.166L227.834 126.072H228.364V132.826H231.211V126.072H231.741L229.821 122.166Z" fill="#311E69"/>
<path d="M225.383 122.166L223.462 126.072H223.992V132.826H226.84V126.072H227.37L225.383 122.166Z" fill="#311E69"/>
<path d="M241.212 126.271H240.616V132.76H241.212V126.271Z" fill="#311E69"/>
<path d="M251.147 126.271H250.551V132.76H251.147V126.271Z" fill="#311E69"/>
<path d="M242.537 127.993H241.941V132.826H242.537V127.993Z" fill="#311E69"/>
<path d="M243.663 127.993H242.736V132.826H243.663V127.993Z" fill="#311E69"/>
<path d="M246.908 127.993H246.312V132.826H246.908V127.993Z" fill="#311E69"/>
<path d="M248.034 127.993H247.107V132.826H248.034V127.993Z" fill="#311E69"/>
<path d="M244.656 127.463H244.06V132.76H244.656V127.463Z" fill="#311E69"/>
<path d="M245.848 127.993H244.921V132.826H245.848V127.993Z" fill="#311E69"/>
<path d="M248.961 127.993H248.365V132.826H248.961V127.993Z" fill="#311E69"/>
<path d="M250.153 127.993H249.226V132.826H250.153V127.993Z" fill="#311E69"/>
<path d="M177.233 136.269V136.865L237.768 138.123L273.732 137.064V136.269H177.233Z" fill="#311E69"/>
<path d="M355.99 136.004H320.093V196.524H355.99V136.004Z" fill="#EDAEAE"/>
<path d="M320.093 136.004H259.558V196.524H320.093V136.004Z" fill="#FFCBCA"/>
<path d="M294.462 136.004H285.256V151.366H294.462V136.004Z" fill="#DE9999"/>
<path d="M342.678 136.004H333.472V151.366H342.678V136.004Z" fill="#C77D7D"/>
<path d="M312.079 182.487L310.158 186.394H310.688V193.148H313.536V186.394H314.066L312.079 182.487Z" fill="#311E69"/>
<path d="M307.708 182.487L305.787 186.394H306.317V193.148H309.099V186.394H309.629L307.708 182.487Z" fill="#311E69"/>
<path d="M323.537 186.592H322.941V193.081H323.537V186.592Z" fill="#311E69"/>
<path d="M333.472 186.592H332.876V193.081H333.472V186.592Z" fill="#311E69"/>
<path d="M324.795 188.314H324.199V193.148H324.795V188.314Z" fill="#311E69"/>
<path d="M325.988 188.314H325.06V193.148H325.988V188.314Z" fill="#311E69"/>
<path d="M329.167 188.314H328.571V193.148H329.167V188.314Z" fill="#311E69"/>
<path d="M330.359 188.314H329.432V193.148H330.359V188.314Z" fill="#311E69"/>
<path d="M326.981 187.784H326.385V193.081H326.981V187.784Z" fill="#311E69"/>
<path d="M328.107 188.314H327.18V193.148H328.107V188.314Z" fill="#311E69"/>
<path d="M331.286 188.314H330.69V193.148H331.286V188.314Z" fill="#311E69"/>
<path d="M332.412 188.314H331.485V193.148H332.412V188.314Z" fill="#311E69"/>
<path d="M355.99 75.6831H320.093V136.203H355.99V75.6831Z" fill="#EDAEAE"/>
<path d="M320.093 75.6831H259.558V136.203H320.093V75.6831Z" fill="#FFCBCA"/>
<path d="M294.462 75.6831H285.256V91.0449H294.462V75.6831Z" fill="#DE9999"/>
<path d="M342.678 75.6831H333.472V91.0449H342.678V75.6831Z" fill="#C77D7D"/>
<path d="M312.079 122.166L310.158 126.072H310.688V132.826H313.536V126.072H314.066L312.079 122.166Z" fill="#311E69"/>
<path d="M307.708 122.166L305.787 126.072H306.317V132.826H309.099V126.072H309.629L307.708 122.166Z" fill="#311E69"/>
<path d="M323.537 126.271H322.941V132.76H323.537V126.271Z" fill="#311E69"/>
<path d="M333.472 126.271H332.876V132.76H333.472V126.271Z" fill="#311E69"/>
<path d="M324.795 127.993H324.199V132.826H324.795V127.993Z" fill="#311E69"/>
<path d="M325.988 127.993H325.06V132.826H325.988V127.993Z" fill="#311E69"/>
<path d="M329.167 127.993H328.571V132.826H329.167V127.993Z" fill="#311E69"/>
<path d="M330.359 127.993H329.432V132.826H330.359V127.993Z" fill="#311E69"/>
<path d="M326.981 127.463H326.385V132.76H326.981V127.463Z" fill="#311E69"/>
<path d="M328.107 127.993H327.18V132.826H328.107V127.993Z" fill="#311E69"/>
<path d="M331.286 127.993H330.69V132.826H331.286V127.993Z" fill="#311E69"/>
<path d="M332.412 127.993H331.485V132.826H332.412V127.993Z" fill="#311E69"/>
<path d="M259.558 136.269V136.865L320.093 138.123L356.056 137.064V136.269H259.558Z" fill="#311E69"/>
<path d="M315.921 214.866H105.307V213.012C105.307 208.642 108.883 205.066 113.255 205.066H307.973C312.344 205.066 315.921 208.642 315.921 213.012V214.866Z" fill="#F46822"/>
<path d="M169.352 193.611V205.066H189.95V199.372H212.468V205.066H221.144V199.372H243.597V205.066H264.261V193.611H169.352Z" fill="#C1762B"/>
<path d="M365.594 193.611H257.505V205.066H365.594V193.611Z" fill="#C1762B"/>
<path d="M162.596 193.611V205.066H183.194V199.372H205.646V205.066H214.389V199.372H236.841V205.066H257.505V193.611H162.596Z" fill="#F4A53B"/>
<path d="M111.003 64.4929C111.533 66.082 111.797 66.2806 111.731 67.2739C111.665 68.6644 110.407 68.6644 110.274 68.3995C109.943 67.8698 109.214 67.009 109.214 67.009C109.214 67.009 108.817 66.8104 109.148 67.7374C109.479 68.6644 110.407 69.4589 107.36 70.9157C106.102 71.5116 104.446 69.1941 104.446 69.1941C104.247 69.79 106.234 70.9157 105.174 71.5116C104.115 72.0413 101.797 69.79 102.062 68.9954C102.062 68.9954 100.207 65.8171 107.492 63.3672C110.009 62.5726 110.075 63.1686 111.003 64.4929Z" fill="#FF6161"/>
<path d="M123.123 59.4606C122.593 61.0497 122.328 61.2484 122.394 62.2416C122.461 63.6321 123.719 63.6321 123.851 63.3672C124.183 62.8375 124.911 61.9767 124.911 61.9767C124.911 61.9767 125.309 61.7781 124.977 62.7051C124.646 63.6321 123.719 64.4267 126.766 65.8834C128.024 66.4793 129.68 64.1618 129.68 64.1618C129.878 64.7577 127.892 65.8834 128.951 66.4793C130.011 67.009 132.329 64.7577 132.064 63.9632C132.064 63.9632 133.919 60.7849 126.633 58.3349C124.183 57.4741 124.05 58.1363 123.123 59.4606Z" fill="#AD263D"/>
<path d="M44.2421 149.909C34.9036 176.726 31.3271 177.587 26.3598 182.156C23.4457 184.871 16.2928 182.752 9.53722 183.745C6.88799 189.704 5.03353 194.67 4.9673 196.856C4.83484 199.372 10.332 208.708 20.9951 206.788C30.3999 205.066 47.0238 173.349 52.256 156.2C54.6403 148.32 58.2168 131.502 61.3296 115.941C61.2634 115.941 53.5807 123.093 44.2421 149.909Z" fill="#F4A53B"/>
<path d="M4.56992 206.655C5.29846 206.324 8.4113 201.491 8.80869 201.093C10.332 199.57 12.4514 199.239 14.637 199.703C16.0278 199.968 21.7899 201.888 22.0548 203.212C22.2535 204.404 16.0941 207.847 16.2928 210.032C16.359 210.959 22.386 219.037 20.664 222.481C19.8692 224.07 2.31808 215.131 0.264924 212.019C-0.860998 210.496 2.11938 207.847 4.56992 206.655Z" fill="#1E1240"/>
</g>
<defs>
<clipPath id="clip0_15_2822">
<rect width="87.8757" height="226.255" fill="white" transform="translate(376.124)"/>
</clipPath>
<clipPath id="clip1_15_2822">
<rect width="376.124" height="226.255" fill="white"/>
</clipPath>
</defs>
</svg>
