<svg width="335" height="250" viewBox="0 0 335 250" fill="none" xmlns="http://www.w3.org/2000/svg">
<g clip-path="url(#clip0_15_2433)">
<path d="M191.733 39.6331C191.733 39.6331 115.494 151.059 123.345 158.721C125.047 160.329 128.169 164.302 134.506 158.721C158.721 137.533 208.759 70.3746 208.097 64.5101C207.246 57.2267 191.733 39.6331 191.733 39.6331Z" fill="#F89874"/>
<path d="M323.118 168.559C323.118 168.559 326.712 167.14 330.685 171.585C334.752 176.031 335.414 193.53 333.144 199.111C330.874 204.597 323.591 206.3 320.753 206.016C316.118 205.448 316.496 201.57 317.159 200.719C317.915 199.773 322.077 198.354 322.739 198.07C323.401 197.787 327.942 195.327 327.374 190.976C326.996 186.625 331.252 173.193 323.118 168.559Z" fill="white"/>
<path d="M187.098 220.299C187.098 220.299 192.963 230.042 191.638 233.163C192.49 234.014 193.908 234.771 196.084 234.582C198.543 234.393 203.273 233.447 207.151 232.123C205.543 227.961 204.975 218.407 204.597 216.042L187.098 220.299Z" fill="white"/>
<path d="M195.895 242.054C188.517 243.284 180.098 243.473 175.936 243.473C175.842 243.946 175.842 244.419 175.936 244.987C176.126 247.635 203.367 245.46 207.718 242.527C208.854 241.771 209.327 240.257 209.232 238.555C205.827 239.784 201.097 241.203 195.895 242.054Z" fill="white"/>
<path d="M195.895 242.055C201.097 241.203 205.827 239.784 209.232 238.649C209.137 237.041 208.57 235.149 207.719 233.447C207.529 233.069 207.34 232.596 207.151 232.123C203.178 233.352 198.543 234.393 196.084 234.582C193.908 234.771 192.49 234.014 191.638 233.163C191.638 233.258 191.544 233.258 191.544 233.352C190.882 234.582 188.801 235.622 185.963 237.041C181.896 239.595 176.504 238.838 175.936 243.473C180.098 243.473 188.517 243.284 195.895 242.055Z" fill="#1E1240"/>
<path d="M210.556 8.70226C210.556 8.70226 206.962 1.70264 214.245 0.189207C221.339 -1.32422 227.488 4.91868 225.974 11.067C225.974 11.067 222.191 10.0265 219.353 10.0265C219.353 10.0265 215.569 10.7832 214.151 10.4995C210.745 9.83733 210.556 8.70226 210.556 8.70226Z" fill="#614CD4"/>
<path d="M221.812 9.2698C221.812 9.2698 208.759 3.21608 202.989 8.4185C198.449 12.5804 208.381 13.8101 209.61 14.283C210.935 14.8506 221.718 11.067 221.812 9.2698Z" fill="#FFCBCA"/>
<path d="M161.937 84.6576C177.45 60.4427 191.733 39.6331 191.733 39.6331C191.733 39.6331 207.246 57.2267 208.191 64.6047C208.475 67.1586 200.341 82.8605 187.382 100.17C181.328 99.5082 166.477 95.8192 161.937 84.6576Z" fill="#311E69"/>
<path d="M317.821 178.112C317.821 178.112 317.253 168.653 323.118 168.558C328.982 168.464 331.252 173.855 330.969 179.531C330.685 185.206 332.671 194.287 330.401 198.543C328.131 202.8 320.942 205.165 318.577 203.651C316.213 202.043 317.253 197.03 319.996 195.516L317.821 178.112Z" fill="#1E1240"/>
<path d="M230.704 106.319C230.704 106.319 282.35 114.737 278.566 132.142C271.472 164.491 193.625 140.087 192.584 144.438C191.165 150.303 200.813 150.208 208.191 176.22C209.421 180.666 218.029 223.042 212.448 228.528C209.894 231.082 202.611 231.082 197.124 229.663C194.476 229.001 188.706 227.109 187.287 224.745C179.815 211.975 156.167 169.504 155.505 138.952C154.938 115.305 186.247 95.5354 230.704 106.319Z" fill="#F4A53B"/>
<path d="M223.799 107.359C223.799 107.359 230.609 155.411 234.676 189.179C239.406 228.244 250.851 239.406 262.864 238.555C280.552 237.325 311.294 210.083 320.185 195.517C329.077 180.95 323.685 169.599 317.348 170.639C312.429 171.491 284.714 185.585 273.742 193.341C273.742 193.341 298.146 139.425 296.16 119.277C290.863 68.1045 223.799 107.359 223.799 107.359Z" fill="#FFD140"/>
<path d="M283.958 44.2679C282.823 37.8358 280.174 24.3095 256.716 21.661C233.258 19.0125 209.043 13.9993 195.516 32.0658C181.99 50.1324 204.124 62.902 214.151 87.5899C218.596 98.6568 214.718 115.399 228.15 118.615C241.582 121.831 276.39 126.939 290.579 108.21C295.876 101.211 285.849 54.5781 283.958 44.2679Z" fill="#614CD4"/>
<path d="M258.702 79.9282C251.04 63.848 259.932 30.1741 262.107 22.6069C260.499 22.2286 258.702 21.9448 256.716 21.7556C254.446 21.4719 252.27 21.1881 250 20.9989C246.216 26.7689 241.676 43.7004 241.676 43.7004C232.974 45.5922 213.299 43.5112 213.299 43.5112C209.989 36.417 217.461 22.2286 218.975 19.5801C215.38 20.053 211.975 20.8097 208.854 22.0394C205.543 26.1068 201.476 32.3497 201.854 39.0655C202.421 50.3217 215.664 79.4552 217.083 86.3603C217.934 90.2384 217.177 94.022 216.421 96.6705C217.84 106.224 218.123 116.345 228.244 118.71C241.676 121.926 276.485 127.034 290.673 108.305C292.471 105.94 292.471 99.1298 291.714 90.7114C284.147 92.2248 265.513 94.3058 258.702 79.9282Z" fill="#FFD140"/>
<path d="M213.299 15.7019C213.299 15.7019 206.962 14.1885 206.489 11.7292C205.354 6.43214 216.421 7.75639 216.421 7.75639C216.421 7.75639 223.515 8.32393 225.028 9.64818C231.555 15.3236 226.826 18.918 222.38 20.6206C217.745 22.3232 213.299 15.7019 213.299 15.7019Z" fill="#311E69"/>
<path d="M225.785 13.7155L236.285 24.3095C236.757 25.1608 233.352 28.2823 230.325 29.8903C226.92 31.6875 223.799 31.9713 223.799 30.7416L223.42 17.972L225.785 13.7155Z" fill="#FF8659"/>
<path d="M223.515 20.6206C225.407 19.2963 227.866 17.4045 227.866 17.4045C227.866 17.4045 229.285 20.7152 227.677 24.5933C226.826 26.5797 225.407 28.0932 223.799 29.039L223.515 20.6206Z" fill="#311E69"/>
<path d="M220.677 10.4049L227.015 16.0803C229.001 18.1612 228.907 21.3773 226.92 23.3637C225.312 24.9717 224.082 25.6338 221.529 26.7689C219.353 27.7148 217.272 26.3905 215.664 23.742C213.678 20.3368 212.826 16.5532 212.543 14.5668C211.786 10.0265 216.232 6.99967 220.677 10.4049Z" fill="#FFA785"/>
<path d="M215.853 8.98609C215.853 8.98609 220.488 9.26985 220.488 13.9993C220.488 16.3641 222.853 16.2695 222.664 13.9047C222.474 11.6346 221.907 9.17527 220.583 8.8915C216.705 8.13478 215.853 8.98609 215.853 8.98609Z" fill="#311E69"/>
<path d="M222.569 13.9047C222.38 13.4318 222.191 12.9588 221.907 12.4859C221.434 11.6346 220.866 10.2157 222.569 10.1211C225.028 9.93195 227.393 14.756 225.407 16.364C223.988 17.4991 222.947 15.229 222.569 13.9047Z" fill="#F89874"/>
<path d="M218.975 18.1613C218.975 18.1613 217.556 19.4855 215.002 20.6206C215.002 20.6206 215.853 22.2286 217.083 22.2286C218.313 22.134 219.448 20.3368 218.975 18.1613Z" fill="white"/>
<path d="M219.353 24.4987C221.339 22.7961 225.028 25.1608 227.204 19.6746C227.582 18.6342 227.204 16.9316 226.826 15.9857L227.015 16.0802C229.001 18.1612 228.907 21.3773 226.92 23.3636C225.312 24.9717 224.082 25.6338 221.529 26.7689C220.204 27.3364 218.88 27.0526 217.745 26.1067C218.123 26.0121 218.785 25.0662 219.353 24.4987Z" fill="#F89874"/>
<path d="M213.241 14.7226C213.331 14.6779 213.555 14.5883 213.734 14.857C213.868 15.0361 214.003 15.3048 214.003 15.5735C214.003 15.8869 213.779 16.066 213.465 16.0213C213.107 15.9765 212.748 14.9465 213.241 14.7226Z" fill="#434A59"/>
<path d="M217.261 13.051C217.351 13.0062 217.575 12.9167 217.754 13.1853C217.888 13.3645 218.022 13.6331 218.022 13.9018C218.022 14.2153 217.798 14.3944 217.485 14.3496C217.127 14.2601 216.723 13.2301 217.261 13.051Z" fill="#434A59"/>
<path d="M226.542 30.8362L233.352 21.3772L231.271 19.2963C231.271 19.2963 234.014 19.7692 236.19 20.6205C238.365 21.5664 238.555 24.7825 238.555 26.1067C238.555 27.431 232.028 35.0927 232.028 35.0927C232.028 35.0927 229.663 33.3901 227.015 33.5793L223.042 37.7412C223.042 37.7412 221.718 29.8903 222.569 28.2823C223.42 26.6742 223.61 26.2959 223.61 26.2959C223.61 26.2959 224.461 30.647 226.542 30.8362Z" fill="#8578FF"/>
<path d="M180.382 136.776H113.224V250H180.382V136.776Z" fill="#EDAEAE"/>
<path d="M113.224 136.776H0V250H113.224V136.776Z" fill="#FFCBCA"/>
<path d="M65.1722 136.776H48.0515V176.126H65.1722V136.776Z" fill="#EDAEAE"/>
<path d="M155.316 136.776H138.195V176.126H155.316V136.776Z" fill="#DD9E9E"/>
<path d="M98.1839 223.704L94.5895 230.893H95.63V243.568H100.832V230.893H101.873L98.1839 223.704Z" fill="#311E69"/>
<path d="M90.0492 223.704L86.3602 230.893H87.4007V243.568H92.6977V230.893H93.6436L90.0492 223.704Z" fill="#311E69"/>
<path d="M147.56 227.204H117.102V244.419H147.56V227.204Z" fill="white"/>
<path d="M121.075 228.339H119.656V243.473H121.075V228.339Z" fill="#311E69"/>
<path d="M144.911 228.339H143.492V243.473H144.911V228.339Z" fill="#311E69"/>
<path d="M124.196 232.217H122.777V243.379H124.196V232.217Z" fill="#311E69"/>
<path d="M126.939 232.217H124.764V243.379H126.939V232.217Z" fill="#311E69"/>
<path d="M134.695 232.217H133.277V243.379H134.695V232.217Z" fill="#311E69"/>
<path d="M137.439 232.217H135.263V243.379H137.439V232.217Z" fill="#311E69"/>
<path d="M129.398 231.082H127.98V243.473H129.398V231.082Z" fill="#311E69"/>
<path d="M132.142 232.217H129.966V243.379H132.142V232.217Z" fill="#311E69"/>
<path d="M139.709 232.217H138.29V243.379H139.709V232.217Z" fill="#311E69"/>
<path d="M142.452 232.217H140.276V243.379H142.452V232.217Z" fill="#311E69"/>
<path d="M296.065 119.277C293.984 98.6569 284.052 93.1707 272.985 93.9274C266.837 104.332 261.54 114.643 261.445 119.561C261.162 131.574 274.593 165.248 266.269 189.274C263.81 196.368 266.932 197.597 273.553 193.246C273.742 193.436 298.146 139.52 296.065 119.277Z" fill="#F4A53B"/>
<path d="M273.742 193.436C274.026 193.246 274.309 193.057 274.688 192.773C274.309 192.963 274.026 193.152 273.742 193.436Z" fill="#F4A53B"/>
<path d="M258.702 79.9281C251.04 63.8479 259.932 30.174 262.107 22.6069C260.499 22.2285 258.702 21.9448 256.716 21.7556C256.148 21.661 255.581 21.661 255.013 21.5664C254.162 25.9175 252.459 36.2278 251.419 48.8082C250.095 65.4559 247.635 85.7927 251.419 100.738C253.027 107.17 255.77 115.021 258.418 121.831C270.81 121.264 283.39 117.953 290.673 108.305C292.471 105.94 292.471 99.1298 291.714 90.7113C284.147 92.2248 265.513 94.3057 258.702 79.9281Z" fill="#F4A53B"/>
<path d="M278.85 120.885C264.661 139.047 245.365 151.722 233.352 158.532C233.258 163.356 233.258 168.369 233.447 173.193C238.271 170.261 245.554 165.532 255.392 158.627C274.782 145.006 278.85 120.885 278.85 120.885Z" fill="#311E69"/>
<path d="M269.675 31.12C285.755 32.1604 291.809 89.1979 278.944 120.885C266.175 152.384 215.38 181.423 201.097 181.612C198.449 181.612 197.314 177.261 198.922 173.855C206.016 158.532 248.487 117.669 251.135 111.237C255.392 100.643 250.378 29.8903 269.675 31.12Z" fill="#FFA785"/>
<path d="M278.661 38.8763C276.012 43.8895 276.296 56.5645 271.945 76.9958C265.229 108.683 270.337 102.346 266.932 117.953C263.526 133.56 260.026 133.182 244.419 144.438C228.812 155.789 209.989 164.775 201.759 173.666C200.057 175.464 198.922 177.072 198.165 178.49C198.543 180.288 199.489 181.612 200.908 181.517C215.191 181.328 265.986 152.194 278.755 120.791C288.971 96.1029 287.457 55.8078 278.661 38.8763Z" fill="#F89874"/>
<path d="M285.187 103.008C290.768 71.5097 283.201 30.7416 269.769 29.8903C255.486 28.9444 251.324 66.9694 251.324 97.1434C256.81 101.116 270.715 103.197 285.187 103.008Z" fill="#614CD4"/>
<path d="M285.187 103.008C290.768 71.5097 283.201 30.7416 269.769 29.8903C268.54 29.7957 267.499 29.9849 266.364 30.4578C268.823 42.0923 271.566 60.1589 267.783 72.361C264.472 82.8604 264.472 93.9274 265.134 101.684C271.093 102.63 278.093 103.103 285.187 103.008Z" fill="#311E69"/>
<path d="M320.091 195.516C327.753 182.936 324.82 172.72 319.712 170.923C311.862 178.869 302.403 194.003 296.16 197.314C287.268 202.138 279.417 205.259 271.945 211.691C264.472 218.123 273.269 228.907 261.445 232.123C256.054 233.636 251.041 232.312 247.068 230.515C251.797 236.757 257.189 238.933 262.675 238.555C280.552 237.325 311.199 210.083 320.091 195.516Z" fill="#F4A53B"/>
<path d="M172.437 170.356L177.544 166.856C181.139 164.397 185.774 164.302 189.463 166.572C194.854 169.883 202.232 174.896 204.881 178.49C209.232 184.355 205.448 187.287 201.665 189.179C197.881 191.071 195.233 180.855 192.3 179.815C189.368 178.774 180.193 176.315 172.153 180.855C164.018 185.49 161.559 177.828 172.437 170.356Z" fill="#614CD4"/>
<path d="M175.653 168.18L159.005 179.436C157.019 180.761 156.546 183.409 157.87 185.395C159.194 187.382 161.843 187.855 163.829 186.531L180.477 175.274C182.463 173.95 182.936 171.302 181.612 169.315C180.288 167.423 177.544 166.856 175.653 168.18Z" fill="#8578FF"/>
<path d="M179.152 173.288L162.505 184.544C161.653 185.112 160.424 184.922 159.856 184.071C159.289 183.22 159.478 181.99 160.329 181.423L176.977 170.167C177.828 169.599 179.058 169.788 179.625 170.639C180.193 171.491 180.004 172.72 179.152 173.288Z" fill="#AD263D"/>
<path d="M203.462 173.572C202.705 171.302 200.435 169.883 198.07 170.261C195.138 170.734 191.355 171.491 189.557 172.531C186.436 174.328 185.49 177.355 185.395 178.774C185.301 180.193 186.814 180.571 188.895 182.842C190.598 184.639 192.679 184.733 195.138 184.166C197.597 183.598 197.219 182.179 198.922 181.99C200.719 181.896 205.448 181.328 204.786 178.396C204.597 177.072 204.03 175.18 203.462 173.572Z" fill="#FF6161"/>
</g>
<defs>
<clipPath id="clip0_15_2433">
<rect width="334.468" height="250" fill="white"/>
</clipPath>
</defs>
</svg>
