<svg width="283" height="250" viewBox="0 0 283 250" fill="none" xmlns="http://www.w3.org/2000/svg">
<g clip-path="url(#clip0_15_2204)">
<path d="M67.1118 229.778L247.684 228.697C251.003 228.697 264.974 230.086 261.809 230.742C258.915 231.398 238.924 231.746 235.605 231.746H61.7475C51.6363 231.746 42.6443 231.283 45.9633 230.742C49.2436 230.241 56.0744 229.778 67.1118 229.778Z" fill="#9DC0C9"/>
<path d="M70.3149 225.803C70.3535 228.659 68.038 230.974 65.2207 230.974C62.3649 231.013 60.0494 228.697 60.0494 225.88C60.0108 223.024 62.3263 220.709 65.1436 220.709C67.9608 220.709 70.2763 222.986 70.3149 225.803Z" fill="#404859"/>
<path d="M51.7907 225.07H161.547V221.056C161.547 220.477 161.084 219.975 160.466 219.975H52.8327C52.2538 219.975 51.7521 220.438 51.7521 221.056V225.07H51.7907Z" fill="#F2A25C"/>
<path d="M178.18 195.894C178.836 195.894 179.415 195.431 179.531 194.775L188.291 147.885C188.446 147.152 187.944 146.419 187.211 146.264C186.477 146.11 185.744 146.612 185.59 147.345L176.829 194.234C176.675 194.968 177.177 195.701 177.91 195.855C177.987 195.894 178.064 195.894 178.18 195.894Z" fill="#404859"/>
<path d="M184.432 162.357C182.309 161.933 180.727 160.312 179.685 157.533C178.99 155.681 178.527 153.327 178.334 150.471C178.219 148.734 178.913 147.113 180.225 145.994C181.538 144.875 183.274 144.489 184.934 144.914L190.414 146.264C191.919 146.65 193.154 147.654 193.887 149.004C194.582 150.394 194.659 151.976 194.08 153.442C191.186 160.659 187.982 162.434 185.513 162.434C185.127 162.473 184.779 162.434 184.432 162.357ZM184.239 147.615C183.429 147.422 182.58 147.615 181.962 148.155C181.306 148.696 180.997 149.467 181.036 150.316C181.422 155.835 182.85 159.231 184.972 159.694C185.127 159.733 185.281 159.733 185.474 159.733C188.291 159.733 190.607 154.716 191.533 152.478C191.803 151.783 191.764 151.011 191.417 150.316C191.07 149.66 190.491 149.159 189.758 149.004L184.239 147.615Z" fill="#404859"/>
<path d="M180.573 179.222L181.538 179.338C183.274 179.531 184.509 181.113 184.316 182.85L183.236 192.15C183.043 193.887 181.46 195.122 179.724 194.929L178.759 194.813C177.022 194.62 175.787 193.038 175.98 191.301L177.061 182.001C177.292 180.264 178.875 179.029 180.573 179.222Z" fill="#404859"/>
<path d="M168.918 221.365H188.793V209.748C188.793 208.05 187.404 206.661 185.705 206.661H168.918V221.365Z" fill="#404859"/>
<path d="M182.001 193.308C184.162 193.308 185.898 195.045 185.898 197.206V213.994L171.851 209.671V193.308H182.001Z" fill="#404859"/>
<path d="M179.261 225.803C179.299 228.659 176.984 230.974 174.166 230.974C171.311 231.013 168.995 228.697 168.995 225.88C168.956 223.024 171.272 220.709 174.089 220.709C176.945 220.709 179.261 222.986 179.261 225.803Z" fill="#404859"/>
<path d="M176.212 225.841C176.212 226.999 175.286 227.925 174.166 227.925C173.009 227.925 172.082 226.999 172.082 225.88C172.082 224.722 173.009 223.796 174.128 223.796C175.247 223.757 176.173 224.684 176.212 225.841Z" fill="#EAE8FF"/>
<path d="M97.2136 225.803C97.2522 228.659 94.9367 230.974 92.1195 230.974C89.2637 231.013 86.9481 228.697 86.9481 225.88C86.9095 223.024 89.2251 220.709 92.0423 220.709C94.8981 220.709 97.2136 222.986 97.2136 225.803Z" fill="#404859"/>
<path d="M94.1649 225.841C94.1649 226.999 93.2387 227.925 92.1195 227.925C90.9617 227.925 90.0355 226.999 90.0355 225.88C90.0355 224.722 90.9617 223.796 92.0809 223.796C93.2001 223.757 94.1263 224.684 94.1649 225.841Z" fill="#EAE8FF"/>
<path d="M172.16 187.481H160.273C157.109 187.481 154.214 189.217 152.709 192.035L137.89 219.975H181.769L180.688 195.662C180.496 191.07 176.713 187.481 172.16 187.481Z" fill="#FFE164"/>
<path d="M167.722 187.481H155.835C152.671 187.481 149.776 189.217 148.271 192.035L133.452 219.975H177.37L176.289 195.662C176.057 191.07 172.314 187.481 167.722 187.481Z" fill="#F2A25C"/>
<path d="M123.842 183.969H105.125V215.537H123.842V183.969Z" fill="#F2A25C"/>
<path d="M155.411 183.969H123.842V215.537H155.411V183.969Z" fill="#FFE164"/>
<path d="M142.019 183.969H137.234V191.957H142.019V183.969Z" fill="#F2A25C"/>
<path d="M123.842 152.555H105.125V184.123H123.842V152.555Z" fill="#F2A25C"/>
<path d="M155.411 152.555H123.842V184.123H155.411V152.555Z" fill="#FFE164"/>
<path d="M142.019 152.555H137.234V160.543H142.019V152.555Z" fill="#F2A25C"/>
<path d="M80.9664 183.969H62.2492V215.537H80.9664V183.969Z" fill="#F2A25C"/>
<path d="M112.535 183.969H80.9664V215.537H112.535V183.969Z" fill="#FFE164"/>
<path d="M99.1433 183.969H94.3578V191.957H99.1433V183.969Z" fill="#F2A25C"/>
<path d="M78.728 162.473H65.9154V184.085H78.728V162.473Z" fill="#F2A25C"/>
<path d="M100.378 162.473H78.7666V184.085H100.378V162.473Z" fill="#FFE164"/>
<path d="M91.1933 162.473H87.9129V167.953H91.1933V162.473Z" fill="#F2A25C"/>
<path d="M83.1661 225.07H192.922V221.056C192.922 220.477 192.459 219.975 191.842 219.975H84.2081C83.6292 219.975 83.1275 220.438 83.1275 221.056V225.07H83.1661Z" fill="#FFE164"/>
<path d="M159.54 213.993V219.975H148.773V216.965H137.079V219.975H132.525V216.965H120.832V219.975H110.065V213.993H159.54Z" fill="#D18D3B"/>
<path d="M57.2561 219.963H113.601V213.981H57.2561V219.963Z" fill="#D18D3B"/>
<path d="M163.052 213.993V219.975H152.323V216.965H140.591V219.975H136.076V216.965H124.344V219.975H113.615V213.993H163.052Z" fill="#FFB864"/>
<path d="M155.411 185.744H123.842C122.955 185.744 122.221 185.011 122.221 184.123C122.221 183.236 122.955 182.502 123.842 182.502H155.411C156.298 182.502 157.031 183.236 157.031 184.123C157.031 185.011 156.298 185.744 155.411 185.744Z" fill="#293347"/>
<path d="M112.535 185.744H80.9664C80.0787 185.744 79.3455 185.011 79.3455 184.123C79.3455 183.236 80.0787 182.502 80.9664 182.502H112.535C113.422 182.502 114.156 183.236 114.156 184.123C114.156 185.011 113.422 185.744 112.535 185.744Z" fill="#293347"/>
<path d="M243.246 96.2488L242.243 96.9435C242.243 96.9435 242.127 97.6767 242.474 98.6029C242.86 99.5291 243.478 100.417 244.134 100.34C244.829 100.224 246.565 97.7153 245.948 97.2136C245.369 96.6733 245.099 95.7471 243.246 96.2488Z" fill="#434A59"/>
<path d="M250.309 112.38C250.309 112.38 263.353 137.427 264.742 140.398C266.016 143.177 279.677 157.456 277.439 160.08C275.162 162.705 263.816 153.249 259.802 147.924C255.789 142.598 246.874 128.666 246.72 120.871C246.681 118.169 249.383 110.142 250.309 112.38Z" fill="#F27872"/>
<path d="M259.609 130.287C255.441 122.221 250.309 112.38 250.309 112.38C249.383 110.142 246.642 118.169 246.72 120.909C246.797 124.73 248.997 130.056 251.659 135.111C253.126 134.957 256.406 134.185 259.609 130.287Z" fill="#4898A0"/>
<path d="M197.245 227.925C196.936 226.845 196.396 226.15 196.318 225.185C196.318 225.108 197.245 221.789 197.283 221.712C197.437 221.287 196.704 219.242 195.817 219.859C194.041 221.094 193.926 218.547 193.694 219.281C193.038 221.442 190.105 226.381 190.8 226.96C191.649 227.616 194.003 228.813 196.357 229.855C198.094 230.627 199.946 230.048 200.139 229.739C199.136 228.195 198.634 229.353 197.245 227.925Z" fill="#404859"/>
<path d="M242.243 227.269C241.047 226.729 240.892 225.648 240.352 224.645C240.313 224.568 240.12 223.101 240.12 222.985C240.12 222.484 238.654 221.133 237.959 222.175C236.608 224.259 235.142 221.017 235.219 221.866C235.451 224.452 234.254 228.62 235.219 228.929C237.265 229.546 246.874 230.241 247.028 229.237C247.183 228.62 244.327 228.195 242.243 227.269Z" fill="#404859"/>
<path d="M205.465 143.486C207.471 138.237 210.79 134.995 210.906 134.609C222.136 138.469 233.637 138.507 236.454 142.058C236.261 142.83 237.303 148.503 237.573 151.243C237.921 154.909 246.141 168.725 247.067 178.141C248.032 187.905 243.632 224.105 243.632 224.105H234.216L232.826 182.001L222.561 158.845C222.561 158.845 216.27 180.65 213.646 188.986C210.79 198.055 199.29 223.757 199.29 223.757L190.144 220.554C190.144 220.554 198.286 192.999 200.178 182.001C202.03 170.886 203.574 148.348 205.465 143.486Z" fill="#54678C"/>
<path d="M237.303 149.274C237.072 147.499 236.724 145.415 236.531 143.91C233.714 142.945 230.125 141.672 229.778 141.363C229.199 140.861 228.852 139.511 227.925 139.279C227.038 139.047 211.215 135.111 211.215 135.111C211.215 135.111 218.2 141.556 224.606 144.566C229.623 146.843 235.142 148.618 237.303 149.274Z" fill="#434A59"/>
<path d="M232.942 103.543C234.409 103.041 238.885 102.848 242.59 104.237C247.144 105.897 250.888 109.602 250.347 114.387C249.421 122.144 239.001 140.9 237.38 146.92C234.409 146.689 231.553 145.878 228.62 144.643C227.848 144.335 229.353 140.553 228.543 140.167C228.118 139.974 225.417 143.177 225.031 142.945C220.786 140.823 215.846 137.62 210.404 134.571C211.562 132.217 212.566 130.171 213.646 127.586C217.968 117.59 224.529 106.36 232.942 103.543Z" fill="#FFE164"/>
<path d="M242.667 104.392C242.667 104.392 240.854 103.466 239.889 103.89C238.924 104.315 239.696 112.187 239.657 113.731C239.58 115.313 239.387 119.404 239.773 119.288C240.159 119.173 244.52 108.753 244.674 107.17C244.751 105.588 242.667 104.392 242.667 104.392Z" fill="#5CBEC6"/>
<path d="M243.709 99.259L240.313 104.083C240.043 104.662 240.198 107.749 243.015 107.749C243.787 107.749 244.211 106.399 244.25 105.665L245.06 101.304L243.709 99.259Z" fill="#FF867A"/>
<path d="M244.636 97.5223L243.439 100.262C243.131 101.189 243.594 102.231 244.52 102.578C245.253 102.848 245.755 102.925 246.72 102.887C247.53 102.887 248.032 102.153 248.148 101.073C248.302 99.6834 248.032 98.4099 247.839 97.7152C247.414 96.133 245.562 95.7856 244.636 97.5223Z" fill="#FF867A"/>
<path d="M247.877 100.224C247.877 100.224 246.951 100.224 245.793 99.8379C245.793 99.8379 245.871 100.533 246.257 100.88C246.681 101.266 247.337 101.073 247.877 100.224Z" fill="white"/>
<path d="M243.941 98.1012C243.864 97.7925 243.709 97.368 243.285 97.6767C242.706 98.1398 243.015 99.6449 243.825 99.6063C244.404 99.5677 243.98 98.2556 243.941 98.1012Z" fill="#FF867A"/>
<path d="M246.913 99.452C247.106 99.4134 247.26 99.3362 247.414 99.2204C247.53 99.1432 247.646 99.3362 247.53 99.4134C247.376 99.5291 247.183 99.6063 246.951 99.6449C246.835 99.6835 246.758 99.452 246.913 99.452Z" fill="#C66C67"/>
<path d="M231.399 109.833C226.382 111.84 211.871 117.899 207.819 122.221C205.735 124.46 190.452 147.306 187.442 145.57C184.432 143.833 197.437 117.59 202.84 113.693C214.688 105.164 230.202 103.466 232.904 103.504C235.644 103.581 233.637 108.946 231.399 109.833Z" fill="#FF867A"/>
<path d="M275.046 159.81C275.239 160.312 275.664 160.891 276.32 161.663C277.593 163.052 281.414 165.059 282.302 163.747C282.881 162.897 279.716 160.505 279.793 160.273C279.87 159.926 280.449 160.852 281.607 160.505C282.456 160.235 281.607 159.694 281.067 159.617C280.797 159.579 278.558 157.881 276.783 157.919C275.432 157.958 274.622 158.73 275.046 159.81Z" fill="#F27872"/>
<path d="M243.825 97.2136L241.934 99.3362L241.394 98.6801L243.131 96.9049L243.825 97.2136Z" fill="#E7F2F2"/>
<path d="M249.112 97.1364C249.112 97.1364 249.074 93.4702 246.218 93.0842C243.902 92.7755 243.015 94.1262 242.359 95.0524C241.626 96.133 241.703 96.9049 241.703 96.9049L243.748 97.4066C243.748 97.4066 247.414 98.0626 248.032 97.9468C248.688 97.8311 249.112 97.1364 249.112 97.1364Z" fill="#FFE164"/>
<path d="M249.112 97.1364C249.112 97.1364 250.617 98.2941 249.575 98.873C248.649 99.4133 244.327 97.7538 244.095 97.6766C243.671 97.5223 242.976 97.3293 243.053 97.2521C243.208 97.0592 247.26 97.5223 247.569 97.5223C248.881 97.5223 249.112 97.1364 249.112 97.1364Z" fill="#F2A25C"/>
<path d="M247.453 95.6313C247.453 95.6313 246.913 94.3577 245.6 93.9332C244.288 93.5087 243.131 93.9718 243.131 93.9718C243.131 93.9718 243.902 93.4701 244.674 93.4701C245.407 93.4315 246.372 93.7788 246.797 94.2034C247.376 94.8208 247.453 95.6313 247.453 95.6313Z" fill="#F2A25C"/>
<path d="M222.522 159.231C222.677 159.231 222.793 159.154 222.87 159.038C224.876 155.372 227.771 153.211 227.809 153.211C227.964 153.095 228.002 152.825 227.887 152.671C227.771 152.516 227.501 152.478 227.346 152.593C227.231 152.671 224.298 154.87 222.214 158.691C222.098 158.884 222.175 159.115 222.368 159.231C222.407 159.231 222.484 159.231 222.522 159.231Z" fill="#434A59"/>
<path d="M224.722 156.067L229.006 155.951C229.237 155.951 229.392 155.758 229.392 155.565C229.392 155.333 229.199 155.179 229.006 155.179L224.722 155.295C224.491 155.295 224.336 155.488 224.336 155.681C224.336 155.874 224.529 156.067 224.722 156.067Z" fill="#434A59"/>
<path d="M245.678 102.964C245.716 102.925 245.755 102.887 245.755 102.848C245.755 102.771 245.716 102.694 245.6 102.694C245.6 102.694 244.906 102.617 244.366 102.192C244.134 101.999 243.941 101.768 243.825 101.459C243.787 101.382 243.709 101.343 243.632 101.382C243.555 101.42 243.516 101.497 243.555 101.575C243.709 101.922 243.941 102.231 244.211 102.424C244.829 102.925 245.6 103.002 245.6 103.002C245.6 103.002 245.639 103.002 245.678 102.964Z" fill="#C66C67"/>
<path d="M219.821 115.699C219.242 116.587 218.702 117.474 218.2 118.401L243.825 131.947C244.327 130.905 244.79 129.824 245.253 128.782L219.821 115.699Z" fill="#CCCCCC"/>
<path d="M241.626 136.732L215.692 123.186C215.229 124.151 214.765 125.116 214.341 126.042L240.159 139.897C240.622 138.893 241.124 137.813 241.626 136.732Z" fill="#CCCCCC"/>
<path d="M232.942 103.543C230.858 103.504 222.522 103.504 211.292 108.83C211.099 110.451 212.102 116.278 214.225 118.555C219.667 116.471 227.424 111.84 231.36 109.872C233.56 108.753 235.644 103.581 232.942 103.543Z" fill="#5CBEC6"/>
<path d="M187.365 142.945C187.365 142.945 185.165 144.528 184.548 145.492C183.93 146.457 183.583 147.692 184.2 148.078C184.818 148.464 184.741 148.194 185.165 148.348C185.59 148.503 186.207 148.618 186.593 148.734C186.979 148.811 188.06 148.966 188.175 148.888C188.291 148.811 188.6 145.84 189.14 145.106C189.719 144.412 188.484 142.096 187.365 142.945Z" fill="#FF867A"/>
<path d="M228.89 140.707C228.736 140.707 228.543 140.668 228.388 140.553C228.041 140.282 227.964 139.781 228.234 139.395C228.273 139.356 231.128 135.536 233.097 132.217C235.065 128.898 238.615 120.485 238.654 120.407C238.847 119.983 239.31 119.79 239.735 119.983C240.159 120.176 240.352 120.639 240.159 121.064C240.005 121.411 236.493 129.67 234.486 133.066C232.479 136.462 229.662 140.244 229.546 140.398C229.392 140.591 229.122 140.707 228.89 140.707Z" fill="#F2A25C"/>
<path d="M33.2664 183.235C34.1927 182.965 36.9713 180.688 35.8521 179.492C35.0031 178.566 39.4798 174.552 37.8203 174.938C32.8805 176.135 25.741 175.517 24.7376 177.177C22.5764 180.688 16.3631 196.473 18.1383 196.473C19.1803 196.434 25.741 185.551 33.2664 183.235Z" fill="#404859"/>
<path d="M102.385 245.678C94.7823 245.716 82.7416 245.639 75.1389 245.601C59.8178 245.562 50.5171 245.137 35.1189 245.639C-9.72522 247.144 0.463112 248.379 2.27694 248.456C34.6172 249.653 60.1652 250.309 92.8913 249.807C97.5996 249.73 110.567 249.768 115.275 249.653C118.208 249.576 127.354 249.846 129.399 248.032C130.094 247.414 116.433 245.6 102.385 245.678Z" fill="#93BDC6"/>
<path d="M128.666 4.09079C128.666 4.09079 125.888 1.77527 123.186 2.70148C120.485 3.62769 119.327 8.52889 119.018 9.9954C118.671 11.4619 121.064 14.4335 122.8 14.7808C124.537 15.0896 132.41 5.67307 128.666 4.09079Z" fill="#5CBEC6"/>
<path d="M131.869 6.75361C131.869 6.75361 135.034 2.81721 134.185 1.15775C133.336 -0.46312 130.48 -0.154382 128.936 0.810422C127.393 1.73663 122.723 10.9216 122.723 10.9216C122.723 10.9216 127.972 6.56065 131.869 6.75361Z" fill="#434A59"/>
<path d="M122.376 242.397C120.33 241.857 120.099 240.12 119.25 238.577C119.211 238.461 118.902 236.107 118.902 235.914C118.902 235.065 116.471 233.251 115.275 235.181C112.959 238.963 110.528 234.023 110.644 235.412C110.952 239.58 108.83 246.758 110.451 246.99C113.885 247.414 130.094 245.986 130.403 244.288C130.634 243.285 125.888 243.324 122.376 242.397Z" fill="#404859"/>
<path d="M146.38 26.4742C163.206 34.8873 159.038 77.2615 159.038 77.2615C159.038 77.2615 199.058 69.6589 196.974 75.1389C190.877 90.9617 148.271 96.712 142.598 86.4078C137.118 76.4125 133.529 20.0679 146.38 26.4742Z" fill="#F27C79"/>
<path d="M146.38 26.4742C137.542 22.0747 137.697 49.8225 140.283 70.9324C148.58 70.971 156.491 69.0414 160.235 67.9994C159.656 53.6431 160.389 33.498 146.38 26.4742Z" fill="#F2F2F2"/>
<path d="M108.251 76.7598C102.539 72.7848 105.395 66.0698 103.002 58.39C100.918 51.5977 95.284 36.1609 111.068 27.0145C122.993 20.1065 143.949 22.8466 150.355 28.2109C161.894 37.8589 145.068 73.5567 145.84 76.837C145.84 76.8756 127.084 80.5033 108.251 76.7598Z" fill="#F0D12E"/>
<path d="M111.647 77.5316C128.936 80.619 146.187 81.0049 146.187 81.0049C146.187 80.9277 149.159 70.6236 149.274 70.3148C150.046 66.3399 149.12 43.9564 148.31 38.1676C147.731 34.0768 146.149 25.7795 143.833 25.0077C141.826 24.3902 139.588 23.8499 137.195 23.5026C139.048 27.7863 143.293 38.129 141.672 40.0586C141.054 40.8304 139.048 41.2164 136.616 41.4479C131.329 41.8724 123.958 41.3707 123.958 41.3707L118.594 24.1586C115.854 24.8147 113.307 25.7795 111.068 27.0916C110.644 27.3232 110.258 27.5933 109.872 27.8249C118.401 40.5603 111.956 69.543 111.647 77.5316Z" fill="#38638E"/>
<path d="M108.946 132.603C108.83 134.802 107.672 233.946 107.981 238.538C109.061 238.461 115.429 238.77 122.067 237.496C125.965 236.763 130.712 234.525 132.564 233.83C132.564 230.627 146.65 76.4125 146.65 76.4125C146.65 76.4125 130.056 74.4829 121.218 80.0015C112.419 85.5588 109.64 117.397 108.946 132.603Z" fill="#38638E"/>
<path d="M132.294 7.94995C132.294 7.94995 133.143 5.51865 131.522 4.97836C129.014 4.12933 129.284 4.47666 127.817 5.09413C126.698 5.55724 124.846 8.33588 122.993 10.497C121.758 11.8864 121.835 13.3143 122.144 14.0089C123.456 17.0191 125.232 18.5242 125.232 18.5242C125.232 18.5242 132.564 11.8092 132.294 7.94995Z" fill="#7F6363"/>
<path d="M125.502 14.4335L123.919 23.4254C123.765 25.3936 130.519 29.7546 132.757 28.0565C133.413 27.5548 133.336 26.2813 132.873 24.8534L129.978 17.1735L125.502 14.4335Z" fill="#FF867A"/>
<path d="M130.596 18.7172C129.129 18.4471 127.123 18.0226 127.123 18.0226C127.123 18.0226 127.045 20.4153 129.014 22.1905C130.056 23.1553 131.29 23.6184 132.487 23.6956L130.596 18.7172Z" fill="#C66C67"/>
<path d="M125.656 9.99532L124.807 16.4016C124.691 18.5242 126.274 20.2222 128.396 20.2608C130.094 20.2608 131.136 20.0293 133.143 19.2574C134.802 18.6014 135.381 16.7875 134.957 14.5492C134.416 11.6934 133.066 9.26207 132.294 7.98853C131.445 6.63781 130.133 6.09752 128.859 6.32907C127.431 6.56062 128.28 8.29727 125.656 9.99532Z" fill="#FF867A"/>
<path d="M133.259 16.8648C131.252 16.9806 130.364 20.2223 126.428 18.3699C125.695 18.0226 125.116 16.9034 124.807 16.2087V16.3631C124.691 18.4857 126.274 20.1837 128.396 20.2223C130.094 20.2223 131.136 19.9908 133.143 19.2189C134.146 18.833 134.764 17.984 134.995 16.9034C134.648 17.0192 133.876 16.8262 133.259 16.8648Z" fill="#C66C67"/>
<path d="M125.965 12.8125C125.772 12.4652 125.617 12.1179 125.502 11.732C125.27 11.0373 124.768 10.0339 123.881 10.9601C122.569 12.3108 123.611 15.707 125.502 15.321C126.891 15.0509 126.428 13.6616 125.965 12.8125Z" fill="#FF867A"/>
<path d="M148.039 75.1775L260.883 81.5452L265.823 7.67984L152.979 1.31213L148.039 75.1775Z" fill="#F2A25C"/>
<path d="M152.979 1.31213L148.078 75.1775L260.883 81.5452L265.784 7.67984L152.979 1.31213ZM158.614 7.71843L259.339 13.3915L255.249 75.1389L154.523 69.4659L158.614 7.71843Z" fill="#FFBB71"/>
<path d="M158.151 15.0123L258.876 20.6468L258.953 19.0645L158.228 13.4301L158.151 15.0123Z" fill="#E89658"/>
<path d="M157.34 27.1303L258.066 32.7261L258.143 31.1438L157.456 25.548L157.34 27.1303Z" fill="#E89658"/>
<path d="M156.53 39.2096L257.255 44.8441L257.371 43.2618L156.646 37.6273L156.53 39.2096Z" fill="#E89658"/>
<path d="M155.719 51.3275L256.445 56.9234L256.561 55.3411L155.835 49.7452L155.719 51.3275Z" fill="#E89658"/>
<path d="M154.909 63.4069L255.634 69.0413L255.75 67.459L155.025 61.8246L154.909 63.4069Z" fill="#E89658"/>
<path d="M159.617 9.10775C159.617 9.10775 156.375 3.89781 152.979 1.31213C152.979 1.31213 155.604 5.86601 159.617 9.10775Z" fill="#F2A25C"/>
<path d="M265.823 7.67981C265.823 7.67981 260.883 10.9987 258.799 14.0089C258.76 14.0475 262.234 12.0793 265.823 7.67981Z" fill="#F2A25C"/>
<path d="M254.438 74.2899C254.438 74.2899 257.718 76.7984 260.883 81.5452C260.883 81.5452 257.332 78.4965 254.438 74.2899Z" fill="#F2A25C"/>
<path d="M34.347 173.24C34.733 173.472 29.9861 179.685 34.1541 191.031C49.9769 189.603 66.3785 187.944 78.4965 185.088C89.3023 182.541 96.2874 179.724 102.617 164.711C119.867 123.611 137.774 81.3522 137.774 81.3522L108.174 76.7983C108.174 76.7983 100.687 85.3272 98.3328 90.2284C89.9197 107.672 75.6792 158.652 75.6792 158.652C75.6792 158.652 46.7737 170.153 34.347 173.24Z" fill="#38638E"/>
<path d="M111.84 33.0349C119.211 36.817 130.364 69.0414 138.932 69.6203C149.082 70.3149 184.586 56.2288 187.365 64.7577C189.758 72.206 161.045 84.0924 140.939 86.2921C121.218 88.4533 105.125 58.6215 102.617 44.381C100.918 34.9259 106.939 30.4878 111.84 33.0349Z" fill="#FF867A"/>
<path d="M185.59 62.3263C185.59 62.3263 189.102 61.13 190.221 60.5125C191.378 59.895 193.887 58.0426 192.999 60.2424C192.112 62.4421 189.68 62.5965 190.607 63.9858C191.533 65.3751 194.466 64.8734 198.016 66.6487C200.023 67.6521 198.248 69.8518 194.389 70.3921C189.796 71.0482 184.895 71.4341 183.39 67.0732C181.846 62.7123 185.59 62.3263 185.59 62.3263Z" fill="#FF867A"/>
<path d="M112.11 32.3788C107.209 29.8703 99.9923 34.9645 101.652 44.4196C102.732 50.6715 106.244 60.7055 111.801 69.4273C114.58 68.3853 124.498 63.4455 128.975 57.7339C123.534 47.97 116.896 34.8487 112.11 32.3788Z" fill="#FFE145"/>
<path d="M130.094 14.3562C130.094 14.3562 132.448 13.9703 133.722 13.5072C133.722 13.5072 133.876 14.472 132.564 15.0123C131.213 15.5526 130.094 14.3562 130.094 14.3562Z" fill="white"/>
<path d="M103.157 164.981C103.427 164.981 103.659 164.866 103.774 164.557C111.377 145.454 118.324 125.965 124.421 106.669C124.498 106.476 124.46 106.321 124.421 106.206C124.344 106.09 124.19 106.013 123.958 105.974C123.688 105.974 123.186 106.09 122.993 106.63C116.934 125.81 110.065 145.106 102.578 163.939C102.501 164.171 102.501 164.403 102.578 164.557C102.655 164.827 102.887 164.981 103.157 164.981Z" fill="#2A4163"/>
<path d="M121.565 116.51C121.642 116.51 121.72 116.51 121.835 116.471C125.733 115.313 129.014 112.342 130.441 108.714C130.519 108.483 130.519 108.251 130.441 108.097C130.326 107.904 130.094 107.749 129.863 107.749C129.592 107.749 129.361 107.865 129.245 108.174C127.933 111.454 125.116 114.117 121.874 115.082C121.257 115.275 121.179 115.854 121.179 115.969C121.141 116.201 121.257 116.471 121.565 116.51Z" fill="#2A4163"/>
<path d="M131.754 12.6968C131.985 12.3881 132.178 12.0793 132.41 11.7706C132.68 11.4232 133.182 11.7706 132.911 12.1179L132.255 13.0441C132.024 13.3914 131.522 13.0441 131.754 12.6968Z" fill="#D66856"/>
<path d="M75.1004 166.834C75.1389 166.834 75.1389 166.834 75.1775 166.834C76.0652 166.795 76.7212 166.062 76.6826 165.213C76.6826 165.174 76.5283 161.315 77.1843 159.077C77.4159 158.228 76.9528 157.379 76.1037 157.147C75.2547 156.916 74.4057 157.379 74.1741 158.228C73.4023 160.968 73.5567 165.174 73.5567 165.367C73.5953 166.178 74.2899 166.834 75.1004 166.834Z" fill="#2A4163"/>
<path d="M141.903 43.9564L124.807 44.6897C124.807 44.6897 126.659 52.6397 134.764 52.794C142.907 52.9484 141.903 43.9564 141.903 43.9564Z" fill="#4C87C2"/>
<path d="M142.251 72.0516C142.907 72.0516 143.447 71.5499 143.524 70.8552C143.563 70.1606 143.061 69.5431 142.366 69.5045C137.62 69.1958 135.458 66.1084 135.458 66.0698C135.073 65.4909 134.301 65.3366 133.722 65.7225C133.143 66.1084 132.989 66.8802 133.375 67.4591C133.49 67.6135 136.23 71.5885 142.212 71.9744C142.174 72.0516 142.212 72.0516 142.251 72.0516Z" fill="#C66C67"/>
<path d="M165.174 21.3415L185.474 22.4993L186.169 12.3109L165.869 11.1918L165.174 21.3415Z" fill="white"/>
</g>
<defs>
<clipPath id="clip0_15_2204">
<rect width="282.379" height="250" fill="white"/>
</clipPath>
</defs>
</svg>
