<svg width="306" height="172" viewBox="0 0 306 172" fill="none" xmlns="http://www.w3.org/2000/svg">
<g clip-path="url(#clip0_18_3370)">
<path d="M3.63318 154.288C3.77788 152.745 6.52706 151.539 10.1926 151.539L123.343 150.526C160.867 150.189 198.391 149.851 235.915 149.514C257.089 149.321 278.262 149.128 299.436 148.935C302.86 148.886 306.14 150.237 305.995 151.684C305.851 153.227 303.102 154.433 299.436 154.433C261.719 154.771 224.002 155.108 186.285 155.446C148.761 155.784 139.211 160.848 101.687 161.137C80.5139 161.33 33.7778 158.87 12.6042 159.063C9.17979 159.16 3.48849 155.784 3.63318 154.288Z" fill="#5CBEC6"/>
<path d="M123.054 144.739H93.6327C93.6327 144.739 97.1536 114.69 106.51 112.134C115.819 109.578 117.218 109.578 118.906 112.134C120.594 114.69 124.549 138.372 123.054 144.739Z" fill="#434A59"/>
<path d="M295.481 110.446H161.832V138.227H295.481V110.446Z" fill="#434A59"/>
<path d="M185.128 138.661C185.128 138.661 184.838 143.243 185.706 147.729C186.478 151.636 189.951 154.433 193.906 154.433H201.478C205.626 154.433 209.195 151.395 209.774 147.247C210.111 145.028 210.304 142.231 210.208 138.661C210.063 132.391 209.533 128.581 208.568 126.025C207.411 123.034 204.565 121.057 201.333 121.057H194.002C191.205 121.057 188.649 122.745 187.636 125.35C186.478 128.292 185.272 132.681 185.128 138.661Z" fill="#434A59"/>
<path d="M207.941 138.227C207.941 144.16 206.108 148.983 203.89 148.983C201.671 148.983 199.838 144.16 199.838 138.227C199.838 132.295 201.671 127.472 203.89 127.472C206.156 127.472 207.941 132.295 207.941 138.227Z" fill="#B1D5DE"/>
<path d="M205.481 144.835C206.84 144.835 207.941 141.877 207.941 138.227C207.941 134.578 206.84 131.62 205.481 131.62C204.123 131.62 203.022 134.578 203.022 138.227C203.022 141.877 204.123 144.835 205.481 144.835Z" fill="white"/>
<path d="M278.6 134.851C278.6 134.851 278.359 138.469 279.082 142.038C279.709 145.124 282.41 147.343 285.594 147.343H291.574C294.854 147.343 297.651 144.932 298.134 141.652C298.375 139.915 298.568 137.697 298.471 134.851C298.375 129.883 297.941 126.893 297.169 124.867C296.253 122.504 293.986 120.961 291.43 120.961H285.642C283.423 120.961 281.397 122.311 280.577 124.385C279.661 126.652 278.696 130.173 278.6 134.851Z" fill="#434A59"/>
<path d="M295.529 134.514C295.529 139.24 294.613 143.051 293.503 143.051C292.394 143.051 291.478 139.24 291.478 134.514C291.478 129.787 292.394 125.977 293.503 125.977C294.613 126.025 295.529 129.835 295.529 134.514Z" fill="#B1D5DE"/>
<path d="M294.275 139.723C294.968 139.723 295.529 137.391 295.529 134.514C295.529 131.637 294.968 129.305 294.275 129.305C293.583 129.305 293.021 131.637 293.021 134.514C293.021 137.391 293.583 139.723 294.275 139.723Z" fill="white"/>
<path d="M167.571 138.035C167.571 138.035 167.234 142.954 168.198 147.777C169.067 151.973 172.732 154.964 177.025 154.964H185.176C189.661 154.964 193.423 151.684 194.099 147.247C194.436 144.883 194.677 141.845 194.581 138.035C194.436 131.33 193.857 127.231 192.796 124.482C191.591 121.25 188.456 119.176 185.031 119.176H177.169C174.179 119.176 171.43 121.009 170.321 123.806C169.018 126.893 167.716 131.668 167.571 138.035Z" fill="#434A59"/>
<path d="M187.732 149.176C190.13 149.176 192.073 143.994 192.073 137.601C192.073 131.208 190.13 126.025 187.732 126.025C185.335 126.025 183.391 131.208 183.391 137.601C183.391 143.994 185.335 149.176 187.732 149.176Z" fill="#B1D5DE"/>
<path d="M189.42 144.691C190.885 144.691 192.073 141.516 192.073 137.601C192.073 133.685 190.885 130.51 189.42 130.51C187.955 130.51 186.767 133.685 186.767 137.601C186.767 141.516 187.955 144.691 189.42 144.691Z" fill="white"/>
<path d="M267.265 134.948C267.265 134.948 266.976 139.096 267.796 143.099C268.52 146.62 271.606 149.128 275.175 149.128H281.976C285.738 149.128 288.873 146.379 289.452 142.665C289.741 140.687 289.934 138.131 289.838 134.948C289.693 129.305 289.211 125.88 288.343 123.565C287.33 120.864 284.725 119.128 281.831 119.128H275.272C272.764 119.128 270.449 120.671 269.532 122.986C268.52 125.639 267.41 129.642 267.265 134.948Z" fill="#434A59"/>
<path d="M284.677 144.305C286.169 144.305 287.378 139.964 287.378 134.61C287.378 129.256 286.169 124.916 284.677 124.916C283.185 124.916 281.976 129.256 281.976 134.61C281.976 139.964 283.185 144.305 284.677 144.305Z" fill="#B1D5DE"/>
<path d="M287.378 134.61C287.378 137.89 286.654 140.542 285.69 140.542C284.773 140.542 284.002 137.89 284.002 134.61C284.002 131.33 284.725 128.678 285.69 128.678C286.654 128.629 287.378 131.33 287.378 134.61Z" fill="white"/>
<path d="M27.9418 159.112C37.6378 159.112 45.498 153.195 45.498 145.896C45.498 138.598 37.6378 132.681 27.9418 132.681C18.2457 132.681 10.3856 138.598 10.3856 145.896C10.3856 153.195 18.2457 159.112 27.9418 159.112Z" fill="#434A59"/>
<path d="M117.507 42.3917H48.7776L39.9513 69.4013H110.948L117.507 42.3917Z" fill="#434A59"/>
<path d="M171.912 111.555L171.333 110.446H121.173C121.173 110.446 122.234 111.121 123.633 116.716C124.742 121.057 124.646 135.768 125.031 141.941H172.346C173.793 141.941 174.999 140.784 174.999 139.385V123.662C175.047 119.465 173.986 115.269 171.912 111.555Z" fill="#B1D5DE"/>
<path d="M87.8932 138.276C87.8932 138.276 87.5073 144.353 88.6649 150.285C89.726 155.446 94.2597 159.16 99.5652 159.16H109.597C115.144 159.16 119.774 155.108 120.594 149.658C121.028 146.716 121.269 143.002 121.173 138.276C120.98 129.98 120.256 124.916 118.954 121.539C117.459 117.584 113.6 114.98 109.356 114.98H99.6616C95.9478 114.98 92.5716 117.247 91.1729 120.671C89.6777 124.53 88.0861 130.366 87.8932 138.276Z" fill="#434A59"/>
<path d="M112.781 151.973C115.737 151.973 118.134 145.582 118.134 137.697C118.134 129.812 115.737 123.421 112.781 123.421C109.824 123.421 107.427 129.812 107.427 137.697C107.427 145.582 109.824 151.973 112.781 151.973Z" fill="#B1D5DE"/>
<path d="M114.854 146.475C116.666 146.475 118.134 142.545 118.134 137.697C118.134 132.849 116.666 128.919 114.854 128.919C113.043 128.919 111.575 132.849 111.575 137.697C111.575 142.545 113.043 146.475 114.854 146.475Z" fill="white"/>
<path d="M169.404 4.62667C158.311 4.77137 103.183 5.54307 94.8386 6.60416C85.53 7.80994 71.3499 10.5109 67.4914 14.707C63.5847 18.9514 61.7037 27.1989 61.7037 27.1989L60.2567 32.9385C60.2567 32.9385 49.5976 34.1443 48.1024 36.6523C47.2825 38.051 46.559 39.6426 46.0285 40.8002C45.6909 41.5719 46.2696 42.3918 47.0896 42.3918H48.7294H117.507L110.9 69.4014H39.9513C39.9513 69.4014 16.318 80.7357 15.1122 84.4495C13.9064 88.1633 13.0865 100.318 13.0865 100.318C13.0865 100.318 6.71995 103.356 2.81321 112.954C0.0157916 119.851 0.112254 132.054 0.401642 138.324C0.498105 140.736 1.99328 142.858 4.26015 143.726C5.90001 144.353 7.63634 144.69 9.4209 144.69H95.755C98.6007 144.69 100.964 142.472 101.157 139.626C101.687 130.752 103.617 113.147 110.755 111.797C120.401 109.916 121.703 125.543 122.427 132.874C123.054 139.144 123.054 144.739 123.054 144.739H126.093C126.093 144.739 124.887 122.263 123.536 116.716C122.186 111.121 121.173 110.446 121.173 110.446H171.333V32.9385V31.9738V6.55593C171.333 5.44661 170.465 4.57844 169.404 4.62667Z" fill="#E7F2F2"/>
<path d="M171.333 36.6042L170.224 35.3501C168.44 33.3244 165.835 32.1669 163.134 32.1669H139.549C139.549 31.7328 139.549 31.3469 139.549 30.8646C139.452 25.8003 139.356 19.5302 144.469 15.72C149.485 12.0062 159.951 9.25698 167.571 7.23127C168.874 6.89365 170.176 6.55603 171.285 6.21841C171.189 5.63963 170.899 5.15731 170.465 4.86792C169.452 5.15731 168.343 5.4467 167.186 5.73609C159.42 7.81004 148.809 10.6075 143.552 14.466C137.813 18.7103 137.909 25.7039 138.006 30.8164C138.006 31.2505 138.006 31.5881 138.006 31.9739H137.137V33.662L163.086 33.5656C165.353 33.5656 167.523 34.5302 169.067 36.2183L171.285 38.7263V36.6042H171.333Z" fill="#B1D5DE"/>
<path d="M116.88 69.4013H133.231L134.34 42.3917H131.205C126.237 42.3917 121.945 45.8644 120.883 50.6875L116.88 69.4013Z" fill="#434A59"/>
<path d="M16.2215 120.768C16.2215 121.684 16.8003 122.552 17.6685 122.842C21.3341 124.192 31.125 127.472 38.8903 127.472C46.2214 127.472 57.1217 124.867 61.1249 123.806C62.0413 123.565 62.7165 122.745 62.7648 121.829L65.0317 88.7903C65.1281 87.4399 63.9706 86.3306 62.6201 86.427C57.2182 86.8611 44.8227 87.874 39.9514 87.874C35.3694 87.874 23.6974 86.9093 18.5849 86.427C17.2826 86.3306 16.1733 87.3434 16.1733 88.6457V120.768H16.2215Z" fill="#434A59"/>
<path d="M12.0253 118.646C12.0253 115.221 10.289 112.038 7.44332 110.205L4.98352 108.613C4.21182 109.916 3.44012 111.363 2.81311 113.002C2.08964 114.835 1.51087 117.054 1.12502 119.417L9.37257 120.864C10.7713 121.057 12.0253 120.044 12.0253 118.646Z" fill="#434A59"/>
<path d="M69.5653 119.61L70.3852 118.308C72.218 115.462 75.2566 113.581 78.6328 113.244L93.0057 111.749C93.8739 111.652 94.5009 112.569 94.0668 113.34L92.861 115.511C90.8836 119.08 87.1215 121.25 83.0701 121.25H70.4817C69.6618 121.298 69.1312 120.334 69.5653 119.61Z" fill="#434A59"/>
<path d="M171.333 6.07349L298.905 29.5622V116.379L172.877 113.147C172.009 113.147 171.333 112.472 171.333 111.604V6.07349V6.07349Z" fill="#FFE164"/>
<path d="M43.5204 98.6777C39.7584 98.6777 36.1893 98.4366 33.1024 98.1472C23.3597 97.1826 15.8356 95.2051 15.7392 95.2051L16.125 93.8064C16.4144 93.9029 45.7391 101.475 64.5493 93.8546L65.0798 95.2051C58.5204 97.8578 50.6587 98.6777 43.5204 98.6777Z" fill="#E7F2F2"/>
<path d="M43.5204 109.433C39.7584 109.433 36.1893 109.192 33.1024 108.903C23.3597 107.938 15.8356 105.961 15.7392 105.961L16.125 104.562C16.4144 104.659 45.7391 112.231 64.5493 104.61L65.0798 105.961C58.5204 108.565 50.6587 109.433 43.5204 109.433Z" fill="#E7F2F2"/>
<path d="M43.5204 120.141C39.7584 120.141 36.1893 119.899 33.1024 119.61C23.3597 118.645 15.8356 116.668 15.7392 116.668L16.125 115.269C16.4144 115.366 45.7391 122.938 64.5493 115.318L65.0798 116.668C58.5204 119.321 50.6587 120.141 43.5204 120.141Z" fill="#E7F2F2"/>
<path d="M138.729 32.1185H60.2567V33.8066H138.729V32.1185Z" fill="#B1D5DE"/>
<path d="M269.147 141.941H211.414V114.16L273.053 115.752V138.083C273.005 140.205 271.269 141.941 269.147 141.941Z" fill="#B1D5DE"/>
<path d="M55.6748 42.3917C55.6748 42.3917 61.8484 43.501 63.7776 48.3724C65.7069 53.292 64.887 56.1859 67.8773 58.9351C70.8194 61.6843 70.9159 58.0669 72.9416 62.0219C75.0155 66.0251 77.186 69.4013 77.186 69.4013H92.7647C92.7647 69.4013 86.1087 56.5717 84.3242 54.546C82.4914 52.4721 78.6329 53.8225 77.4271 51.9898C76.2213 50.157 75.5943 42.3917 75.5943 42.3917H55.6748V42.3917Z" fill="#54678C"/>
<path d="M102.749 129.112H-0.0324707V130.8H102.749V129.112Z" fill="#434A59"/>
<path d="M76.6071 17.1669C76.1248 17.1669 75.6907 16.9258 75.4496 16.4917C75.1119 15.8647 75.3049 15.0448 75.9801 14.7072C87.4109 8.29239 103.327 8.19592 104.003 8.19592C104.726 8.19592 105.353 8.77469 105.353 9.54639C105.353 10.2699 104.774 10.8969 104.003 10.8969C103.858 10.8969 88.1344 10.9933 77.2824 17.0705C77.0412 17.1187 76.8 17.1669 76.6071 17.1669Z" fill="white"/>
<path d="M69.6136 29.948C69.5172 29.948 69.4207 29.948 69.3242 29.8998C68.6008 29.7551 68.1667 29.0316 68.3596 28.3081C68.3596 28.2117 68.8902 26.0895 69.8548 23.5332C70.0959 22.858 70.8676 22.5204 71.5911 22.7615C72.2664 23.0027 72.604 23.7744 72.3628 24.4979C71.4464 26.9094 70.9641 28.9352 70.9641 28.9352C70.7712 29.5139 70.2406 29.948 69.6136 29.948Z" fill="white"/>
<path d="M139.356 46.4914L138.729 69.4496H152.62V46.8291C152.62 44.4175 150.642 42.44 148.231 42.44H143.552C141.285 42.3918 139.404 44.2246 139.356 46.4914Z" fill="#434A59"/>
<path d="M199.404 66.8933L190.674 66.4592V76.636L200.706 76.9254L199.935 81.4109L184.404 81.0733V48.3724L199.886 49.6265V54.1602L190.722 53.485V61.829L199.452 62.3113V66.8933H199.404Z" fill="white"/>
<path d="M216.044 81.7966L212.427 70.5104H212.378L208.423 81.6519L202.346 81.5072L209.099 65.7838L202.684 49.9156L209.147 50.4462L212.571 61.0089H212.619L215.996 51.025L221.832 51.5073L215.755 65.4461L222.266 81.9895L216.044 81.7966Z" fill="white"/>
<path d="M224.243 51.6521L232.009 52.2791C237.41 52.7132 240.111 55.2212 240.111 60.4302V62.1665C240.111 66.9897 238.134 70.1247 231.719 69.8353L229.645 69.7388V82.0861L224.243 81.9896V51.6521ZM229.645 65.9768L231.092 66.0733C234.372 66.2662 234.951 64.6263 234.951 61.7325V60.2855C234.951 58.1151 234.517 56.3305 231.574 56.0894L229.645 55.9447V65.9768Z" fill="white"/>
<path d="M258.295 61.9253V75.0925C258.295 80.4944 255.787 83.0024 250.481 82.906C245.272 82.8095 242.861 80.0603 242.861 74.6102V60.8643C242.861 55.2694 245.996 53.0025 250.77 53.3884C255.545 53.7742 258.295 56.4752 258.295 61.9253ZM247.973 60.816V75.3337C247.973 77.7452 248.938 78.9028 250.722 78.951C252.603 78.9992 253.471 77.9864 253.471 75.4784V61.1536C253.471 58.8868 252.7 57.5845 250.722 57.4398C248.938 57.2951 247.973 58.3562 247.973 60.816Z" fill="white"/>
<path d="M266.397 70.4141V82.8095L261.767 82.7131V54.6907L268.134 55.2212C272.571 55.5588 275.127 57.4399 275.127 62.3595V63.3723C275.127 67.5684 273.343 68.5331 272.185 68.9189C273.873 69.7389 274.838 70.9446 274.838 74.6584C274.838 76.9735 274.79 81.3626 275.079 83.0507L270.786 82.9542C270.401 81.2661 270.497 76.7806 270.497 74.7549C270.497 71.3787 270.063 70.607 267.41 70.4623L266.397 70.4141ZM266.397 66.8932L267.458 66.9414C269.87 67.0861 270.738 66.2662 270.738 63.2758V62.3112C270.738 60.189 270.256 58.8386 267.7 58.6456L266.397 58.5492V66.8932Z" fill="white"/>
<path d="M281.301 60.1408L276.815 59.8032V55.8965L289.934 56.9576V60.7196L285.594 60.382V83.1472L281.349 83.0507V60.1408H281.301Z" fill="white"/>
<path d="M211.414 115.125L273.005 119.128V115.703L211.414 114.112V115.125Z" fill="#84C0CE"/>
<path d="M68.9866 86.4753C68.649 86.4753 68.3596 86.2823 68.2631 85.9447C68.1667 85.5589 68.3596 85.1248 68.7937 85.0283L107.186 73.9351C107.572 73.8386 108.006 74.0316 108.102 74.4657C108.199 74.8515 108.006 75.2856 107.572 75.3821L69.1795 86.4753C69.1313 86.4753 69.083 86.4753 68.9866 86.4753Z" fill="#434A59"/>
<path d="M176.784 7.08635L171.333 6.07349V111.555C171.333 112.424 172.009 113.099 172.877 113.099L180.642 113.292L180.112 112.858C177.989 111.314 176.784 108.806 176.784 106.202V7.08635Z" fill="#434A59"/>
<path d="M145.951 170.217L198.493 169.354C199.468 169.354 203.517 170.479 202.605 171.029C201.755 171.554 195.956 171.841 194.981 171.841H144.389C141.439 171.841 138.827 171.479 139.79 171.029C140.764 170.579 142.752 170.217 145.951 170.217Z" fill="#5CBEC6"/>
<path d="M130.354 79.9185C135.365 84.8552 145.239 82.5681 150.95 70.0951C156.662 57.6221 153.925 54.9975 149.701 57.2971C145.489 59.5843 123.367 73.0321 130.354 79.9185Z" fill="#F27872"/>
<path d="M149.188 51.848C149.188 51.848 149.726 50.2232 149.863 49.3359C149.988 48.461 150.513 48.0111 150.85 48.386C151.188 48.7609 150.825 50.8981 150.251 51.6855C149.676 52.4729 149.113 52.0104 149.188 51.848Z" fill="#F27872"/>
<path d="M161.724 45.8239C161.724 45.8239 164.523 44.3741 165.998 46.4238C167.173 48.061 166.498 49.2983 166.048 50.1732C165.523 51.173 164.886 51.4105 164.886 51.4105L163.673 50.0482C163.673 50.0482 161.699 47.5236 161.536 46.9862C161.361 46.4238 161.724 45.8239 161.724 45.8239Z" fill="#FFE164"/>
<path d="M163.511 46.4739C163.511 46.4739 164.686 46.3864 165.548 47.2112C166.41 48.0486 166.498 49.1234 166.498 49.1234C166.498 49.1234 166.56 48.3236 166.285 47.7487C166.01 47.1738 165.373 46.5614 164.873 46.4114C164.173 46.1989 163.511 46.4739 163.511 46.4739Z" fill="#F2A25C"/>
<path d="M160.674 46.8113C160.674 46.8113 160.336 44.2867 161.499 44.4866C162.549 44.6741 164.548 48.7984 164.661 48.9984C164.886 49.3858 165.123 50.7231 165.011 50.7481C164.773 50.7856 162.486 47.8236 162.236 47.6111C161.261 46.7988 160.674 46.8113 160.674 46.8113Z" fill="#F2A25C"/>
<path d="M150.95 70.0951C156.662 57.6221 153.925 54.9975 149.701 57.2971C147.263 58.6219 138.827 63.6836 133.503 69.0453C133.953 71.0449 135.84 77.069 142.702 80.3435C145.739 78.4188 148.676 75.0693 150.95 70.0951Z" fill="#728C54"/>
<path d="M190.219 167.667C189.607 166.48 189.932 165.255 189.907 165.167C189.794 164.78 188.519 163.968 188.27 164.892C187.782 166.717 185.97 164.518 186.195 165.18C186.882 167.142 187.07 170.479 187.782 170.542C189.307 170.679 195.168 171.629 195.081 170.829C195.056 170.342 190.632 168.454 190.219 167.667Z" fill="#333F56"/>
<path d="M155.662 169.404C156.487 169.017 156.575 168.267 156.912 167.555C156.937 167.505 157.049 166.492 157.049 166.405C157.049 166.055 158.037 165.092 158.524 165.817C159.487 167.23 160.599 164.992 160.561 165.592C160.449 167.38 161.186 170.204 160.524 170.417C159.112 170.867 152.5 171.516 152.363 170.829C152.288 170.429 154.225 170.079 155.662 169.404Z" fill="#333F56"/>
<path d="M150.5 87.6922C158.412 90.2418 169.785 85.1176 174.472 84.0303C175.009 86.5049 175.621 92.9663 175.834 95.7159C176.746 107.726 190.332 167.167 190.332 167.167H182.195L163.073 109.389L161.524 167.18H152.363C152.363 167.18 148.363 92.8289 150.5 87.6922Z" fill="#54728C"/>
<path d="M177.034 104.077C173.984 104.427 168.922 104.952 167.398 104.665C165.173 104.252 161.249 101.015 160.324 101.053C159.399 101.103 150.338 109.164 150.338 109.164C150.338 109.164 159.861 108.589 161.761 108.726C163.661 108.864 168.098 109.189 170.735 109.164C172.422 109.151 175.734 108.964 177.896 108.839C177.571 107.152 177.284 105.552 177.034 104.077Z" fill="#434A59"/>
<path d="M147.464 108.939C146.626 100.428 146.926 83.343 146.864 78.7937C146.714 67.8579 147.189 59.9342 151.1 56.6472C153.8 54.3851 166.66 55.06 172.447 61.9339C175.859 65.9957 174.084 68.7328 175.909 85.8675C176.096 87.6173 178.821 106.377 178.596 106.514C178.021 106.877 171.197 107.602 163.698 108.364C163.336 108.401 161.124 102.04 160.761 102.077C160.311 102.115 160.511 108.002 160.062 108.039C154.325 108.526 149.601 109.726 147.464 108.939Z" fill="#FFE164"/>
<path d="M160.074 56.0724C160.074 56.0724 159.074 56.1598 158.549 57.1847C158.024 58.197 156.262 73.5196 157.249 77.044C157.249 77.044 163.311 59.8343 164.373 58.422C165.461 56.9972 161.261 55.7974 160.074 56.0724Z" fill="#809E61"/>
<path d="M153.825 55.6598C152.6 55.8473 151.638 56.1847 151.1 56.6471C147.176 59.9341 146.714 67.8578 146.864 78.7936C146.876 79.3935 146.876 80.2309 146.876 81.2307C148.551 78.3812 148.513 69.9075 150.251 63.5585C151.688 58.2719 153.163 56.3222 153.825 55.6598Z" fill="#809E61"/>
<path d="M160.024 49.036C160.024 49.036 159.387 46.2364 160.849 46.5364C161.211 43.1994 163.973 48.9485 163.973 48.9485C163.973 48.9485 165.586 49.9483 165.023 51.5356C164.661 52.5729 163.648 53.5477 163.648 53.5477C163.648 53.5477 159.837 50.9107 160.024 49.036Z" fill="#47323C"/>
<path d="M163.836 51.2855L164.123 57.0971C164.061 57.8345 161.961 58.2844 160.024 57.8595C159.586 57.7595 158.887 57.6595 159.274 56.9221L161.886 51.348L163.836 51.2855Z" fill="#FF867A"/>
<path d="M163.311 49.1484L163.773 52.4229C163.798 53.4477 163.011 54.3101 161.986 54.3601C161.161 54.3976 160.661 54.2976 159.699 53.9602C158.899 53.6852 158.637 52.7978 158.874 51.723C159.174 50.3232 159.849 49.1109 160.249 48.486C161.161 47.0738 162.948 47.1612 163.311 49.1484Z" fill="#FF867A"/>
<path d="M160.136 49.1485C160.199 49.0985 160.311 49.0985 160.361 49.1735C160.411 49.2485 160.461 49.311 160.536 49.361C160.711 49.4859 160.511 49.7359 160.336 49.6109C160.236 49.5484 160.161 49.4609 160.099 49.361C160.061 49.2985 160.061 49.211 160.136 49.1485Z" fill="#C96C67"/>
<path d="M158.887 51.4355C158.762 51.1106 158.874 50.5607 159.237 50.4982C159.237 50.4857 159.237 50.4857 159.249 50.4732C159.836 50.3732 159.874 49.6858 161.349 50.4232C162.236 50.8731 162.174 51.1481 162.699 50.6981C162.898 50.5232 163.248 49.4733 163.311 48.5735C163.398 48.761 163.436 48.9859 163.473 49.2234L163.661 51.598C163.611 52.7978 163.086 53.8601 162.124 54.1976C161.161 54.535 160.661 54.2976 159.699 53.9601C159.337 53.8351 159.087 53.5852 158.949 53.2602C158.812 53.1353 158.699 52.9728 158.637 52.7853C158.437 52.2354 158.612 51.898 158.887 51.4355Z" fill="#47323C"/>
<path d="M160.211 50.9982C160.499 51.1481 160.811 51.1981 161.124 51.1356C161.111 51.1731 161.086 51.1981 161.074 51.2231C160.749 51.748 160.199 51.9605 159.874 51.773C159.649 51.6356 159.561 51.3606 159.536 51.1606C159.536 51.1356 159.536 51.1231 159.524 51.0982C159.586 51.1107 159.649 51.1107 159.711 51.1107C159.899 51.1107 160.049 51.0357 160.211 50.9982Z" fill="white"/>
<path d="M163.461 50.5108C163.523 50.3858 163.561 50.2483 163.586 50.1108C163.636 49.8484 163.786 49.4859 164.123 49.7484C164.623 50.1483 164.361 51.3981 163.698 51.3731C163.211 51.3481 163.311 50.8232 163.461 50.5108Z" fill="#FF867A"/>
<path d="M169.435 69.1453C171.322 72.4073 186.182 80.456 186.332 83.7555C186.52 88.0423 176.909 99.8029 176.246 105.739C175.247 114.638 192.194 94.8537 193.769 92.3541C198.58 84.6678 196.556 80.2935 193.581 76.2567C190.607 72.2073 175.784 61.9214 171.935 61.359C169.96 61.0716 166.648 64.3336 169.435 69.1453Z" fill="#FF867A"/>
<path d="M164.273 49.1484L164.486 52.6479L164.973 52.3229L164.848 49.5734L164.273 49.1484Z" fill="#E7F2F2"/>
<path d="M151.475 55.3599C151.063 55.3599 150.725 55.0224 150.713 54.61C150.7 53.5852 150.526 48.6485 150.463 47.5111C150.451 47.2737 150.626 47.0737 150.863 47.0487L151.175 47.0237L150.238 39H150.563L151.988 46.9737C151.988 46.9737 153.125 46.8363 153.9 46.7113C154.175 46.6613 154.425 46.8737 154.437 47.1487L154.762 54.1726C154.787 54.61 154.45 54.985 154.012 54.985L151.475 55.3599Z" fill="#404859"/>
<path d="M151.763 47.6112L151.875 49.3359L154.2 48.9985L154.037 47.2863L151.763 47.6112Z" fill="#52C0D9"/>
<path d="M176.609 104.489C176.609 104.489 174.559 103.465 173.984 103.39C173.409 103.315 170.06 104.277 170.11 104.489C170.222 105.052 172.672 104.489 172.672 104.489C172.672 104.489 170.397 105.327 170.41 105.652C170.422 105.989 170.61 106.052 170.61 106.052C170.61 106.052 170.472 106.327 170.747 106.589C170.922 106.752 172.922 106.552 172.922 106.552C172.922 106.552 172.072 106.739 171.61 107.039C171.147 107.339 172.747 107.139 173.459 107.152C174.172 107.177 175.447 107.939 176.796 108.026C178.146 108.114 179.571 107.227 179.608 106.827C179.646 106.414 177.534 104.939 176.609 104.489Z" fill="#FF867A"/>
<path d="M148.976 52.3104C148.976 52.3104 149.413 50.5982 149.663 50.2857C149.925 49.9608 152.338 49.1859 152.45 49.3608C152.75 49.8358 151.075 50.5232 151.075 50.5232C151.075 50.5232 152.825 50.1232 153.037 50.3857C153.25 50.6481 153.187 50.7731 153.187 50.7731C153.187 50.7731 153.437 50.9231 153.462 51.248C153.475 51.448 152.275 52.2104 152.275 52.2104C152.275 52.2104 152.85 51.9729 153.287 51.9854C153.725 51.9979 152.738 52.5728 152.375 52.9103C152 53.2477 151.825 54.41 151.15 55.0849C150.475 55.7598 149.151 55.7348 148.876 55.4474C148.588 55.1599 148.763 53.0728 148.976 52.3104Z" fill="#F27872"/>
<path d="M151.863 53.7477L149.651 52.8103C149.651 52.8103 130.204 69.1202 129.504 74.6693C128.954 79.0686 135.165 81.3308 138.165 79.9185C140.815 78.6687 140.977 77.2564 143.464 73.9569C148.776 66.9206 151.863 53.7477 151.863 53.7477Z" fill="#F27872"/>
<path d="M188.657 71.6449C183.033 67.1331 174.684 61.7715 171.935 61.359C169.96 61.0716 166.648 64.3336 169.435 69.1453C170.697 71.3199 177.471 76.7691 182.058 80.381C183.433 79.2812 187.12 75.1568 188.657 71.6449Z" fill="#809E61"/>
<path d="M169.66 82.493C172.734 85.0051 174.484 83.7678 175.447 81.0682C174.384 68.1703 175.509 65.5832 172.435 61.9338C171.585 60.9339 170.597 60.0591 169.497 59.3092C169.098 60.0591 168.06 62.2087 167.623 64.6209C167.073 67.6204 165.736 79.2685 169.66 82.493Z" fill="#809E61"/>
<path d="M160.336 101.703C160.261 101.703 160.186 101.653 160.161 101.578C157.087 92.6789 157.099 77.7438 157.099 77.5938C157.099 77.4939 157.187 77.4064 157.287 77.4064C157.387 77.4064 157.474 77.4939 157.474 77.5938C157.474 77.7438 157.462 92.6164 160.511 101.453C160.549 101.553 160.499 101.653 160.399 101.69C160.374 101.703 160.349 101.703 160.336 101.703Z" fill="#F2A25C"/>
<path d="M176.309 88.867C176.096 87.3423 175.946 86.2299 175.909 85.8675C175.896 85.7925 175.896 85.73 175.884 85.655C168.648 86.5674 152.125 87.5547 146.851 87.8547C146.851 88.767 146.851 89.7169 146.851 90.6792L176.309 88.867Z" fill="white"/>
<path d="M176.709 91.7291C169.347 92.679 151.525 93.7288 146.888 93.9913C146.901 94.9286 146.913 95.8785 146.926 96.8158L177.159 94.9411C176.996 93.8413 176.846 92.754 176.709 91.7291Z" fill="white"/>
<path d="M175.034 74.9692C174.984 74.9692 174.934 74.9567 174.884 74.9192C167.723 70.3074 168.06 65.9956 168.085 65.8206C168.098 65.6706 168.235 65.5582 168.385 65.5707C168.535 65.5831 168.648 65.7206 168.635 65.8706C168.635 65.9331 168.36 70.0574 175.184 74.4567C175.309 74.5442 175.347 74.7067 175.272 74.8442C175.222 74.9192 175.134 74.9692 175.034 74.9692Z" fill="#566644"/>
<path d="M186.507 86.5675C186.482 86.5675 186.47 86.5675 186.445 86.555C186.295 86.5175 186.207 86.3675 186.232 86.2176C186.757 83.9554 185.32 82.3432 185.295 82.3307C185.195 82.2182 185.195 82.0432 185.307 81.9432C185.42 81.8433 185.595 81.8433 185.695 81.9557C185.757 82.0307 187.345 83.793 186.757 86.3425C186.745 86.48 186.632 86.5675 186.507 86.5675Z" fill="#C66C67"/>
</g>
<defs>
<clipPath id="clip0_18_3370">
<rect width="306" height="172" fill="white"/>
</clipPath>
</defs>
</svg>
