<svg width="427" height="336" viewBox="0 0 427 336" fill="none" xmlns="http://www.w3.org/2000/svg">
<path opacity="0.3" d="M393.943 168.389C393.943 258.152 369.862 316.299 232.01 331.223C180.856 336.775 173.647 259.522 117.122 260.279C34.1724 261.396 21.3028 208.152 26.3497 187.423C42.3195 121.706 162.147 -38.8572 233.128 8.65561C372.061 101.698 393.943 78.6631 393.943 168.389Z" fill="#CFCFCF"/>
<path opacity="0.3" d="M427 174.013C427 263.775 305.406 294.489 171.484 330.502C89.3276 352.6 -11.7543 251.915 1.1153 175.13C17.5898 77.0047 126.819 -21.9863 197.8 25.5265C336.769 118.533 427 84.2506 427 174.013Z" fill="#D5D5D5"/>
<path d="M185.867 98.7423C185.867 98.7423 295.276 90.0184 296.321 91.4243C297.367 92.8303 287.597 329.745 285.867 330.106C284.137 330.466 177.143 331.836 176.818 330.466C176.494 329.096 185.867 98.7423 185.867 98.7423Z" fill="#231F1E"/>
<path d="M296.322 91.4243L317.591 328.375L285.868 330.106L296.322 91.4243Z" fill="black"/>
<path d="M87.958 123.472L207.137 114.424L268.817 330.791H115.5L87.958 123.472Z" fill="#FFF5CA"/>
<path d="M87.9575 123.472L78.9092 329.421L115.499 330.791L87.9575 123.472Z" fill="#FFEDA2"/>
<path d="M123.935 125.527L119.789 124.95C120.474 120.011 126.963 76.6801 142.752 75.166C152.558 74.2648 162.471 88.9369 173.25 120.119L169.285 121.489C156.307 83.8899 147.367 78.9152 143.149 79.3117C133.704 80.2129 126.35 108.151 123.935 125.527Z" fill="#FFEDA1"/>
<path d="M300.612 325.6C300.612 330.791 296.43 335.009 291.239 335.009L262.039 335.045H243.077H214.418C209.227 335.045 205.045 330.863 205.009 325.672V256.133V253.97V247.806C205.009 242.615 209.191 238.397 214.382 238.397H243.041H262.003L291.203 238.361C296.394 238.361 300.576 242.543 300.612 247.734V253.862V255.989V301.988V306.386V325.6Z" fill="#FF5819"/>
<path d="M286.084 209.81C286.048 210.567 271.232 219.94 268.636 222.896C267.915 223.761 267.05 224.807 266.149 225.888C263.95 228.7 261.679 231.764 261.535 231.98C261.391 232.161 257.065 231.764 253.64 231.44C251.405 231.187 249.566 230.971 249.566 230.971C249.747 230.538 250.143 229.06 250.648 226.897C251.477 223.797 252.559 219.327 253.676 214.569C256.488 203.177 259.66 190.163 260.129 190.452C260.922 190.956 268.564 199.608 271.34 201.699C274.152 203.79 286.012 209.089 286.084 209.81Z" fill="#FFE633"/>
<path d="M256.452 217.344C256.452 217.344 256.019 222.175 255.262 226.248C254.974 227.943 254.613 229.565 254.217 230.61C254.108 230.935 253.928 231.187 253.64 231.439C251.008 233.783 241.635 231.656 241.023 230.07C240.914 229.889 240.59 229.529 240.013 229.132C235.651 226.14 218.744 218.318 218.744 217.741C218.852 217.128 222.854 214.713 227.144 211.612C231.397 208.476 240.338 197.445 241.203 197.445C241.924 197.553 246.394 206.854 253.64 214.568C254.577 215.506 255.514 216.443 256.452 217.344Z" fill="#FFE633"/>
<path d="M300.611 256.025C300.575 256.025 300.575 256.061 300.539 256.061C300.034 256.277 299.457 256.349 298.881 256.385L261.894 256.421H242.932H206.379C205.91 256.421 205.369 256.349 204.973 256.169V254.006V247.842C204.973 242.651 209.154 238.433 214.345 238.433H243.005H261.966L291.166 238.397C296.357 238.397 300.539 242.578 300.575 247.77V253.898L300.611 256.025Z" fill="#E6E6E6"/>
<path d="M266.148 225.888C263.949 228.7 261.678 231.764 261.534 231.98C261.39 232.16 257.064 231.764 253.639 231.439C251.008 233.783 241.635 231.656 241.022 230.07C240.914 229.889 240.589 229.529 240.013 229.132C242.572 228.411 246.502 227.582 250.611 226.897C252.125 226.645 253.711 226.429 255.225 226.248C259.659 225.708 263.733 225.491 266.148 225.888Z" fill="#E6E6E6"/>
<path d="M303.892 249.284C303.892 251.411 302.522 253.249 300.611 253.898C300.107 254.114 299.53 254.187 298.953 254.223L261.967 254.259H243.005H206.451C205.946 254.259 205.406 254.186 204.973 254.006C202.99 253.393 201.548 251.555 201.548 249.356L201.512 234.54C201.512 231.836 203.711 229.637 206.451 229.637L243.005 229.601H261.967L298.953 229.565C301.657 229.565 303.856 231.764 303.856 234.468L303.892 249.284Z" fill="#FF672E"/>
<path d="M262.039 335.081L243.077 335.117L243.005 254.259V238.397V229.565L261.967 229.529V238.397V254.222L262.039 335.081Z" fill="#FFE633"/>
<path d="M268.419 148.67L245.312 144.561C244.771 144.453 244.447 143.948 244.519 143.443L250.287 111.107L275.305 115.577L269.537 147.913C269.429 148.418 268.924 148.779 268.419 148.67Z" fill="#DFE8FA"/>
<path d="M264.815 102.023L264.13 105.916C265.212 106.096 265.897 107.142 265.716 108.187C265.536 109.233 264.527 109.99 263.445 109.773L262.544 114.784L275.269 115.541L264.815 102.023Z" fill="#DFE8FA"/>
<path d="M264.166 106.818C264.166 106.818 264.13 106.818 264.166 106.818C263.59 106.818 263.157 106.277 262.905 105.303L263.157 105.231C263.373 106.024 263.734 106.529 264.166 106.529C264.671 106.565 265.717 105.88 267.159 101.23C269.105 94.9574 268.024 92.7945 266.87 91.6409C266.221 90.992 265.356 90.6315 264.383 90.6675C263.734 90.7036 263.157 90.9199 262.905 91.2443C262.436 91.8211 262.725 99.7519 263.013 104.943H262.724C262.652 103.609 261.967 91.8932 262.652 91.0641C262.977 90.6675 263.626 90.4152 264.347 90.3792C265.356 90.3431 266.365 90.7036 267.05 91.4246C268.276 92.6502 269.394 94.8853 267.411 101.302C266.257 104.979 265.176 106.818 264.166 106.818Z" fill="#1C3359"/>
<path d="M221.015 101.266L216.941 100.401C217.843 96.183 226.062 59.3047 241.707 58.2954C251.332 57.6825 258.65 68.7136 268.095 95.6062L264.166 96.9761C252.882 64.7481 246.069 62.1887 241.996 62.441C231.361 63.162 223.25 90.7035 221.015 101.266Z" fill="black"/>
<path d="M262.544 114.785L263.445 109.774C262.363 109.593 261.642 108.548 261.859 107.467C262.039 106.385 263.084 105.7 264.13 105.88L264.815 101.987L250.251 111.071L262.544 114.785Z" fill="#DFE8FA"/>
<path d="M251.729 136.306C251.657 136.306 251.621 136.27 251.549 136.234C251.296 136.089 251.224 135.765 251.368 135.513C251.477 135.296 254.469 130.502 260.705 126.032C265.644 122.499 267.627 121.057 267.951 120.444C268.095 120.192 268.384 120.084 268.672 120.192C268.924 120.336 269.032 120.624 268.924 120.913C268.528 121.742 267.122 122.751 261.354 126.861C255.298 131.187 252.342 135.981 252.306 136.017C252.162 136.234 251.945 136.342 251.729 136.306Z" fill="#1C3359"/>
<path d="M261.462 138.613C258.903 138.144 257.172 135.693 257.641 133.133C258.11 130.574 260.561 128.843 263.121 129.312C265.68 129.781 267.41 132.232 266.942 134.791C266.509 137.387 264.022 139.081 261.462 138.613ZM262.94 130.357C260.958 129.997 259.047 131.331 258.686 133.313C258.326 135.296 259.66 137.207 261.643 137.567C263.625 137.928 265.536 136.594 265.896 134.611C266.257 132.629 264.923 130.718 262.94 130.357Z" fill="#1C3359"/>
<path d="M257.136 126.32C255.478 126.032 254.361 124.445 254.685 122.787C255.009 121.129 256.56 120.011 258.218 120.336C259.876 120.624 260.994 122.21 260.669 123.869C260.381 125.491 258.795 126.608 257.136 126.32ZM258.038 121.345C256.956 121.165 255.911 121.886 255.73 122.967C255.55 124.049 256.271 125.094 257.353 125.275C258.434 125.455 259.48 124.734 259.66 123.652C259.84 122.571 259.119 121.562 258.038 121.345Z" fill="#1C3359"/>
<path d="M350.065 103.05C358.545 94.5727 358.545 80.8277 350.065 72.3501C341.585 63.8724 327.835 63.8724 319.355 72.35C310.875 80.8277 310.875 94.5727 319.355 103.05C327.835 111.528 341.585 111.528 350.065 103.05Z" fill="#5CBEC6"/>
<path d="M314.076 88.8683C314.19 88.9824 314.304 89.0737 314.418 89.2107C314.532 89.3476 314.646 89.5302 314.761 89.69C314.875 89.8498 314.989 89.964 315.103 90.1237C315.24 90.352 315.354 90.6259 315.446 90.8999C315.514 91.0825 315.606 91.3792 315.788 91.4934C315.88 91.539 316.176 91.6303 316.199 91.4021C316.222 91.2879 316.154 91.151 316.108 91.0825C315.88 90.7629 315.674 90.4433 315.606 90.0781C315.514 89.6444 315.446 89.2107 315.309 88.7998C315.24 88.5943 315.195 88.4345 315.057 88.4345C314.898 88.4117 314.738 88.4345 314.601 88.3204C314.418 88.1834 314.19 88.0237 314.076 87.8182C313.916 87.5671 313.87 87.2704 313.893 86.9736C313.916 86.791 313.961 86.6084 313.984 86.4258C314.007 86.2431 314.007 86.0605 314.053 85.8551C314.098 85.604 314.235 85.3757 314.372 85.3301C314.464 85.3072 314.555 85.3301 314.624 85.3301C314.784 85.3301 314.966 85.3529 315.103 85.4898C315.446 85.7866 315.72 86.1747 316.062 86.4714C316.176 86.5627 316.428 86.6769 316.542 86.4486C316.656 86.2431 316.702 85.9692 316.724 85.7181C316.747 85.4898 316.816 85.2387 316.884 85.0105C316.976 84.7137 317.09 84.3941 317.25 84.0974C317.478 83.6865 317.775 83.2756 318.049 82.8876C318.505 82.2712 318.962 81.6092 319.51 81.0842C319.761 80.8559 320.104 80.6733 320.355 80.4451C320.606 80.2168 320.789 79.9429 320.949 79.6461C321.086 79.3722 321.223 79.0983 321.246 78.7787C321.268 78.5276 321.2 78.2537 321.2 78.0026C321.177 77.7743 321.246 77.5232 321.246 77.2721C321.246 77.1123 321.223 76.9753 321.223 76.8384C321.2 76.5416 321.086 76.4047 320.857 76.3362C320.675 76.2905 320.538 76.222 320.469 75.9709C320.424 75.7883 320.401 75.7198 320.287 75.6057C320.172 75.4916 320.058 75.4003 319.944 75.309C319.898 75.2633 319.853 75.1948 319.807 75.172C319.761 75.1492 319.693 75.1492 319.647 75.172C319.579 75.172 319.51 75.172 319.442 75.172C319.328 75.172 319.259 75.172 319.191 75.3318C319.099 75.5829 319.031 75.8568 318.962 76.1079C318.848 76.5188 318.643 76.9525 318.505 77.3406C318.437 77.5688 318.277 77.7515 318.072 77.8428C317.912 77.9112 317.775 77.9112 317.638 77.8428C317.455 77.7515 317.318 77.5917 317.204 77.4091C317.135 77.2949 317.021 77.2264 316.93 77.1351C316.839 77.0438 316.77 76.9753 316.724 76.8155C316.679 76.6786 316.633 76.496 316.656 76.3133C316.679 76.0394 316.77 75.7427 316.93 75.5144C316.998 75.4003 317.09 75.3546 317.181 75.2861C317.318 75.172 317.478 75.0579 317.615 74.9209C317.866 74.6926 318.072 74.3959 318.186 74.0763C318.254 73.8937 318.346 73.6882 318.368 73.5056C314.92 77.5004 313.162 82.4082 313.094 87.3617C313.299 87.7041 313.528 88.0237 313.756 88.3432C313.779 88.5487 313.916 88.7313 314.076 88.8683Z" fill="#D3EAE9"/>
<path d="M319.852 103.432C319.898 103.363 319.967 103.318 320.012 103.272C320.081 103.204 320.104 103.09 320.172 102.998C320.218 102.93 320.286 102.884 320.332 102.816C320.378 102.724 320.446 102.656 320.492 102.565C320.537 102.496 320.583 102.45 320.629 102.382C320.674 102.313 320.72 102.222 320.789 102.131C320.994 101.857 321.2 101.583 321.451 101.332C321.565 101.218 321.633 101.081 321.748 100.967C321.816 100.898 321.907 100.852 321.999 100.761C322.113 100.647 322.181 100.556 322.25 100.396C322.319 100.236 322.433 100.122 322.501 99.9622C322.661 99.597 322.798 99.2318 322.889 98.8665C322.935 98.7296 322.958 98.5926 323.004 98.4556C323.049 98.2959 323.049 98.1132 323.095 97.9534C323.141 97.7937 323.209 97.6567 323.255 97.4969C323.278 97.3828 323.278 97.2686 323.278 97.1545C323.278 96.9262 323.255 96.7208 323.232 96.4925C323.209 96.2414 323.095 96.036 322.935 95.8533C322.798 95.6936 322.661 95.6023 322.524 95.4653C322.387 95.3283 322.273 95.1685 322.159 95.0087C321.999 94.8033 321.816 94.575 321.656 94.3696C321.496 94.1185 321.314 93.8674 321.131 93.6391C320.926 93.388 320.697 93.1598 320.469 92.9315C320.332 92.8173 320.195 92.7032 320.081 92.5662C319.967 92.4521 319.898 92.338 319.784 92.2695C319.693 92.2238 319.578 92.2238 319.487 92.2238C319.213 92.201 318.962 92.0184 318.848 91.7901C318.779 91.676 318.734 91.5162 318.642 91.4249C318.528 91.2879 318.368 91.151 318.231 91.0368C318.14 90.9455 318.026 90.8314 317.934 90.8086C317.843 90.7857 317.752 90.7857 317.683 90.7857C317.5 90.7629 317.341 90.8086 317.158 90.9227C317.089 90.9684 317.067 90.9684 317.021 91.0368C316.975 91.1053 316.952 91.2423 316.93 91.3336C316.838 91.7216 316.793 92.1325 316.77 92.5206C316.656 92.8402 316.473 93.1598 316.404 93.4793C316.336 93.7533 316.336 94.05 316.336 94.3468C316.336 94.849 316.382 95.374 316.473 95.8762C316.496 96.0588 316.519 96.1958 316.61 96.3327C316.656 96.424 316.701 96.5153 316.747 96.5838C316.93 96.9491 317.226 97.2686 317.409 97.6567C317.615 98.0448 317.797 98.4328 317.911 98.8665C318.071 99.4144 318.254 99.9851 318.414 100.51C318.597 101.149 318.688 101.788 318.802 102.45C319.145 102.816 319.51 103.181 319.875 103.523C319.83 103.478 319.83 103.455 319.852 103.432Z" fill="#D3EAE9"/>
<path d="M322.136 70.4239C322.227 70.4468 322.319 70.4468 322.41 70.5153C322.479 70.5609 322.57 70.5837 322.638 70.6294C322.73 70.6979 322.798 70.7892 322.867 70.8805C322.958 70.9946 323.004 71.1088 323.004 71.2686C323.004 71.3599 323.004 71.4283 323.049 71.5196C323.209 71.9077 323.666 72.0675 323.712 72.524C323.734 72.6838 323.666 72.8208 323.643 73.0034C323.62 73.1175 323.62 73.2317 323.597 73.3458C323.575 73.5741 323.552 73.8252 323.575 74.0535C323.597 74.3502 323.689 74.6698 323.757 74.9665C323.803 75.1263 323.871 75.2405 323.963 75.3774C324.031 75.4916 324.1 75.6514 324.214 75.7198C324.328 75.4231 324.511 75.1263 324.625 74.8296C324.671 74.7154 324.694 74.6013 324.762 74.4872C324.831 74.3502 324.968 74.1904 325.059 74.0991C325.173 73.985 325.31 73.9393 325.424 73.848C325.561 73.7567 325.675 73.6882 325.812 73.6197C326.041 73.5056 326.292 73.3915 326.543 73.323C326.657 73.3002 326.771 73.3002 326.886 73.3002C327.045 73.3002 327.182 73.2773 327.342 73.2317C327.639 73.1632 327.913 73.0947 328.164 72.8893C328.347 72.7523 328.53 72.524 328.644 72.3186C328.735 72.1588 328.827 72.0218 328.895 71.8621C328.941 71.7707 329.009 71.7023 329.078 71.611C329.192 71.4283 329.375 71.2229 329.534 71.0859C329.694 70.949 329.877 70.812 330.037 70.675C330.174 70.5609 330.356 70.4468 330.448 70.3326C330.562 70.1957 330.653 70.0587 330.699 69.9218C330.722 69.8533 330.699 69.8076 330.676 69.762C330.63 69.6707 330.379 69.625 330.242 69.5793C330.174 69.5565 330.128 69.5109 330.06 69.488C329.945 69.4424 329.74 69.4424 329.603 69.4196C329.169 69.3511 328.712 69.3282 328.256 69.3054C327.913 69.2826 327.593 69.2369 327.251 69.2141C326.954 69.1913 326.657 69.1913 326.36 69.1685C326.178 69.1685 326.064 69.1685 325.858 69.2141C325.561 69.2826 325.242 69.3054 324.945 69.3739C324.785 69.3967 324.648 69.4424 324.465 69.4652C324.283 69.488 324.145 69.5109 323.963 69.5109C323.826 69.5337 323.689 69.5793 323.552 69.5793C323.415 69.6022 323.278 69.6022 323.141 69.6022C322.958 69.6022 322.775 69.625 322.593 69.625C322.342 69.8076 322.068 69.9902 321.816 70.1729C321.953 70.2642 322.022 70.4011 322.136 70.4239Z" fill="#D3EAE9"/>
<path d="M319.876 74.3275C319.921 74.396 319.99 74.4188 320.036 74.4645C320.104 74.533 320.127 74.5786 320.218 74.6014C320.378 74.6471 320.584 74.6014 320.766 74.6014C320.858 74.6014 321.017 74.6014 321.109 74.4873C321.177 74.396 321.2 74.259 321.246 74.1449C321.291 74.0079 321.337 73.8938 321.36 73.7568C321.406 73.5742 321.428 73.4373 321.406 73.2775C321.383 73.072 321.406 72.8437 321.337 72.684C321.177 72.2959 320.903 71.8622 320.515 71.7709C320.355 71.7252 320.218 71.7024 320.036 71.7024C319.762 71.9535 319.51 72.2046 319.236 72.4785C319.396 72.5242 319.556 72.6383 319.647 72.7524C319.716 72.8666 319.762 73.0264 319.807 73.1862C319.83 73.3459 319.899 73.4829 319.876 73.6427C319.853 73.9166 319.784 74.1449 319.876 74.3275Z" fill="#D3EAE9"/>
<path d="M333.919 103.752C334.056 103.775 334.238 103.82 334.375 103.775C334.604 103.729 334.855 103.523 334.946 103.318C335.06 103.09 335.22 102.884 335.334 102.656C335.403 102.519 335.449 102.359 335.54 102.222C335.631 102.063 335.7 101.926 335.768 101.766C335.882 101.469 336.065 101.218 336.202 100.944C336.271 100.807 336.362 100.624 336.453 100.487C336.59 100.259 336.796 100.077 336.933 99.8483C337.024 99.7113 337.115 99.5287 337.252 99.3917C337.367 99.2776 337.435 99.1406 337.526 99.0037C337.663 98.7069 337.709 98.3645 337.778 98.0449C337.869 97.7254 337.869 97.383 337.983 97.0862C338.12 96.721 338.326 96.3786 338.577 96.0362C338.737 95.8079 338.965 95.6024 339.125 95.3514C339.216 95.2144 339.285 95.0774 339.399 94.9633C339.536 94.8263 339.65 94.6665 339.741 94.4839C339.878 94.2556 339.993 94.0046 340.084 93.7535C340.13 93.6393 340.198 93.4795 340.221 93.3426C340.267 93.1828 340.198 92.9317 340.084 92.8632C340.015 92.7947 339.924 92.7947 339.856 92.7491C339.764 92.7034 339.719 92.6806 339.627 92.6806C339.513 92.6806 339.467 92.6806 339.376 92.5893C339.193 92.4067 339.033 92.2012 338.896 92.0186C338.759 91.836 338.668 91.6077 338.531 91.4023C338.485 91.311 338.417 91.2425 338.371 91.1512C338.326 91.037 338.28 90.9229 338.257 90.8088C338.189 90.5805 338.143 90.375 338.097 90.1468C338.029 89.8728 338.006 89.5989 337.96 89.3478C337.915 89.0967 337.869 88.8228 337.823 88.5717C337.8 88.4347 337.778 88.3206 337.8 88.1608C337.8 88.0239 337.846 88.0238 337.937 88.0238C338.006 88.0238 338.143 88.0239 338.189 88.0467C338.257 88.0923 338.303 88.2293 338.348 88.3434C338.417 88.5489 338.463 88.7771 338.485 89.0054C338.508 89.2109 338.508 89.4163 338.577 89.5989C338.645 89.7587 338.714 89.8957 338.782 90.0555C338.896 90.2837 338.988 90.5348 339.102 90.7859C339.17 90.9457 339.285 91.0827 339.308 91.2881C339.308 91.3794 339.33 91.4251 339.353 91.5164C339.376 91.6077 339.353 91.699 339.399 91.7903C339.445 91.8816 339.513 91.9273 339.559 91.9729C339.604 92.0186 339.65 92.0642 339.719 92.0871C339.787 92.1099 339.856 92.0871 339.924 92.1099C340.084 92.1327 340.267 92.1327 340.426 92.1556C340.518 92.1556 340.563 92.1784 340.655 92.1327C340.792 92.0186 340.929 91.9045 341.089 91.8132C341.431 91.5621 341.842 91.3338 342.048 90.9229C342.07 90.8772 342.093 90.8316 342.116 90.7859C342.139 90.7403 342.162 90.6946 342.185 90.649C342.207 90.5805 342.23 90.4892 342.253 90.4207C342.299 90.2609 342.322 90.0098 342.299 89.85C342.276 89.6446 342.116 89.3935 341.956 89.2565C341.796 89.1195 341.568 88.9598 341.363 88.8685C341.271 88.8228 341.317 88.8 341.271 88.7087C341.248 88.663 341.203 88.5945 341.157 88.5717C341.066 88.4804 340.974 88.4119 340.883 88.2978C340.769 88.1608 340.655 88.0467 340.563 87.8869C340.518 87.8184 340.495 87.7499 340.449 87.7043C340.404 87.6358 340.358 87.4988 340.449 87.3847C340.609 87.1336 340.906 87.4303 341.043 87.5673C341.271 87.7956 341.614 87.9554 341.865 88.138C342.093 88.2978 342.322 88.5717 342.527 88.6858C342.824 88.8456 343.304 88.8685 343.623 89.0054C343.92 89.1196 344.103 89.4848 344.24 89.7815C344.354 90.0098 344.445 90.2609 344.537 90.512C344.582 90.6033 344.628 90.7174 344.651 90.8088C344.696 90.9229 344.696 91.0599 344.719 91.174C344.765 91.3794 344.811 91.6077 344.833 91.836C344.856 92.1327 344.879 92.4067 344.925 92.7034C344.97 93.023 345.016 93.3426 345.176 93.6165C345.244 93.7078 345.29 93.685 345.381 93.6621C345.564 93.5937 345.724 93.4795 345.884 93.3197C346.112 93.0686 346.249 92.6806 346.34 92.361C346.409 92.1327 346.432 91.9045 346.5 91.6762C346.546 91.5164 346.592 91.3566 346.66 91.1968C346.706 91.0599 346.797 90.9457 346.888 90.8316C347.003 90.649 347.163 90.4207 347.322 90.2837C347.414 90.2153 347.505 90.1239 347.596 90.0555C347.642 90.0098 347.642 90.0098 347.688 90.0555C347.916 90.3979 348.053 90.8088 348.259 91.1512C348.396 91.4023 348.464 91.699 348.555 91.9729C348.601 92.1327 348.647 92.3153 348.67 92.498C348.692 92.7262 348.692 93.0002 348.67 93.2284C348.624 93.5708 348.555 93.9361 348.533 94.2785C348.51 94.4839 348.624 94.6209 348.624 94.8263C348.738 94.7578 348.807 94.4839 348.852 94.3241C348.898 94.21 348.944 94.0959 348.989 93.9817C349.058 93.8219 349.126 93.6393 349.195 93.5024C349.24 93.411 349.332 93.2284 349.4 93.1828C349.514 93.0915 349.56 93.2284 349.629 93.3197C349.72 93.5024 349.834 93.4567 349.994 93.3882C350.108 93.3197 350.199 93.2056 350.245 93.0002C350.291 92.886 350.314 92.7491 350.336 92.6349C350.359 92.4295 350.405 92.1784 350.405 91.9958C350.405 91.7675 350.314 91.5164 350.245 91.311C350.222 91.2196 350.177 91.1055 350.268 91.037C350.359 90.9914 350.473 90.9685 350.542 90.9457C350.633 90.9229 350.748 90.9229 350.839 90.9229C351.022 90.9229 351.181 90.7631 351.341 90.6033C351.455 90.512 351.547 90.3979 351.661 90.2609C351.752 90.1468 351.844 90.0098 351.912 89.8728C352.003 89.7359 352.026 89.6217 352.072 89.4391C352.095 89.325 352.14 89.2109 352.186 89.1196C352.209 89.0511 352.255 88.9826 352.277 88.9141C352.3 88.8228 352.323 88.7315 352.346 88.6402C352.437 88.3206 352.506 88.0238 352.529 87.7271C352.551 87.4532 352.551 87.1336 352.574 86.8597C352.597 86.5857 352.597 86.289 352.483 86.0151C352.551 85.8781 352.666 85.7868 352.757 85.6727C352.803 85.6042 352.825 85.627 352.871 85.627C352.917 85.627 352.94 85.5813 352.985 85.6042C353.077 85.627 353.145 85.764 353.191 85.8553C353.214 85.9009 353.259 85.9238 353.282 85.9694C353.305 86.0379 353.305 86.152 353.328 86.2205C353.351 86.3118 353.396 86.4031 353.419 86.4944C353.442 86.6314 353.465 86.7684 353.488 86.9053C353.51 86.9966 353.51 87.1336 353.556 87.1564C353.625 87.2021 353.739 86.9966 353.784 86.8825C353.807 86.7912 353.807 86.6086 353.807 86.5173C353.807 86.3118 353.739 86.152 353.739 85.9466C353.739 85.8096 353.784 85.764 353.853 85.6955C353.921 85.5813 354.013 85.4672 354.081 85.3531C354.127 85.2846 354.195 85.2618 354.241 85.2389C354.332 85.1933 354.424 85.1476 354.492 85.0792C354.561 85.0107 354.629 84.9194 354.698 84.8052C354.766 84.6911 354.812 84.577 354.858 84.4628C354.881 84.4172 354.903 84.3715 354.926 84.3259C354.949 84.2574 354.972 84.1661 354.995 84.0748C355.109 83.6867 355.2 83.2758 355.314 82.8878C355.337 82.7964 355.337 82.6138 355.314 82.4997C355.292 82.3856 355.246 82.2942 355.2 82.2029C355.155 82.0888 355.132 81.9975 355.109 81.8834C355.086 81.7692 355.063 81.6551 355.063 81.541C355.063 81.4268 355.086 81.3355 355.109 81.267C355.155 81.1072 355.223 80.9931 355.314 80.9018C354.629 78.8245 353.625 76.8386 352.323 75.0352C352.255 74.9896 352.163 74.9667 352.095 74.9211C351.844 74.7841 351.592 74.6243 351.341 74.4874C351.25 74.4417 351.136 74.3961 351.044 74.3504C350.999 74.3276 350.93 74.2819 350.884 74.2591C350.77 74.1906 350.633 74.145 350.519 74.1221C350.428 74.0993 350.359 74.0308 350.268 74.008C350.222 73.871 350.199 73.7113 350.154 73.5743C350.131 73.5286 350.131 73.4602 350.108 73.4145C350.04 73.3232 349.834 73.2319 349.743 73.1862C349.606 73.1178 349.469 73.0493 349.332 72.9808C349.24 72.9351 349.149 72.9351 349.058 72.8895C348.852 72.821 348.555 72.7753 348.35 72.7982C347.939 72.8438 347.528 72.8667 347.117 72.958C346.843 73.0036 346.523 73.0493 346.34 73.2547C346.295 73.3004 346.249 73.346 346.226 73.4145C346.181 73.483 346.158 73.5743 346.089 73.6199C346.044 73.6428 345.998 73.6884 345.952 73.7113C345.884 73.7341 345.838 73.7341 345.77 73.7341C345.701 73.7341 345.655 73.7797 345.564 73.7797C345.496 73.7797 345.427 73.7569 345.381 73.7569C345.153 73.7569 344.879 73.7113 344.674 73.5971C344.605 73.5743 344.537 73.5286 344.468 73.483C344.422 73.4602 344.4 73.4145 344.377 73.3689C344.331 73.3232 344.24 73.3232 344.194 73.3004C344.08 73.2775 343.943 73.2547 343.829 73.2547C343.623 73.2547 343.395 73.4373 343.395 73.6656C343.372 73.9395 343.486 74.2363 343.532 74.4874C343.532 74.5559 343.555 74.6243 343.532 74.67C343.486 74.7385 343.372 74.7156 343.304 74.7156C342.915 74.7156 342.527 74.6472 342.162 74.5787C341.933 74.533 341.659 74.4646 341.431 74.5102C341.271 74.533 341.111 74.5559 340.952 74.6015C340.769 74.67 340.563 74.7156 340.381 74.7613C340.152 74.807 339.924 74.8754 339.673 74.9439C339.422 74.9896 339.193 75.0809 338.965 75.195C338.942 75.195 338.896 75.2407 338.851 75.2407C338.782 75.2407 338.691 75.1037 338.645 75.0352C338.554 74.9211 338.554 74.807 338.554 74.67C338.691 74.6472 338.851 74.6472 338.988 74.6243C339.033 74.6243 339.102 74.6243 339.125 74.5559C339.17 74.4874 339.148 74.3504 339.148 74.2819C339.148 74.1906 339.171 74.1221 339.056 74.0765C339.011 74.0537 338.942 74.0308 338.896 74.0308C338.805 74.008 338.737 73.9624 338.668 73.9167C338.463 73.8026 338.257 73.7113 338.052 73.6428C337.846 73.5743 337.641 73.5058 337.435 73.483C337.275 73.4602 337.093 73.4602 336.933 73.4373C336.613 73.4145 336.339 73.3917 336.019 73.4145C335.791 73.4373 335.517 73.5286 335.289 73.6199C335.083 73.7113 334.878 73.8939 334.763 74.0765C334.467 74.4646 334.17 74.8754 333.873 75.2635C333.645 75.5603 333.416 75.857 333.256 76.1994C333.188 76.3364 333.165 76.4962 333.142 76.656C333.119 76.8157 333.074 76.9527 333.142 77.1125C333.188 77.2266 333.279 77.2951 333.393 77.3408C333.508 77.3864 333.667 77.3636 333.782 77.3408C333.919 77.3179 333.987 77.2951 334.101 77.2266C334.124 77.2038 334.124 77.181 334.147 77.181C334.193 77.181 334.193 77.2723 334.215 77.2951C334.238 77.4092 334.215 77.5006 334.215 77.5919C334.215 77.6832 334.215 77.7517 334.147 77.7745C334.101 77.7973 334.078 77.7745 334.033 77.7745C334.01 77.7745 333.964 77.8201 333.941 77.843C333.873 77.8658 333.827 77.8658 333.759 77.8886C333.69 77.9343 333.599 78.0028 333.53 78.0484C333.348 78.1854 333.279 78.368 333.165 78.5734C333.119 78.6647 333.097 78.7104 333.028 78.756C332.823 78.893 332.594 78.9843 332.389 79.0985C332.275 79.1669 332.138 79.2354 332.023 79.3267C331.932 79.3952 331.841 79.4409 331.795 79.5322C331.727 79.6691 331.704 79.8517 331.635 80.0115C331.59 80.1485 331.521 80.3083 331.407 80.3539C331.338 80.3996 331.178 80.3768 331.11 80.4681C331.064 80.5137 331.064 80.6507 331.041 80.7192C331.019 80.9018 331.041 81.0388 331.11 81.1985C331.156 81.3583 331.178 81.404 331.201 81.5638C331.201 81.7236 331.224 81.929 331.178 82.0888C331.156 82.1573 331.041 82.2486 330.996 82.2486C330.882 82.2942 330.722 82.2029 330.608 82.1573C330.516 82.1345 330.402 82.0888 330.311 82.0431C330.288 82.0431 330.288 82.0203 330.265 82.0203C330.082 82.1573 330.06 82.454 329.991 82.6367C329.877 82.9791 329.375 83.3899 329.557 83.8237C329.603 83.9606 329.694 83.9835 329.786 84.0748C329.808 84.0976 329.854 84.2117 329.854 84.2117C329.968 84.4172 329.831 84.7367 329.786 84.9422C329.786 85.0792 329.649 85.2389 329.58 85.3531C329.466 85.5585 329.352 85.7868 329.215 85.9694C329.101 86.1292 329.009 86.3575 328.918 86.5401C328.804 86.7912 328.667 87.0195 328.575 87.2706C328.507 87.4532 328.416 87.613 328.347 87.7727C328.256 87.9782 328.164 88.2065 328.073 88.3891C327.913 88.6858 327.753 88.9826 327.662 89.325C327.594 89.5761 327.593 89.85 327.571 90.1011C327.548 90.3294 327.548 90.6261 327.593 90.8544C327.639 91.037 327.685 91.2196 327.753 91.4023C327.868 91.8131 327.982 92.224 328.073 92.6349C328.119 92.7947 328.119 92.9773 328.187 93.1371C328.233 93.2513 328.279 93.3654 328.324 93.4795C328.393 93.6165 328.416 93.7535 328.484 93.8676C328.575 94.0046 328.667 94.0274 328.804 94.0274C329.032 94.0502 329.26 94.073 329.489 94.0502C329.649 94.0274 329.831 94.0502 330.014 94.0502C330.151 94.0502 330.265 93.9589 330.402 93.9132C330.539 93.8448 330.676 93.7763 330.836 93.7535C330.882 93.7535 330.95 93.7535 330.996 93.7306C331.019 93.7078 331.041 93.6621 331.064 93.6393C331.133 93.5708 331.27 93.5708 331.361 93.5708C331.43 93.5708 331.521 93.5708 331.589 93.5708C331.704 93.6165 331.772 93.7535 331.841 93.8904C331.909 94.0274 331.978 94.1415 332.023 94.2785C332.069 94.3926 332.092 94.4839 332.115 94.6209C332.138 94.7807 332.206 94.9176 332.252 95.0546C332.366 95.3057 332.412 95.5796 332.457 95.8307C332.48 95.9677 332.503 96.1275 332.549 96.2644C332.594 96.4242 332.64 96.5612 332.686 96.6981C332.731 96.8579 332.777 97.0177 332.777 97.2003C332.754 97.4743 332.731 97.7482 332.708 98.0449C332.686 98.2276 332.686 98.4102 332.663 98.5928C332.663 98.7069 332.64 98.8211 332.64 98.9352C332.617 99.0493 332.594 99.1635 332.571 99.2776C332.549 99.5972 332.503 99.9396 332.571 100.259C332.594 100.442 332.663 100.602 332.708 100.761C332.754 100.898 332.823 101.012 332.868 101.149C332.96 101.401 333.074 101.629 333.142 101.88C333.211 102.108 333.188 102.314 333.211 102.542C333.234 102.702 333.188 102.861 333.234 103.021C333.302 103.25 333.462 103.455 333.69 103.569C333.667 103.66 333.804 103.729 333.919 103.752ZM334.741 86.8597C334.649 86.8597 334.535 86.8597 334.444 86.8368C334.238 86.7912 334.056 86.4944 333.964 86.3118C333.827 86.1064 333.645 85.9009 333.462 85.7183C333.371 85.6042 333.371 85.4216 333.371 85.2618C333.348 85.0563 333.348 84.8052 333.279 84.5998C333.234 84.4628 333.142 84.3943 333.051 84.3487C332.937 84.303 332.823 84.2345 332.686 84.2345C332.571 84.2117 332.457 84.2346 332.343 84.2574C332.183 84.303 332.023 84.3259 331.864 84.3943C331.749 84.44 331.658 84.4628 331.544 84.5313C331.475 84.577 331.384 84.6454 331.315 84.6911C331.156 84.7824 330.973 84.8509 330.813 84.8965C330.745 84.9194 330.63 84.9422 330.471 84.9878C330.448 84.8509 330.425 84.6683 330.493 84.5313C330.539 84.44 330.63 84.3487 330.699 84.2802C330.79 84.1889 330.882 84.1204 330.973 84.0748C331.041 84.0519 331.224 84.0519 331.27 83.9378C331.293 83.8921 331.293 83.8008 331.315 83.7324C331.361 83.5726 331.407 83.4356 331.475 83.2986C331.544 83.1389 331.658 83.0247 331.749 82.9106C331.864 82.7736 332.001 82.7051 332.115 82.5682C332.252 82.4084 332.412 82.3399 332.549 82.2486C332.617 82.2029 332.686 82.1345 332.777 82.0888C332.868 82.0431 332.96 82.0203 333.028 82.0203C333.119 82.0203 333.211 81.9975 333.302 82.0203C333.416 82.0431 333.485 82.1801 333.53 82.2942C333.667 82.5682 333.736 82.8649 333.873 83.1389C333.896 83.2073 333.941 83.2986 334.01 83.2986C334.078 83.2986 334.124 83.1617 334.147 83.0932C334.193 82.9562 334.238 82.8193 334.238 82.6823C334.238 82.4769 334.124 82.3171 334.056 82.1573C334.033 82.0888 334.01 82.0203 334.01 81.929C334.01 81.8377 334.056 81.8605 334.101 81.8377C334.215 81.792 334.352 81.7464 334.467 81.7007C334.535 81.6779 334.604 81.6094 334.672 81.5866C334.741 81.5638 334.786 81.6094 334.832 81.6551C334.923 81.7464 335.015 81.8605 335.06 82.0203C335.152 82.2714 335.174 82.5682 335.243 82.8193C335.311 83.0704 335.471 83.3215 335.723 83.4356C335.882 83.5269 336.134 83.641 336.316 83.5497C336.385 83.5269 336.453 83.4584 336.522 83.4128C336.59 83.3671 336.682 83.3899 336.75 83.4356C337.161 83.7095 336.819 84.5085 337.047 84.8965C337.115 85.0107 337.23 85.0563 337.344 85.0563C337.481 85.0792 337.618 85.0792 337.755 85.102C337.915 85.102 338.074 85.0792 338.211 85.0792C338.28 85.0792 338.348 85.0563 338.371 85.1933C338.394 85.2846 338.371 85.3987 338.371 85.49C338.348 85.6498 338.303 85.7868 338.234 85.9009C338.12 86.1064 337.96 86.3575 337.732 86.4716C337.435 86.6086 337.093 86.5857 336.773 86.5401C336.682 86.5401 336.567 86.5401 336.476 86.5173C336.408 86.4944 336.362 86.4488 336.293 86.4031C336.111 86.3118 335.905 86.2433 335.7 86.2205C335.608 86.2205 335.54 86.1977 335.449 86.1977C335.403 86.1977 335.357 86.1749 335.289 86.2205C335.22 86.289 335.152 86.3803 335.083 86.4944C335.037 86.5857 334.992 86.7227 334.923 86.814C334.878 86.8597 334.809 86.8597 334.741 86.8597Z" fill="#D3EAE9"/>
<path d="M337.778 101.743C337.755 101.857 337.732 101.925 337.801 101.971C337.869 102.017 337.938 102.04 338.029 102.017C338.097 101.994 338.189 101.948 338.257 101.903C338.417 101.834 338.554 101.651 338.668 101.492C338.805 101.286 338.897 101.081 339.034 100.875C339.125 100.738 339.216 100.601 339.308 100.464C339.353 100.396 339.399 100.35 339.399 100.259C339.399 100.191 339.422 100.054 339.49 99.7796C339.513 99.6883 339.536 99.6198 339.536 99.5285C339.536 99.4144 339.513 99.2774 339.49 99.1861C339.445 99.072 339.376 99.0263 339.262 99.0492C339.079 99.0948 338.988 99.3459 338.874 99.5057C338.805 99.597 338.76 99.6655 338.691 99.7568C338.645 99.8025 338.577 99.8481 338.531 99.8938C338.417 100.008 338.326 100.122 338.212 100.213C338.097 100.327 337.983 100.487 337.96 100.67C337.938 100.807 337.983 100.921 337.96 101.058C337.938 101.172 337.892 101.218 337.846 101.309C337.801 101.469 337.801 101.606 337.778 101.743Z" fill="#D3EAE9"/>
<path d="M349.081 96.447C349.035 96.3329 348.966 96.2416 348.921 96.1503C348.829 96.0133 348.761 95.8535 348.647 95.7165C348.601 95.6481 348.555 95.6024 348.533 95.5339C348.51 95.5111 348.51 95.4654 348.487 95.4426C348.464 95.3741 348.418 95.3057 348.396 95.26C348.35 95.1915 348.304 95.123 348.236 95.0774C348.213 95.0546 348.167 95.0317 348.122 95.0089C348.099 94.9861 348.122 94.9404 348.03 95.0774C348.099 95.3057 348.213 95.4654 348.304 95.6709C348.35 95.785 348.396 95.922 348.464 96.0133C348.51 96.1046 348.578 96.1959 348.601 96.31C348.647 96.447 348.692 96.584 348.715 96.7438C348.738 96.9036 348.784 97.0405 348.807 97.2003C348.829 97.2688 348.829 97.3601 348.875 97.4286C348.898 97.4742 348.921 97.4971 348.921 97.5427C348.944 97.634 348.966 97.7025 348.989 97.771C349.012 97.8166 349.035 97.8395 349.081 97.8623C349.126 97.8851 349.172 97.8851 349.218 97.8166C349.286 97.7025 349.332 97.5655 349.332 97.4286C349.332 97.1775 349.263 96.972 349.195 96.7666C349.149 96.6525 349.126 96.5383 349.081 96.447Z" fill="#D3EAE9"/>
<path d="M351.296 95.0775C351.296 95.0318 351.319 94.9633 351.319 94.9177C351.319 94.8264 351.25 94.7807 351.228 94.7579C351.159 94.7122 351.068 94.6894 350.976 94.6894C350.885 94.6894 350.794 94.6437 350.702 94.735C350.588 94.8264 350.52 95.0318 350.474 95.2372C350.474 95.3057 350.474 95.3514 350.451 95.4199C350.428 95.4655 350.406 95.5568 350.36 95.6025C350.314 95.671 350.269 95.7394 350.2 95.8079C350.154 95.8536 350.109 95.9221 349.926 96.0362C349.903 96.1275 349.88 96.2188 349.858 96.3329C349.835 96.4927 349.789 96.6753 349.812 96.8123C349.835 97.0178 349.903 97.0634 349.995 97.1319C350.017 97.1547 350.04 97.1775 350.04 97.2004C350.063 97.2232 350.109 97.2232 350.132 97.246C350.2 97.2689 350.246 97.2689 350.314 97.2689C350.406 97.2689 350.474 97.246 350.565 97.2004C350.611 97.1547 350.657 97.1091 350.702 97.0634C350.748 97.0406 350.771 96.9949 350.794 96.9493C350.839 96.8808 350.885 96.8123 350.908 96.7438C350.954 96.6754 350.976 96.584 351.022 96.4927C351.045 96.4471 351.068 96.4243 351.068 96.3786C351.091 96.3101 351.091 96.2188 351.113 96.1503C351.159 95.9677 351.159 95.8079 351.159 95.6253C351.159 95.534 351.182 95.4199 351.205 95.3057C351.273 95.2144 351.296 95.1688 351.296 95.0775Z" fill="#D3EAE9"/>
<path d="M353.693 96.7438C353.67 96.7438 353.625 96.7438 353.602 96.7666C353.602 96.7666 353.579 96.7894 353.579 96.8123C353.556 96.8351 353.533 96.8579 353.511 96.8807C353.465 96.9264 353.442 96.9721 353.396 96.9949C353.374 96.9949 353.351 96.9949 353.328 96.9949C353.305 96.9949 353.259 96.9721 353.237 96.9949C353.237 96.9949 353.259 97.0177 353.259 97.0405C353.1 97.109 353.1 97.2232 353.1 97.2688C353.1 97.3145 353.122 97.3373 353.145 97.3373C353.168 97.3601 353.191 97.3829 353.214 97.4286C353.237 97.4743 353.282 97.4971 353.305 97.5199C353.328 97.5427 353.351 97.5427 353.374 97.5427C353.419 97.5656 353.488 97.634 353.511 97.7025C353.579 97.8623 353.579 98.0906 353.625 98.2732C353.625 98.296 353.625 98.3189 353.648 98.3417C353.899 97.908 354.127 97.4742 354.333 97.0177C354.264 96.9492 354.218 96.9036 354.15 96.8351C354.013 96.7666 353.853 96.6981 353.693 96.7438Z" fill="#D3EAE9"/>
<path d="M352.688 99.734C352.688 99.6884 352.711 99.6199 352.711 99.5742C352.734 99.4373 352.688 99.346 352.643 99.2775C352.62 99.209 352.574 99.1177 352.529 99.0949C352.483 99.0721 352.437 99.0492 352.186 99.1405C352.049 99.2775 351.981 99.4601 351.889 99.6427C351.889 99.6656 351.866 99.6884 351.866 99.7112C351.844 99.734 351.821 99.734 351.821 99.7569C351.775 99.8025 351.752 99.8253 351.729 99.8025C351.684 99.7797 351.661 99.734 351.638 99.6884C351.592 99.6427 351.547 99.6656 351.478 99.6656C351.341 99.6656 351.204 99.8938 351.113 100.076C351.067 100.168 350.999 100.259 350.93 100.328C350.885 100.396 350.839 100.465 350.77 100.533C350.725 100.579 350.679 100.624 350.633 100.647C350.565 100.716 350.473 100.761 350.405 100.83C350.268 100.921 350.154 101.058 350.017 101.126C349.925 101.195 349.811 101.241 349.72 101.263C349.674 101.263 349.629 101.286 349.606 101.286C349.56 101.309 349.514 101.332 349.469 101.378C349.355 101.469 349.24 101.629 349.149 101.766C349.081 101.903 349.035 102.085 348.989 102.222C348.966 102.314 348.944 102.428 348.944 102.496C348.944 102.565 348.921 102.656 348.921 102.747C348.921 102.884 348.875 103.021 348.852 103.158C348.829 103.295 348.761 103.432 348.715 103.592C348.67 103.706 348.624 103.797 348.578 103.911C348.533 104.026 348.487 104.094 348.533 104.162C348.555 104.208 348.624 104.208 348.67 104.208C348.715 104.208 348.761 104.208 348.807 104.208C349.423 103.683 349.994 103.135 350.565 102.519C351.364 101.674 352.072 100.761 352.711 99.8253C352.711 99.8025 352.688 99.7797 352.688 99.734Z" fill="#D3EAE9"/>
<path d="M24.1353 69.5862C24.1353 69.5862 28.451 69.7916 33.2233 72.257C37.9957 74.7223 36.2603 77.9181 33.6115 79.4247C30.9627 80.9313 25.8022 82.1183 23.4731 81.365C21.144 80.6117 19.5684 69.6775 24.1353 69.5862Z" fill="#CE4949"/>
<path d="M31.3965 74.1741C31.0768 73.8088 30.6658 73.5121 30.2547 73.2838C29.5012 72.8729 28.3823 72.599 28.0398 73.6947C27.8115 74.4252 28.2682 75.1328 28.291 75.8404C28.291 75.9546 28.3138 76.0687 28.3595 76.16C28.2682 76.2742 28.2225 76.3883 28.2225 76.5481C28.2225 76.8905 28.5422 77.2329 28.8847 77.2101C28.9989 77.2101 29.0902 77.1872 29.2044 77.1644C30.3233 77.0503 31.876 76.959 32.013 75.5893C32.0815 74.9502 31.8075 74.4708 31.3965 74.1741Z" fill="#F25C5C"/>
<path d="M29.9049 76.676C30.5586 73.4897 28.5047 70.377 25.3174 69.7235C22.1301 69.0701 19.0164 71.1233 18.3628 74.3096C17.7091 77.4959 19.763 80.6086 22.9503 81.262C26.1375 81.9155 29.2512 79.8622 29.9049 76.676Z" fill="white"/>
<path d="M26.0939 79.6973C28.4364 78.3578 29.2491 75.3735 27.9092 73.0317C26.5693 70.6899 23.5841 69.8774 21.2415 71.2169C18.899 72.5564 18.0862 75.5407 19.4262 77.8825C20.7661 80.2243 23.7513 81.0368 26.0939 79.6973Z" fill="#434A59"/>
<path d="M24.7518 75.5439C24.7061 76.2287 24.1124 76.7309 23.4274 76.6624C22.7423 76.6168 21.6691 75.9776 21.7148 75.2928C21.7605 74.608 22.925 74.1514 23.61 74.2199C24.2951 74.2884 24.7974 74.8591 24.7518 75.5439Z" fill="#F25C5C"/>
<path d="M33.4059 82.3919C33.4059 82.3919 37.7216 82.2093 42.6767 84.2409C47.6317 86.2725 46.1931 89.6053 43.7042 91.3402C41.2153 93.075 36.1689 94.7414 33.7713 94.1707C31.4193 93.6 28.8847 82.8713 33.4059 82.3919Z" fill="#CE4949"/>
<path d="M41.969 86.4779C41.6493 85.2225 40.1879 84.8572 39.069 85.154C38.4297 85.3138 38.4982 86.1355 38.932 86.3866C38.8407 86.6377 38.795 86.9117 38.8407 87.1856C38.8407 87.2084 38.8407 87.2312 38.8635 87.2541C38.9092 87.4139 38.9549 87.5508 39.069 87.6878C39.0005 88.053 39.2289 88.4183 39.7084 88.4639C40.3706 88.5096 41.0556 88.3954 41.558 87.9389C41.969 87.5737 42.106 87.003 41.969 86.4779Z" fill="#F25C5C"/>
<path d="M36.3838 93.614C39.3413 92.2583 40.6396 88.7625 39.2834 85.8059C37.9273 82.8492 34.4304 81.5514 31.4728 82.9071C28.5152 84.2628 27.217 87.7586 28.5731 90.7153C29.9293 93.6719 33.4262 94.9697 36.3838 93.614Z" fill="white"/>
<path d="M38.1152 89.8511C38.9864 87.2976 37.6218 84.5215 35.0675 83.6506C32.5131 82.7797 29.7361 84.1438 28.865 86.6974C27.9938 89.251 29.3583 92.027 31.9127 92.8979C34.4671 93.7688 37.244 92.4047 38.1152 89.8511Z" fill="#434A59"/>
<path d="M34.5477 88.2585C34.5477 88.9434 34.0225 89.4912 33.3375 89.4912C32.6525 89.4912 31.5336 88.9662 31.5107 88.2814C31.5107 87.5966 32.6296 87.0487 33.2918 87.0259C33.9997 87.0487 34.5477 87.5737 34.5477 88.2585Z" fill="#F25C5C"/>
<path d="M48.979 92.5045C50.0751 90.6327 54.6876 82.94 54.6876 82.94C53.8427 81.8671 52.8152 80.9997 51.6278 80.3605L26.3274 59.3824C25.8022 58.9487 25.4825 58.3096 25.4368 57.6247L25.0258 52.0093C24.9801 51.4843 24.5691 51.0734 24.0668 51.0049L23.0164 58.9259C22.7652 60.7292 23.3132 62.5554 24.5006 63.9478L48.979 92.5045Z" fill="#F25C5C"/>
<path d="M23.0846 58.3321L24.0665 51.0046C23.6555 50.959 23.2901 51.2557 23.2216 51.6438C22.8791 53.7211 21.9201 59.6333 22.1941 61.6649C22.2626 62.0758 22.5138 63.1258 23.2901 64.29C28.3594 72.0741 46.9922 93.6228 46.9922 93.6228C47.5859 93.9881 48.4307 93.6457 48.7732 92.9152C48.7961 92.8924 48.8646 92.7554 49.0016 92.5043L24.9114 64.4042C23.45 62.7149 22.7878 60.5235 23.0846 58.3321Z" fill="#CE4949"/>
<path d="M129.767 126.517C129.767 126.517 134.014 125.786 139.197 127.201C144.381 128.594 143.353 132.086 141.092 134.118C138.832 136.15 134.037 138.432 131.593 138.158C129.15 137.884 125.314 127.567 129.767 126.517Z" fill="#CE4949"/>
<path d="M139.403 130.443C139.403 129.69 138.626 129.21 137.941 129.188C137.233 129.142 136.434 129.416 135.863 129.804C135.27 130.215 134.813 130.854 135.064 131.607C135.201 132.018 135.521 132.292 135.909 132.429C136.046 132.543 136.206 132.589 136.411 132.543C136.434 132.543 136.434 132.543 136.457 132.543C136.48 132.543 136.503 132.543 136.548 132.543C136.617 132.543 136.708 132.543 136.777 132.52C137.85 132.361 139.425 131.562 139.403 130.443Z" fill="#F25C5C"/>
<path d="M135.696 135.859C137.664 133.27 137.16 129.575 134.57 127.607C131.979 125.639 128.283 126.144 126.315 128.733C124.346 131.323 124.851 135.018 127.441 136.985C130.032 138.953 133.727 138.449 135.696 135.859Z" fill="white"/>
<path d="M134.433 135.315C136.066 133.167 135.647 130.102 133.499 128.47C131.35 126.838 128.284 127.256 126.652 129.404C125.019 131.552 125.437 134.616 127.586 136.249C129.735 137.881 132.8 137.463 134.433 135.315Z" fill="#434A59"/>
<path d="M131.616 132.201C131.707 132.863 131.228 133.479 130.566 133.57C129.903 133.662 128.693 133.274 128.602 132.589C128.51 131.927 129.561 131.219 130.223 131.128C130.908 131.059 131.525 131.516 131.616 132.201Z" fill="#F25C5C"/>
<path d="M76.1749 133.753L34.0913 112.478L45.3486 75.2017L87.4323 96.4993L76.1749 133.753Z" fill="#F2A25C"/>
<path d="M45.3486 75.2014L74.7592 68.5815L116.843 89.8792L87.4323 96.4991L45.3486 75.2014Z" fill="#FFE164"/>
<path d="M60.9897 83.0997L90.4004 76.5027L100.128 81.4333L70.7172 88.0304L60.9897 83.0997Z" fill="#D3854A"/>
<path d="M116.843 89.8794L109.878 112.958L105.585 127.133L95.31 129.462L76.1748 133.753L87.4321 96.4992L116.843 89.8794Z" fill="#D3854A"/>
<path d="M100.584 111.748C98.8033 111.656 97.045 111.611 95.264 111.885C93.7341 112.113 92.2042 112.478 90.6514 112.615C90.1034 112.661 89.5326 112.684 89.0074 112.547C88.8932 112.524 88.8019 112.524 88.7105 112.524C88.6877 112.524 88.642 112.524 88.6192 112.524C88.2082 112.524 88.0026 112.843 87.957 113.186C87.7515 114.807 88.5964 116.336 89.4641 117.614C89.9207 118.299 90.4231 118.961 90.9026 119.669C91.3821 120.399 91.7703 121.175 92.1357 121.974C93.3002 124.44 94.2364 126.973 95.3325 129.439L105.608 127.133L109.901 112.935C106.818 112.318 103.713 111.907 100.584 111.748Z" fill="#AF643E"/>
<path d="M60.9901 83.0999L57.7705 93.7145L67.4751 98.7592L70.7176 88.0305L60.9901 83.0999Z" fill="#AA6B3F"/>
<path d="M65.8078 85.5422L94.8987 78.7854L94.6704 78.6484L65.5566 85.4281L65.8078 85.5422Z" fill="#434A59"/>
<path d="M82.8195 129.279L81.7007 129.576L83.9156 122.271L84.9888 122.043L82.8195 129.279Z" fill="#434A59"/>
<path d="M84.9886 120.376L85.3768 121.221L85.765 122.043L84.4178 122.317L83.0249 122.591L84.0068 121.472L84.9886 120.376Z" fill="#434A59"/>
<path d="M86.9525 128.16L85.9478 128.434L88.0485 121.426L89.0532 121.221L86.9525 128.16Z" fill="#434A59"/>
<path d="M89.0763 119.623L89.4188 120.422L89.7613 121.221L88.5054 121.472L87.2495 121.723L88.1629 120.673L89.0763 119.623Z" fill="#434A59"/>
<path d="M110.334 120.034C110.334 120.034 114.627 119.646 119.696 121.426C124.766 123.23 123.464 126.608 121.066 128.457C118.669 130.306 113.691 132.201 111.293 131.767C108.873 131.333 105.813 120.741 110.334 120.034Z" fill="#CE4949"/>
<path d="M119.651 125.398C119.651 124.645 118.875 124.165 118.19 124.143C117.482 124.097 116.683 124.371 116.112 124.759C115.518 125.17 115.061 125.809 115.313 126.562C115.45 126.973 115.769 127.247 116.157 127.384C116.294 127.498 116.454 127.544 116.66 127.498C116.683 127.498 116.683 127.498 116.706 127.498C116.728 127.498 116.751 127.498 116.797 127.498C116.865 127.498 116.957 127.498 117.025 127.475C118.098 127.316 119.674 126.517 119.651 125.398Z" fill="#F25C5C"/>
<path d="M111.293 131.76C114.544 131.651 117.093 128.928 116.984 125.678C116.876 122.427 114.152 119.88 110.9 119.988C107.649 120.096 105.101 122.819 105.209 126.07C105.317 129.321 108.041 131.868 111.293 131.76Z" fill="white"/>
<path d="M115.153 127.864C114.445 129.484 112.869 130.671 110.974 130.763C108.279 130.922 105.973 128.868 105.813 126.197C105.676 124.006 107.023 122.065 108.964 121.335C109.398 121.175 109.878 121.061 110.38 121.038C113.075 120.878 115.381 122.933 115.541 125.604C115.586 126.403 115.449 127.179 115.153 127.864Z" fill="#54678C"/>
<path d="M115.153 127.864C114.376 129.119 113.029 130.009 111.454 130.101C108.896 130.261 106.681 128.297 106.521 125.741C106.407 123.869 107.435 122.18 108.987 121.358C109.421 121.198 109.901 121.084 110.403 121.061C113.098 120.901 115.404 122.956 115.564 125.627C115.587 126.403 115.45 127.179 115.153 127.864Z" fill="#434A59"/>
<path d="M112.161 125.261C112.253 125.923 111.773 126.54 111.111 126.631C110.449 126.722 109.261 126.311 109.17 125.649C109.079 124.987 110.129 124.28 110.791 124.211C111.454 124.12 112.07 124.599 112.161 125.261Z" fill="#F25C5C"/>
<path d="M146.504 127.955L88.4366 111.771C88.2311 111.885 88.0484 112.067 87.9342 112.296C87.5461 113.026 87.9114 113.916 88.6878 114.167C88.6878 114.167 130.269 126.973 148.582 129.918C149.633 130.078 151.048 129.987 151.984 129.85C154.816 129.484 159.703 125.307 161.415 123.778C161.758 123.481 161.758 122.956 161.415 122.659L157.739 125.649C154.588 128.16 150.409 129.028 146.504 127.955Z" fill="#CE4949"/>
<path d="M161.415 122.636L156.894 126.289C154.268 128.411 150.775 129.142 147.532 128.229L127.735 122.705L111.796 118.253L88.437 111.748C88.6425 111.634 88.8937 111.565 89.1449 111.565L107.275 109.944C108.851 109.99 110.426 110.31 111.888 110.926L124.972 115.674L136.709 119.943L148.971 124.394C151.871 125.444 155.09 125.17 157.762 123.618L159.726 122.476C160.274 122.157 160.959 122.225 161.415 122.636Z" fill="#F25C5C"/>
<path d="M48.2936 102.069C48.111 102.548 47.1747 104.945 44.6401 103.69C42.0599 102.389 42.4937 99.8319 43.2701 97.2068C44.2291 94.0567 45.6448 92.6414 47.7684 93.7143C50.1889 94.9241 49.7094 97.2297 49.5039 98.0058L47.8826 97.2068C47.9511 96.8644 48.2936 95.6774 47.2889 95.1752C46.2614 94.673 45.622 95.8829 44.937 98.0971C44.389 99.9232 44.0464 101.727 45.0968 102.252C46.0787 102.731 46.4897 101.612 46.6496 101.247L48.2936 102.069Z" fill="white"/>
<path d="M50.7826 103.758L49.5952 105.972L47.9512 105.151L52.9975 96.499L55.1212 97.5491L54.322 108.323L52.6094 107.479L52.8834 104.808L50.7826 103.758ZM53.0661 103.165C53.2944 101.133 53.4314 99.6492 53.5684 98.6448L53.5227 98.6219C53.1346 99.4666 52.4039 100.768 51.5361 102.388L53.0661 103.165Z" fill="white"/>
<path d="M57.9753 105.402L56.7194 109.533L55.0981 108.734L58.0209 99.033L60.8067 100.425C62.4736 101.247 63.113 102.64 62.6106 104.374C62.1768 105.767 61.3091 106.041 60.761 105.995C61.3547 106.703 61.4917 107.502 61.0579 108.94L60.9437 109.328C60.6012 110.424 60.5327 110.857 60.4642 111.428L58.8886 110.629C58.8886 110.127 59.0941 109.328 59.3453 108.506L59.4595 108.164C59.8477 106.863 59.7107 106.292 58.6831 105.767L57.9753 105.402ZM58.4091 103.986L59.1855 104.374C60.1673 104.877 60.6925 104.603 60.9894 103.621C61.2406 102.777 61.0122 102.115 60.1674 101.704L59.2311 101.247L58.4091 103.986Z" fill="white"/>
<path d="M67.2006 114.761L65.9676 114.145C66.0132 113.825 66.0589 113.597 66.1502 113.277C65.5108 113.848 64.803 113.757 64.0495 113.369C62.1542 112.41 61.9944 110.264 62.9534 107.114C64.0266 103.576 65.6022 102.617 67.566 103.599C70.0321 104.831 69.484 107.16 69.347 107.73L67.7258 106.931C67.8171 106.52 68.0226 105.516 67.0636 105.037C66.0132 104.512 65.2597 105.858 64.6432 107.958C63.9581 110.218 63.8439 111.588 64.8715 112.113C65.7392 112.547 66.2187 111.976 66.6526 110.538L66.8124 109.99L65.5794 109.374L66.036 107.89L68.8903 109.305L67.2006 114.761Z" fill="white"/>
<path d="M75.8091 113.414C74.7359 116.952 73.3658 118.048 71.2651 116.998C69.3013 116.016 68.799 114.03 69.895 110.424C70.9454 106.931 72.4981 106.064 74.3705 107C76.3571 108.004 76.8366 110.036 75.8091 113.414ZM71.5848 111.245C70.8997 113.551 70.8084 115.08 71.7674 115.56C72.7722 116.062 73.4343 114.943 74.165 112.547C74.8501 110.287 74.8957 108.963 73.9138 108.46C72.932 107.981 72.2241 109.077 71.5848 111.245Z" fill="white"/>
</svg>
