<svg width="332" height="407" viewBox="0 0 332 407" fill="none" xmlns="http://www.w3.org/2000/svg">
<g clip-path="url(#clip0_7_469)">
<path d="M31.5483 66.1121L59.4128 74.5384L62.2953 30.5405L90.1598 38.9103L108.529 8.99392L136.337 17.703L165.275 2.88623L194.835 12.0478L206.422 6.67526" stroke="#FFE145" stroke-width="1.6657" stroke-linecap="round" stroke-linejoin="round"/>
<path d="M69.6402 138.386C68.1142 138.386 17.0764 108.074 17.0764 108.074L73.1445 105.303L31.5456 66.1122L84.1094 76.8007L63.423 29.6923L104.287 54.1796L108.47 8.99405L142.89 39.4194L165.159 3.16913L190.989 42.4167L204.611 7.07126L218.684 58.1383L239.427 20.248C239.427 20.248 234.566 85.6229 234.227 84.0959C233.888 82.6256 263.674 42.4732 263.674 42.4732L233.549 125.945L287.074 78.5538L288.091 114.352L233.775 126.284L261.696 174.297L202.576 167.907L222.132 212.527L170.359 197.427L183.472 258.73L125.708 262.406L183.585 312.003L125.143 312.116L125.765 262.406L134.865 240.407L170.359 197.484L202.576 167.963L233.775 126.341L234.171 83.0214L218.345 57.5728L190.989 42.4167L142.89 39.4194L104.287 54.123L84.1094 76.7441L73.1445 105.247L69.6402 138.386Z" stroke="#FFE145" stroke-width="1.6657" stroke-linecap="round" stroke-linejoin="round"/>
<path d="M14.8214 133.523L17.0822 108.074L31.5514 66.1123L62.2984 30.5407L107.458 8.9941L163.922 2.77332L205.634 6.27958L239.489 20.2481L263.736 42.4733L287.136 78.0449L288.549 114.861L261.758 174.354L220.668 213.884L183.591 258.674V311.777" stroke="#FFE145" stroke-width="1.6657" stroke-linecap="round" stroke-linejoin="round"/>
<path d="M186.645 347.688V396.662H123.229V347.688H186.645Z" stroke="#FFE145" stroke-width="1.6657" stroke-linecap="round" stroke-linejoin="round"/>
<path d="M97.5069 146.756L42.7389 142.062L14.8744 133.693L69.6425 138.387" stroke="url(#paint0_linear_7_469)" stroke-width="1.6657" stroke-linecap="round" stroke-linejoin="round"/>
<path d="M123.229 347.688L186.645 396.662" stroke="#FFE145" stroke-width="1.6657" stroke-linecap="round" stroke-linejoin="round"/>
<path d="M134.755 240.295C133.512 239.786 182.515 257.487 182.515 257.487" stroke="#FFE145" stroke-width="1.6657" stroke-linecap="round" stroke-linejoin="round"/>
<path d="M46.0736 117.123L18.2091 108.018L59.4123 74.5385" stroke="#FFE145" stroke-width="1.6657" stroke-linecap="round" stroke-linejoin="round"/>
<path d="M68.6247 133.466C71.2811 133.466 73.4854 135.672 73.4854 138.387C73.4854 141.101 71.3376 143.307 68.6247 143.307C65.9682 143.307 63.7639 141.101 63.7639 138.387C63.7639 135.672 65.9117 133.466 68.6247 133.466Z" fill="#FFE145"/>
<path d="M18.2106 113.616C20.8951 113.616 23.0713 111.414 23.0713 108.696C23.0713 105.979 20.8951 103.776 18.2106 103.776C15.5261 103.776 13.3499 105.979 13.3499 108.696C13.3499 111.414 15.5261 113.616 18.2106 113.616Z" fill="#FFE145"/>
<path d="M83.3244 71.6543C85.9808 71.6543 88.1851 73.8598 88.1851 76.5744C88.1851 79.2889 86.0373 81.4945 83.3244 81.4945C80.6679 81.4945 78.4636 79.2889 78.4636 76.5744C78.4636 73.8598 80.6679 71.6543 83.3244 71.6543Z" fill="#FFE145"/>
<path d="M108.531 6.2796C110.17 6.2796 111.527 7.63687 111.527 9.33345C111.527 11.03 110.17 12.3873 108.531 12.3873C106.892 12.3873 105.536 11.03 105.536 9.33345C105.479 7.63687 106.836 6.2796 108.531 6.2796Z" fill="#FFE145"/>
<path d="M142.158 35.2346C143.91 35.2346 145.323 36.6484 145.323 38.4016C145.323 40.1547 143.91 41.5685 142.158 41.5685C140.406 41.5685 138.993 40.1547 138.993 38.4016C138.993 36.6484 140.463 35.2346 142.158 35.2346Z" fill="#FFE145"/>
<path d="M63.7093 26.4123C65.5745 26.4123 67.1005 27.9392 67.1005 29.862C67.1005 31.7848 65.5745 33.3117 63.7093 33.3117C61.8442 33.3117 60.3181 31.7848 60.3181 29.862C60.3181 27.9392 61.8442 26.4123 63.7093 26.4123Z" fill="#FFE145"/>
<path d="M31.5464 62.7756C33.355 62.7756 34.8245 64.246 34.8245 66.1122C34.8245 67.9785 33.355 69.4488 31.5464 69.4488C29.7377 69.4488 28.2682 67.9219 28.2682 66.1122C28.2117 64.246 29.6812 62.7756 31.5464 62.7756Z" fill="#FFE145"/>
<path d="M165.273 -0.280518C167.138 -0.280518 168.664 1.2464 168.664 3.16919C168.664 5.09198 167.138 6.6189 165.273 6.6189C163.408 6.6189 161.882 5.09198 161.882 3.16919C161.882 1.30296 163.408 -0.280518 165.273 -0.280518Z" fill="#FFE145"/>
<path d="M190.427 38.0622C192.292 38.0622 193.818 39.5891 193.818 41.5119C193.818 43.4347 192.292 44.9616 190.427 44.9616C188.562 44.9616 187.036 43.4347 187.036 41.5119C187.036 39.6457 188.562 38.0622 190.427 38.0622Z" fill="#FFE145"/>
<path d="M218.404 54.1231C220.269 54.1231 221.795 55.65 221.795 57.5728C221.795 59.4956 220.269 61.0225 218.404 61.0225C216.539 61.0225 215.013 59.4956 215.013 57.5728C214.956 55.7066 216.482 54.1231 218.404 54.1231Z" fill="#FFE145"/>
<path d="M205.853 3.62158C207.719 3.62158 209.245 5.1485 209.245 7.07129C209.245 8.99408 207.719 10.521 205.853 10.521C203.988 10.521 202.462 8.99408 202.462 7.07129C202.406 5.20505 203.988 3.62158 205.853 3.62158Z" fill="#FFE145"/>
<path d="M239.486 16.7984C241.351 16.7984 242.877 18.3253 242.877 20.2481C242.877 22.1709 241.351 23.6978 239.486 23.6978C237.621 23.6978 236.095 22.1709 236.095 20.2481C236.095 18.3253 237.621 16.7984 239.486 16.7984Z" fill="#FFE145"/>
<path d="M234.627 78.2711C236.492 78.2711 238.018 79.798 238.018 81.7208C238.018 83.6436 236.492 85.1705 234.627 85.1705C232.761 85.1705 231.235 83.6436 231.235 81.7208C231.235 79.798 232.761 78.2711 234.627 78.2711Z" fill="#FFE145"/>
<path d="M263.454 40.3244C265.32 40.3244 266.846 41.8513 266.846 43.7741C266.846 45.6969 265.32 47.2238 263.454 47.2238C261.589 47.2238 260.063 45.6969 260.063 43.7741C260.063 41.8513 261.589 40.3244 263.454 40.3244Z" fill="#FFE145"/>
<path d="M234.625 120.912C237.507 120.912 239.825 123.287 239.825 126.171C239.825 129.055 237.507 131.43 234.625 131.43C231.742 131.43 229.425 129.055 229.425 126.171C229.425 123.287 231.742 120.912 234.625 120.912Z" fill="#FFE145"/>
<path d="M287.138 75.1605C289.003 75.1605 290.53 76.6874 290.53 78.6102C290.53 80.533 289.003 82.0599 287.138 82.0599C285.273 82.0599 283.747 80.533 283.747 78.6102C283.691 76.6874 285.273 75.1605 287.138 75.1605Z" fill="#FFE145"/>
<path d="M288.153 110.959C290.018 110.959 291.544 112.485 291.544 114.408C291.544 116.331 290.018 117.858 288.153 117.858C286.288 117.858 284.762 116.331 284.762 114.408C284.762 112.485 286.231 110.959 288.153 110.959Z" fill="#FFE145"/>
<path d="M203.883 164.627C205.748 164.627 207.274 166.154 207.274 168.077C207.274 170 205.748 171.526 203.883 171.526C202.018 171.526 200.491 170 200.491 168.077C200.491 166.21 202.018 164.627 203.883 164.627Z" fill="#FFE145"/>
<path d="M261.078 169.773C262.943 169.773 264.469 171.3 264.469 173.223C264.469 175.146 262.943 176.673 261.078 176.673C259.213 176.673 257.687 175.146 257.687 173.223C257.687 171.3 259.213 169.773 261.078 169.773Z" fill="#FFE145"/>
<path d="M222.019 208.795C223.885 208.795 225.411 210.321 225.411 212.244C225.411 214.167 223.885 215.694 222.019 215.694C220.154 215.694 218.628 214.167 218.628 212.244C218.572 210.321 220.098 208.795 222.019 208.795Z" fill="#FFE145"/>
<path d="M170.42 194.034C172.285 194.034 173.811 195.561 173.811 197.484C173.811 199.407 172.285 200.934 170.42 200.934C168.554 200.934 167.028 199.407 167.028 197.484C166.972 195.561 168.498 194.034 170.42 194.034Z" fill="#FFE145"/>
<path d="M135.096 236.053C136.961 236.053 138.487 237.58 138.487 239.502C138.487 241.425 136.961 242.952 135.096 242.952C133.23 242.952 131.704 241.425 131.704 239.502C131.704 237.636 133.23 236.053 135.096 236.053Z" fill="#FFE145"/>
<path d="M182.233 254.602C184.098 254.602 185.624 256.129 185.624 258.052C185.624 259.974 184.098 261.501 182.233 261.501C180.368 261.501 178.842 259.974 178.842 258.052C178.842 256.185 180.368 254.602 182.233 254.602Z" fill="#FFE145"/>
<path d="M183.081 306.97C184.947 306.97 186.473 308.497 186.473 310.42C186.473 312.343 184.947 313.869 183.081 313.869C181.216 313.869 179.69 312.343 179.69 310.42C179.634 308.497 181.16 306.97 183.081 306.97Z" fill="#FFE145"/>
<path d="M125.827 259.07C127.692 259.07 129.218 260.597 129.218 262.519C129.218 264.442 127.692 265.969 125.827 265.969C123.962 265.969 122.436 264.442 122.436 262.519C122.436 260.653 123.962 259.07 125.827 259.07Z" fill="#FFE145"/>
<path d="M125.202 307.253C127.067 307.253 128.593 308.78 128.593 310.702C128.593 312.625 127.067 314.152 125.202 314.152C123.337 314.152 121.811 312.625 121.811 310.702C121.811 308.836 123.337 307.253 125.202 307.253Z" fill="#FFE145"/>
<path d="M123.226 342.711C125.939 342.711 128.086 344.917 128.086 347.631C128.086 350.346 125.882 352.551 123.226 352.551C120.513 352.551 118.365 350.346 118.365 347.631C118.365 344.917 120.569 342.711 123.226 342.711Z" fill="#FFE145"/>
<path d="M185.85 391.855C187.715 391.855 189.241 393.382 189.241 395.305C189.241 397.228 187.715 398.755 185.85 398.755C183.984 398.755 182.458 397.228 182.458 395.305C182.402 393.439 183.928 391.855 185.85 391.855Z" fill="#FFE145"/>
<path d="M42.7385 141.949L44.9428 116.501L59.412 74.5388L90.159 38.9106L135.319 17.4206L191.782 11.1998L233.551 14.7061L267.35 28.6746L291.597 50.8998L314.996 86.4714L316.409 123.287L289.619 182.781L248.529 222.311L211.451 267.1V320.203" stroke="url(#paint1_linear_7_469)" stroke-width="1.6657" stroke-linecap="round" stroke-linejoin="round"/>
<path d="M125.204 310.759L153.069 318.846L183.589 310.759L211.454 318.846" stroke="#FFE145" stroke-width="1.6657" stroke-linecap="round" stroke-linejoin="round"/>
<path d="M198.284 203.648L203.879 166.267L231.744 174.693L236.322 126.171L261.474 134.428L246.609 66.5647L218.405 56.8942" stroke="#FFE145" stroke-width="1.6657" stroke-linecap="round" stroke-linejoin="round"/>
<path d="M123.229 397.398V396.662L151.094 405.089" stroke="#FFE145" stroke-width="1.6657" stroke-linecap="round" stroke-linejoin="round"/>
<path d="M186.644 396.04L214.509 403.731L186.644 347.688L214.509 356.057" stroke="#FFE145" stroke-width="1.6657" stroke-linecap="round" stroke-linejoin="round"/>
<path d="M214.504 356.057V405.089H151.089V356.057H214.504Z" stroke="url(#paint2_linear_7_469)" stroke-width="1.6657" stroke-linecap="square"/>
<path d="M151.089 356.057L214.504 405.089" stroke="url(#paint3_linear_7_469)" stroke-width="1.2492" stroke-linecap="round" stroke-linejoin="round"/>
<path d="M123.394 348.366L150.693 356.057" stroke="#FFE145" stroke-width="1.6657" stroke-linecap="round" stroke-linejoin="round"/>
<path d="M183.59 310.759L210.38 265.913" stroke="#FFE145" stroke-width="1.6657" stroke-linecap="round" stroke-linejoin="round"/>
<path d="M162.678 248.721C161.434 248.212 210.437 265.913 210.437 265.913L221.741 211.622L288.774 181.649L262.549 171.583L315.056 122.834L288.153 115.765L315 87.0366L288.548 78.2709L290.64 52.2002L263.736 42.5297" stroke="#FFE145" stroke-width="1.6657" stroke-linecap="round" stroke-linejoin="round"/>
<path d="M97.5098 146.756C95.9838 146.756 44.946 116.444 44.946 116.444L101.014 113.673L59.4152 74.4822L111.979 85.1706L91.3491 38.1188L132.213 62.6061L136.396 17.4206L170.817 47.8459L193.086 11.5956L218.915 50.8432L232.537 15.4978L246.61 66.5648L267.353 28.6745C267.353 28.6745 262.492 94.0494 262.153 92.5225C261.814 91.0521 291.6 50.8997 291.6 50.8997L261.475 134.371L315 86.9803L316.017 122.778L261.701 134.711L289.622 182.724L230.502 176.39L250.058 221.01L198.285 205.91L211.398 267.214L153.634 270.889L211.455 320.373L153.069 320.543L153.691 270.833L162.791 248.834L198.285 205.91L230.502 176.39L261.701 134.767L262.097 91.448L246.271 65.9993L218.915 50.8432L170.817 47.8459L132.213 62.5496L111.979 85.1141L101.014 113.617L97.5098 146.756Z" stroke="url(#paint4_linear_7_469)" stroke-width="1.2492" stroke-linecap="round" stroke-linejoin="round"/>
<path d="M96.4892 141.836C99.1456 141.836 101.35 144.042 101.35 146.757C101.35 149.471 99.2021 151.677 96.4892 151.677C93.8327 151.677 91.6284 149.471 91.6284 146.757C91.6284 144.042 93.7762 141.836 96.4892 141.836Z" fill="url(#paint5_linear_7_469)"/>
<path d="M46.0751 112.203C48.7315 112.203 50.9358 114.408 50.9358 117.123C50.9358 119.837 48.7881 122.043 46.0751 122.043C43.4186 122.043 41.2144 119.837 41.2144 117.123C41.2144 114.408 43.3621 112.203 46.0751 112.203Z" fill="url(#paint6_linear_7_469)"/>
<path d="M111.189 80.0243C113.845 80.0243 116.05 82.2298 116.05 84.9444C116.05 87.6589 113.902 89.8644 111.189 89.8644C108.532 89.8644 106.328 87.6589 106.328 84.9444C106.328 82.2298 108.532 80.0243 111.189 80.0243Z" fill="url(#paint7_linear_7_469)"/>
<path d="M136.396 14.6494C138.035 14.6494 139.391 16.0067 139.391 17.7033C139.391 19.3998 138.035 20.7571 136.396 20.7571C134.757 20.7571 133.4 19.3998 133.4 17.7033C133.344 16.0632 134.7 14.6494 136.396 14.6494Z" fill="url(#paint8_linear_7_469)"/>
<path d="M170.081 43.6043C171.833 43.6043 173.246 45.0181 173.246 46.7713C173.246 48.5244 171.833 49.9382 170.081 49.9382C168.329 49.9382 166.916 48.5244 166.916 46.7713C166.916 45.0747 168.329 43.6043 170.081 43.6043Z" fill="url(#paint9_linear_7_469)"/>
<path d="M91.5738 34.7821C93.439 34.7821 94.965 36.309 94.965 38.2318C94.965 40.1546 93.439 41.6815 91.5738 41.6815C89.7087 41.6815 88.1826 40.1546 88.1826 38.2318C88.1826 36.3656 89.7087 34.7821 91.5738 34.7821Z" fill="url(#paint10_linear_7_469)"/>
<path d="M59.4109 71.202C61.2195 71.202 62.689 72.6724 62.689 74.5386C62.689 76.4049 61.2195 77.8752 59.4109 77.8752C57.6022 77.8752 56.1327 76.3483 56.1327 74.5386C56.0762 72.6724 57.5457 71.202 59.4109 71.202Z" fill="url(#paint11_linear_7_469)"/>
<path d="M193.138 8.14581C195.003 8.14581 196.529 9.67273 196.529 11.5955C196.529 13.5183 195.003 15.0452 193.138 15.0452C191.272 15.0452 189.746 13.5183 189.746 11.5955C189.746 9.67273 191.272 8.14581 193.138 8.14581Z" fill="url(#paint12_linear_7_469)"/>
<path d="M218.292 46.4885C220.157 46.4885 221.683 48.0154 221.683 49.9382C221.683 51.861 220.157 53.3879 218.292 53.3879C216.426 53.3879 214.9 51.861 214.9 49.9382C214.9 48.072 216.426 46.4885 218.292 46.4885Z" fill="url(#paint13_linear_7_469)"/>
<path d="M246.268 62.5494C248.134 62.5494 249.66 64.0764 249.66 65.9991C249.66 67.9219 248.134 69.4489 246.268 69.4489C244.403 69.4489 242.877 67.9219 242.877 65.9991C242.821 64.0764 244.347 62.5494 246.268 62.5494Z" fill="url(#paint14_linear_7_469)"/>
<path d="M233.722 12.0479C235.587 12.0479 237.113 13.5748 237.113 15.4976C237.113 17.4204 235.587 18.9473 233.722 18.9473C231.857 18.9473 230.331 17.4204 230.331 15.4976C230.331 13.6314 231.857 12.0479 233.722 12.0479Z" fill="url(#paint15_linear_7_469)"/>
<path d="M267.35 25.1681C269.216 25.1681 270.742 26.695 270.742 28.6178C270.742 30.5406 269.216 32.0675 267.35 32.0675C265.485 32.0675 263.959 30.5406 263.959 28.6178C263.959 26.7516 265.485 25.1681 267.35 25.1681Z" fill="url(#paint16_linear_7_469)"/>
<path d="M262.491 86.6974C264.356 86.6974 265.882 88.2243 265.882 90.1471C265.882 92.0699 264.356 93.5968 262.491 93.5968C260.626 93.5968 259.1 92.0699 259.1 90.1471C259.1 88.2243 260.626 86.6974 262.491 86.6974Z" fill="url(#paint17_linear_7_469)"/>
<path d="M291.319 48.7507C293.184 48.7507 294.71 50.2777 294.71 52.2004C294.71 54.1232 293.184 55.6502 291.319 55.6502C289.454 55.6502 287.928 54.1232 287.928 52.2004C287.928 50.2777 289.454 48.7507 291.319 48.7507Z" fill="url(#paint18_linear_7_469)"/>
<path d="M262.489 129.338C265.372 129.338 267.689 131.713 267.689 134.598C267.689 137.482 265.372 139.857 262.489 139.857C259.607 139.857 257.29 137.482 257.29 134.598C257.29 131.713 259.607 129.338 262.489 129.338Z" fill="url(#paint19_linear_7_469)"/>
<path d="M315.001 83.5872C316.866 83.5872 318.393 85.1141 318.393 87.0369C318.393 88.9597 316.866 90.4866 315.001 90.4866C313.136 90.4866 311.61 88.9597 311.61 87.0369C311.61 85.1141 313.136 83.5872 315.001 83.5872Z" fill="url(#paint20_linear_7_469)"/>
<path d="M316.018 119.385C317.883 119.385 319.409 120.912 319.409 122.835C319.409 124.757 317.883 126.284 316.018 126.284C314.153 126.284 312.626 124.757 312.626 122.835C312.626 120.912 314.096 119.385 316.018 119.385Z" fill="url(#paint21_linear_7_469)"/>
<path d="M231.747 173.053C233.612 173.053 235.138 174.58 235.138 176.503C235.138 178.426 233.612 179.953 231.747 179.953C229.882 179.953 228.356 178.426 228.356 176.503C228.356 174.637 229.882 173.053 231.747 173.053Z" fill="url(#paint22_linear_7_469)"/>
<path d="M288.942 178.143C290.807 178.143 292.333 179.67 292.333 181.593C292.333 183.516 290.807 185.042 288.942 185.042C287.077 185.042 285.551 183.516 285.551 181.593C285.551 179.726 287.077 178.143 288.942 178.143Z" fill="url(#paint23_linear_7_469)"/>
<path d="M249.884 217.221C251.749 217.221 253.275 218.748 253.275 220.671C253.275 222.593 251.749 224.12 249.884 224.12C248.019 224.12 246.493 222.593 246.493 220.671C246.436 218.748 247.962 217.221 249.884 217.221Z" fill="url(#paint24_linear_7_469)"/>
<path d="M198.284 202.461C200.149 202.461 201.675 203.988 201.675 205.91C201.675 207.833 200.149 209.36 198.284 209.36C196.419 209.36 194.893 207.833 194.893 205.91C194.836 203.988 196.362 202.461 198.284 202.461Z" fill="url(#paint25_linear_7_469)"/>
<path d="M163.014 244.479C164.879 244.479 166.406 246.006 166.406 247.929C166.406 249.852 164.879 251.379 163.014 251.379C161.149 251.379 159.623 249.852 159.623 247.929C159.567 246.006 161.093 244.479 163.014 244.479Z" fill="url(#paint26_linear_7_469)"/>
<path d="M210.098 263.029C211.963 263.029 213.489 264.556 213.489 266.478C213.489 268.401 211.963 269.928 210.098 269.928C208.232 269.928 206.706 268.401 206.706 266.478C206.706 264.556 208.232 263.029 210.098 263.029Z" fill="url(#paint27_linear_7_469)"/>
<path d="M210.946 315.34C212.811 315.34 214.337 316.867 214.337 318.789C214.337 320.712 212.811 322.239 210.946 322.239C209.081 322.239 207.555 320.712 207.555 318.789C207.498 316.923 209.024 315.34 210.946 315.34Z" fill="url(#paint28_linear_7_469)"/>
<path d="M153.691 267.496C155.556 267.496 157.082 269.023 157.082 270.946C157.082 272.869 155.556 274.396 153.691 274.396C151.826 274.396 150.3 272.869 150.3 270.946C150.3 269.08 151.826 267.496 153.691 267.496Z" fill="url(#paint29_linear_7_469)"/>
<path d="M153.067 322.635C154.94 322.635 156.458 321.091 156.458 319.185C156.458 317.28 154.94 315.736 153.067 315.736C151.194 315.736 149.676 317.28 149.676 319.185C149.676 321.091 151.194 322.635 153.067 322.635Z" fill="url(#paint30_linear_7_469)"/>
<path d="M213.714 400.282C215.579 400.282 217.105 401.809 217.105 403.731C217.105 405.654 215.579 407.181 213.714 407.181C211.849 407.181 210.323 405.654 210.323 403.731C210.266 401.865 211.792 400.282 213.714 400.282Z" fill="url(#paint31_linear_7_469)"/>
<path d="M151.09 351.138C153.803 351.138 155.951 353.343 155.951 356.058C155.951 358.772 153.747 360.978 151.09 360.978C148.377 360.978 146.229 358.772 146.229 356.058C146.229 353.343 148.434 351.138 151.09 351.138Z" fill="url(#paint32_linear_7_469)"/>
</g>
<defs>
<linearGradient id="paint0_linear_7_469" x1="49.5674" y1="133.137" x2="93.4682" y2="164.074" gradientUnits="userSpaceOnUse">
<stop offset="0.0001" stop-color="#FFE145"/>
<stop offset="1" stop-color="#FF8540"/>
</linearGradient>
<linearGradient id="paint1_linear_7_469" x1="157.639" y1="-1.9493" x2="373.141" y2="19.3146" gradientUnits="userSpaceOnUse">
<stop offset="0.0001" stop-color="#FFE145"/>
<stop offset="1" stop-color="#FF8540"/>
</linearGradient>
<linearGradient id="paint2_linear_7_469" x1="177.714" y1="353.971" x2="227.111" y2="361.089" gradientUnits="userSpaceOnUse">
<stop offset="0.0001" stop-color="#FFE145"/>
<stop offset="1" stop-color="#FF8540"/>
</linearGradient>
<linearGradient id="paint3_linear_7_469" x1="177.714" y1="353.971" x2="227.111" y2="361.089" gradientUnits="userSpaceOnUse">
<stop offset="0.0001" stop-color="#FFE145"/>
<stop offset="1" stop-color="#FF8540"/>
</linearGradient>
<linearGradient id="paint4_linear_7_469" x1="158.754" y1="-1.55108" x2="372.248" y2="19.3183" gradientUnits="userSpaceOnUse">
<stop offset="0.0001" stop-color="#FFE145"/>
<stop offset="1" stop-color="#FF8540"/>
</linearGradient>
<linearGradient id="paint5_linear_7_469" x1="95.71" y1="141.418" x2="103.347" y2="142.258" gradientUnits="userSpaceOnUse">
<stop offset="0.0001" stop-color="#FFE145"/>
<stop offset="1" stop-color="#FF8540"/>
</linearGradient>
<linearGradient id="paint6_linear_7_469" x1="45.2959" y1="111.784" x2="52.9331" y2="112.625" gradientUnits="userSpaceOnUse">
<stop offset="0.0001" stop-color="#FFE145"/>
<stop offset="1" stop-color="#FF8540"/>
</linearGradient>
<linearGradient id="paint7_linear_7_469" x1="110.41" y1="79.6056" x2="118.047" y2="80.4462" gradientUnits="userSpaceOnUse">
<stop offset="0.0001" stop-color="#FFE145"/>
<stop offset="1" stop-color="#FF8540"/>
</linearGradient>
<linearGradient id="paint8_linear_7_469" x1="135.915" y1="14.3895" x2="140.623" y2="14.9043" gradientUnits="userSpaceOnUse">
<stop offset="0.0001" stop-color="#FFE145"/>
<stop offset="1" stop-color="#FF8540"/>
</linearGradient>
<linearGradient id="paint9_linear_7_469" x1="169.574" y1="43.3348" x2="174.545" y2="43.8884" gradientUnits="userSpaceOnUse">
<stop offset="0.0001" stop-color="#FFE145"/>
<stop offset="1" stop-color="#FF8540"/>
</linearGradient>
<linearGradient id="paint10_linear_7_469" x1="91.0302" y1="34.4885" x2="96.3591" y2="35.0721" gradientUnits="userSpaceOnUse">
<stop offset="0.0001" stop-color="#FFE145"/>
<stop offset="1" stop-color="#FF8540"/>
</linearGradient>
<linearGradient id="paint11_linear_7_469" x1="58.8844" y1="70.9181" x2="64.037" y2="71.4822" gradientUnits="userSpaceOnUse">
<stop offset="0.0001" stop-color="#FFE145"/>
<stop offset="1" stop-color="#FF8540"/>
</linearGradient>
<linearGradient id="paint12_linear_7_469" x1="192.594" y1="7.85222" x2="197.923" y2="8.43585" gradientUnits="userSpaceOnUse">
<stop offset="0.0001" stop-color="#FFE145"/>
<stop offset="1" stop-color="#FF8540"/>
</linearGradient>
<linearGradient id="paint13_linear_7_469" x1="217.748" y1="46.1949" x2="223.077" y2="46.7786" gradientUnits="userSpaceOnUse">
<stop offset="0.0001" stop-color="#FFE145"/>
<stop offset="1" stop-color="#FF8540"/>
</linearGradient>
<linearGradient id="paint14_linear_7_469" x1="245.724" y1="62.2558" x2="251.054" y2="62.8397" gradientUnits="userSpaceOnUse">
<stop offset="0.0001" stop-color="#FFE145"/>
<stop offset="1" stop-color="#FF8540"/>
</linearGradient>
<linearGradient id="paint15_linear_7_469" x1="233.178" y1="11.7543" x2="238.507" y2="12.3379" gradientUnits="userSpaceOnUse">
<stop offset="0.0001" stop-color="#FFE145"/>
<stop offset="1" stop-color="#FF8540"/>
</linearGradient>
<linearGradient id="paint16_linear_7_469" x1="266.807" y1="24.8745" x2="272.136" y2="25.4581" gradientUnits="userSpaceOnUse">
<stop offset="0.0001" stop-color="#FFE145"/>
<stop offset="1" stop-color="#FF8540"/>
</linearGradient>
<linearGradient id="paint17_linear_7_469" x1="261.947" y1="86.4038" x2="267.276" y2="86.9875" gradientUnits="userSpaceOnUse">
<stop offset="0.0001" stop-color="#FFE145"/>
<stop offset="1" stop-color="#FF8540"/>
</linearGradient>
<linearGradient id="paint18_linear_7_469" x1="290.775" y1="48.4571" x2="296.104" y2="49.0408" gradientUnits="userSpaceOnUse">
<stop offset="0.0001" stop-color="#FFE145"/>
<stop offset="1" stop-color="#FF8540"/>
</linearGradient>
<linearGradient id="paint19_linear_7_469" x1="261.656" y1="128.891" x2="269.826" y2="129.791" gradientUnits="userSpaceOnUse">
<stop offset="0.0001" stop-color="#FFE145"/>
<stop offset="1" stop-color="#FF8540"/>
</linearGradient>
<linearGradient id="paint20_linear_7_469" x1="314.458" y1="83.2936" x2="319.787" y2="83.8773" gradientUnits="userSpaceOnUse">
<stop offset="0.0001" stop-color="#FFE145"/>
<stop offset="1" stop-color="#FF8540"/>
</linearGradient>
<linearGradient id="paint21_linear_7_469" x1="315.474" y1="119.091" x2="320.803" y2="119.675" gradientUnits="userSpaceOnUse">
<stop offset="0.0001" stop-color="#FFE145"/>
<stop offset="1" stop-color="#FF8540"/>
</linearGradient>
<linearGradient id="paint22_linear_7_469" x1="231.204" y1="172.76" x2="236.532" y2="173.343" gradientUnits="userSpaceOnUse">
<stop offset="0.0001" stop-color="#FFE145"/>
<stop offset="1" stop-color="#FF8540"/>
</linearGradient>
<linearGradient id="paint23_linear_7_469" x1="288.398" y1="177.849" x2="293.727" y2="178.433" gradientUnits="userSpaceOnUse">
<stop offset="0.0001" stop-color="#FFE145"/>
<stop offset="1" stop-color="#FF8540"/>
</linearGradient>
<linearGradient id="paint24_linear_7_469" x1="249.339" y1="216.927" x2="254.67" y2="217.511" gradientUnits="userSpaceOnUse">
<stop offset="0.0001" stop-color="#FFE145"/>
<stop offset="1" stop-color="#FF8540"/>
</linearGradient>
<linearGradient id="paint25_linear_7_469" x1="197.74" y1="202.167" x2="203.07" y2="202.751" gradientUnits="userSpaceOnUse">
<stop offset="0.0001" stop-color="#FFE145"/>
<stop offset="1" stop-color="#FF8540"/>
</linearGradient>
<linearGradient id="paint26_linear_7_469" x1="162.47" y1="244.186" x2="167.8" y2="244.77" gradientUnits="userSpaceOnUse">
<stop offset="0.0001" stop-color="#FFE145"/>
<stop offset="1" stop-color="#FF8540"/>
</linearGradient>
<linearGradient id="paint27_linear_7_469" x1="209.554" y1="262.735" x2="214.883" y2="263.319" gradientUnits="userSpaceOnUse">
<stop offset="0.0001" stop-color="#FFE145"/>
<stop offset="1" stop-color="#FF8540"/>
</linearGradient>
<linearGradient id="paint28_linear_7_469" x1="210.401" y1="315.046" x2="215.732" y2="315.63" gradientUnits="userSpaceOnUse">
<stop offset="0.0001" stop-color="#FFE145"/>
<stop offset="1" stop-color="#FF8540"/>
</linearGradient>
<linearGradient id="paint29_linear_7_469" x1="153.148" y1="267.203" x2="158.477" y2="267.786" gradientUnits="userSpaceOnUse">
<stop offset="0.0001" stop-color="#FFE145"/>
<stop offset="1" stop-color="#FF8540"/>
</linearGradient>
<linearGradient id="paint30_linear_7_469" x1="152.523" y1="315.442" x2="157.852" y2="316.026" gradientUnits="userSpaceOnUse">
<stop offset="0.0001" stop-color="#FFE145"/>
<stop offset="1" stop-color="#FF8540"/>
</linearGradient>
<linearGradient id="paint31_linear_7_469" x1="213.17" y1="399.988" x2="218.5" y2="400.572" gradientUnits="userSpaceOnUse">
<stop offset="0.0001" stop-color="#FFE145"/>
<stop offset="1" stop-color="#FF8540"/>
</linearGradient>
<linearGradient id="paint32_linear_7_469" x1="150.311" y1="350.719" x2="157.948" y2="351.559" gradientUnits="userSpaceOnUse">
<stop offset="0.0001" stop-color="#FFE145"/>
<stop offset="1" stop-color="#FF8540"/>
</linearGradient>
<clipPath id="clip0_7_469">
<rect width="332" height="407" fill="white"/>
</clipPath>
</defs>
</svg>
