<svg width="470" height="300" viewBox="0 0 470 300" fill="none" xmlns="http://www.w3.org/2000/svg">
<g clip-path="url(#clip0_15_1937)">
<path d="M363.176 32.8755C363.176 32.8755 306.009 84.9785 320.515 111.502C335.021 138.026 366.094 116.309 371.76 105.837C377.425 95.3648 363.176 32.8755 363.176 32.8755Z" fill="#F89874"/>
<path d="M334.335 64.9785C340.343 71.4163 355.451 85.9227 372.704 89.442C370.987 67.3819 363.09 32.8755 363.09 32.8755C363.09 32.8755 347.296 47.3819 334.335 64.9785Z" fill="#311E69"/>
<path d="M431.588 122.747C430.901 104.807 430.73 102.318 430.386 90.9014C429.27 61.4593 434.936 37.8542 430.386 33.0473C414.163 15.9658 364.979 21.7169 357.425 38.5409C349.957 55.1932 361.116 81.631 361.373 120.687C361.459 124.464 431.76 125.923 431.588 122.747Z" fill="#614CD4"/>
<path d="M384.721 286.094C384.12 284.549 383.863 283.519 383.691 282.575C383.348 280.515 382.146 278.627 380.429 277.425C377.768 275.536 374.163 273.476 372.79 274.85C371.245 276.395 373.476 281.974 372.017 284.12C371.416 285.064 360 291.33 359.742 292.618C359.399 294.764 381.545 295.193 385.236 293.219C387.296 292.189 385.837 289.099 384.721 286.094Z" fill="#1E1240"/>
<path d="M443.691 285.837C443.09 284.378 442.747 283.262 442.575 282.318C442.146 280.258 440.944 278.455 439.227 277.253C436.567 275.451 432.876 273.477 431.502 274.936C429.957 276.567 432.36 282.06 430.987 284.206C430.386 285.15 419.142 291.76 418.97 292.961C418.712 295.107 440.772 294.936 444.463 292.876C446.352 291.76 444.893 288.755 443.691 285.837Z" fill="#1E1240"/>
<path d="M421.459 45.322C421.459 45.322 415.365 85.7512 430.558 96.8242C430.472 95.1074 430.386 93.219 430.3 90.9873C429.785 77.7684 430.644 65.6654 431.33 55.9658L421.459 45.322Z" fill="#311E69"/>
<path d="M380.257 10.9014C380.257 10.9014 374.85 7.21036 378.369 2.66101C383.691 -4.03427 393.047 3.43354 394.421 6.18032C396.481 10.2147 395.622 17.5966 395.622 17.5966C395.622 17.5966 382.146 15.7941 380.257 10.9014Z" fill="#311E69"/>
<path d="M395.622 17.5967C395.622 17.5967 396.481 10.3006 394.421 6.18042C391.588 8.06883 385.322 10.6439 381.116 12.189C384.635 16.1375 395.622 17.5967 395.622 17.5967Z" fill="#614CD4"/>
<path d="M393.047 13.1331L400.772 26.6095C401.202 28.6695 391.33 36.3949 387.639 34.4206C386.524 33.8198 386.438 31.8455 386.867 29.5279L389.871 16.9957L393.047 13.1331Z" fill="#F89874"/>
<path d="M389.356 19.6566C391.502 18.7983 394.506 17.6824 394.506 17.6824C394.506 17.6824 395.021 21.2875 392.446 24.5493C391.073 26.2661 389.27 27.3819 387.468 27.8111L389.356 19.6566Z" fill="#311E69"/>
<path d="M389.27 9.01288L393.906 16.2232C395.279 18.7125 394.335 21.8884 391.931 23.2618C389.957 24.3777 388.584 24.721 385.751 25.1502C383.433 25.4936 381.717 23.6052 380.944 20.6009C379.914 16.7382 380.086 12.8755 380.343 10.9013C380.773 6.2661 385.837 4.46352 389.27 9.01288Z" fill="#FFA785"/>
<path d="M393.906 16.2233L389.442 8.41218C389.013 7.89716 388.412 7.983 387.983 7.63965C388.498 9.18471 389.528 13.9057 389.27 14.5924C388.584 16.395 386.953 14.6783 384.206 15.2791C382.489 15.7083 381.631 16.0517 380.257 17.0817C380.343 18.2834 380.601 19.4851 380.858 20.6869C381.631 23.6912 383.348 25.4937 385.665 25.2362C388.498 24.8929 389.871 24.4637 391.845 23.3478C394.421 21.8886 395.279 18.7126 393.906 16.2233Z" fill="#311E69"/>
<path d="M386.009 15.9658C386.009 15.9658 384.292 16.91 381.545 17.2534C381.545 17.2534 381.888 18.9701 383.09 19.3135C384.292 19.7426 385.923 18.1976 386.009 15.9658Z" fill="white"/>
<path d="M384.292 22.4034C386.695 21.2017 389.614 24.5494 393.219 19.7425C393.906 18.8841 393.906 17.0816 393.906 16.0515L393.991 16.2232C395.365 18.7125 394.421 21.8884 392.017 23.2618C390.043 24.3777 388.67 24.721 385.837 25.1502C384.378 25.3219 383.176 24.721 382.318 23.5193C382.747 23.5193 383.519 22.7468 384.292 22.4034Z" fill="#1E1240"/>
<path d="M390.215 11.4163C390.386 10.9013 390.472 10.3862 390.472 9.87122C390.558 8.84118 390.901 7.38195 392.36 8.24032C394.421 9.52788 394.077 14.4206 391.588 14.5923C389.7 14.7639 389.785 12.7038 390.215 11.4163Z" fill="#FFA785"/>
<path d="M380.601 15.6224H380.515C379.227 15.8799 378.026 15.4507 377.339 14.5924C376.738 13.8198 376.567 12.8756 376.91 11.9314C377.253 10.9014 378.369 10.2147 380.257 9.95716C381.288 9.87133 382.146 10.558 382.318 11.6739C382.489 12.7898 382.918 15.1932 380.601 15.6224ZM379.657 10.9872C378.798 11.1589 377.854 11.5022 377.682 12.2748C377.425 12.9615 377.597 13.6482 377.94 14.0773C378.455 14.764 379.399 15.0215 380.429 14.8499C381.631 14.5924 381.974 13.8198 381.631 11.8456C381.545 11.2447 381.03 10.7297 380.429 10.8155C380.172 10.9014 379.914 10.9014 379.657 10.9872Z" fill="#311E69"/>
<path d="M385.579 14.5924C383.262 15.1074 382.747 12.704 382.575 11.6739C382.318 10.6439 382.918 9.52801 383.863 9.27049C385.665 8.66964 386.953 8.84131 387.725 9.61384C388.326 10.3864 388.584 11.3306 388.326 12.2748C387.983 13.3907 387.039 14.249 385.751 14.5924C385.665 14.5065 385.579 14.5924 385.579 14.5924ZM383.262 11.5023C383.691 13.3907 384.292 13.9915 385.494 13.734C386.524 13.4765 387.21 12.7898 387.468 12.0173C387.639 11.4164 387.468 10.7297 387.039 10.2147C386.438 9.44217 384.893 9.78552 384.034 10.043C383.433 10.2147 383.176 10.8156 383.262 11.5023Z" fill="#311E69"/>
<path d="M382.918 11.4164L383.004 10.9872C382.918 10.9872 381.888 10.6438 381.373 11.4164L381.717 11.7597C382.146 11.2447 382.918 11.4164 382.918 11.4164Z" fill="#311E69"/>
<path d="M380.241 11.7226C380.331 11.6779 380.555 11.5883 380.734 11.857C380.868 12.0361 381.003 12.3048 381.003 12.5735C381.003 12.8869 380.779 13.066 380.465 13.0213C380.107 12.9765 379.748 11.9465 380.241 11.7226Z" fill="#434A59"/>
<path d="M385.264 11.051C385.353 11.0062 385.577 10.9167 385.756 11.1853C385.891 11.3645 386.025 11.6331 386.025 11.9018C386.025 12.2153 385.801 12.3944 385.488 12.3496C385.129 12.2601 384.726 11.2301 385.264 11.051Z" fill="#434A59"/>
<path d="M434.85 122.747C434.764 122.318 433.305 113.305 431.159 108.67C426.695 102.06 420.086 95.3649 418.112 85.1503C414.335 66.0945 418.627 38.0259 418.97 25.9229C415.794 24.807 412.275 23.9486 408.67 23.4336L405.579 54.1632L374.936 53.219L380.773 24.6353C376.91 25.4937 373.305 26.6954 370.129 28.0688C365.236 39.6568 360.086 105.322 360.515 120.515C361.545 161.202 367.639 279.914 371.76 282.833C375.88 285.751 394.249 287.21 397.253 282.833C401.717 276.395 394.249 218.798 394.077 207.296C393.991 199.914 394.592 188.24 395.365 176.052C398.97 188.155 400.086 200.515 401.03 205.236C406.953 234.335 412.189 276.652 415.365 280.601C418.541 284.635 439.657 282.489 443.348 279.828C446.953 277.167 439.914 143.691 434.85 122.747Z" fill="#FFD140"/>
<path d="M434.85 122.747C434.764 122.318 433.305 113.305 431.159 108.67C426.695 102.06 420.086 95.3649 418.112 85.1503C414.335 66.0945 418.627 38.0259 418.97 25.9229C415.794 24.807 412.275 23.9486 408.67 23.4336L405.579 54.1632L401.459 54.0774C400.515 65.837 400.086 77.94 400.944 85.837C403.348 106.352 417.253 130.301 419.142 158.798C421.03 187.296 425.064 240.086 426.009 256.395C426.695 267.039 426.266 276.567 427.811 282.747C434.335 282.489 441.373 281.202 443.348 279.828C446.953 277.168 439.914 143.691 434.85 122.747Z" fill="#F4A53B"/>
<path d="M437.854 145.837C437.082 137.768 436.309 131.073 435.536 126.524L406.094 125.665C406.094 125.665 417.425 144.034 437.854 145.837Z" fill="#311E69"/>
<path d="M423.519 31.9314C430.043 25.2361 471.245 60.5151 469.528 105.494C467.811 150.386 422.747 134.85 407.639 126.524C392.532 118.198 386.094 105.322 391.931 98.3692C397.768 91.4164 439.399 111.76 444.292 107.125C451.931 100 411.33 44.3778 423.519 31.9314Z" fill="#FFA785"/>
<path d="M450.215 61.1159C450.558 72.5322 455.107 77.5966 457.768 90.2146C460.429 102.747 462.489 105.15 462.575 113.648C462.661 122.146 452.704 125.579 441.803 122.919C430.815 120.258 424.807 124.979 409.7 118.713C395.708 112.876 396.223 102.833 390.3 101.459C387.983 108.67 394.592 119.313 407.639 126.609C422.747 134.936 467.811 150.472 469.528 105.579C470.386 84.2061 461.459 65.0644 451.245 51.5022C450.472 54.3348 450.129 57.7683 450.215 61.1159Z" fill="#F89874"/>
<path d="M371.588 62.4035C371.588 62.4035 373.133 61.8884 374.421 62.2318C375.708 62.5751 376.051 63.7769 376.051 63.7769L369.7 64.5494C369.785 64.4636 369.099 63.0902 371.588 62.4035Z" fill="#FFD5D4"/>
<path d="M379.914 62.4034L348.069 66.0086C346.524 66.1802 345.408 67.6395 345.579 69.1845L351.245 118.627C351.416 120.172 352.876 121.288 354.421 121.116L386.266 117.511C387.811 117.339 388.927 115.88 388.755 114.335L383.09 64.8927C382.918 63.3476 381.459 62.2317 379.914 62.4034Z" fill="#1E1240"/>
<path d="M347.983 102.317L347.124 108.755L377.167 105.236C377.167 105.236 372.79 64.0342 374.163 63.0042L367.554 63.6908L347.983 102.317Z" fill="#FFD5D4"/>
<path d="M374.421 62.1459C374.421 62.1459 372.876 61.7167 371.073 63.5193C369.27 65.3219 374.249 103.176 374.249 103.176C374.249 103.176 349.785 105.236 344.378 104.292C344.378 104.292 345.408 99.8283 345.064 96.1373C344.034 86.0086 341.03 68.6695 342.747 66.1802C345.15 62.8326 371.073 61.1159 374.421 62.1459Z" fill="white"/>
<path d="M439.056 86.0946C443.176 85.2362 456.309 81.8027 460.772 72.6182L436.652 81.0302C437.511 82.7469 438.283 84.3778 439.056 86.0946Z" fill="#311E69"/>
<path d="M395.622 97.9399C395.622 97.9399 388.24 93.2189 386.953 93.1331C385.665 93.0472 380.429 94.5923 379.227 95.1932C378.026 95.8799 379.056 97.5966 379.227 97.5966C379.399 97.5966 380.687 98.2833 380.773 98.3691C380.858 98.455 382.146 103.176 383.519 104.12C384.893 105.064 391.073 105.837 392.532 104.721C393.906 103.519 395.622 97.9399 395.622 97.9399Z" fill="#FFA785"/>
<path d="M462.575 70.6437C450.901 44.0343 428.24 27.1244 423.519 31.9313C415.966 39.6566 426.953 64.4635 435.966 83.6051C442.232 82.4892 455.966 78.7982 462.575 70.6437Z" fill="#614CD4"/>
<path d="M462.575 70.6439C451.416 45.1504 430.129 28.5838 424.206 31.4165C425.408 35.7083 428.069 41.9744 433.391 46.3521C442.146 53.5624 452.103 61.7169 452.532 67.5538C452.704 70.0431 453.476 73.8199 454.249 77.2534C457.425 75.5366 460.429 73.3049 462.575 70.6439Z" fill="#311E69"/>
<path d="M395.107 176.052C395.107 176.052 393.476 163.176 393.476 159.056C393.476 152.618 389.27 153.047 385.923 158.026C382.575 163.004 386.18 191.159 383.09 211.416C380 231.674 387.296 271.159 380.944 274.507C378.283 275.966 373.906 276.223 369.871 276.395C370.472 280.172 370.987 282.489 371.502 282.919C375.622 285.837 393.991 287.296 396.996 282.919C401.459 276.481 393.991 218.884 393.82 207.382C393.734 199.914 394.421 188.326 395.107 176.052Z" fill="#F4A53B"/>
<path d="M236.91 190.043H189.528V269.871H236.91V190.043Z" fill="#EDAEAE"/>
<path d="M189.528 190.043H109.7V269.871H189.528V190.043Z" fill="#FFCBCA"/>
<path d="M155.708 190.043H143.605V217.854H155.708V190.043Z" fill="#EDAEAE"/>
<path d="M219.313 190.043H207.21V217.854H219.313V190.043Z" fill="#DD9E9E"/>
<path d="M178.97 251.331L176.395 256.481H177.167V265.322H180.858V256.481H181.545L178.97 251.331Z" fill="#311E69"/>
<path d="M173.219 251.331L170.644 256.481H171.33V265.322H175.107V256.481H175.794L173.219 251.331Z" fill="#311E69"/>
<path d="M213.734 253.82H192.275V266.009H213.734V253.82Z" fill="white"/>
<path d="M195.193 254.592H194.163V265.236H195.193V254.592Z" fill="#311E69"/>
<path d="M212.017 254.592H210.987V265.236H212.017V254.592Z" fill="#311E69"/>
<path d="M197.339 257.339H196.309V265.236H197.339V257.339Z" fill="#311E69"/>
<path d="M199.313 257.339H197.768V265.236H199.313V257.339Z" fill="#311E69"/>
<path d="M204.807 257.339H203.777V265.236H204.807V257.339Z" fill="#311E69"/>
<path d="M206.695 257.339H205.15V265.236H206.695V257.339Z" fill="#311E69"/>
<path d="M201.03 256.566H200V265.322H201.03V256.566Z" fill="#311E69"/>
<path d="M202.918 257.339H201.373V265.236H202.918V257.339Z" fill="#311E69"/>
<path d="M208.24 257.339H207.21V265.236H208.24V257.339Z" fill="#311E69"/>
<path d="M210.215 257.339H208.669V265.236H210.215V257.339Z" fill="#311E69"/>
<path d="M269.528 131.245H241.803V279.571H269.528V131.245Z" fill="#1E1240"/>
<path d="M264.292 139.914H282.318C287.21 139.914 291.245 135.966 291.245 130.987L295.88 87.1245L264.292 139.914Z" fill="#1E1240"/>
<path d="M271.931 137.511H217.94C214.592 137.511 212.704 134.764 213.734 131.416L226.953 89.2704C227.983 85.9228 231.588 83.176 235.021 83.176H289.013C292.361 83.176 294.249 85.9228 293.219 89.2704L279.914 131.331C278.884 134.764 275.279 137.511 271.931 137.511Z" fill="#4CB4D4"/>
<path d="M218.283 137.167L231.502 95.0214C232.532 91.6738 236.137 88.927 239.571 88.927H293.305C294.163 85.6652 292.275 83.0901 289.013 83.0901H235.021C231.674 83.0901 228.069 85.8369 226.953 89.1845L213.734 131.33C212.704 134.678 214.592 137.425 217.94 137.425H218.283C218.197 137.339 218.283 137.253 218.283 137.167Z" fill="#2E88BF"/>
<path d="M294.592 83.3477C293.305 81.631 291.33 80.6868 288.927 80.6868H234.936C230.472 80.6868 226.009 84.1202 224.635 88.4979L211.416 130.644C210.644 133.047 210.987 135.451 212.275 137.253C213.562 138.97 215.536 139.914 217.94 139.914H271.931C276.395 139.914 280.858 136.481 282.232 132.103L295.451 89.9572C296.223 87.5537 295.88 85.1503 294.592 83.3477ZM290.901 88.4979L277.682 130.644C276.91 132.961 274.249 135.107 271.931 135.107H217.94C217.339 135.107 216.652 135.022 216.223 134.421C215.88 133.906 215.794 133.047 216.051 132.103L229.27 89.9572C230.043 87.6396 232.704 85.4936 235.021 85.4936H289.013C289.614 85.4936 290.3 85.5795 290.73 86.1803C291.159 86.7812 291.159 87.5537 290.901 88.4979Z" fill="#311E69"/>
<path d="M244.206 98.7126C243.262 101.803 240.601 103.691 238.283 103.004C235.966 102.318 234.936 99.2276 235.88 96.1375C236.824 93.0473 239.485 91.1589 241.803 91.8456C244.034 92.6181 245.15 95.6224 244.206 98.7126Z" fill="#2E88BF"/>
<path d="M251.674 97.6824C251.159 99.485 249.614 100.515 248.326 100.086C247.039 99.6567 246.352 97.94 246.953 96.1374C247.468 94.3348 249.013 93.3048 250.3 93.7339C251.674 94.1631 252.275 95.8799 251.674 97.6824Z" fill="#2E88BF"/>
<path d="M266.695 124.292C266.18 126.094 264.635 127.124 263.348 126.695C262.06 126.266 261.373 124.549 261.974 122.747C262.489 120.944 264.034 119.914 265.322 120.343C266.609 120.773 267.21 122.575 266.695 124.292Z" fill="#2E88BF"/>
<path d="M253.648 126.61H226.266L228.326 120.515H255.708L253.648 126.61Z" fill="#83E8FF"/>
<path d="M284.807 284.292H83.4335V281.03C83.4335 273.305 89.6996 267.039 97.4249 267.039H270.815C278.541 267.039 284.807 273.305 284.807 281.03V284.292Z" fill="#1E1240"/>
<path d="M94.6781 278.884H92.7039C90.8155 278.884 89.3562 280.429 89.3562 282.232V287.296C89.3562 289.184 90.9013 290.644 92.7039 290.644H94.6781C96.5665 290.644 98.0258 289.099 98.0258 287.296V282.232C98.1116 280.429 96.5665 278.884 94.6781 278.884Z" fill="#1E1240"/>
<path d="M273.476 278.884H275.451C277.339 278.884 278.798 280.429 278.798 282.232V287.296C278.798 289.184 277.253 290.644 275.451 290.644H273.476C271.588 290.644 270.129 289.099 270.129 287.296V282.232C270.129 280.429 271.674 278.884 273.476 278.884Z" fill="#1E1240"/>
<path d="M70.6438 29.3561C84.721 25.3218 101.03 70.3861 114.163 80.5149C131.931 94.2488 176.91 90.3861 178.455 97.0814C179.227 100.257 176.309 106.094 173.219 108.669C160.086 119.657 118.627 120.172 95.279 102.661C70.9871 84.3776 53.9056 34.0771 70.6438 29.3561Z" fill="#311E69"/>
<path d="M53.7339 291.073C55.4506 288.498 55.794 285.579 55.9656 283.262L64.6352 283.09C64.6352 283.09 64.1201 286.094 65.6652 288.326C66.3519 289.356 68.1545 290.043 70.8154 291.073C74.9356 293.047 80 295.622 80.1716 296.996C80.515 299.313 56.7382 299.828 52.7038 297.682C50.5579 296.481 51.9313 293.906 53.7339 291.073Z" fill="#1E1240"/>
<path d="M22.8326 291.159C24.721 288.412 25.236 285.408 25.4935 282.918L34.7639 283.004C34.7639 283.004 34.0772 286.18 35.6223 288.67C36.309 289.785 38.2832 290.558 41.03 291.76C45.3219 293.991 50.6438 296.91 50.8154 298.369C51.0729 300.858 25.6652 300.601 21.4592 298.197C19.2275 296.824 20.7725 294.163 22.8326 291.159Z" fill="#1E1240"/>
<path d="M15.6223 122.06C9.87124 121.459 13.133 99.9142 10.9013 82.4893C8.24034 61.8885 -5.15022 41.8885 10.9013 32.2747C26.4378 23.0043 60.1717 17.5966 73.133 28.4979C89.2704 42.0601 82.3176 110.901 81.1159 115.537C79.3133 122.747 30.4721 123.519 15.6223 122.06Z" fill="#614CD4"/>
<path d="M81.2017 115.365C81.8884 112.36 83.8626 93.3047 83.6051 73.5622C79.8283 63.8626 76.3948 55.1931 74.6781 49.8712C72.103 41.9742 67.382 30.7296 64.721 24.206C62.1459 23.4334 59.3133 22.9184 56.309 22.6609C60 30.7296 65.8369 49.7854 65.8369 49.7854L40.3433 53.3047C39.7425 49.5278 34.2489 30.7296 32.3605 24.4635C29.1845 25.1502 26.0086 26.0085 23.0901 26.9527C30.8154 37.854 35.9656 80.9441 30.1287 92.0171C29.1845 93.8197 27.9828 95.5364 26.7811 97.1673L23.0043 96.824C23.0043 96.824 18.7124 102.06 15.6223 107.554C14.0772 108.669 12.7038 109.528 11.8455 110.043C1.97423 146.953 18.0257 183.09 21.3734 213.305C23.0901 228.755 15.794 277.94 20.1717 281.888C27.5536 288.498 32.103 285.837 36.824 284.978C45.6652 283.348 50.5579 190.3 51.9313 150.215C56.824 164.292 61.6309 177.94 62.4034 186.352C64.8068 210.901 46.3519 272.79 51.3305 282.918C53.3047 286.867 60.515 285.923 65.5794 284.549C83.6051 279.571 90.5579 212.36 91.1588 183.433C91.8455 164.292 85.7511 134.764 81.2017 115.365Z" fill="#FFD140"/>
<path d="M91.4163 183.605C91.8455 164.292 85.7511 134.85 81.2017 115.451C81.8884 112.446 83.8626 93.3905 83.6051 73.648C79.8283 63.8626 76.3948 55.1931 74.6781 49.8712C72.103 41.9742 67.382 30.7296 64.721 24.206C62.1459 23.4334 59.3133 22.9184 56.309 22.6609C60 30.7296 65.8369 49.7854 65.8369 49.7854L59.0558 50.7296C60 54.3347 60.9442 58.1115 61.8884 61.8025C66.9528 81.8884 77.4249 107.124 74.4206 129.7C71.4163 152.275 76.6524 162.575 77.5107 182.833C78.3691 203.004 79.2275 227.725 73.8197 245.923C69.9571 258.884 57.1674 268.154 50.8154 274.936C50.6438 278.627 50.8154 281.459 51.588 283.004C53.5622 286.953 60.7725 286.009 65.8369 284.635C83.8626 279.657 90.7296 212.446 91.4163 183.605Z" fill="#F4A53B"/>
<path d="M187.468 56.9099H140.086V136.738H187.468V56.9099Z" fill="#EDAEAE"/>
<path d="M140.086 56.9099H60.2575V136.738H140.086V56.9099Z" fill="#FFCBCA"/>
<path d="M106.18 56.9099H94.0772V84.7211H106.18V56.9099Z" fill="#EDAEAE"/>
<path d="M169.785 56.9099H157.682V84.7211H169.785V56.9099Z" fill="#DD9E9E"/>
<path d="M129.528 118.198L126.953 123.262H127.639V132.189H131.33V123.262H132.103L129.528 118.198Z" fill="#311E69"/>
<path d="M123.691 118.198L121.202 123.262H121.888V132.189H125.579V123.262H126.266L123.691 118.198Z" fill="#311E69"/>
<path d="M164.292 120.687H142.833V132.876H164.292V120.687Z" fill="white"/>
<path d="M145.665 121.374H144.635V132.017H145.665V121.374Z" fill="#311E69"/>
<path d="M162.489 121.374H161.459V132.017H162.489V121.374Z" fill="#311E69"/>
<path d="M147.897 124.206H146.867V132.103H147.897V124.206Z" fill="#311E69"/>
<path d="M149.785 124.206H148.24V132.103H149.785V124.206Z" fill="#311E69"/>
<path d="M155.279 124.206H154.249V132.103H155.279V124.206Z" fill="#311E69"/>
<path d="M157.167 124.206H155.622V132.103H157.167V124.206Z" fill="#311E69"/>
<path d="M151.502 123.348H150.472V132.103H151.502V123.348Z" fill="#311E69"/>
<path d="M153.476 124.206H151.931V132.103H153.476V124.206Z" fill="#311E69"/>
<path d="M158.798 124.206H157.768V132.103H158.798V124.206Z" fill="#311E69"/>
<path d="M160.687 124.206H159.142V132.103H160.687V124.206Z" fill="#311E69"/>
<path d="M47.5536 7.38194C47.5536 7.38194 47.4678 2.23172 42.7468 1.97421C36.0515 1.54503 34.0772 8.84116 35.279 11.5021C36.9957 15.1931 39.3991 14.0772 41.7167 12.7038C43.9485 11.2446 47.5536 7.38194 47.5536 7.38194Z" fill="#614CD4"/>
<path d="M38.2832 9.52794C38.2832 9.52794 43.2618 3.176 46.5236 2.31764C50.9871 1.20176 52.5322 5.06442 51.6738 6.95283C50.8154 8.84124 46.3519 12.2747 45.0644 12.3606C43.8626 12.4464 38.2832 9.52794 38.2832 9.52794Z" fill="#1E1240"/>
<path d="M47.5536 9.78546C47.5536 9.78546 49.0128 8.49791 47.2961 6.09447C45.5794 3.6052 36.9098 9.61379 36.309 12.0172C35.4506 15.5365 36.6523 17.8541 36.6523 17.8541C36.6523 17.8541 46.9528 13.9915 47.5536 9.78546Z" fill="#311E69"/>
<path d="M38.1116 13.9055C35.8798 16.7381 36.4807 27.5536 36.4807 27.5536C36.9957 29.1845 46.9528 30.9012 48.8412 28.0686C49.3562 27.2102 48.6695 25.751 47.4678 24.3776L40.515 16.6523C40.4292 16.5665 38.6266 13.2188 38.1116 13.9055Z" fill="#FFA785"/>
<path d="M41.8884 18.1116C40 18.3691 37.7682 18.4549 37.7682 18.4549C37.7682 18.4549 37.2532 21.3734 41.6309 23.0043C43.3476 23.6051 44.9785 23.5193 46.4378 23.1759L41.8884 18.1116Z" fill="#311E69"/>
<path d="M40.1717 9.87113L37.7682 16.4806C37.1674 18.7123 38.4549 21.0299 40.6008 21.6308C42.3176 22.1458 43.5193 22.2316 45.7511 21.9741C47.6395 21.8025 48.6695 19.9999 48.7553 17.5106C48.8412 14.3347 48.0687 11.3304 47.4678 9.69946C46.3519 6.18015 42.0601 5.75096 40.1717 9.87113Z" fill="#FFA785"/>
<path d="M43.9485 14.8499C43.9485 14.8499 45.4935 15.279 47.7253 15.1074C47.7253 15.1074 47.7253 16.5666 46.8669 16.9958C46.0086 17.425 44.4635 16.5666 43.9485 14.8499Z" fill="white"/>
<path d="M46.5236 19.5709C44.4635 19.0559 42.7468 22.2318 39.0558 19.0559C38.3691 18.455 38.0257 17.0816 37.8541 16.3091L37.7682 16.4808C37.1674 18.7125 38.4549 21.0301 40.6008 21.631C42.3176 22.146 43.5193 22.2318 45.7511 21.9743C46.8669 21.8885 47.7253 21.2018 48.2403 20.0859C47.9828 20.1717 47.1244 19.7426 46.5236 19.5709Z" fill="#AD263D"/>
<path d="M40.2575 12.5321C40.1717 12.1029 40.1717 11.6737 40.1717 11.2445C40.1717 10.3862 40 9.18445 38.7983 9.7853C36.9957 10.6437 36.824 14.5922 38.8841 14.9355C40.4292 15.2789 40.4292 13.648 40.2575 12.5321Z" fill="#FFA785"/>
<path d="M44.7706 13.9403C45.2847 13.8905 45.7569 13.7227 46.187 13.4368C46.5244 13.2351 46.7849 13.7662 46.4476 13.9679C45.9753 14.279 45.4273 14.4636 44.8795 14.5049C44.5001 14.5887 44.366 13.9819 44.7706 13.9403Z" fill="#C66C67"/>
<path d="M42.6173 10.6767C42.6932 10.66 42.8786 10.635 42.9626 10.871C43.0298 11.0312 43.0801 11.2587 43.0293 11.4608C42.97 11.6966 42.7676 11.789 42.5402 11.696C42.2791 11.5946 42.2043 10.752 42.6173 10.6767Z" fill="#434A59"/>
<path d="M46.4175 11.0948C46.4933 11.0781 46.6788 11.053 46.7628 11.2891C46.83 11.4492 46.8803 11.6768 46.8294 11.8789C46.7702 12.1147 46.5678 12.2071 46.3404 12.1141C46.0877 11.979 45.9792 11.1279 46.4175 11.0948Z" fill="#434A59"/>
<path d="M11.4163 36.3947C26.0086 36.2231 29.9571 83.9484 40 97.2531C53.5622 115.193 97.9399 123.176 97.6824 130.129C97.5965 133.39 93.2189 138.283 89.6137 139.914C74.0772 147.039 33.9914 136.738 15.9656 113.648C-2.66096 89.6995 -6.0086 36.6523 11.4163 36.3947Z" fill="#614CD4"/>
<path d="M7.89699 37.3389C7.12446 41.0299 6.09442 47.7251 7.29613 50.2144C9.01287 53.8196 12.618 62.7466 12.4463 73.562C12.2747 84.3775 16.309 99.9998 28.6695 105.493C41.03 110.987 46.0944 126.18 59.485 131.244C72.9614 136.395 78.9699 132.618 88.1545 133.305C92.0172 133.562 94.1631 134.42 95.3648 135.279C93.8197 137.253 91.6738 139.056 89.7854 139.914C74.2489 147.038 34.1631 136.738 16.1373 113.648C-1.28756 91.5019 -5.40773 44.2917 7.89699 37.3389Z" fill="#311E69"/>
<path d="M97.5107 129.013C100.343 129.442 102.232 132.017 106.524 133.648C108.154 134.249 107.554 135.365 103.863 134.85C102.918 134.678 101.888 134.077 101.631 134.592C101.116 135.45 102.232 136.566 107.468 140.429C108.927 141.459 107.382 142.661 106.524 143.176C105.665 143.691 104.463 144.034 102.918 143.605C99.3133 142.575 91.9313 137.339 91.8455 133.82C91.8455 132.961 92.0171 132.189 92.3605 131.588C93.3047 129.699 95.4506 128.669 97.5107 129.013Z" fill="#FFA785"/>
<path d="M43.4335 164.549C43.2618 182.146 44.2918 195.88 40.515 211.588C36.7382 227.296 30.5579 238.627 30.3862 253.734C30.3004 262.575 24.2918 262.661 19.2274 264.292C18.7983 273.562 18.8841 280.601 20.4292 282.06C27.8111 288.67 32.3605 286.009 37.0815 285.15C45.9227 283.519 50.8154 190.472 52.1888 150.386C52.1888 150.3 43.5193 146.953 43.4335 164.549Z" fill="#F4A53B"/>
<g clip-path="url(#clip1_15_1937)">
<path d="M205.377 67.4049L225.943 77.7375V63.3047L205.377 67.4049Z" fill="url(#paint0_linear_15_1937)"/>
<path d="M274.771 19.6455V58.8437L220.47 65.5353L205.377 67.405L206.538 29.9125L249.826 23.3849L274.771 19.6455Z" fill="#FFC800"/>
<path d="M214.3 36.9322L222.957 35.7842V38.5723L218.446 39.1628V44.5423L222.261 44.0174V46.8712L218.446 47.396V56.3837L214.3 56.9414V36.9322Z" fill="white"/>
<path d="M227.104 35.2264L232.411 34.5048C234.634 34.2096 236.292 34.3736 237.42 35.0296C238.548 35.6857 239.079 36.9649 239.079 38.9002C239.079 40.2123 238.879 41.262 238.515 42.1148C238.15 42.9677 237.486 43.6565 236.524 44.1813L239.377 53.5626L235.098 54.1203L232.776 45.3622L231.25 45.559V54.6451L227.104 55.2027V35.2264ZM232.511 43.0333C233.506 42.9021 234.169 42.574 234.567 42.0492C234.965 41.5244 235.164 40.7699 235.164 39.7531C235.164 38.769 234.998 38.0474 234.634 37.6538C234.269 37.2273 233.638 37.0961 232.71 37.2273L231.25 37.4242V43.1973L232.511 43.0333Z" fill="white"/>
<path d="M243.921 32.9632L252.878 31.7495V34.5705L248.101 35.2265V40.5404L251.816 40.0484V42.9021L248.101 43.3942V49.6593L252.944 49.0033V51.7586L243.955 52.9723V32.9632H243.921Z" fill="white"/>
<path d="M257.057 31.2247L266.013 30.011V32.8319L261.237 33.488V38.8019L264.952 38.3098V41.1636L261.237 41.6556V47.9208L266.08 47.2647V50.0201L257.09 51.2338V31.2247H257.057Z" fill="white"/>
<path d="M274.771 19.6455L276.031 21.4496L279.149 63.4359L274.771 58.8437V19.6455Z" fill="#FF9900"/>
<path d="M279.149 63.436L205.377 67.405L274.771 58.8438L279.149 63.436Z" fill="#D96900"/>
<path d="M274.771 19.6455L273.941 58.0564L205.377 67.405L274.771 58.8437V19.6455Z" fill="#CCCCCC"/>
<path d="M249.826 23.385C229.426 39.2939 222.626 57.4005 220.503 65.5026L205.41 67.3723L206.571 29.9126L249.826 23.385Z" fill="url(#paint1_radial_15_1937)" fill-opacity="0.05"/>
<path d="M262.398 6L261.369 14.9221L267.771 8.00091L262.398 6Z" fill="#FFC800"/>
<path d="M282.533 23.4505L292.583 18.6287L293.479 24.6314L282.533 23.4505Z" fill="#FFC800"/>
<path d="M284.523 55.1042L296 55.3667L293.943 62.4191L284.523 55.1042Z" fill="#FFC800"/>
<path d="M264.919 76.9503L263.857 70.4556L269.795 76.3271L264.919 76.9503Z" fill="#FFC800"/>
<path d="M233.075 76.7536L233.506 71.7021L236.69 75.9008L233.075 76.7536Z" fill="#FFC800"/>
<path d="M187.63 73.375L199.738 67.3066L193.17 78L187.63 73.375Z" fill="#FFC800"/>
<path d="M188.493 39.3594L198.477 44.214L187 45.8869L188.493 39.3594Z" fill="#FFC800"/>
<path d="M199.24 17.8088L204.581 19.9081L202.491 14.8894L199.24 17.8088Z" fill="#FFC800"/>
<path d="M230.189 12.7243L233.937 19.9079C233.937 19.9079 235.861 11.3794 235.529 11.3794C235.198 11.3794 230.189 12.7243 230.189 12.7243Z" fill="#FFC800"/>
</g>
</g>
<defs>
<linearGradient id="paint0_linear_15_1937" x1="215.648" y1="66.6698" x2="215.648" y2="76.783" gradientUnits="userSpaceOnUse">
<stop stop-color="#AD3A00"/>
<stop offset="1" stop-color="#FF9900"/>
</linearGradient>
<radialGradient id="paint1_radial_15_1937" cx="0" cy="0" r="1" gradientUnits="userSpaceOnUse" gradientTransform="translate(232.013 15.4389) scale(65.201 64.4753)">
<stop offset="0.1312" stop-color="#7D7D7D"/>
<stop offset="0.1902" stop-color="#717171"/>
<stop offset="0.4544" stop-color="#414141"/>
<stop offset="0.687" stop-color="#1D1D1D"/>
<stop offset="0.8768" stop-color="#080808"/>
<stop offset="1"/>
</radialGradient>
<clipPath id="clip0_15_1937">
<rect width="469.614" height="300" fill="white"/>
</clipPath>
<clipPath id="clip1_15_1937">
<rect width="109" height="72" fill="white" transform="translate(187 6)"/>
</clipPath>
</defs>
</svg>
