<svg width="246" height="201" viewBox="0 0 246 201" fill="none" xmlns="http://www.w3.org/2000/svg">
<g clip-path="url(#clip0_18_1142)">
<path d="M125.841 109.532C126.185 109.581 126.578 109.532 126.922 109.384C127.954 108.942 128.446 107.713 127.954 106.632L123.532 96.7552C121.713 92.7257 118.569 89.4333 114.588 87.4677L104.564 82.5045C103.532 82.0131 102.303 82.4063 101.812 83.4382C101.32 84.4701 101.713 85.6986 102.745 86.19L112.77 91.1532C115.866 92.6765 118.372 95.2809 119.797 98.4259L124.22 108.303C124.465 109.04 125.104 109.482 125.841 109.532Z" fill="#BFBFBF"/>
<path d="M189.478 105.6L167.905 101.62L168.495 129.826L185.006 133.119L197.782 131.35L204.269 104.323L189.478 105.6Z" fill="#5CBEC6"/>
<path d="M166.627 101.473L191.296 106.681L205.448 104.814L206.284 99.3595L185.35 94.9861L166.677 97.3448L166.627 101.473Z" fill="#5CBEC6"/>
<path d="M167.905 103.094L189.084 108.303L203.728 106.534L204.072 105.011L191.296 106.681L167.905 101.718V103.094Z" fill="#3F8DA5"/>
<path d="M191.885 99.2613C190.411 99.0647 189.134 98.7699 188.2 98.2785C188.003 98.1802 187.856 97.9836 187.905 97.7379C187.905 97.4922 188.053 97.2957 188.298 97.1974C188.347 97.1974 194.736 94.7895 196.505 93.3644C197.045 92.9222 197.831 92.0377 198.667 91.104C200.682 88.8436 202.942 86.2391 204.76 86.3374C204.957 86.3374 205.104 86.3374 205.252 86.3374C207.365 86.3866 208.249 86.5831 208.691 89.8264C208.839 90.6617 208.986 91.3497 209.084 91.9394C209.428 93.6101 209.674 94.6912 208.741 96.3128C207.954 97.7379 203.483 98.7207 199.944 99.163C196.947 99.507 194.146 99.5561 191.885 99.2613ZM190.116 97.7379C192.475 98.3767 195.964 98.475 199.895 98.0328C204.564 97.4922 207.463 96.362 207.807 95.7723C208.495 94.5438 208.347 93.8067 208.003 92.2342C207.856 91.5954 207.709 90.9074 207.561 90.0229C207.365 88.7453 207.168 88.0573 206.824 87.8116C206.529 87.5659 205.989 87.5168 205.153 87.5168C205.006 87.5168 204.809 87.5168 204.662 87.5168C203.384 87.4676 201.124 90.0229 199.453 91.8902C198.569 92.9222 197.782 93.7576 197.143 94.2981C195.768 95.3792 192.18 96.9025 190.116 97.7379Z" fill="#F25C5C"/>
<path d="M185.89 99.0155C185.153 98.9173 184.416 98.7698 183.777 98.5241C182.942 98.2293 175.473 95.33 173.114 92.3816C171.738 90.6126 171.64 87.6151 172.328 85.5512C172.77 84.2244 173.458 83.389 174.293 83.1433C175.915 82.6519 177.635 84.3227 179.453 86.0426C180.141 86.7305 180.878 87.4185 181.615 88.0082C184.17 90.0721 189.281 96.8534 189.527 97.1482C189.822 97.5413 189.822 97.9836 189.576 98.3276C188.986 99.0647 187.463 99.2612 185.89 99.0155ZM174.932 84.2244C174.785 84.2244 174.637 84.2244 174.49 84.2735C174.048 84.3718 173.655 85.0106 173.36 85.8952C172.819 87.6151 172.819 90.1703 173.949 91.5954C175.718 93.8067 181.222 96.2637 184.17 97.3939C185.94 98.0819 187.807 97.9836 188.397 97.7379C187.61 96.706 183.089 90.76 180.829 88.9418C180.043 88.303 179.306 87.6151 178.618 86.9271C177.291 85.6495 175.915 84.3718 174.932 84.2244Z" fill="#F25C5C"/>
<path d="M97.9297 78.2784C91.3449 74.1998 67.856 71.2023 67.856 71.2023C67.856 71.2023 55.8167 70.6126 51.4432 75.5266C51.5415 75.9688 51.5906 76.4111 51.6889 76.8042C55.6693 94.1507 95.6693 87.2219 95.6693 87.2219C95.6693 87.2219 98.5685 87.1236 99.1582 82.7502C99.5022 80.1949 98.9125 78.8681 97.9297 78.2784Z" fill="#D6B50B"/>
<path d="M16.2589 173.659C17.8314 171.153 20.5833 170.121 20.7307 169.974C21.3695 169.286 21.5169 166.141 19.453 166.878C15.3744 168.352 17.6349 162.505 16.6029 163.733C13.6054 167.369 7.36459 171.89 8.05255 173.168C9.47761 175.92 14.1459 186.976 15.6201 185.797C16.4555 185.158 15.1779 175.379 16.2589 173.659Z" fill="#333F56"/>
<path d="M91.0501 194.298C89.0845 193.561 88.7405 191.89 87.8069 190.318C87.7577 190.22 87.2663 187.91 87.2663 187.713C87.2172 186.927 84.7602 184.912 83.7774 186.632C81.8609 190.072 78.8634 185.158 79.0599 186.534C79.6987 190.613 78.5194 197.247 80.0919 197.591C83.3842 198.328 98.6668 198.524 98.8634 196.952C98.9616 195.969 94.4408 195.576 91.0501 194.298Z" fill="#333F56"/>
<path d="M86.0378 86.6815C86.0378 86.6815 96.7503 128.647 95.7184 140.686C94.6865 152.726 91.7872 188.942 91.7872 188.942L76.6029 189.925C76.6029 189.925 76.0132 146.043 76.1115 143.34C76.2589 139.065 63.4825 93.6102 65.9395 86.6815C70.313 74.4947 86.0378 86.6815 86.0378 86.6815Z" fill="#434A59"/>
<path d="M75.7184 88.4995C75.7184 88.4995 63.3351 136.362 59.8953 142.504C55.9641 149.531 42.3523 162.996 33.5562 170.907C29.7233 174.347 27.1189 179.507 27.1189 179.507C27.1189 179.507 22.1557 174.839 21.1729 173.758C16.4064 168.696 14.5882 164.323 14.5882 164.323C14.5882 164.323 40.141 139.016 41.5169 132.48C42.3032 128.844 42.942 90.7108 46.5292 85.9443C50.0673 81.2268 75.7184 88.4995 75.7184 88.4995Z" fill="#434A59"/>
<path d="M87.168 91.2515C82.7946 90.1212 76.2589 88.5488 72.9666 88.4013C67.7577 88.1556 47.168 93.8067 47.168 93.8067C47.168 93.8067 59.3548 98.3276 70.1164 99.3104C77.8806 99.9984 85.5955 100.342 89.2811 100.342C88.4948 96.7551 87.7577 93.6102 87.168 91.2515Z" fill="#2C323D"/>
<path d="M90.3621 95.3301C85.6447 67.6642 94.4899 41.1778 87.856 34.4947C76.2098 22.8485 62.1557 26.4357 55.1287 37.1974C47.4629 48.8927 54.3916 68.7945 42.8928 91.3989C46.0869 94.2981 58.1263 97.6888 72.2786 97.6397C72.9666 97.6397 74.7356 91.5463 75.4236 91.5463C76.2098 91.4972 75.0796 98.2785 75.8658 98.2294C79.6987 97.9345 86.3326 96.6569 90.3621 95.3301Z" fill="#FFE145"/>
<path d="M58.1263 83.9296C53.8019 81.7183 49.2319 78.6224 47.9051 77.7379C47.2663 80.3915 46.4309 83.0942 45.3498 85.846C47.3646 87.3694 51.3941 89.9246 55.8658 90.5143C62.3032 91.3988 73.2614 90.5143 73.2614 90.5143C73.2614 90.5143 63.286 86.534 58.1263 83.9296Z" fill="#D6B50B"/>
<path d="M72.4752 30.4161C72.4752 30.4161 76.5046 40.9812 77.7823 49.5316C79.1091 58.0328 79.6987 70.8092 79.6987 70.8092C79.6987 70.8092 86.7749 37.8854 80.0919 30.8584C75.3253 25.7969 72.4752 30.4161 72.4752 30.4161Z" fill="white"/>
<path d="M40.2393 135.576C40.141 135.576 40.0427 135.527 39.9936 135.477C39.8462 135.33 39.8462 135.133 39.9936 134.986C43.1385 131.988 43.8265 128.549 43.8265 128.5C43.8756 128.303 44.0231 128.205 44.2196 128.205C44.4162 128.254 44.5145 128.401 44.5145 128.598C44.4653 128.745 43.8265 132.283 40.485 135.477C40.3867 135.576 40.2884 135.576 40.2393 135.576Z" fill="#2C323D"/>
<path d="M91.738 79.3595L62.6471 73.1678C62.6471 73.1678 50.6078 72.5782 46.2344 77.4922C46.3326 77.9344 46.3818 78.3767 46.4801 78.7698C50.4604 96.1162 90.4604 89.1875 90.4604 89.1875C90.4604 89.1875 92.3769 88.2538 92.9665 83.8804C93.3105 81.2759 91.738 79.3595 91.738 79.3595Z" fill="#FFDF35"/>
<path d="M78.7651 30.5143C78.7651 30.5143 73.8511 27.5168 73.114 26.3374C73.114 26.3374 71.2467 27.8607 71.4924 29.3349C71.6398 30.2686 77.2909 33.217 77.8806 33.1679C78.5685 33.0696 78.8634 32.4799 78.8634 32.4799C78.8634 32.4799 80.0427 33.4136 80.2393 32.9222C80.4358 32.4308 80.2393 29.0401 79.7479 28.647C79.3056 28.303 78.9125 28.1064 78.9125 28.1064C78.9125 28.1064 78.9125 29.6789 78.8634 30.1212C78.8142 30.3669 78.7651 30.5143 78.7651 30.5143Z" fill="white"/>
<path d="M82.2049 16.3128C82.2049 16.3128 83.9248 14.5929 81.8609 13.217C75.7675 9.23664 72.5734 13.561 72.426 18.131C72.3277 21.1777 74.6373 23.5364 74.6373 23.5364C74.6373 23.5364 81.8609 19.8017 82.2049 16.3128Z" fill="#FFE164"/>
<path d="M75.1779 20.5389L72.7209 27.4677C72.3277 29.0402 76.6029 33.0205 78.5685 32.0869C79.1582 31.792 79.4039 31.4972 79.2565 30.2687L78.1754 23.5856L75.1779 20.5389Z" fill="#FF867A"/>
<path d="M75.571 12.5782C75.571 12.5782 75.6693 10.6617 78.0771 10.1212C80.485 9.58066 80.485 10.9074 82.254 12.9222C84.0231 14.9369 82.942 17.5413 80.0919 19.163C78.0771 20.2441 73.5562 15.9689 75.571 12.5782Z" fill="#FFE164"/>
<path d="M78.372 24.9615C77.2909 24.4701 75.8658 23.7821 75.8658 23.7821C75.8658 23.7821 75.4727 25.6986 76.6521 27.4676C77.2909 28.4013 78.1263 29.0401 79.0599 29.3349L78.372 24.9615Z" fill="#D66856"/>
<path d="M75.7675 16.9516L74.5882 20.6863C74.1951 22.357 74.8339 24.1261 76.3572 24.9123C77.7823 25.6494 78.7159 26.0917 80.3867 25.846C81.8118 25.6494 82.4997 24.2735 82.4997 22.4553C82.4506 20.0474 81.7626 17.8361 81.3204 16.7059C80.829 15.4774 79.8462 14.7403 78.8634 14.6912C77.6349 14.5438 78.0771 16.1654 75.7675 16.9516Z" fill="#FF867A"/>
<path d="M79.9444 20.7845C80.2884 20.7354 80.5833 20.588 80.8781 20.3914C81.0747 20.244 81.3204 20.588 81.0747 20.7354C80.7798 20.9811 80.4358 21.1285 80.0427 21.1777C79.797 21.2268 79.6987 20.8337 79.9444 20.7845Z" fill="#C66C67"/>
<path d="M78.4211 21.8657C78.9616 21.8657 80.2393 21.8657 81.5661 21.964C81.6643 21.964 81.7135 22.0623 81.7135 22.1606C81.6643 22.4554 81.5169 22.9959 81.1729 23.2908C80.485 23.8313 79.0599 24.0279 78.2737 22.1114C78.2245 22.0131 78.2737 21.8657 78.4211 21.8657Z" fill="white"/>
<path d="M75.3744 20.0966C75.2761 19.8018 75.1779 19.5561 75.1287 19.2613C75.0304 18.7207 74.7356 17.9345 73.9985 18.475C72.9174 19.3104 73.6545 22.2097 75.0796 22.1605C76.1115 22.1605 75.6693 20.7846 75.3744 20.0966Z" fill="#FF867A"/>
<path d="M80.5743 18.4674C80.6009 18.64 80.7151 18.7602 80.8097 18.7314C80.9116 18.7263 80.994 18.5722 80.9674 18.3995C80.9408 18.2269 80.8267 18.1067 80.732 18.1355C80.6301 18.1406 80.5714 18.2876 80.5743 18.4674Z" fill="#061A3C"/>
<path d="M77.9853 18.7122C78.012 18.8848 78.1261 19.005 78.2208 18.9762C78.3226 18.9711 78.4051 18.8169 78.3784 18.6443C78.3518 18.4717 78.2377 18.3515 78.143 18.3803C78.0247 18.4162 77.9659 18.5632 77.9853 18.7122Z" fill="#061A3C"/>
<path d="M78.1263 17.05C78.1263 17.05 76.9469 17.2465 76.9469 17.3939C76.9469 17.4922 77.0943 17.7379 77.0943 17.7379C77.0943 17.7379 78.372 17.2957 78.5685 17.3939C78.7651 17.4431 78.6177 17.0008 78.4211 17.0008C78.2245 16.9517 78.1263 17.05 78.1263 17.05Z" fill="#AF5546"/>
<path d="M80.485 17.0008C80.485 17.0008 81.5661 17.0008 81.6152 17.0991C81.6643 17.1974 81.5661 17.4431 81.5661 17.4431C81.5661 17.4431 80.3376 17.2957 80.1901 17.394C80.0427 17.4922 80.0427 17.05 80.1901 17.0008C80.3376 16.9517 80.485 17.0008 80.485 17.0008Z" fill="#AF5546"/>
<path d="M148.839 100.146L116.849 95.1334L120.632 137.689L145.104 141.915L163.581 138.622L170.313 97.5413L148.839 100.146Z" fill="#FFE164"/>
<path d="M114.981 94.9369L151.64 101.718L172.131 98.2785L172.819 89.9738L141.763 84.2736L114.637 88.6962L114.981 94.9369Z" fill="#FFE164"/>
<path d="M117.045 97.2956L148.495 104.274L169.772 100.883L170.166 98.6224L151.64 101.718L116.849 95.2809L117.045 97.2956Z" fill="#F2A25C"/>
<path d="M144.367 88.4013L159.355 95.7232L150.608 140.932L156.161 139.949L164.957 93.8558L149.134 87.5659L144.367 88.4013Z" fill="#F25C5C"/>
<path d="M146.971 87.0745C146.971 87.0745 136.308 70.8583 133.753 71.448C131.247 72.0376 126.382 77.3448 126.038 79.0155C125.694 80.6371 144.809 90.072 146.038 89.1875C147.315 88.303 146.971 87.0745 146.971 87.0745Z" fill="#F25C5C"/>
<path d="M143.63 86.5339C143.63 86.5339 160.534 72.4799 162.205 74.4455C163.876 76.4111 168.593 81.7182 167.266 82.7993C165.94 83.8312 146.873 90.8582 144.269 88.9418C141.615 86.9762 143.63 86.5339 143.63 86.5339Z" fill="#F25C5C"/>
<path d="M141.763 86.8287L125.35 91.0056L129.183 139.163L133.998 139.998L132.573 94.0523L145.596 88.7943L141.763 86.8287Z" fill="#F25C5C"/>
<path d="M172.131 189.777C172.131 185.944 170.067 182.75 167.414 182.357L163.335 182.308V197.197L167.414 197.148C170.067 196.804 172.131 193.659 172.131 189.777Z" fill="#434A59"/>
<path d="M168.593 189.777C168.593 193.856 166.234 197.197 163.286 197.197C160.387 197.197 158.028 193.856 158.028 189.777C158.028 185.699 160.387 182.357 163.335 182.357C166.284 182.357 168.642 185.699 168.593 189.777Z" fill="#54678C"/>
<path d="M165.989 189.777C165.989 192.087 164.809 194.003 163.335 194.003C161.861 194.003 160.682 192.087 160.682 189.777C160.682 187.468 161.861 185.551 163.335 185.551C164.809 185.551 165.989 187.468 165.989 189.777Z" fill="white"/>
<path d="M128.102 189.777C128.102 185.944 126.038 182.75 123.384 182.357L119.306 182.308L119.256 197.148L123.335 197.099C126.038 196.804 128.102 193.659 128.102 189.777Z" fill="#434A59"/>
<path d="M124.564 189.777C124.564 193.856 122.205 197.197 119.256 197.197C116.357 197.197 113.998 193.856 113.998 189.777C113.998 185.699 116.357 182.357 119.306 182.357C122.254 182.357 124.613 185.699 124.564 189.777Z" fill="#54678C"/>
<path d="M121.959 189.777C121.959 192.087 120.78 194.003 119.306 194.003C117.831 194.003 116.652 192.087 116.652 189.777C116.652 187.468 117.831 185.551 119.306 185.551C120.78 185.551 121.959 187.468 121.959 189.777Z" fill="white"/>
<path d="M128.888 183.438L175.62 183.536C176.75 183.536 177.684 182.603 177.684 181.473C177.684 180.342 176.75 179.409 175.62 179.409L128.888 179.31C126.431 179.31 124.121 178.18 122.647 176.215C121.124 174.249 120.632 171.743 121.32 169.384L127.561 146.288C127.856 145.207 123.876 144.126 123.581 145.207L117.34 168.303C116.357 171.939 117.094 175.772 119.404 178.77C121.615 181.718 125.104 183.438 128.888 183.438Z" fill="#D3D3D3"/>
<path d="M121.419 183.438L168.151 183.536C169.281 183.536 170.215 182.603 170.215 181.473C170.215 180.342 169.281 179.409 168.151 179.409L121.419 179.31C118.962 179.31 116.652 178.18 115.178 176.215C113.655 174.249 113.163 171.743 113.851 169.384L120.092 146.288C120.387 145.207 119.748 144.028 118.618 143.733C117.537 143.438 116.357 144.077 116.062 145.207L109.822 168.303C108.839 171.939 109.576 175.772 111.885 178.77C114.195 181.718 117.684 183.438 121.419 183.438Z" fill="#D3D3D3"/>
<path d="M92.2295 83.5364H103.974C104.76 83.5364 105.35 84.1752 105.35 84.9123C105.35 85.6985 104.711 86.2882 103.974 86.2882H92.2295C91.4432 86.2882 90.8535 85.6494 90.8535 84.9123C90.8535 84.1752 91.4924 83.5364 92.2295 83.5364Z" fill="#F76757"/>
<path d="M111.443 134.298L122.696 134.347V145.06H124.465V134.347L139.06 134.396V145.109H140.829V134.396L155.178 134.446V145.158H156.947V134.446L171.738 134.495V145.207H173.507V134.495L188.102 134.544V144.814C189.084 144.568 188.937 144.224 189.871 143.831V134.593L201.173 134.642L203.532 132.971L189.871 132.922L189.92 121.62L203.581 121.669V131.104L205.35 129.286V121.669H213.851L216.21 120.195L205.35 120.146L205.399 108.745H203.63L203.581 120.146L189.92 120.097L189.969 108.696H188.2L188.151 120.097L173.556 120.048L173.605 108.647H171.836L171.787 120.048L156.996 119.998L157.045 108.598H155.276L155.227 119.998L140.878 119.949L140.927 108.549H139.158L139.109 119.949L124.514 119.9L124.564 108.5H122.795L122.745 119.9L111.492 119.851V121.325L122.745 121.374L122.696 132.677L111.443 132.627V134.298ZM173.458 121.473L188.053 121.522L188.003 132.824L173.409 132.775L173.458 121.473ZM156.898 121.423L171.689 121.473L171.64 132.775L156.849 132.726L156.898 121.423ZM140.78 121.374L155.129 121.423L155.08 132.726L140.731 132.677L140.78 121.374ZM124.465 121.374L139.06 121.423L139.011 132.726L124.416 132.677L124.465 121.374Z" fill="#D3D3D3"/>
<path d="M110.018 134.396L110.067 114.347C110.067 110.367 113.311 107.124 117.291 107.124L220.288 107.369C221.959 107.369 223.433 108.303 224.17 109.826C224.908 111.35 224.662 113.07 223.63 114.396L195.915 141.129C193.065 144.618 188.79 146.632 184.269 146.632L122.057 146.485C115.374 146.436 109.969 141.03 110.018 134.396ZM117.291 110.023C114.883 110.023 112.917 111.989 112.917 114.347L112.868 134.396C112.868 139.458 116.947 143.536 122.008 143.586L184.22 143.733C187.856 143.733 191.296 142.111 193.605 139.31L221.32 112.578C221.861 111.939 221.615 111.251 221.517 111.104C221.419 110.907 221.075 110.318 220.239 110.318L117.291 110.023Z" fill="#D3D3D3"/>
<path d="M111.935 114.888C112.279 114.937 112.672 114.888 113.016 114.74C114.048 114.298 114.539 113.07 114.048 111.989L107.168 96.8042C105.35 92.7747 102.205 89.4824 98.2245 87.5168L88.1508 82.5536C87.1189 82.0622 85.8904 82.4553 85.399 83.4873C84.9076 84.5192 85.3007 85.7477 86.3326 86.2391L96.3572 91.2023C99.453 92.7256 101.959 95.33 103.384 98.475L110.264 113.659C110.559 114.347 111.198 114.789 111.935 114.888Z" fill="#D3D3D3"/>
<path d="M89.3793 82.7502C89.3793 82.7502 91.2467 81.9148 92.6226 82.1605C93.9985 82.4062 96.3572 84.8632 96.4064 85.3054C96.5046 85.6986 96.3572 86.8779 95.9641 86.9271C95.8167 86.9271 92.3769 84.814 91.6889 84.4209C91.2467 84.1261 88.1508 83.1924 89.3793 82.7502Z" fill="#FF867A"/>
<path d="M96.4064 82.7502C96.4064 82.7502 98.2737 81.9148 99.6496 82.1605C101.026 82.4062 102.5 83.9295 102.893 85.3054C102.991 85.6986 102.205 86.6322 101.861 86.4848C100.78 85.9934 100.878 85.158 98.7159 84.4209C98.2737 84.1752 95.1779 83.1924 96.4064 82.7502Z" fill="#FF867A"/>
<path d="M62.6471 73.1188C62.6471 73.1188 67.512 58.475 64.1705 40.9812C63.5808 37.8853 55.0796 37.1974 55.0796 37.1974C55.0796 37.1974 43.1877 60.1949 46.2344 77.4431C50.6078 72.5291 62.6471 73.1188 62.6471 73.1188Z" fill="#FFE145"/>
<path d="M76.3081 76.4111H76.2589C73.7528 76.0179 71.6889 75.4774 69.6742 74.9369C67.2172 74.2489 64.8584 73.6101 62.254 73.5609C57.6349 73.4627 52.2295 75.9688 52.1803 76.0179C52.0329 76.1162 51.7872 76.018 51.738 75.8705C51.6398 75.7231 51.738 75.4774 51.8855 75.4283C52.1312 75.33 57.5366 72.8238 62.254 72.9221C64.9567 72.9713 67.3154 73.6592 69.8216 74.3472C71.7872 74.8877 73.8511 75.4774 76.3081 75.8214C76.5046 75.8705 76.6029 76.0179 76.6029 76.2145C76.6521 76.2636 76.5046 76.4111 76.3081 76.4111Z" fill="#B69B0E"/>
<path d="M62.6471 73.4628C62.598 73.4628 62.5489 73.4628 62.5489 73.4628C62.3523 73.4136 62.3032 73.2171 62.3523 73.0205C64.1213 68.0574 64.9567 61.4234 64.9567 61.3743C64.9567 61.1777 65.1533 61.0795 65.3498 61.0795C65.5464 61.0795 65.6447 61.276 65.6447 61.4726C65.6447 61.5217 64.8093 68.2048 63.0403 73.2662C62.942 73.3645 62.7946 73.4628 62.6471 73.4628Z" fill="#B69B0E"/>
<path d="M98.5685 83.7822C98.5685 83.7822 99.453 84.8633 99.5513 85.2072C99.6987 85.6986 99.6496 86.19 99.3056 86.0918C98.9616 85.9935 98.8634 85.4038 98.2245 84.8633C97.9788 84.6667 97.1926 84.2736 96.5538 83.733C95.915 83.1925 95.915 82.8977 96.2589 82.7502C96.5538 82.652 97.9788 83.0451 98.5685 83.7822Z" fill="#FF867A"/>
<path d="M69.3793 112.726C69.3302 112.726 69.3302 112.726 69.281 112.726C69.0353 112.677 68.8879 112.48 68.9371 112.234C69.1336 111.153 70.8044 101.817 72.1803 100.539C72.3769 100.391 72.6226 100.391 72.77 100.539C72.9174 100.735 72.9174 100.981 72.77 101.129C71.8855 101.964 70.4604 108.45 69.7724 112.382C69.7233 112.578 69.5759 112.726 69.3793 112.726Z" fill="#2C323D"/>
<g clip-path="url(#clip1_18_1142)">
<path d="M187.142 40.0949C186.944 40.0949 186.771 39.9961 186.672 39.8232L184.47 35.6488C182.664 35.797 174.475 36.1675 167.424 32.6847C162.871 30.4123 159.21 23.4961 158.938 16.58C158.715 10.9977 160.719 6.67508 164.579 4.37794C169.081 1.68558 176.454 0.252953 184.371 0.524659C192.04 0.796364 198.3 2.6242 200.699 5.34126C203.817 8.87343 203.99 15.6414 203.916 18.3831C203.817 22.6069 202.926 27.5717 201.417 28.9055C199.19 30.8816 191.471 33.1046 189.913 33.5245L187.661 39.7244C187.587 39.922 187.414 40.0455 187.191 40.0702C187.166 40.0949 187.142 40.0949 187.142 40.0949ZM184.791 34.562C184.989 34.562 185.162 34.6608 185.261 34.8337L187.067 38.267L189.022 32.907C189.071 32.7588 189.22 32.6353 189.368 32.5859C189.467 32.5612 198.473 30.1159 200.699 28.1151C201.64 27.2753 202.728 23.3232 202.852 18.3584C203 12.8008 201.912 8.33002 199.908 6.03287C197.731 3.58752 191.62 1.83379 184.346 1.56208C176.652 1.29037 169.452 2.6736 165.148 5.26716C160.373 8.08301 159.878 13.5418 160.002 16.5553C160.125 19.6676 160.991 22.9527 162.451 25.7686C163.911 28.6091 165.865 30.7334 167.894 31.7461C175.44 35.4759 184.643 34.5867 184.717 34.5867C184.742 34.562 184.767 34.562 184.791 34.562Z" fill="#B1D5DE"/>
<path d="M218.216 30.3381C214.851 29.8935 211.931 33.154 209.754 40.6382C207.429 48.6659 206.118 59.2871 204.633 59.46C201.541 59.8305 180.289 58.2497 180.289 58.2497C180.289 58.2497 179.052 58.8425 178.656 61.1644C178.161 64.0049 179.175 65.0176 179.175 65.0176C179.175 65.0176 199.363 71.5139 207.998 69.5872C223.238 66.1786 225.044 31.252 218.216 30.3381Z" fill="#B1D5DE"/>
<path d="M241.125 189.039C240.111 190.002 236.152 195.683 234.618 195.856C233.802 195.93 233.109 195.832 232.639 195.733C233.554 194.967 236.944 187.335 235.286 181.283L242.065 180.616C242.065 180.616 243.08 187.952 243.253 188.372C242.684 188.347 241.768 188.446 241.125 189.039Z" fill="#FF867A"/>
<path d="M228.854 197.882C229.398 197.338 230.363 196.721 232.144 196.079C232.317 196.005 232.491 195.906 232.664 195.758C233.134 195.856 233.802 195.955 234.643 195.881C236.177 195.733 240.135 190.052 241.15 189.064C241.768 188.471 242.684 188.372 243.302 188.372C243.698 189.311 244.317 191.015 244.119 192.077C243.846 193.609 243.228 198.005 243.475 199.364H241.546L241.273 195.362C241.273 195.362 239.789 195.214 239.096 196.054C238.824 196.375 238.602 196.918 238.404 197.462C238.008 198.623 236.894 199.339 235.657 199.339H229.621C228.78 199.364 228.31 198.4 228.854 197.882Z" fill="#4B5266"/>
<path d="M238.255 121.137C238.008 108.985 235.608 80.3567 235.336 76.4787C234.94 70.9952 232.664 66.0551 232.664 66.0551C232.664 66.0551 211.189 65.981 210.398 67.3889C209.606 68.7969 214.628 103.378 218.785 122.15C222.174 137.464 232.664 185.433 232.664 185.433C232.664 185.433 234.074 187.211 237.562 187.137C242.139 187.038 243.995 185.828 243.995 185.828C243.995 185.828 241.422 154.038 238.255 121.137Z" fill="#FFE145"/>
<path d="M219.972 14.4804C219.972 14.4804 219.551 13.3936 221.951 12.8749C222.966 12.6526 225.39 13.2701 225.984 14.6533C226.875 16.7035 226.875 18.6795 227.048 19.4452C227.221 20.2109 227.666 21.8906 229.052 22.8292C230.437 23.7678 231.452 26.1637 230.833 28.6091C230.215 31.0544 226.677 32.1166 224.623 32.166C222.57 32.2154 217.35 30.7827 215.84 29.7453C214.331 28.7079 214.232 26.7566 215.618 24.8299C217.374 22.3846 218.067 20.8531 219.304 19.3464C220.541 17.8644 219.972 14.4804 219.972 14.4804Z" fill="#7F635D"/>
<path d="M199.19 189.039C198.176 190.002 194.217 195.683 192.684 195.856C191.867 195.93 191.174 195.832 190.704 195.733C191.62 194.967 195.479 187.31 195.974 181.283L202.753 180.616C202.753 180.616 201.12 187.952 201.293 188.372C200.724 188.347 199.809 188.446 199.19 189.039Z" fill="#FF867A"/>
<path d="M186.894 197.882C187.439 197.338 188.403 196.721 190.185 196.079C190.358 196.005 190.531 195.906 190.704 195.758C191.174 195.856 191.842 195.955 192.684 195.881C194.217 195.733 198.176 190.052 199.19 189.064C199.809 188.471 200.724 188.372 201.343 188.372C201.738 189.311 202.357 191.015 202.159 192.077C201.887 193.609 201.268 198.005 201.516 199.364H199.586L199.314 195.362C199.314 195.362 197.83 195.214 197.137 196.054C196.865 196.375 196.642 196.918 196.444 197.462C196.048 198.623 194.935 199.339 193.698 199.339H187.661C186.82 199.364 186.375 198.4 186.894 197.882Z" fill="#4B5266"/>
<path d="M203.47 66.0551H226.751C221.531 91.3978 207.948 185.828 207.948 185.828C207.948 185.828 193.822 188.347 194.044 183.951C194.49 175.478 201.392 88.6807 203.47 66.0551Z" fill="#FFE145"/>
<path d="M201.491 66.228C201.912 64.8447 204.806 61.4855 205.202 60.1022C207.231 53.0873 206.538 42.7872 207.552 39.8972C208.542 37.1308 211.981 32.413 213.762 31.1038C216.014 29.4489 216.978 29.0537 220.096 28.7326C221.135 28.6091 225.415 30.017 226.528 30.6839C235.286 35.8216 231.6 60.7692 232.689 66.0798C233.53 70.2048 200.675 68.9203 201.491 66.228Z" fill="#EAF4F4"/>
<path d="M222.595 22.7305L222.52 29.7454C222.496 30.9063 219.551 33.7963 217.77 32.2896C217.251 31.845 217.993 30.2888 218.512 29.0785L220.046 23.0763L222.595 22.7305Z" fill="#FF867A"/>
<path d="M219.378 25.645L219.848 23.7925L221.828 23.8172C221.828 23.8172 220.789 25.3239 219.378 25.645Z" fill="#C66C67"/>
<path d="M223.114 18.0373C223.114 18.0373 223.361 20.0628 223.139 21.5201C222.817 23.669 221.259 24.4842 219.081 24.4595C216.954 24.4348 216.187 23.8419 215.915 22.3352C215.84 21.9647 215.84 21.5942 215.89 21.1002C216.014 20.2851 216.558 18.8277 217.251 18.0126C217.572 17.6421 217.795 16.7529 217.993 16.4565C219.428 14.2581 222.545 14.9498 223.114 18.0373Z" fill="#FF867A"/>
<path d="M234.297 70.6493C233.53 67.9323 232.689 66.0551 232.689 66.0551C232.689 66.0551 232.565 66.0551 232.342 66.0551C228.879 66.8455 205.202 70.9458 205.202 70.9458C205.202 70.9458 213.02 73.3417 220.195 73.8851C226.652 74.3544 232.367 72.6748 234.297 70.6493Z" fill="#2C323D"/>
<path d="M218.314 20.0628C218.364 20.0628 218.438 20.0381 218.438 19.964C218.463 19.8899 218.413 19.8158 218.339 19.8158C217.919 19.6923 217.968 19.3712 217.968 19.3712C217.993 19.2971 217.943 19.223 217.869 19.223C217.795 19.1983 217.721 19.2477 217.721 19.3218C217.671 19.5194 217.721 19.9393 218.265 20.0875C218.29 20.0628 218.29 20.0628 218.314 20.0628Z" fill="#C66C67"/>
<path d="M220.121 18.4326C220.096 18.6055 220.17 18.7537 220.269 18.7537C220.368 18.7784 220.492 18.6549 220.516 18.482C220.541 18.3091 220.467 18.1609 220.368 18.1609C220.269 18.1362 220.17 18.2597 220.121 18.4326Z" fill="#3A4B66"/>
<path d="M217.572 17.9138C217.548 18.0867 217.622 18.2349 217.721 18.2349C217.82 18.2596 217.943 18.1361 217.968 17.9632C217.993 17.7903 217.919 17.6421 217.82 17.6421C217.696 17.6421 217.597 17.7656 217.572 17.9138Z" fill="#3A4B66"/>
<path d="M219.774 21.1002C219.774 21.1002 217.696 20.7791 216.682 20.4086C216.682 20.4086 216.558 21.4707 217.127 21.94C217.597 22.3105 219.279 22.3105 219.774 21.1002Z" fill="white"/>
<path d="M222.966 19.9886C223.114 19.7663 223.213 19.5193 223.287 19.2723C223.46 18.803 223.807 18.1361 224.401 18.7289C225.242 19.5934 224.203 22.0388 222.966 21.8165C222.026 21.6683 222.595 20.5567 222.966 19.9886Z" fill="#FF867A"/>
<path d="M226.627 31.7955C223.263 31.3509 223.139 36.538 223.98 43.4047C224.97 51.7041 226.108 61.0903 224.623 61.2879C221.531 61.6584 197.632 63.2639 197.632 63.2639C197.632 63.2639 196.964 64.0791 196.568 66.4009C196.073 69.2415 198.448 71.1434 198.448 71.1434C198.448 71.1434 219.354 73.3418 227.988 71.3904C243.203 67.9817 233.431 32.6847 226.627 31.7955Z" fill="#EAF4F4"/>
<path d="M218.933 14.0358C218.389 14.3322 217.721 14.8262 217.102 15.6413C216.508 16.4564 218.166 17.074 218.562 17.0987C218.933 17.1481 219.131 17.2222 219.156 17.0493C219.18 16.8764 219.255 16.6788 219.428 16.8023C219.601 16.9258 219.626 17.3704 220.318 17.6174C220.986 17.8644 221.061 17.7162 220.986 17.5186C220.912 17.321 221.506 17.321 221.58 17.4198C221.679 17.5186 222.57 18.062 222.446 19.7416C222.397 20.3838 222.397 20.9766 222.619 20.7049C222.842 20.4332 223.213 19.4699 223.213 19.4699C223.213 19.4699 223.856 18.2843 223.782 17.5433C223.733 16.7776 222.223 12.2821 218.933 14.0358Z" fill="#7F635D"/>
<path d="M163.836 60.868L163.812 61.3126C163.787 61.8807 164.207 62.35 164.752 62.3747L195.306 64.2272C195.504 64.2272 195.677 64.2272 195.875 64.1778L206.612 61.8313C206.761 61.8066 206.736 61.5843 206.588 61.5843L173.139 59.5588L163.836 60.868Z" fill="#D3D3D3"/>
<path d="M195.677 62.7946L202.555 61.856L192.708 61.2632L195.677 62.7946Z" fill="#3A4B66"/>
<path d="M195.677 62.7946L163.836 60.868L158.097 42.1697C157.948 41.651 158.344 41.1323 158.913 41.157L187.983 42.9107C188.972 42.9601 189.838 43.6517 190.111 44.615L195.677 62.7946Z" fill="#D3D3D3"/>
<path d="M177.369 51.5806C177.542 52.4451 177.32 53.2108 176.825 53.3096C176.33 53.4084 175.786 52.8156 175.613 51.9511C175.44 51.0866 175.662 50.3208 176.157 50.222C176.627 50.0985 177.171 50.716 177.369 51.5806Z" fill="white"/>
<path d="M198.399 64.8942C198.547 64.4249 198.448 63.5357 197.434 63.1898C196.419 62.844 195.059 62.4735 194.712 62.2018C193.995 61.6337 193.549 61.9301 193.772 62.4488C193.995 62.9675 194.786 63.1404 195.009 63.9309C195.083 64.2026 189.863 63.9062 189.863 63.9062C189.863 63.9062 189.987 65.3141 193.698 65.9563C197.162 66.5491 198.225 65.487 198.399 64.8942Z" fill="#FF867A"/>
<path d="M227.765 64.5237C227.716 64.5237 227.666 64.5237 227.617 64.499C227.468 64.4249 224.203 62.5724 224.772 60.6952C224.97 60.0035 224.697 57.4841 224.351 54.2483C223.708 48.419 222.743 39.6256 223.832 33.3023C223.856 33.1541 224.005 33.0306 224.178 33.0553C224.326 33.08 224.45 33.2282 224.425 33.4011C223.362 39.6256 224.326 48.3943 224.97 54.1742C225.365 57.7064 225.613 60.0529 225.365 60.8434C224.994 62.029 227.097 63.511 227.938 63.9803C228.087 64.0544 228.136 64.2273 228.062 64.3755C227.963 64.4743 227.864 64.5237 227.765 64.5237Z" fill="#B1D5DE"/>
<path d="M212.451 62.3254C212.303 62.3254 212.179 62.2019 212.154 62.0537C212.129 61.9055 212.253 61.7573 212.426 61.7326C219.774 60.9668 224.549 60.9915 224.599 60.9915C224.772 60.9915 224.895 61.1151 224.895 61.288C224.895 61.4362 224.772 61.5844 224.599 61.5844C224.599 61.5844 224.599 61.5844 224.549 61.5844C224.079 61.5844 219.428 61.6091 212.476 62.3254C212.476 62.3254 212.476 62.3254 212.451 62.3254Z" fill="#B1D5DE"/>
<path d="M217.597 118.074C217.35 118.074 217.127 117.877 217.127 117.605V115.234C217.053 114.666 213.861 88.9525 213.292 86.3836C212.748 83.9383 210.818 78.8252 210.793 78.7758C210.694 78.5288 210.818 78.2571 211.066 78.183C211.313 78.0842 211.585 78.2077 211.659 78.4547C211.734 78.677 213.639 83.6912 214.183 86.2107C214.777 88.9031 218.042 115.135 218.042 115.234V117.63C218.067 117.852 217.869 118.074 217.597 118.074Z" fill="#2C323D"/>
<path d="M233.159 82.9008C233.06 82.9008 232.961 82.8761 232.887 82.8267C228.211 79.5168 228.458 77.7137 228.557 77.3926L229.448 77.6396C229.448 77.6396 229.448 77.6396 229.448 77.6149C229.448 77.6396 229.274 79.1216 233.431 82.061C233.629 82.2092 233.678 82.5056 233.53 82.7032C233.431 82.8267 233.307 82.9008 233.159 82.9008Z" fill="#2C323D"/>
<path d="M180.709 26.3367C180.882 27.1024 180.388 27.8434 179.645 28.0163C178.878 28.1892 178.136 27.6952 177.963 26.9542C177.79 26.1885 178.285 25.4475 179.027 25.2746C179.794 25.1017 180.536 25.571 180.709 26.3367Z" fill="#5CBEC6"/>
<path d="M194.118 23.422C194.292 24.1877 193.797 24.9288 193.055 25.1017C192.288 25.2746 191.545 24.7806 191.372 24.0395C191.199 23.2738 191.694 22.5328 192.436 22.3599C193.203 22.187 193.945 22.6563 194.118 23.422Z" fill="#5CBEC6"/>
<path d="M193.549 20.458C193.45 19.9392 192.931 19.5934 192.411 19.7169L179.25 22.5575L179.126 20.038L192.04 17.2222C192.486 17.1234 192.832 16.7529 192.857 16.2836L193.376 8.70052C193.401 8.18181 192.931 7.7619 192.411 7.8854L174.054 11.8869L171.926 8.70052C171.531 8.13241 170.838 7.836 170.17 7.9842L166.484 8.77462C166.038 8.87342 165.766 9.31803 165.84 9.76264C165.939 10.2072 166.385 10.479 166.83 10.4049L170.566 9.58974L177.345 20.1122L177.592 23.4961C177.641 24.2371 178.334 24.7311 179.052 24.5829L192.807 21.5942C193.302 21.4707 193.648 20.9767 193.549 20.458ZM185.905 10.726C186.498 10.6519 187.067 11.0718 187.142 11.6893L187.612 15.2215C187.686 15.8143 187.265 16.3824 186.647 16.4565C186.053 16.5306 185.484 16.1107 185.41 15.4932L184.94 11.961C184.866 11.3682 185.286 10.8001 185.905 10.726ZM180.511 11.8869C181.105 11.714 181.724 12.0351 181.897 12.6279L182.961 16.0366C183.134 16.6294 182.812 17.2469 182.218 17.4198C181.625 17.5927 181.006 17.2716 180.833 16.6788L179.769 13.2701C179.621 12.702 179.942 12.0845 180.511 11.8869Z" fill="#5CBEC6"/>
<path d="M208.22 10.4542C208.715 7.93475 208.319 5.56351 207.33 4.05677L207.552 2.92055L205.598 2.45124C203.124 1.98193 200.526 4.79779 199.759 8.74987C198.992 12.702 200.378 16.2835 202.852 16.7528L204.806 17.2221L205.029 16.0859C206.489 15.0485 207.75 12.9737 208.22 10.4542Z" fill="#F7AC41"/>
<path d="M210.645 10.9236C209.878 14.8756 207.28 17.6915 204.806 17.2222C202.332 16.7529 200.972 13.1713 201.714 9.21923C202.481 5.26715 205.078 2.45129 207.552 2.9206C210.026 3.38991 211.387 6.97148 210.645 10.9236Z" fill="#FFD766"/>
<path d="M205.994 16.3329C205.746 16.3576 205.499 16.3576 205.276 16.3082C204.287 16.1106 203.495 15.2955 203.025 13.9617C202.58 12.6772 202.505 11.047 202.827 9.41678C203.149 7.78655 203.817 6.30452 204.707 5.2671C205.623 4.20498 206.687 3.73567 207.676 3.90857C208.666 4.10617 209.457 4.92129 209.928 6.25512C210.373 7.53954 210.447 9.16978 210.125 10.8C209.804 12.4302 209.136 13.9123 208.245 14.9497C207.528 15.7648 206.761 16.2341 205.994 16.3329ZM206.959 4.22968C206.266 4.30378 205.573 4.74839 204.93 5.4894C204.064 6.47742 203.421 7.91005 203.124 9.49088C202.505 12.7267 203.495 15.6413 205.326 15.9871C207.157 16.3329 209.161 13.9864 209.779 10.7506C210.398 7.51484 209.408 4.60018 207.577 4.25438C207.379 4.20498 207.181 4.20498 206.959 4.22968Z" fill="#F7AC41"/>
<path d="M205.746 13.4677L205.92 12.5538C205.548 12.4797 205.202 12.2327 205.004 11.961L205.276 11.3928C205.474 11.6646 205.771 11.8869 206.142 11.961C206.612 12.0598 206.983 11.7387 207.082 11.2199C207.181 10.7259 206.983 10.3554 206.563 10.0096C205.969 9.51561 205.647 9.0216 205.796 8.23118C205.944 7.49017 206.439 6.97146 207.058 6.94676L207.231 6.03284L207.627 6.10694L207.453 6.99616C207.849 7.09496 208.072 7.29256 208.22 7.46547L207.948 8.03358C207.825 7.91008 207.602 7.63837 207.181 7.56427C206.687 7.46547 206.414 7.86067 206.34 8.20648C206.241 8.67579 206.439 8.9722 206.934 9.39211C207.528 9.91082 207.775 10.4295 207.627 11.2446C207.478 11.961 207.008 12.5538 206.315 12.6032L206.142 13.5418L205.746 13.4677Z" fill="#F7AC41"/>
<path d="M201.689 11.7139C201.64 11.7386 201.565 11.7633 201.516 11.7633C201.293 11.7633 201.12 11.5904 201.12 11.3681C201.145 7.8359 202.679 5.53875 202.728 5.46465C202.852 5.29174 203.099 5.24234 203.297 5.36585C203.47 5.48935 203.52 5.73635 203.396 5.90926C203.371 5.93396 201.936 8.1076 201.912 11.3681C201.912 11.5163 201.813 11.6645 201.689 11.7139Z" fill="white"/>
<path d="M156.761 19.0747C156.34 19.0747 155.919 19.2229 155.598 19.4946L146.221 27.2506C145.776 27.6211 145.702 28.288 146.073 28.7326L150.971 34.636C151.342 35.0806 152.01 35.1547 152.456 34.7842L161.882 26.9789C162.179 26.7319 162.401 26.3861 162.476 26.0156L163.539 21.7918C163.589 21.6189 163.539 21.446 163.44 21.2978L161.758 19.297C161.659 19.1735 161.511 19.0994 161.338 19.0994L156.761 19.0747ZM161.684 21.6189C161.412 21.8412 161.016 21.8165 160.793 21.5448C160.571 21.2731 160.595 20.8778 160.867 20.6555C161.14 20.4332 161.535 20.4579 161.758 20.7296C161.981 21.0013 161.956 21.3966 161.684 21.6189Z" fill="#F25C5C"/>
<path d="M157.107 24.4347C156.686 24.3606 156.266 24.4841 155.87 24.83C155.474 25.1511 155.276 25.5463 155.251 25.9662C155.251 26.3861 155.425 26.8307 155.82 27.3C156.192 27.7693 156.612 28.041 157.008 28.1151C157.429 28.1892 157.849 28.0657 158.245 27.7446C158.641 27.4235 158.839 27.0283 158.864 26.6084C158.888 26.1885 158.69 25.7439 158.295 25.2746C157.899 24.7806 157.503 24.5088 157.107 24.4347ZM157.627 26.9542C157.453 27.1024 157.33 27.0777 157.28 27.053C157.206 27.0283 157.008 26.9295 156.711 26.5343C156.389 26.1391 156.34 25.9415 156.315 25.8674C156.315 25.7933 156.315 25.6698 156.488 25.5463C156.662 25.3981 156.761 25.4228 156.835 25.4475C156.909 25.4722 157.107 25.571 157.404 25.9662C157.725 26.3614 157.775 26.559 157.8 26.6331C157.8 26.7072 157.8 26.8307 157.627 26.9542Z" fill="white"/>
<path d="M153.94 27.4234C153.94 27.0035 153.767 26.5589 153.371 26.0896C153 25.6203 152.579 25.3486 152.184 25.2745C151.763 25.2004 151.342 25.3239 150.947 25.645C150.551 25.9661 150.353 26.3613 150.328 26.7812C150.303 27.2011 150.501 27.6458 150.897 28.1151C151.293 28.5844 151.689 28.8561 152.085 28.9302C152.505 29.0043 152.926 28.8808 153.322 28.535C153.718 28.2386 153.915 27.8681 153.94 27.4234ZM151.367 26.7318C151.367 26.6577 151.367 26.5342 151.54 26.4107C151.714 26.2625 151.813 26.2872 151.887 26.3119C151.961 26.3366 152.159 26.4354 152.456 26.8306C152.777 27.2258 152.827 27.4234 152.852 27.4975C152.852 27.5717 152.852 27.6952 152.678 27.8187C152.505 27.9669 152.382 27.9422 152.332 27.9175C152.258 27.8928 152.06 27.794 151.763 27.3987C151.441 27.0282 151.392 26.8306 151.367 26.7318Z" fill="white"/>
<path d="M154.262 23.1997C154.188 23.175 154.089 23.175 154.039 23.2491L153.569 23.6443C153.495 23.6937 153.47 23.7925 153.495 23.8666L154.757 29.9923C154.781 30.0665 154.831 30.1406 154.905 30.1653C154.979 30.19 155.078 30.19 155.128 30.1159L155.598 29.7206C155.672 29.6712 155.697 29.5724 155.672 29.4983L154.41 23.3726C154.41 23.2985 154.361 23.2244 154.262 23.1997Z" fill="white"/>
<path d="M161.288 21.2483C161.239 21.2483 161.164 21.2236 161.14 21.1742C161.041 21.0754 161.041 20.9272 161.115 20.8531C161.189 20.7543 163.119 18.7288 166.36 19.2723C166.484 19.297 166.582 19.4205 166.558 19.544C166.533 19.6675 166.409 19.7663 166.286 19.7416C163.317 19.2476 161.486 21.1495 161.461 21.1742C161.412 21.2236 161.338 21.2483 161.288 21.2483Z" fill="#EAF4F4"/>
</g>
</g>
<defs>
<clipPath id="clip0_18_1142">
<rect width="244.226" height="200" fill="white" transform="translate(0.886978 0.5)"/>
</clipPath>
<clipPath id="clip1_18_1142">
<rect width="121.376" height="200" fill="white" transform="translate(145.85 0.5)"/>
</clipPath>
</defs>
</svg>
