<svg width="232" height="200" viewBox="0 0 232 200" fill="none" xmlns="http://www.w3.org/2000/svg">
<g clip-path="url(#clip0_18_942)">
<path d="M45.6116 10.9594L41.0807 10.9708C40.8061 10.9708 40.5773 10.7423 40.5773 10.468L40.5544 5.94253C40.5544 5.66826 40.3256 5.4397 40.051 5.4397L35.543 5.46255C35.2684 5.46255 35.0396 5.69111 35.0396 5.96538L35.0625 10.4908C35.0625 10.7651 34.8336 10.9937 34.559 10.9937L30.0282 11.0165C29.7536 11.0165 29.5247 11.2451 29.5247 11.5194L29.5476 16.0219C29.5476 16.2962 29.7765 16.5248 30.0511 16.5248L34.5819 16.5019C34.8565 16.5019 35.0853 16.7305 35.0853 17.0048L35.1082 21.5302C35.1082 21.8045 35.3371 22.033 35.6117 22.033L40.1196 22.0102C40.3942 22.0102 40.6231 21.7816 40.6231 21.5074L40.6002 16.9819C40.6002 16.7076 40.829 16.4791 41.1036 16.4791L45.6345 16.4562C45.909 16.4562 46.1379 16.2277 46.1379 15.9534L46.115 11.4508C46.1264 11.1765 45.8976 10.9594 45.6116 10.9594Z" fill="#FFE145"/>
<path d="M216.388 0H196.72C191.503 0 187.235 4.26261 187.235 9.47375V27.1984C187.235 32.4096 191.503 36.6722 196.72 36.6722H216.388C221.606 36.6722 225.873 32.4096 225.873 27.1984V9.47375C225.873 4.26261 221.606 0 216.388 0Z" fill="#FFE145"/>
<path d="M204.26 28.8326C204.237 28.8326 204.203 28.8326 204.18 28.8326C203.31 28.8098 202.487 28.4327 201.915 27.7813L192.567 17.3247L197.258 13.1307L204.375 21.0845L217.487 7.82812L221.972 12.2507L206.503 27.8841C205.908 28.4898 205.107 28.8326 204.26 28.8326Z" fill="#DBBF2C"/>
<path d="M204.26 29.1298C204.226 29.1298 204.203 29.1298 204.169 29.1298C203.219 29.1069 202.315 28.6841 201.686 27.9756L192.327 17.519L192.784 17.119L202.143 27.5756C202.67 28.1584 203.413 28.5012 204.191 28.5241C204.214 28.5241 204.237 28.5241 204.26 28.5241C205.015 28.5241 205.748 28.2155 206.285 27.6784L221.754 12.045L222.189 12.4679L206.72 28.1013C206.079 28.7527 205.175 29.1298 204.26 29.1298Z" fill="#DBBF2C"/>
<path d="M151.457 194.995C195.88 194.995 231.891 192.585 231.891 189.612C231.891 186.639 195.88 184.229 151.457 184.229C107.035 184.229 71.0232 186.639 71.0232 189.612C71.0232 192.585 107.035 194.995 151.457 194.995Z" fill="#5CBEC6"/>
<path d="M78.6547 18.319H81.6868C88.2084 18.319 161.492 23.5987 161.766 30.1126L167.933 178.516C168.208 185.029 163.139 190.309 156.617 190.309H85.8057C79.284 190.309 73.7806 185.029 73.5175 178.516L67.3505 30.1012C67.0759 23.5872 72.1445 18.319 78.6547 18.319Z" fill="#54678C"/>
<path d="M82.808 18.319H153.631C160.153 18.319 165.656 23.5987 165.919 30.1126L172.086 178.516C172.361 185.029 167.292 190.309 160.771 190.309H89.9476C83.4259 190.309 77.9225 185.029 77.6593 178.516L71.4923 30.1012C71.2177 23.5872 76.2863 18.319 82.808 18.319Z" fill="#E7F2F2"/>
<path d="M83.2657 19.9761H153.151C158.94 19.9761 163.814 24.6615 164.054 30.4326L170.199 178.241C170.439 184.058 165.919 188.766 160.096 188.766H91.1032C84.8561 188.766 79.593 183.715 79.3298 177.476L73.2315 30.4326C72.9912 24.6615 77.4877 19.9761 83.2657 19.9761Z" fill="#FFF5C4"/>
<path d="M108.277 25.5757H129.375C129.787 25.5757 130.096 25.2442 130.085 24.8328L130.073 24.6386C130.062 24.2272 129.707 23.8958 129.306 23.8958H108.208C107.796 23.8958 107.487 24.2272 107.499 24.6386L107.51 24.8328C107.522 25.2442 107.865 25.5757 108.277 25.5757Z" fill="#434A59"/>
<path d="M132.293 24.7415C132.316 25.1986 132.705 25.5757 133.162 25.5757C133.62 25.5757 133.986 25.1986 133.963 24.7415C133.94 24.2843 133.551 23.9072 133.094 23.9072C132.636 23.9072 132.281 24.2843 132.293 24.7415Z" fill="#434A59"/>
<path d="M104.135 24.7415C104.158 25.1986 104.547 25.5757 105.005 25.5757C105.462 25.5757 105.828 25.1986 105.806 24.7415C105.783 24.2843 105.394 23.9072 104.936 23.9072C104.478 23.9072 104.112 24.2843 104.135 24.7415Z" fill="#434A59"/>
<path d="M138.38 84.6809H102.316C97.2358 84.6809 93.2542 88.8292 93.4601 93.9032L93.7347 100.566C93.9407 105.64 98.277 109.788 103.357 109.788H139.421C144.501 109.788 148.483 105.64 148.277 100.566L148.002 93.9032C147.785 88.8292 143.46 84.6809 138.38 84.6809Z" fill="white"/>
<path d="M108.975 97.9717C109.112 98.7716 109.604 99.263 110.497 99.263C111.4 99.263 111.675 98.8859 111.652 98.3488C111.618 97.6403 111.137 97.3203 109.787 96.9546C107.304 96.2918 106.538 95.3547 106.481 93.9833C106.401 92.0063 107.968 90.9778 110.027 90.9778C112.465 90.9778 113.769 92.1434 113.963 93.9719H111.4C111.298 93.3548 110.989 92.852 110.119 92.852C109.455 92.852 109.101 93.1605 109.124 93.6862C109.146 94.2919 109.593 94.4747 110.931 94.8404C113.563 95.5832 114.318 96.566 114.387 98.0517C114.467 99.9258 113.128 101.16 110.519 101.16C108.082 101.16 106.606 99.9373 106.412 97.9831H108.975V97.9717Z" fill="#FFE145"/>
<path d="M115.302 90.6121H117.934L118.014 92.5091H115.382L115.302 90.6121ZM115.428 93.4462H118.059L118.368 100.977H115.737L115.428 93.4462Z" fill="#FFE145"/>
<path d="M126.95 100.074C127.053 102.474 126.137 103.857 123.311 103.857C120.645 103.857 119.867 102.486 119.73 101.343H122.281C122.384 101.789 122.716 102.074 123.345 102.074C124.226 102.074 124.432 101.549 124.387 100.394L124.364 99.8915C124.021 100.531 123.323 100.76 122.476 100.76C120.657 100.76 119.513 99.2973 119.421 97.126C119.318 94.7718 120.588 93.2976 122.327 93.2976C123.46 93.2976 123.963 93.6747 124.158 94.0861C124.158 93.9261 124.181 93.6062 124.215 93.4576H126.698C126.698 93.8461 126.721 94.7375 126.766 95.8232L126.95 100.074ZM122.121 97.046C122.167 98.2345 122.556 98.9087 123.288 98.9087C124.135 98.9087 124.352 98.3373 124.307 97.046C124.249 95.7775 124.135 95.1946 123.174 95.1946C122.533 95.1832 122.064 95.6518 122.121 97.046Z" fill="#FFE145"/>
<path d="M128.323 95.8003C128.254 94.2461 128.231 93.789 128.197 93.4461H130.771C130.805 93.5833 130.851 94.0061 130.874 94.2918C131.183 93.7661 131.835 93.2861 132.888 93.2861C134.444 93.2861 135.256 94.3375 135.325 95.9717L135.531 100.977H132.899L132.705 96.406C132.67 95.6974 132.499 95.2632 131.847 95.2632C131.24 95.2632 130.943 95.5831 130.988 96.6345L131.171 100.977H128.54L128.323 95.8003Z" fill="#FFE145"/>
<path d="M71.5152 84.681H71.664C71.9729 84.681 72.2131 84.4295 72.2017 84.121L71.0919 57.3454C71.0804 57.0368 70.8173 56.7854 70.5084 56.7854H70.3596C70.0507 56.7854 69.8104 57.0368 69.8219 57.3454L70.9317 84.121C70.9546 84.4295 71.2177 84.681 71.5152 84.681Z" fill="white"/>
<path d="M164.878 50.1229C164.878 50.1229 141.423 58.991 138.666 65.1506C135.908 71.3103 136.709 75.5158 126.011 78.0413C115.325 80.5669 112.007 78.2356 104.616 82.1325C97.2473 86.018 99.8331 91.0349 93.4715 94.2804C87.11 97.5259 76.252 103.423 76.252 103.423L77.2818 128.096C77.2818 128.096 110.394 110.04 114.089 105.948C117.773 101.857 118.78 95.3546 122.773 95.0004C126.755 94.6347 137.27 98.3716 144.238 95.0004C151.206 91.6291 155.92 77.5728 157.281 75.5272C158.643 73.4816 165.771 71.676 165.771 71.676L164.878 50.1229Z" fill="#212422" fill-opacity="0.1"/>
<path d="M167.945 80.3269C163.414 81.5383 154.981 83.4353 149.604 84.441C142.064 85.8466 138.757 87.3436 138.757 87.3436C138.757 87.3436 143.62 91.5034 152.35 92.2576C158.196 92.7605 164.615 90.4178 168.345 88.5093L167.945 80.3269Z" fill="#8A9998"/>
<path d="M209.123 189.852C210.198 189.383 210.347 188.435 210.805 187.521C210.839 187.464 211.022 186.161 211.022 186.047C211.033 185.601 212.338 184.412 212.944 185.349C214.134 187.201 215.644 184.378 215.576 185.144C215.358 187.441 216.205 191.086 215.347 191.338C213.516 191.863 205.004 192.446 204.855 191.555C204.741 191.018 207.258 190.652 209.123 189.852Z" fill="#404859"/>
<path d="M182.075 189.852C183.15 189.383 183.299 188.435 183.757 187.521C183.791 187.464 183.974 186.161 183.974 186.047C183.986 185.601 185.29 184.412 185.896 185.349C187.086 187.201 188.597 184.378 188.528 185.144C188.311 187.441 189.157 191.086 188.299 191.338C186.468 191.863 177.956 192.446 177.807 191.555C177.693 191.018 180.21 190.652 182.075 189.852Z" fill="#404859"/>
<path d="M173.322 48.3744C167.327 46.5802 164.421 72.0531 162.167 73.3101C160.016 74.5215 140.531 77.2756 134.318 77.8242C133.059 77.9384 133.677 84.6009 135.233 85.9266C141.194 91.0005 148.597 91.0005 165.782 85.7094C173.322 83.3896 175.45 76.4528 176.732 70.4417C178.917 60.0995 176.514 49.3343 173.322 48.3744Z" fill="#F2A25C"/>
<path d="M179.81 97.4117C180.061 91.9034 180.301 82.7496 180.519 82.0868C183.917 71.5503 205.908 79.7098 208.288 82.6011C212.017 87.0008 211.8 92.6462 212.624 102.109C213.001 106.36 217.155 186.595 217.155 186.595C217.155 186.595 214.249 187.509 210.942 187.212C208.596 186.995 207.006 186.595 207.006 186.595C199.489 157.5 194.283 103.617 194.283 103.617C193.814 116.405 193.013 187.258 193.013 187.258C193.013 187.258 187.899 187.361 183.688 187.704C180.588 187.955 179.707 186.515 179.707 186.515C179.707 186.515 179.226 136.849 179.81 97.4117Z" fill="#54678C"/>
<path d="M209.889 84.9895L183.002 93.8918C183.002 93.8918 192.086 96.166 202.235 94.9661C206.651 94.4404 209.798 93.9947 211.949 93.6633C211.617 90.1778 211.114 87.3894 209.889 84.9895Z" fill="#40516B"/>
<path d="M178.414 93.7204C177.121 73.3101 166.389 55.9854 170.004 50.1343C176.308 39.9292 189.192 42.3519 194.226 48.2373C200.851 55.9969 213.104 82.5668 211.617 86.7722C209.855 89.3664 207.109 91.3777 192.212 93.5718C189.409 93.9947 181.48 93.9947 178.414 93.7204Z" fill="#FFE164"/>
<path d="M169.283 35.5866C169.283 35.5866 167.693 34.7638 168.849 33.3581C172.212 29.2441 175.393 31.5868 176.48 34.7181C177.201 36.8208 176.114 38.9578 176.114 38.9578C176.114 38.9578 170.29 37.9293 169.283 35.5866Z" fill="#AF5546"/>
<path d="M175.244 37.1407L179.707 43.8032C180.256 44.8432 178.299 47.2202 176.743 47.4944C176.32 47.5744 175.645 47.7801 175.553 46.8888L173.631 39.8035L175.244 37.1407Z" fill="#FF867A"/>
<path d="M173.093 31.5411C173.093 31.5411 172.613 30.2269 170.816 30.364C169.02 30.5012 169.318 31.4268 168.528 33.2096C167.739 34.9923 169.054 36.5808 171.389 37.0722C173.025 37.4151 175.233 33.4496 173.093 31.5411Z" fill="#AF5546"/>
<path d="M173.929 34.638L175.565 36.9693C176.194 38.055 176.148 39.4149 175.244 40.2949C174.409 41.1062 173.86 41.6091 172.636 41.8262C171.606 41.9976 170.816 41.2091 170.427 39.9177C169.924 38.2378 169.935 36.5465 169.993 35.6437C170.05 34.6723 170.576 33.9752 171.286 33.7009C172.075 33.381 172.132 34.5695 173.929 34.638Z" fill="#FF867A"/>
<path d="M171.835 38.2149C171.583 38.2492 171.331 38.2264 171.091 38.135C170.908 38.0664 170.839 38.3635 171.022 38.4321C171.286 38.5235 171.572 38.5578 171.846 38.5121C172.041 38.4892 172.029 38.1921 171.835 38.2149Z" fill="#C66C67"/>
<path d="M172.922 38.5349C172.556 38.6264 171.652 38.8664 170.725 39.2206C170.656 39.2435 170.622 39.3235 170.656 39.392C170.759 39.5863 171.297 39.8606 171.583 39.9749C172.155 40.2148 173.013 40.112 173.07 38.6607C173.082 38.5921 173.013 38.5235 172.922 38.5349Z" fill="white"/>
<path d="M174.89 36.7408C174.913 36.5236 174.901 36.3065 174.878 36.0894C174.832 35.678 174.867 35.0609 175.507 35.3008C176.434 35.6437 176.549 37.8378 175.553 38.1121C174.81 38.3064 174.821 37.2779 174.89 36.7408Z" fill="#FF867A"/>
<path d="M172.418 35.678C172.418 35.678 173.276 35.5751 173.311 35.6437C173.345 35.7123 173.276 35.918 173.276 35.918C173.276 35.918 172.292 35.9065 172.178 35.9751C172.064 36.0551 172.052 35.7123 172.178 35.678C172.315 35.6323 172.418 35.678 172.418 35.678Z" fill="#AF5546"/>
<path d="M170.633 36.0208C170.633 36.0208 169.878 36.2494 169.867 36.3294C169.855 36.4094 169.97 36.5694 169.97 36.5694C169.97 36.5694 170.805 36.1923 170.919 36.2151C171.034 36.2494 170.954 35.9294 170.828 35.9409C170.713 35.9409 170.633 36.0208 170.633 36.0208Z" fill="#AF5546"/>
<path d="M186.182 44.9574C183.391 50.5571 211.182 59.5509 210.759 60.6594C209.889 62.9678 207.372 82.5096 205.187 88.3835C204.741 89.572 210.988 92.3147 212.384 91.5491C216.365 89.3663 221.011 73.4587 221.297 61.1051C221.457 53.9741 216.171 51.6199 210.553 49.1172C201.171 44.9574 187.67 41.9748 186.182 44.9574Z" fill="#FFE164"/>
<path d="M194.294 104.097C194.031 104.097 193.814 103.891 193.814 103.628C193.688 99.8571 191.457 97.8344 191.434 97.8229C191.228 97.6401 191.217 97.343 191.388 97.1373C191.56 96.9316 191.869 96.9201 192.075 97.0915C192.178 97.183 194.649 99.3886 194.786 103.594C194.798 103.857 194.581 104.085 194.317 104.097C194.306 104.097 194.306 104.097 194.294 104.097Z" fill="#40516B"/>
<path d="M206.846 88.2807C206.846 88.2807 202.121 90.212 201.491 90.9548C200.862 91.6976 199.638 95.4346 200.164 95.1831C200.679 94.9317 202.063 92.5776 202.063 92.5776C202.063 92.5776 201.182 95.9602 201.743 96.2345C202.304 96.5202 202.59 96.2345 202.59 96.2345C202.59 96.2345 202.864 96.8288 203.448 96.6231C204.031 96.4173 205.656 93.4918 205.656 93.4918C205.656 93.4918 205.198 95.7431 205.553 95.9145C205.908 96.0859 207.143 93.1718 207.944 92.8518C208.757 92.5319 210.038 91.9262 210.313 90.4177C210.576 88.9092 208.39 87.0465 206.846 88.2807Z" fill="#FF867A"/>
<path d="M170.702 37.2665C170.725 37.4265 170.668 37.5751 170.565 37.5865C170.462 37.5979 170.37 37.4836 170.347 37.3237C170.324 37.1637 170.382 37.0151 170.485 37.0037C170.588 36.9808 170.679 37.1065 170.702 37.2665Z" fill="#434A59"/>
<path d="M172.704 36.8207C172.727 36.9807 172.67 37.1293 172.567 37.1407C172.464 37.1521 172.372 37.0378 172.35 36.8779C172.327 36.7179 172.384 36.5693 172.487 36.5579C172.578 36.535 172.67 36.6607 172.704 36.8207Z" fill="#434A59"/>
<path d="M135.531 79.1726C135.531 79.1726 128.368 81.0239 126.984 81.9153C125.599 82.8067 123.242 84.1323 123.414 84.5209C123.586 84.9094 126.984 83.4352 126.984 83.4352C126.984 83.4352 127.956 85.8579 129.146 86.2236C130.325 86.5893 130.977 85.7208 130.977 85.7208C130.977 85.7208 135.542 85.0923 136.549 82.8067C137.556 80.5211 135.531 79.1726 135.531 79.1726Z" fill="#FF867A"/>
<path d="M198.883 55.5854C198.837 55.5854 198.791 55.574 198.745 55.5625C192.933 53.9055 187.304 50.3743 187.247 50.34C187.018 50.1914 186.949 49.8943 187.098 49.6657C187.247 49.4372 187.544 49.3686 187.773 49.5172C187.83 49.5515 193.345 53.0027 199.02 54.6255C199.283 54.694 199.432 54.9683 199.352 55.2311C199.294 55.4483 199.1 55.5854 198.883 55.5854Z" fill="#F2A25C"/>
<path d="M213.185 63.0479C213.082 63.0479 212.967 63.0136 212.887 62.945L210.461 61.048C210.244 60.8766 210.21 60.5794 210.381 60.3623C210.553 60.1452 210.862 60.1109 211.068 60.2823L213.493 62.1793C213.711 62.3508 213.745 62.6479 213.574 62.865C213.471 62.9907 213.333 63.0479 213.185 63.0479Z" fill="#F2A25C"/>
<path d="M39.2501 45.2431C39.2501 45.2431 35.7146 50.7513 34.6735 53.7683C33.6323 56.7853 33.678 66.1562 37.3965 67.4818C37.3965 67.4818 46.2866 69.2646 49.5017 59.9051C52.7168 50.5342 49.3415 42.6718 48.7923 40.8319C48.2546 39.0034 47.099 37.5635 46.0578 36.295C45.0052 35.0151 41.4926 34.158 41.1036 36.0436C40.7146 37.9292 40.9777 42.8318 39.2501 45.2431Z" fill="#262E51"/>
<path d="M64.2727 83.5839C62.3963 85.2295 62.1675 87.6293 62.2018 88.0408C62.3391 89.6178 64.0668 88.0636 64.1583 89.4235C64.2499 90.772 61.9616 91.6177 60.6343 89.8692C59.4444 88.3036 59.5016 84.7609 60.4741 80.9554C62.5222 84.1096 63.2659 83.5153 64.2727 83.5839Z" fill="#FF867A"/>
<path d="M53.9525 60.7051C54.147 61.3679 65.1537 67.2076 64.902 67.7104C63.0828 73.3673 60.5771 78.5212 59.5703 82.4524C61.6183 85.6066 63.735 86.4865 64.7419 86.5436C70.1308 81.8353 80.3596 66.3162 75.6571 61.2879C68.1858 53.3113 55.8289 50.0429 51.3781 48.8772C50.0509 48.523 52.5795 56.0997 53.9525 60.7051Z" fill="#DBCFC1"/>
<path d="M72.9111 190.343C69.2612 190.583 67.9226 190.389 64.2613 190.343C56.584 190.252 48.9067 190.378 41.2295 190.366C34.9137 190.355 28.598 190.321 22.2822 190.366C22.1449 190.355 22.0076 190.355 21.8818 190.355C18.5637 190.195 15.3029 190.332 11.9848 190.458C8.89562 190.572 3.33503 190.515 0.188599 191.246C-0.738167 191.463 6.95056 191.783 9.68509 191.738C13.2549 191.669 16.8132 191.566 20.3829 191.532C20.9321 191.532 21.4699 191.532 22.0191 191.52C22.4424 191.532 22.8658 191.543 23.3005 191.566C30.2684 191.886 37.1906 191.84 44.1699 191.852C51.2523 191.863 58.3346 191.955 65.4169 191.92C68.815 191.898 72.2132 191.829 75.6228 191.76C78.4717 191.703 81.0003 191.818 82.5563 190.983C82.9453 190.743 75.8058 190.161 72.9111 190.343Z" fill="#5CBEC6"/>
<path d="M17.8086 182.161C18.5752 182.961 21.4355 187.692 22.6827 187.829C23.3577 187.898 23.9298 187.818 24.3188 187.738C23.6094 187.098 22.9573 185.601 22.4081 183.967C22.0305 182.87 21.2296 180.961 21.5843 178.813L17.5797 177.704C17.5797 177.704 16.2525 181.258 16.0695 181.612C16.5958 181.578 17.3395 181.658 17.8086 182.161Z" fill="#FF867A"/>
<path d="M27.3394 189.509C26.9389 189.063 26.1724 188.538 24.7536 188.001C24.6163 187.944 24.479 187.852 24.3417 187.726C23.9527 187.818 23.3806 187.886 22.7056 187.818C21.447 187.692 18.5866 182.961 17.8315 182.15C17.3624 181.658 16.6072 181.567 16.1038 181.578C15.7033 182.355 15.0741 183.761 15.1541 184.641C15.2686 185.921 15.4516 189.555 15.1427 190.698H16.7331L17.2594 187.384C17.2594 187.384 18.4951 187.258 19.0214 187.966C19.2159 188.229 19.3761 188.686 19.5019 189.143C19.7536 190.103 20.6118 190.709 21.6415 190.721L26.6529 190.732C27.2822 190.743 27.7398 189.955 27.3394 189.509Z" fill="#434A59"/>
<path d="M51.6184 182.161C52.5108 182.961 56.1149 187.692 57.3849 187.829C58.0714 187.898 58.632 187.818 59.0096 187.738C58.1973 187.098 57.3163 185.601 56.5039 183.967C55.9547 182.87 54.8563 180.961 54.8678 178.813L50.6916 177.704C50.6916 177.704 49.925 181.258 49.7992 181.612C50.314 181.578 51.0692 181.658 51.6184 182.161Z" fill="#FF867A"/>
<path d="M62.3048 189.509C61.8357 189.063 60.989 188.538 59.4787 188.001C59.33 187.944 59.1812 187.852 59.0211 187.726C58.6435 187.818 58.0828 187.886 57.3964 187.818C56.1149 187.692 52.5223 182.961 51.6298 182.15C51.0806 181.658 50.314 181.567 49.822 181.578C49.5475 182.355 49.1356 183.761 49.3529 184.641C49.6733 185.921 50.4285 189.555 50.2912 190.698H51.8815L51.893 187.384C51.893 187.384 53.1058 187.258 53.7465 187.966C53.9868 188.229 54.2156 188.686 54.4101 189.143C54.8106 190.103 55.7602 190.709 56.8014 190.721L61.8128 190.732C62.4421 190.743 62.7739 189.955 62.3048 189.509Z" fill="#434A59"/>
<path d="M34.9709 87.8122C37.6368 83.2181 40.5315 79.2755 40.5315 79.2755C40.5315 79.2755 58.3689 82.3153 60.8631 81.9154C66.7327 109.777 59.4101 182.321 59.4101 182.321C59.4101 182.321 56.5039 183.83 51.195 184.252C45.9548 184.664 43.0715 182.778 43.0715 182.778C43.6207 173.704 45.8175 134.038 46.5498 113.502C45.4971 121.227 40.9777 131.958 37.8084 143.375C32.4995 162.459 27.9916 182.081 27.9572 182.778C27.9572 182.778 13.804 183.361 13.0718 181.704C12.0306 179.304 28.987 98.1316 34.9709 87.8122Z" fill="#FFE145"/>
<path d="M61.6641 86.4751C58.7007 87.0008 48.3347 88.8292 45.6345 88.8292C42.4766 88.8292 35.8748 88.3836 35.8748 88.3836C35.8748 88.3836 38.289 91.7434 44.8679 92.7376C49.7992 93.4804 58.2545 91.8919 62.2018 91.0463C62.0531 89.4464 61.87 87.9264 61.6641 86.4751Z" fill="#54678C"/>
<path d="M34.9709 87.8121C34.1929 85.1494 37.5681 73.63 36.6185 68.2703C34.7192 57.471 37.1219 51.3227 39.4102 49.8371C42.7397 47.6658 48.758 45.3688 53.0257 49.3571C61.1034 56.911 58.243 57.0253 58.632 61.8478C59.1126 67.9275 65.108 79.8468 67.156 84.738C56.7671 91.869 44.8335 94.3603 34.9709 87.8121Z" fill="#FFF6E9"/>
<path d="M55.7831 88.9664C55.6801 88.9664 55.5772 88.8978 55.5428 88.7835C55.4742 88.555 53.9181 83.161 53.8037 80.6354C53.758 79.664 53.7351 78.1213 53.7008 76.3499C53.6435 73.5272 53.5863 70.3389 53.449 68.3733C53.2889 66.0191 51.5612 61.3794 50.417 58.3053C50.0051 57.2082 49.6848 56.3397 49.5131 55.8025C48.8724 53.7684 46.7672 51.1971 46.7443 51.1742C46.6528 51.0714 46.6756 50.9114 46.7786 50.82C46.8816 50.7285 47.0418 50.7514 47.1333 50.8543C47.2248 50.9571 49.3186 53.517 49.9937 55.654C50.1653 56.1911 50.4971 57.0939 50.8861 58.1338C52.0417 61.2308 53.7808 65.9162 53.941 68.339C54.0783 70.316 54.1355 73.5158 54.1927 76.3385C54.2271 78.1098 54.25 79.6526 54.2957 80.6126C54.3987 83.081 55.9891 88.5892 56.0119 88.6464C56.0463 88.7835 55.9776 88.9207 55.8403 88.9549C55.8289 88.9664 55.806 88.9664 55.7831 88.9664Z" fill="#DBCFC1"/>
<path d="M62.4535 74.0872C61.5153 71.8473 60.6114 69.5503 59.9249 67.4361L45.6688 65.2191C45.6688 65.2191 54.9364 73.0244 62.4535 74.0872Z" fill="#DBCFC1"/>
<path d="M53.4376 96.4059C52.7053 97.6516 51.6413 99.0915 50.314 100.04C50.4628 98.8972 50.5658 97.743 50.6344 96.5431C50.6687 95.9031 49.5246 95.9031 49.4903 96.5431C49.1241 103.686 47.0875 109.548 45.6459 116.553C45.52 117.182 46.6184 117.456 46.7443 116.816C47.8884 111.251 49.3987 106.383 50.1767 101.057C51.893 100.097 53.266 98.303 54.1698 96.7831C54.433 96.3488 53.6893 95.9717 53.4376 96.4059Z" fill="#54678C"/>
<path d="M43.2775 42.6033L42.797 48.1801C42.7397 49.1858 45.0967 51.8942 46.7557 50.7057C47.2477 50.3628 46.6985 48.9458 46.3209 47.883L45.3942 43.5632L43.2775 42.6033Z" fill="#FF867A"/>
<path d="M42.6482 39.3349C42.6482 39.3349 42.6024 40.912 42.8542 42.0205C43.2317 43.6433 44.4903 44.1804 46.1608 44.0204C47.7855 43.8718 48.266 43.4033 48.369 42.2376C48.3919 41.9519 48.3919 41.5177 48.3003 41.152C48.163 40.5349 47.6825 39.5406 47.0875 38.9578C46.8129 38.695 46.5727 38.2264 46.401 37.9979C45.1539 36.3865 42.8656 36.9122 42.6482 39.3349Z" fill="#FF867A"/>
<path d="M42.4651 40.7976C42.3393 40.6376 42.2477 40.4662 42.1677 40.2834C42.0075 39.9405 41.6871 39.4605 41.2867 39.9519C40.7031 40.6719 41.6528 42.4661 42.5796 42.2032C43.266 42.009 42.7626 41.1976 42.4651 40.7976Z" fill="#FF867A"/>
<path d="M46.0578 40.8891C46.0578 40.912 46.1264 40.9348 46.2294 40.912C46.3324 40.8891 46.4697 40.832 46.5841 40.6834C46.5841 40.6834 46.5841 40.672 46.5955 40.672C46.6642 40.5806 46.6985 40.4891 46.7099 40.4091C46.7328 40.2949 46.7099 40.192 46.6871 40.1349C46.6756 40.112 46.6642 40.1006 46.6413 40.1006C46.6298 40.1006 46.6298 40.1006 46.6184 40.112C46.5955 40.1463 46.5841 40.2149 46.5498 40.3063C46.5269 40.3749 46.4925 40.4434 46.4353 40.512C46.4353 40.5234 46.4239 40.5234 46.4239 40.5348C46.3438 40.6377 46.2523 40.7177 46.1722 40.7634C46.0921 40.832 46.0463 40.8663 46.0578 40.8891Z" fill="#C66C67"/>
<path d="M45.337 41.5062C46.1264 41.4377 46.996 41.0948 47.3049 40.8663C47.4079 40.7863 47.5681 40.8434 47.5795 40.9691C47.9685 43.1976 45.8061 42.6147 45.234 41.7805C45.1653 41.6662 45.1882 41.5177 45.337 41.5062Z" fill="white"/>
<path d="M43.7237 39.0835C44.0326 38.7292 44.3072 38.455 44.8106 38.455C44.9479 38.455 44.9937 38.6264 44.8221 38.7064C44.3644 38.9121 44.2157 38.9692 43.861 39.2778C43.7008 39.4149 43.5406 39.2892 43.7237 39.0835Z" fill="#262E51"/>
<path d="M46.8244 38.0892C46.607 37.9864 46.3667 38.0435 46.1722 38.1006C46.0349 38.1349 45.9777 38.2949 46.1608 38.3178C46.6642 38.3749 46.6527 38.3178 46.893 38.3749C47.0646 38.4092 47.0761 38.2035 46.8244 38.0892Z" fill="#262E51"/>
<path d="M45.5086 44.1918C45.6001 44.1918 45.6688 44.1232 45.6688 44.0318C45.6688 43.9404 45.6001 43.8718 45.5086 43.8718C44.2615 43.8604 43.6779 43.2319 43.6665 43.2204C43.6093 43.1519 43.5063 43.1519 43.4491 43.209C43.3805 43.2661 43.3805 43.369 43.4377 43.4261C43.4605 43.4718 44.1127 44.1804 45.5086 44.1918Z" fill="#C66C67"/>
<path d="M45.1997 37.1408C45.1997 37.1408 43.8152 37.6779 43.6436 39.3349C43.472 40.9805 43.7466 46.6831 43.7466 48.0887C43.7466 49.5058 40.8862 50.4543 39.0327 51.7228C37.1791 52.9913 36.1608 56.9568 36.0807 57.9053C36.0807 57.9053 35.8176 51.8942 36.8931 49.4029C37.98 46.9116 39.0327 44.3289 39.5361 42.6947C40.0395 41.0491 39.2272 36.2265 40.9548 35.6323C42.6825 35.0152 45.1997 37.1408 45.1997 37.1408Z" fill="#262E51"/>
<path d="M70.8288 39.0378C70.8288 39.0378 74.3871 38.8092 74.5702 38.1007C74.7418 37.4379 73.7692 36.8322 73.2429 35.6437C72.7509 34.5352 72.7395 33.1753 72.7395 33.1753L68.0714 33.0839L70.8288 39.0378Z" fill="#FF5F4A"/>
<path d="M68.1286 31.9182C68.1286 31.9182 73.9981 44.946 77.6022 46.306C81.2062 47.6659 73.529 50.8314 70.7258 48.6601C67.9226 46.4774 61.7327 34.1124 61.7327 34.1124L68.1286 31.9182Z" fill="#EAEAEA"/>
<path d="M58.3346 22.673C60.4284 21.8844 63.2888 20.7531 66.4009 19.3246L71.3207 33.6895C68.3231 33.9295 65.2682 34.3523 62.259 35.0494C60.3712 35.4837 58.4719 34.4094 57.8426 32.581L56.0806 27.4384C55.4284 25.5071 56.4238 23.3929 58.3346 22.673Z" fill="#FF5F4A"/>
<path d="M86.9957 2.15991L98.7118 35.998C98.7118 35.998 85.9888 32.5125 71.3322 33.6781L66.4123 19.3132C75.1766 15.302 82.4191 7.37104 86.9957 2.15991Z" fill="#EAEAEA"/>
<path d="M86.9957 2.15991C85.3939 3.98838 83.4488 6.15968 81.2291 8.3767C81.0117 10.6394 81.1262 14.8449 82.9797 21.7931C84.5929 27.827 87.5105 32.0668 90.1307 34.3638C95.3594 35.0952 98.7118 36.0208 98.7118 36.0208L86.9957 2.15991Z" fill="#FF5F4A"/>
<path d="M89.4098 20.2046C92.6478 29.6669 97.0757 36.7294 99.2839 35.9751C101.492 35.2209 100.657 26.9356 97.4189 17.4733C94.181 8.011 89.7531 0.948548 87.5449 1.70279C85.3367 2.45703 86.1719 10.7423 89.4098 20.2046Z" fill="#A64F3C"/>
<path d="M105.531 14.0564L105.268 13.2907C104.604 11.3708 102.591 10.2623 100.611 10.7308L87.5334 13.8278C88.0254 15.8391 88.6547 17.999 89.4098 20.216C89.9705 21.8616 90.5769 23.4387 91.1947 24.9243L103.529 18.8904C105.314 17.999 106.172 15.9305 105.531 14.0564Z" fill="#EAEAEA"/>
<path d="M89.4098 20.2046C88.6432 17.9876 88.014 15.8277 87.5334 13.8164L89.1696 13.4279L94.1238 23.4844L91.1947 24.9129C90.5769 23.4387 89.9819 21.8617 89.4098 20.2046Z" fill="#95B7BF"/>
<path d="M99.2839 36.3179C97.7278 36.7065 95.8056 34.2495 94.4555 32.101C92.5791 29.1069 90.6684 24.9129 89.1009 20.3188C87.522 15.7134 86.4579 11.2451 86.1032 7.72527C85.84 5.13113 85.8629 1.93132 87.4419 1.3942C88.4602 1.03994 89.7645 1.91989 91.3206 4.0112C92.7393 5.91966 94.2038 8.58237 95.634 11.9079L94.9704 12.0679C93.5745 8.84521 92.1443 6.25107 90.7828 4.41117C89.4899 2.6627 88.3458 1.79418 87.6593 2.03417C87.1444 2.21701 86.8927 3.01697 86.7783 3.65693C86.6066 4.65116 86.5952 5.99966 86.7668 7.66813C87.1215 11.1422 88.1741 15.5534 89.7302 20.1131C91.2862 24.6614 93.1741 28.7984 95.0276 31.7582C95.9201 33.1752 96.7553 34.2495 97.499 34.9237C97.9795 35.358 98.666 35.8494 99.1923 35.6665C99.6271 35.518 99.8674 34.9123 99.9932 34.4209C100.188 33.6552 100.245 32.6153 100.188 31.3239C100.062 28.6841 99.4097 25.21 98.3342 21.4388L98.9406 21.1416C100.028 24.97 100.714 28.6155 100.851 31.3011C101 34.2495 100.508 35.9294 99.4097 36.3065C99.364 36.2951 99.3296 36.3065 99.2839 36.3179Z" fill="white"/>
<path d="M64.616 23.93L59.3986 25.4157C59.3414 25.4271 59.2842 25.4042 59.2613 25.3357L59.0897 24.7414C59.0783 24.6843 59.1012 24.6271 59.1698 24.6043L64.3872 23.1187C64.4444 23.1072 64.5016 23.1301 64.5245 23.1986L64.6961 23.7929C64.7075 23.85 64.6732 23.9072 64.616 23.93Z" fill="#A64F3C"/>
<path d="M65.005 25.2785L59.7876 26.7642C59.7304 26.7756 59.6732 26.7527 59.6504 26.6842L59.4787 26.0899C59.4673 26.0328 59.4902 25.9756 59.5588 25.9528L64.7762 24.4672C64.8334 24.4557 64.8906 24.4786 64.9135 24.5472L65.0851 25.1414C65.0965 25.21 65.0622 25.2671 65.005 25.2785Z" fill="#A64F3C"/>
<path d="M65.394 26.6384L60.1767 28.124C60.1195 28.1355 60.0622 28.1126 60.0394 28.044L59.8677 27.4498C59.8563 27.3926 59.8792 27.3355 59.9478 27.3127L65.1652 25.827C65.2224 25.8156 65.2796 25.8385 65.3025 25.907L65.4741 26.5013C65.4855 26.5584 65.4512 26.627 65.394 26.6384Z" fill="#A64F3C"/>
<path d="M67.9226 20.2388C67.7739 20.2388 67.6251 20.1474 67.5679 19.9989C67.4878 19.8046 67.5794 19.5874 67.7739 19.5075C67.8311 19.4846 73.22 17.279 76.6525 14.0563C76.8012 13.9192 77.0415 13.9192 77.1903 14.0792C77.3276 14.2278 77.3276 14.4677 77.1674 14.6163C73.6205 17.9304 68.2773 20.1246 68.0485 20.216C68.0141 20.2274 67.9684 20.2388 67.9226 20.2388Z" fill="white"/>
<path d="M78.3916 13.4506C78.2886 13.4506 78.1857 13.4164 78.117 13.3364C77.9683 13.1878 77.9797 12.9478 78.1285 12.7993L79.6387 11.3708C79.7875 11.2222 80.0278 11.2336 80.1765 11.3822C80.3252 11.5308 80.3138 11.7707 80.1651 11.9193L78.6548 13.3478C78.5747 13.4164 78.4831 13.4506 78.3916 13.4506Z" fill="white"/>
<path d="M66.6869 46.3287C66.6869 46.3287 66.5267 44.1688 66.1949 43.426C66.0233 43.0375 65.3482 41.6204 64.5931 40.5462C63.9066 39.5748 63.0828 38.8663 63.4604 38.7863C64.9592 38.4663 65.3711 40.2491 65.8745 40.3291C66.378 40.4091 69.799 36.4779 70.577 36.6264C71.3551 36.7864 69.1125 38.6834 69.2727 38.7749C69.4214 38.8777 70.966 36.935 71.1834 37.3921C71.4008 37.8492 71.8242 39.1291 71.7212 39.392C71.2178 40.7748 69.124 43.1403 69.2727 43.5632C69.4214 43.986 70.2109 45.6202 69.9935 45.7345C69.799 45.8716 67.053 46.3973 66.6869 46.3287Z" fill="#FF867A"/>
<path d="M38.3233 53.4027C40.932 50.66 60.6915 60.7737 62.4535 60.1337C63.5748 59.7337 62.5336 45.426 66.0919 43.6775C67.3276 43.0718 70.8402 43.3118 70.9317 44.2603C71.5267 51.1742 76.7212 67.8704 63.8265 70.1674C49.0784 72.8073 34.8908 57.0139 38.3233 53.4027Z" fill="#FFF6E9"/>
<path d="M118.746 170.253C115.428 161.751 107.453 170.962 105.874 166.299C104.295 161.636 129.684 141.238 115.256 136.644C100.828 132.05 95.3709 159.922 90.3824 157.991C85.3938 156.06 84.49 148.197 77.728 154.734C74.0553 158.277 72.7853 168.802 72.4191 177.99C72.053 187.132 77.0072 195.017 84.6616 197.566L89.4213 199.143C95.451 201.143 102.236 199.52 107.442 194.8C114.387 188.492 122.144 178.995 118.746 170.253Z" fill="#348C93"/>
<path d="M84.0895 165.476C84.284 165.373 84.5014 165.442 84.5815 165.648L90.0162 179.19C90.2908 178.515 90.5654 177.83 90.8629 177.098C93.094 171.647 96.7553 165.293 100.485 159.465L100.359 152.403C100.359 152.174 100.52 151.968 100.726 151.946C100.931 151.923 101.103 152.094 101.103 152.323L101.218 158.334C107.247 149.054 113.197 141.363 113.3 141.238C113.437 141.055 113.677 141.02 113.826 141.169C113.975 141.318 113.986 141.569 113.849 141.752C113.746 141.878 107.716 149.66 101.675 158.997L106.126 158.277C106.332 158.242 106.515 158.402 106.526 158.631C106.538 158.859 106.378 159.077 106.172 159.099L101.069 159.934C97.3731 165.705 93.7347 171.99 91.5379 177.384C91.229 178.138 90.943 178.847 90.6569 179.544L105.302 174.459C105.508 174.39 105.703 174.516 105.748 174.733C105.794 174.95 105.668 175.19 105.462 175.258L90.245 180.538C85.4854 192.343 84.7188 195.212 84.7188 195.235C84.6616 195.463 84.4556 195.612 84.2497 195.554C84.2382 195.554 84.2268 195.554 84.2268 195.543C84.0437 195.486 83.9408 195.269 83.998 195.063C84.0323 194.937 84.7645 192.149 89.57 180.218L83.895 166.048C83.8149 165.842 83.9064 165.59 84.0895 165.476Z" fill="#5CBEC6"/>
<path d="M78.323 194.012C78.323 194.012 77.625 170.253 67.2018 163.454C56.7785 156.654 52.3392 167.259 55.3026 175.636C57.8884 182.927 67.7166 191.463 70.1995 193.543C70.5656 193.852 71.0347 194.023 71.5152 194.023H78.323V194.012Z" fill="#5CBCA5"/>
<path d="M74.1125 191.109C73.7578 189.966 73.3573 188.846 72.9226 187.715L74.7646 178.321C74.799 178.139 74.7189 177.933 74.5816 177.864C74.4443 177.796 74.307 177.899 74.2612 178.081L72.545 186.789C71.6754 184.618 70.6228 182.367 69.3185 179.853L70.5656 169.408C70.5885 169.213 70.497 169.019 70.3482 168.973C70.2109 168.928 70.0736 169.042 70.0507 169.236L68.8837 179.018C68.8036 178.87 68.7349 178.733 68.6549 178.584C67.8082 176.996 66.5038 174.87 65.1309 172.71L65.9203 166.516C65.9432 166.322 65.8517 166.128 65.7144 166.082C65.5771 166.036 65.4398 166.151 65.4169 166.345L64.6961 172.025C63.632 170.368 62.5336 168.722 61.6069 167.328L61.7899 163.545C61.8014 163.351 61.687 163.168 61.5497 163.145C61.4124 163.122 61.2865 163.259 61.2751 163.454L61.1149 166.619C59.9135 164.836 59.0783 163.625 59.044 163.591C58.941 163.442 58.7808 163.431 58.6778 163.568C58.5749 163.705 58.5863 163.922 58.6778 164.071C58.7007 164.105 59.5588 165.351 60.7716 167.156L58.1286 167.431C57.9913 167.442 57.8884 167.613 57.9112 167.819C57.9341 167.991 58.0257 168.128 58.1515 168.15C58.1744 168.15 58.1858 168.15 58.2087 168.15L61.2293 167.831C62.1446 169.19 63.2087 170.802 64.2499 172.425L59.044 171.819C58.9067 171.807 58.7808 171.945 58.7808 172.15C58.7808 172.345 58.8838 172.505 59.0211 172.539H59.0325L64.7419 173.202C66.1034 175.339 67.3963 177.453 68.2315 179.018C68.3345 179.213 68.4375 179.407 68.5404 179.601L61.1606 179.818C61.0233 179.818 60.9089 179.99 60.9318 180.184C60.9433 180.367 61.0462 180.504 61.1721 180.527C61.1835 180.527 61.195 180.527 61.2178 180.527L68.918 180.298C70.2452 182.858 71.2979 185.132 72.1674 187.338L64.8906 186.321C64.7533 186.298 64.6274 186.447 64.6274 186.641C64.6274 186.835 64.7304 187.007 64.8677 187.029H64.8791L72.4763 188.092C72.8997 189.189 73.2772 190.275 73.6205 191.372C73.6663 191.498 73.7464 191.589 73.8379 191.601C73.8837 191.612 73.918 191.601 73.9637 191.578C74.1125 191.498 74.1697 191.292 74.1125 191.109Z" fill="#7BDBB9"/>
</g>
<defs>
<clipPath id="clip0_18_942">
<rect width="231.783" height="200" fill="white" transform="translate(0.108521)"/>
</clipPath>
</defs>
</svg>
