<svg width="497" height="448" viewBox="0 0 497 448" fill="none" xmlns="http://www.w3.org/2000/svg">
<path d="M459.717 254.552C459.717 322.806 424.367 382.816 370.985 417.259C340.805 436.73 304.909 448 266.364 448C237.319 448 209.746 441.566 184.988 430.085C179.019 427.309 173.261 424.24 167.628 420.917C163.593 418.52 159.642 415.955 155.817 413.263C154.724 412.507 153.589 411.707 152.496 410.908C139.886 401.699 128.411 390.975 118.366 379.032C104.705 362.799 93.65 344.253 85.8739 324.109C77.5513 302.536 72.9697 279.07 72.9697 254.51C72.9697 172.715 123.704 102.78 195.454 74.4774C197.262 73.7625 199.111 73.0896 200.961 72.4167C204.744 71.071 208.527 69.8094 212.394 68.716C213.276 68.4637 214.159 68.2114 215.084 67.959C218.32 67.0759 221.599 66.2769 224.878 65.562C225.34 65.4778 225.76 65.3517 226.223 65.2676C228.576 64.7629 230.93 64.3003 233.326 63.9219C236.226 63.4172 239.169 62.9967 242.111 62.6182C242.574 62.5761 243.036 62.492 243.456 62.45C247.029 62.0294 250.644 61.693 254.301 61.4827C254.595 61.4827 254.847 61.4407 255.141 61.4407C255.31 61.4407 255.478 61.3986 255.688 61.3986C259.219 61.1884 262.791 61.1042 266.364 61.1042H266.448C266.911 61.1042 267.373 61.1042 267.793 61.1042C268.256 61.1042 268.718 61.1042 269.18 61.1042C270.021 61.1042 270.862 61.1463 271.702 61.1463C276.032 61.2725 280.361 61.5248 284.607 61.9033C285.657 61.9874 286.666 62.1135 287.675 62.1976C290.996 62.5761 294.274 62.9967 297.511 63.5434C353.121 72.5429 400.786 105.303 429.747 151.058C430.924 152.866 432.017 154.716 433.11 156.609C441.264 170.486 447.737 185.458 452.235 201.27C457.153 218.26 459.717 236.09 459.717 254.552Z" fill="#F5F5F5"/>
<path d="M156.658 162.034C119.585 153.497 166.115 250.052 166.115 250.052C166.115 250.052 109.118 139.03 71.2465 147.189C33.3747 155.305 90.9601 258.085 90.9601 258.085C90.9601 258.085 38.923 205.307 7.27208 223.685C-24.4209 242.062 55.9885 329.408 89.0266 339.333C122.065 349.258 248.753 374.28 261.447 369.275C274.099 364.313 193.731 170.571 156.658 162.034Z" fill="#93D8A5"/>
<path d="M206.257 364.06C205.879 355.271 204.408 340.889 200.709 318.516C195.455 287.06 188.015 253.795 181.752 233.693C171.454 200.681 156.616 173.766 149.513 161.865C150.858 161.529 152.371 161.445 154.178 161.613C161.744 174.523 175.783 200.681 185.703 232.432C192.092 252.912 199.616 286.723 204.912 318.558C207.476 334.118 209.284 347.701 210.04 357.836C210.251 360.444 210.377 362.715 210.419 364.691C209.074 364.481 207.687 364.271 206.257 364.06Z" fill="#43B572"/>
<path d="M69.9016 285.42C57.8381 274.99 20.4285 244.88 1.55566 229.698C2.14413 228.437 2.94276 227.301 3.90952 226.292C22.7404 241.389 60.4441 271.752 72.6337 282.308C86.3365 294.209 155.229 340.3 176.876 354.724C169.94 340.889 154.43 309.264 144.805 284.494C135.263 259.935 86.2945 185.668 63.3444 151.394C64.2691 150.385 65.362 149.544 66.623 148.829C89.6151 183.103 138.794 257.622 148.672 282.981C160.693 313.848 181.878 355.439 183.938 359.477C184.106 359.645 184.4 359.939 184.778 360.276C181.584 359.687 178.347 359.098 175.069 358.467C153.842 344.337 84.1088 297.741 69.9016 285.42Z" fill="#43B572"/>
<path d="M425.082 358.509C432.186 330.88 359.048 363.934 359.048 363.934C359.048 363.934 443.198 323.31 437.818 294.798C432.438 266.285 354.424 307.498 354.424 307.498C354.424 307.498 394.902 269.523 381.746 245.426C368.589 221.329 301.715 279.911 293.644 304.512C285.574 329.071 264.473 423.525 267.962 433.113C271.493 442.659 418.02 386.139 425.082 358.509Z" fill="#93D8A5"/>
<path d="M272.964 391.858C279.522 391.774 290.324 390.933 307.137 388.536C330.76 385.214 355.812 380.251 370.986 375.92C395.869 368.813 416.298 358.215 425.335 353.126C425.587 354.136 425.587 355.271 425.419 356.617C415.625 362.042 395.743 372.093 371.826 378.905C356.4 383.321 330.928 388.326 307.011 391.648C295.326 393.288 285.112 394.381 277.504 394.76C275.528 394.844 273.847 394.928 272.334 394.928C272.586 393.961 272.754 392.909 272.964 391.858Z" fill="#43B572"/>
<path d="M334.375 291.181C342.445 282.35 365.69 254.889 377.375 241.011C378.3 241.473 379.14 242.104 379.897 242.861C368.254 256.697 344.799 284.368 336.687 293.284C327.524 303.335 291.711 354.052 280.531 370.032C290.997 365.112 314.956 354.094 333.702 347.323C352.281 340.636 408.774 305.353 434.834 288.784C435.549 289.499 436.179 290.34 436.684 291.307C410.581 307.876 353.878 343.328 334.753 350.225C311.425 358.635 279.9 373.733 276.832 375.205C276.706 375.331 276.495 375.541 276.243 375.835C276.748 373.438 277.252 371.041 277.756 368.602C288.685 352.958 324.876 301.61 334.375 291.181Z" fill="#43B572"/>
<path d="M376.533 127.507L380.569 127.76C380.569 127.76 286.33 80.2808 284.649 77.2529C282.968 74.225 284.607 61.3145 292.845 58.2025C297.721 56.3521 527.895 77.4211 493.47 171.201C484.391 195.929 437.229 209.428 392.926 211.951C405.116 170.781 376.533 127.507 376.533 127.507Z" fill="#F27C79"/>
<path d="M376.534 127.507C376.534 127.507 412.514 168.426 397.256 218.848C361.402 220.909 308.566 210.858 298.058 198.705C285.784 184.532 271.955 120.695 271.955 120.695L376.534 127.507Z" fill="#ECCE2F"/>
<path d="M189.613 56.142C189.739 56.5205 191.798 86.6731 218.531 89.7851C232.234 91.3832 238.581 45.5444 230.301 42.2642C222.02 38.8999 186.586 48.1518 189.613 56.142Z" fill="#7F635D"/>
<path d="M451.605 164.851C452.235 164.809 452.782 164.389 453.034 163.674C453.328 162.748 452.908 161.655 452.109 161.319C414.616 144.876 381.368 126.288 381.031 126.12C380.233 125.657 379.308 126.035 378.93 126.961C378.551 127.886 378.888 128.979 379.686 129.4C380.023 129.568 413.397 148.24 451.017 164.725C451.185 164.851 451.395 164.851 451.605 164.851Z" fill="#C66C67"/>
<path d="M295.242 70.8607C295.242 70.8607 298.772 64.3844 297.175 60.4314C295.578 56.4783 281.329 41.0025 274.982 39.11C268.635 37.2176 265.65 37.3858 263.422 38.8157C261.195 40.2455 271.661 60.7257 273.847 65.7301C276.032 70.7346 287.718 80.7434 290.156 78.9351C292.593 77.0847 295.242 70.8607 295.242 70.8607Z" fill="#F27C79"/>
<path d="M246.273 38.0166L258.21 30.6992C260.69 29.2273 263.716 29.5638 264.893 31.4141L287.633 66.5291C288.81 68.3795 287.759 71.0709 285.279 72.5008L273.342 79.8182C270.862 81.29 267.836 80.9536 266.659 79.1032L243.919 43.9882C242.7 42.1799 243.751 39.4885 246.273 38.0166Z" fill="#4D648C"/>
<path d="M276.579 43.0633C276.579 43.0633 271.703 42.2643 268.004 42.6848C264.305 43.1053 260.606 44.6193 261.405 46.722C262.203 48.8247 268.508 47.3107 268.508 47.3107C268.508 47.3107 265.104 49.0349 264.767 51.4741C264.389 53.9132 267.289 55.4271 269.559 55.4692C271.829 55.5112 280.236 55.0907 282.127 54.544C284.018 53.9973 279.311 46.1753 276.579 43.0633Z" fill="#F27C79"/>
<path d="M279.479 54.5017C279.479 54.5017 272.165 56.31 272.669 58.7912C273.216 61.3144 283.682 60.5575 283.808 58.7071C283.976 56.8567 279.479 54.5017 279.479 54.5017Z" fill="#F27C79"/>
<path d="M369.472 218.386C369.094 212.456 368.715 206.401 368.337 200.345C367.496 186.677 366.782 174.86 366.151 167.122C365.227 155.053 362.452 140.418 359.174 126.372L367.665 126.919C370.775 140.502 373.339 154.548 374.264 166.491C374.852 174.313 375.609 186.131 376.449 199.84C376.786 205.644 377.206 212.078 377.626 218.891C374.936 218.764 372.204 218.596 369.472 218.386Z" fill="white"/>
<path d="M312.097 123.302C317.982 151.016 325.548 186.635 329.457 212.204C326.472 211.489 323.614 210.732 320.882 209.933C316.931 184.911 309.785 151.31 304.153 124.9C303.985 124.185 303.859 123.47 303.69 122.755L312.097 123.302Z" fill="white"/>
<path d="M369.136 401.572C369.809 406.955 370.439 412.17 371.028 417.258C340.848 436.729 304.951 448 266.407 448C237.362 448 209.788 441.566 185.031 430.085C179.062 427.309 173.304 424.239 167.671 420.917C163.636 418.52 159.685 415.955 155.86 413.263C154.767 412.506 153.632 411.707 152.539 410.908C140.434 413.389 128.791 412.254 118.24 405.904C118.24 404.39 118.24 402.834 118.24 401.278C118.24 400.437 118.24 399.596 118.24 398.755C118.24 397.451 118.24 396.105 118.282 394.76C118.282 394.045 118.282 393.33 118.282 392.573C118.282 391.69 118.282 390.807 118.282 389.923C118.282 389.377 118.282 388.788 118.282 388.199C118.282 385.298 118.324 382.354 118.366 379.41C118.366 379.284 118.366 379.116 118.366 378.989C118.366 377.56 118.408 376.13 118.408 374.7C118.408 372.303 118.45 369.864 118.492 367.467C118.492 366.037 118.534 364.649 118.534 363.219C118.534 361.916 118.577 360.654 118.577 359.392C118.871 334.076 119.417 308.633 120.174 285.251C120.426 277.471 120.72 269.944 121.056 262.71C121.183 259.935 121.309 257.243 121.435 254.552C121.687 249.295 121.981 244.207 122.275 239.371C122.317 238.656 122.359 237.983 122.402 237.268C122.402 237.058 122.444 236.847 122.444 236.637C123.663 217.166 125.218 201.859 127.151 193.195C127.361 192.27 127.572 191.429 127.782 190.672C128.286 188.906 128.791 187.14 129.337 185.415C130.22 182.514 131.186 179.612 132.279 176.71C132.91 174.986 133.582 173.304 134.297 171.58C134.675 170.655 135.096 169.729 135.516 168.804C138.836 161.487 142.956 154.464 148.252 148.072C152.203 143.32 156.827 138.946 162.249 135.077C162.627 134.825 163.006 134.53 163.426 134.278C163.468 134.278 163.468 134.236 163.468 134.236C163.888 133.942 164.309 133.689 164.729 133.395C165.149 133.142 165.57 132.848 165.99 132.596C166.368 132.343 166.789 132.091 167.167 131.881C167.419 131.713 167.671 131.586 167.965 131.418C168.638 131.04 169.311 130.661 169.983 130.283C170.361 130.073 170.782 129.862 171.16 129.652C171.244 129.61 171.286 129.568 171.37 129.526C171.833 129.274 172.295 129.063 172.757 128.811C181.542 124.479 191.966 121.367 204.492 119.811C208.864 119.265 213.151 118.802 217.228 118.424C225.509 117.625 233.201 117.12 240.431 116.994C254.26 116.741 266.323 117.919 276.999 120.947C288.306 124.185 298.058 129.568 306.843 137.684C310.626 141.175 314.241 145.212 317.688 149.754C317.688 149.754 317.688 149.796 317.73 149.796C320.924 154.001 324.161 161.319 327.397 170.907C327.607 171.496 327.818 172.126 328.028 172.757C328.196 173.22 328.322 173.64 328.49 174.103C328.616 174.439 328.7 174.818 328.826 175.154C329.163 176.29 329.541 177.425 329.877 178.603C332.946 188.738 335.972 200.765 338.956 214.138C339.965 218.722 341.016 223.474 341.983 228.352C342.067 228.773 342.151 229.194 342.235 229.614C342.445 230.581 342.655 231.591 342.823 232.6C343.034 233.525 343.202 234.492 343.412 235.46C343.454 235.754 343.538 236.048 343.58 236.343C346.27 249.8 348.876 264.14 351.398 278.901C351.692 280.583 351.945 282.266 352.239 283.948C355.349 302.409 358.25 321.502 360.94 340.216C361.024 340.762 361.108 341.309 361.192 341.814C361.444 343.538 361.696 345.304 361.948 347.029C361.99 347.449 362.075 347.828 362.117 348.248C364.512 365.238 366.698 381.891 368.632 397.493C368.8 398.923 368.968 400.227 369.136 401.572Z" fill="#FFE145"/>
<path d="M235.723 92.7289C235.723 92.7289 245.012 120.863 237.656 126.666C232.991 130.325 215.925 129.358 217.102 120.526C218.279 111.485 215.084 87.9347 216.724 85.0751C218.321 82.2154 235.723 92.7289 235.723 92.7289Z" fill="#FF867A"/>
<path d="M270.064 78.178C269.728 98.9527 238.833 114.555 216.766 90.4157C207.939 80.7433 213.95 69.0524 213.151 55.469C212.226 39.4885 224.416 28.1339 236.479 27.8816C248.711 27.6293 256.235 33.4327 260.985 51.3477C263.044 59.1276 270.316 60.3472 270.064 78.178Z" fill="#FF867A"/>
<path d="M260.228 72.2065C260.228 72.2065 248.29 75.7811 234.924 74.3933C234.924 74.3933 243.162 86.1684 251.905 84.6124C260.69 83.0564 260.228 72.2065 260.228 72.2065Z" fill="white"/>
<path d="M246.819 68.3375C249.383 67.4964 251.527 66.1507 253.376 64.2583C254.806 62.7864 256.781 65.2676 255.352 66.6974C253.334 68.7581 250.854 70.314 248.08 71.2392C246.231 71.828 244.928 68.9683 246.819 68.3375Z" fill="#C66C67"/>
<path d="M238.119 56.5624C238.455 56.4782 239.464 56.0998 240.178 57.2352C240.725 58.0763 241.103 59.2538 241.061 60.3051C241.019 61.5247 239.842 62.4078 238.665 62.0714C237.068 61.6088 235.849 57.2352 238.119 56.5624Z" fill="#434A59"/>
<path d="M259.387 53.2823C259.724 53.1982 260.732 52.8197 261.447 53.9552C261.993 54.7963 262.372 55.9738 262.33 57.0251C262.288 58.2447 261.111 59.1278 259.934 58.7914C258.294 58.3708 257.118 53.9552 259.387 53.2823Z" fill="#434A59"/>
<path d="M235.428 49.6657C233.873 49.0349 231.393 49.4554 230.048 50.3386C228.619 51.2217 227.063 52.7356 226.517 54.3757C226.391 54.544 226.349 54.7542 226.391 54.9224C226.349 55.3009 226.517 55.5533 226.769 55.6794C227.147 55.9738 227.694 56.1 228.198 55.6794C230.216 53.9973 232.906 52.6515 235.386 51.8525C236.521 51.474 236.395 49.7919 235.428 49.6657Z" fill="#7F635D"/>
<path d="M258.757 45.7546C258.673 45.7126 258.589 45.6705 258.463 45.6705C257.706 45.6285 256.781 45.4182 255.815 45.3341C255.73 45.3341 255.688 45.292 255.604 45.292C255.562 45.292 255.562 45.292 255.52 45.292C254.133 45.1659 252.83 45.3761 252.284 46.7639C252.2 46.9321 252.2 47.1004 252.284 47.2686C252.242 47.8994 252.704 48.6143 253.503 48.4881C255.31 48.2358 257.076 47.9835 258.925 47.8994C260.312 47.8994 260.018 45.8808 258.757 45.7546Z" fill="#7F635D"/>
<path d="M369.136 401.573C363.335 403.171 354.256 405.063 339.923 407.376C319.789 410.614 294.275 413.768 271.577 415.829C255.016 417.343 228.703 418.562 202.306 419.614C194.656 419.908 187.048 420.202 179.608 420.497C175.657 420.665 171.664 420.791 167.629 420.959C163.594 418.562 159.642 415.997 155.817 413.306C162.711 413.011 170.487 412.717 179.272 412.38C190.369 411.96 201.97 411.497 213.277 411.035C235.596 410.067 256.781 409.016 270.82 407.754C310.289 404.18 352.785 397.83 368.085 393.54C368.253 394.886 368.421 396.232 368.589 397.577C368.799 398.923 368.967 400.227 369.136 401.573Z" fill="white"/>
<path d="M269.601 298.414C261.783 298.414 249.93 298.204 236.185 297.952C203.525 297.405 150.395 296.48 119.795 298.036C119.879 295.302 119.963 292.611 120.047 289.92C147.032 288.49 190.327 289.036 236.353 289.835C250.056 290.088 261.867 290.298 269.643 290.298C294.989 290.34 332.104 283.149 351.44 278.986C351.902 281.635 352.322 284.326 352.785 287.018C333.113 291.265 295.872 298.457 269.601 298.414Z" fill="white"/>
<path d="M191.63 361.075C239.548 359.477 326.01 345.809 358.586 340.637C359.426 340.51 360.225 340.384 360.981 340.258C361.36 342.95 361.738 345.599 362.116 348.29C361.402 348.417 360.645 348.543 359.847 348.627C327.145 353.799 240.262 367.509 191.882 369.149C166.284 369.99 139.929 368.939 118.492 367.467C118.534 364.775 118.534 362.042 118.576 359.351C139.929 360.864 166.116 361.958 191.63 361.075Z" fill="white"/>
<path d="M303.522 134.825C284.397 137.6 255.563 140.25 227.4 141.764C206.216 142.899 180.239 138.778 162.207 135.119C165.444 132.848 168.932 130.746 172.757 128.853C189.402 131.839 209.999 134.572 226.938 133.647C250.897 132.344 275.276 130.241 293.603 127.928C297.091 129.947 300.37 132.217 303.522 134.825Z" fill="white"/>
<path d="M316.553 231.759C326.515 230.455 335.257 229.32 341.983 228.479C342.529 231.086 343.076 233.778 343.58 236.469C336.518 237.31 327.187 238.53 317.561 239.833C281.371 244.585 231.814 251.104 208.191 250.978C185.788 250.851 151.489 245.006 133.036 241.558C129.379 240.885 125.722 240.17 122.191 239.455C122.36 236.637 122.528 233.904 122.738 231.254C149.387 236.637 185.872 242.693 208.233 242.819C231.394 242.945 280.614 236.469 316.553 231.759Z" fill="white"/>
<path d="M180.071 182.682C163.468 180.201 145.604 177.51 132.237 176.753C133.246 174.103 134.297 171.454 135.474 168.846C147.453 169.688 162.753 171.916 181.248 174.65C210.755 179.066 244.172 184.07 264.432 181.336C282.38 178.897 300.916 176.374 314.745 173.767C320.083 172.757 324.203 171.832 327.397 170.991C328.238 173.43 329.037 175.996 329.877 178.729C317.309 182.135 296.671 185.163 265.566 189.411C244.172 192.27 211.596 187.392 180.071 182.682Z" fill="white"/>
<path d="M281.455 299.97C281.245 300.727 274.309 326.002 257.874 355.187C256.235 358.089 254.512 361.032 252.704 363.976C242.658 380.251 229.712 397.073 213.361 411.035C209.83 414.02 206.174 416.922 202.349 419.614C198.524 422.305 194.53 424.87 190.369 427.225C188.562 428.235 186.796 429.202 185.031 430.127C179.062 427.351 173.304 424.282 167.671 420.959C163.636 418.562 159.685 415.997 155.86 413.305C154.767 412.548 153.632 411.749 152.539 410.95C140.434 413.432 128.791 412.296 118.24 405.946C118.24 404.432 118.24 402.876 118.24 401.32C118.24 400.479 118.24 399.638 118.24 398.797C118.24 397.493 118.24 396.147 118.282 394.802C118.282 394.087 118.282 393.372 118.282 392.615C118.282 391.732 118.282 390.849 118.282 389.966C118.282 389.419 118.282 388.83 118.282 388.241C118.324 385.34 118.324 382.396 118.366 379.452C118.366 379.326 118.366 379.158 118.366 379.032C118.366 377.644 118.408 376.214 118.408 374.826L118.703 374.7L119.585 374.279L132.532 368.35L148.672 360.948L281.455 299.97Z" fill="#ECCE2F"/>
<path d="M230.384 101.728C224.752 99.5415 220.885 96.093 220.675 95.9248C220.17 95.4622 220.128 94.6632 220.591 94.1165C221.053 93.6119 221.852 93.5698 222.398 94.0324C222.44 94.0745 227.652 98.7004 234.42 100.34C235.092 100.509 235.512 101.182 235.344 101.896C235.176 102.569 234.504 102.99 233.789 102.822C232.612 102.527 231.477 102.149 230.384 101.728Z" fill="#C66C67"/>
<path d="M243.456 58.9174C243.372 58.4548 243.288 57.9923 243.162 57.5717C242.153 53.913 239.421 51.0954 236.058 50.1282C235.302 49.9179 234.545 49.7917 233.789 49.7917C233.621 49.7917 233.452 49.7917 233.284 49.7917C231.729 49.8759 230.258 50.3384 228.955 51.0954C227.19 52.1468 225.802 53.7869 224.878 55.7213C224.668 56.1839 224.457 56.6886 224.331 57.2353C223.953 58.4548 223.785 59.7585 223.869 61.1042C223.953 62.7023 224.331 64.2162 224.962 65.5619C226.349 68.5478 228.913 70.7346 231.939 71.3654C232.696 71.5336 233.452 71.5757 234.209 71.5757C238.959 71.3654 242.826 67.4544 243.498 62.45C243.582 61.735 243.624 61.0201 243.624 60.2632C243.54 59.8006 243.498 59.338 243.456 58.9174ZM234.125 70.272C233.452 70.314 232.822 70.2299 232.191 70.1038C229.627 69.5571 227.484 67.7908 226.223 65.3096C225.592 64.048 225.214 62.6182 225.13 61.0622C225.046 59.0015 225.55 57.0671 226.475 55.469C227.904 52.9458 230.384 51.2636 233.284 51.1375C233.494 51.1375 233.663 51.1375 233.873 51.1375C234.587 51.1795 235.26 51.2636 235.89 51.4739C239.379 52.5673 242.069 56.0578 242.237 60.3473C242.279 61.1463 242.195 61.9033 242.069 62.6602C241.355 66.8656 238.118 70.1038 234.125 70.272Z" fill="#434A59"/>
<path d="M254.763 57.1513C254.763 57.1934 254.763 57.2775 254.721 57.3195C254.637 57.656 254.259 57.8662 253.922 57.7821C253.754 57.7401 253.628 57.698 253.46 57.656C253.502 58.1606 253.544 58.6232 253.628 59.0858L255.141 61.3987C255.309 61.3987 255.478 61.3567 255.688 61.3567C255.141 60.1371 254.847 58.7073 254.763 57.1513ZM254.763 57.1513C254.763 57.1934 254.763 57.2775 254.721 57.3195C254.637 57.656 254.259 57.8662 253.922 57.7821C253.754 57.7401 253.628 57.698 253.46 57.656C253.502 58.1606 253.544 58.6232 253.628 59.0858L255.141 61.3987C255.309 61.3987 255.478 61.3567 255.688 61.3567C255.141 60.1371 254.847 58.7073 254.763 57.1513ZM269.769 56.4784C269.769 56.142 269.727 55.8056 269.685 55.4691C269.391 52.6936 268.298 50.2545 266.742 48.5303C266.49 48.2359 266.238 47.9836 265.944 47.7312C265.776 47.6051 265.65 47.4789 265.481 47.3527C264.262 46.4276 262.833 45.8809 261.32 45.9229C261.278 45.9229 261.194 45.9229 261.152 45.9229C260.606 45.965 260.101 46.0491 259.597 46.1752C259.555 46.1752 259.513 46.2173 259.471 46.2173C258.378 46.5537 257.411 47.2266 256.57 48.0677C254.721 49.9601 253.544 52.9039 253.46 56.2682C253.46 56.5626 253.46 56.8569 253.46 57.1093C253.46 57.2775 253.46 57.4457 253.502 57.6139C253.544 58.1185 253.586 58.5811 253.67 59.0437C253.796 59.8848 254.048 60.6838 254.301 61.3987C255.225 63.8799 256.781 65.8144 258.714 66.8237C259.765 67.3704 260.9 67.6648 262.077 67.6227C264.431 67.5386 266.49 66.1088 267.877 63.8799C268.424 63.0388 268.844 62.0716 269.18 61.0203C269.559 59.7586 269.769 58.3709 269.769 56.941C269.769 56.8569 269.769 56.6887 269.769 56.4784ZM267.205 62.5342C266.028 64.8051 264.178 66.319 261.993 66.4032C259.345 66.5293 256.949 64.4687 255.688 61.3987C255.141 60.1371 254.847 58.6652 254.763 57.1513V57.1093C254.595 52.988 256.318 49.3713 258.882 47.9415C259.134 47.7733 259.387 47.6471 259.681 47.563C259.723 47.521 259.807 47.521 259.849 47.521C260.269 47.3948 260.732 47.3107 261.194 47.2686C261.446 47.2686 261.656 47.2686 261.867 47.3107C262.497 47.3528 263.086 47.563 263.674 47.8153C264.431 48.1938 265.145 48.7405 265.776 49.4554C267.079 50.8853 268.003 52.988 268.298 55.343C268.34 55.7215 268.382 56.142 268.424 56.5625C268.508 58.2027 268.256 59.7586 267.793 61.1464C267.625 61.609 267.457 62.1137 267.205 62.5342ZM254.763 57.1513C254.763 57.1934 254.763 57.2775 254.721 57.3195C254.637 57.656 254.259 57.8662 253.922 57.7821C253.754 57.7401 253.628 57.698 253.46 57.656C253.502 58.1606 253.544 58.6232 253.628 59.0858L255.141 61.3987C255.309 61.3987 255.478 61.3567 255.688 61.3567C255.141 60.1371 254.847 58.7073 254.763 57.1513ZM254.763 57.1513C254.763 57.1934 254.763 57.2775 254.721 57.3195C254.637 57.656 254.259 57.8662 253.922 57.7821C253.754 57.7401 253.628 57.698 253.46 57.656C253.502 58.1606 253.544 58.6232 253.628 59.0858L255.141 61.3987C255.309 61.3987 255.478 61.3567 255.688 61.3567C255.141 60.1371 254.847 58.7073 254.763 57.1513Z" fill="#434A59"/>
<path d="M243.079 59.0437C243.205 59.0437 243.289 59.0016 243.415 58.9596C243.457 58.9175 247.912 56.2261 253.965 57.8241C254.301 57.9082 254.68 57.698 254.764 57.3615C254.848 57.0251 254.638 56.6466 254.301 56.5625C247.66 54.8383 242.91 57.74 242.7 57.8662C242.406 58.0764 242.28 58.4549 242.49 58.7914C242.616 58.9175 242.826 59.0437 243.079 59.0437Z" fill="#434A59"/>
<path d="M205.08 61.8613C205.122 61.8613 205.165 61.8613 205.207 61.8613L225.467 56.9831C225.803 56.899 226.055 56.5205 225.971 56.184C225.887 55.8476 225.509 55.5953 225.172 55.6794L204.912 60.5576C204.576 60.6417 204.324 61.0202 204.408 61.3567C204.492 61.651 204.786 61.8613 205.08 61.8613Z" fill="#434A59"/>
<path d="M211.595 63.7536C211.595 63.7536 203.861 56.7306 200.162 62.0715C194.403 70.3981 208.401 81.3322 213.402 79.3556C218.446 77.337 220.212 72.8793 211.595 63.7536Z" fill="#FF867A"/>
<path d="M209.115 50.4226C209.115 50.4226 231.729 47.5629 242.364 43.736C252.998 39.9091 244.423 34.8627 244.423 34.8627C244.423 34.8627 266.154 30.5732 263.969 17.4103C261.783 4.24744 249.888 2.43912 241.481 4.96235C233.116 7.48559 232.318 7.77996 232.318 7.77996C232.318 7.77996 238.034 -1.26162 226.769 0.168212C215.462 1.59804 196.337 12.8264 193.437 17.957C190.537 23.0876 191.167 24.8118 191.167 24.8118C191.167 24.8118 185.619 28.0079 182.172 35.4935C178.683 42.937 184.526 56.1419 191.546 56.0999C198.565 56.0158 209.115 50.4226 209.115 50.4226Z" fill="#7F635D"/>
<path d="M280.614 258.926C282.883 256.108 293.224 253.206 298.814 252.491C309.448 251.146 314.871 246.604 317.645 243.071C320.419 239.539 322.941 247.235 318.275 251.861C313.61 256.487 302.849 260.692 308.482 261.827C314.114 262.963 336.308 238.782 335.047 251.734C331.179 290.508 299.697 292.232 282.379 285.672C282.379 285.672 264.095 279.238 280.614 258.926Z" fill="#FF867A"/>
<path d="M145.351 150.259C170.991 130.241 185.619 144.623 187.762 155.095C194.025 185.92 176.035 254.973 165.443 291.265C150.269 290.761 117.903 288.111 91.9688 275.327C104.074 217.292 131.396 161.15 145.351 150.259Z" fill="#FFE145"/>
<path d="M165.317 205.223C157.835 202.952 146.528 199.377 133.414 195.256C129.21 193.91 124.629 192.481 119.795 190.967C120.972 188.401 122.149 185.962 123.326 183.565C127.487 184.869 131.648 186.215 135.852 187.518C148.924 191.64 160.189 195.214 167.629 197.443C173.261 199.125 179.608 200.639 186.249 201.943C185.871 204.592 185.409 207.284 184.946 209.975C177.969 208.629 171.286 207.031 165.317 205.223Z" fill="white"/>
<path d="M96.0039 258C96.6764 255.393 97.391 252.744 98.1476 250.178C121.434 254.889 148.545 259.346 173.261 263.047C172.546 265.738 171.874 268.346 171.159 270.911C146.402 267.168 119.332 262.753 96.0039 258Z" fill="white"/>
<path d="M290.366 287.817L290.324 287.859C290.071 288.237 289.735 288.7 289.315 289.247C287.928 291.181 285.784 294.167 282.968 297.91C282.463 298.583 281.959 299.255 281.455 299.97C270.988 313.89 253.04 336.683 231.855 358.131C228.829 361.159 225.761 364.187 222.608 367.172C200.457 388.115 175.657 406.198 152.539 410.993C140.433 413.474 128.79 412.338 118.24 405.988C115.382 404.264 112.607 402.161 109.917 399.68C91.6328 382.522 85.2017 354.977 85.9163 324.235C86.2526 308.465 88.4803 291.854 91.927 275.411C100.922 279.827 110.632 283.065 120.173 285.378C127.487 287.144 134.633 288.406 141.274 289.331C150.984 290.634 159.516 291.181 165.401 291.391C164.813 293.452 164.224 295.429 163.678 297.279C161.534 304.386 159.853 309.769 158.97 312.545C158.55 313.89 158.297 314.647 158.255 314.731C158.339 314.689 159.012 314.269 160.231 313.596C164.56 311.115 175.447 304.891 189.192 297.363C193.857 294.84 198.817 292.148 203.945 289.415C235.218 272.846 273.09 254.594 284.775 256.361C285.49 256.445 286.12 256.655 286.625 256.907C302.177 264.813 298.058 277.177 290.366 287.817Z" fill="#FF867A"/>
<path d="M166.284 290.13C166.999 290.088 167.629 289.625 167.797 288.91C167.881 288.532 178.179 249.968 184.568 221.203C190.957 192.438 192.134 183.271 192.176 182.892C192.303 181.967 191.63 181.168 190.747 181.042C189.865 180.916 189.024 181.589 188.898 182.472C188.898 182.556 187.679 191.934 181.332 220.488C174.985 249.169 164.729 287.648 164.603 288.027C164.351 288.91 164.897 289.835 165.78 290.046C165.99 290.13 166.158 290.172 166.284 290.13Z" fill="#BCA21A"/>
<path d="M118.366 374.784C119.417 374.742 120.3 373.985 120.552 372.934C126.352 344.926 159.475 316.708 159.811 316.413C160.778 315.572 160.904 314.142 160.105 313.133C159.264 312.166 157.835 312.04 156.826 312.839C155.397 314.016 122.149 342.361 116.012 371.966C115.76 373.228 116.559 374.448 117.82 374.7C117.988 374.784 118.156 374.784 118.366 374.784Z" fill="#C66C67"/>
</svg>
