<svg width="210" height="110" viewBox="0 0 210 110" fill="none" xmlns="http://www.w3.org/2000/svg">
<rect x="0.609375" width="209.39" height="109.968" rx="3.73974" fill="#F2F2F2"/>
<path d="M92.7539 61.2605L99.9501 54.0643C100.539 53.4759 101.337 53.1454 102.169 53.1454C103.001 53.1454 103.799 53.4759 104.388 54.0643L111.584 61.2605M108.446 58.1222L110.934 55.6335C111.523 55.0451 112.321 54.7146 113.153 54.7146C113.985 54.7146 114.783 55.0451 115.372 55.6335L117.861 58.1222M108.446 48.7071H108.461M95.8923 67.5372H114.722C115.555 67.5372 116.353 67.2066 116.941 66.618C117.53 66.0295 117.861 65.2312 117.861 64.3989V45.5688C117.861 44.7365 117.53 43.9382 116.941 43.3497C116.353 42.7611 115.555 42.4305 114.722 42.4305H95.8923C95.0599 42.4305 94.2617 42.7611 93.6731 43.3497C93.0846 43.9382 92.7539 44.7365 92.7539 45.5688V64.3989C92.7539 65.2312 93.0846 66.0295 93.6731 66.618C94.2617 67.2066 95.0599 67.5372 95.8923 67.5372Z" stroke="#A8A8A8" stroke-width="1.4959" stroke-linecap="round" stroke-linejoin="round"/>
</svg>
