<svg width="20" height="20" viewBox="0 0 20 20" fill="none" xmlns="http://www.w3.org/2000/svg">
<path d="M10.0007 7V10M10.0007 10V13M10.0007 10H13.0007M10.0007 10H7.00073M19.0007 10C19.0007 11.1819 18.7679 12.3522 18.3156 13.4442C17.8634 14.5361 17.2004 15.5282 16.3647 16.364C15.529 17.1997 14.5368 17.8626 13.4449 18.3149C12.353 18.7672 11.1826 19 10.0007 19C8.81884 19 7.64851 18.7672 6.55658 18.3149C5.46465 17.8626 4.4725 17.1997 3.63677 16.364C2.80104 15.5282 2.13811 14.5361 1.68582 13.4442C1.23352 12.3522 1.00073 11.1819 1.00073 10C1.00073 7.61305 1.94894 5.32387 3.63677 3.63604C5.3246 1.94821 7.61378 1 10.0007 1C12.3877 1 14.6769 1.94821 16.3647 3.63604C18.0525 5.32387 19.0007 7.61305 19.0007 10Z" stroke="#FFE145" stroke-width="2" stroke-linecap="round" stroke-linejoin="round"/>
</svg>
