<svg width="24" height="25" viewBox="0 0 24 25" fill="none" xmlns="http://www.w3.org/2000/svg">
<path d="M15 12.3604H9H15ZM21 12.3604C21 13.5422 20.7672 14.7126 20.3149 15.8045C19.8626 16.8964 19.1997 17.8886 18.364 18.7243C17.5282 19.56 16.5361 20.223 15.4442 20.6753C14.3522 21.1276 13.1819 21.3604 12 21.3604C10.8181 21.3604 9.64778 21.1276 8.55585 20.6753C7.46392 20.223 6.47177 19.56 5.63604 18.7243C4.80031 17.8886 4.13738 16.8964 3.68508 15.8045C3.23279 14.7126 3 13.5422 3 12.3604C3 9.9734 3.94821 7.68422 5.63604 5.99639C7.32387 4.30856 9.61305 3.36035 12 3.36035C14.3869 3.36035 16.6761 4.30856 18.364 5.99639C20.0518 7.68422 21 9.9734 21 12.3604Z" fill="#FFE145"/>
<path d="M15 12.3604H9H15Z" fill="#FFE145"/>
<path d="M15 12.3604H9" stroke="white" stroke-width="2" stroke-linecap="round" stroke-linejoin="round"/>
</svg>
