<svg width="20" height="20" viewBox="0 0 20 20" fill="none" xmlns="http://www.w3.org/2000/svg">
<path d="M8.25883 12L10.1107 10M10.1107 10L11.9625 8M10.1107 10L8.25883 8M10.1107 10L11.9625 12M18.444 10C18.444 11.1819 18.2285 12.3522 17.8097 13.4442C17.3909 14.5361 16.7771 15.5282 16.0032 16.364C15.2294 17.1997 14.3108 17.8626 13.2997 18.3149C12.2887 18.7672 11.205 19 10.1107 19C9.01633 19 7.93269 18.7672 6.92165 18.3149C5.9106 17.8626 4.99194 17.1997 4.21812 16.364C3.4443 15.5282 2.83047 14.5361 2.41168 13.4442C1.99289 12.3522 1.77734 11.1819 1.77734 10C1.77734 7.61305 2.65532 5.32387 4.21812 3.63604C5.78092 1.94821 7.90054 1 10.1107 1C12.3208 1 14.4404 1.94821 16.0032 3.63604C17.566 5.32387 18.444 7.61305 18.444 10Z" stroke="#1C1C1C" stroke-width="2" stroke-linecap="round" stroke-linejoin="round"/>
</svg>
