<svg width="41" height="40" viewBox="0 0 41 40" fill="none" xmlns="http://www.w3.org/2000/svg">
<g clip-path="url(#clip0_8_7266)">
<path d="M40.3788 4.9563H7.14905V14.2204H0.378906V35.0437H33.6033V25.7795H40.3789V4.9563H40.3788ZM9.49248 7.29973H38.0354V9.08043H9.49248V7.29973ZM31.2599 32.7002H2.72234V16.5639H31.2599V32.7002ZM9.49248 14.2204V11.4239H38.0354V14.2204H9.49248ZM38.0355 23.4361H33.6033V16.5638H38.0355V23.4361Z" fill="#231F1E"/>
<path d="M8.72429 18.3821C6.76437 18.3821 5.16992 19.9765 5.16992 21.9364C5.16992 23.8963 6.76437 25.4907 8.72429 25.4907C10.6842 25.4907 12.2787 23.8963 12.2787 21.9364C12.2786 19.9765 10.6841 18.3821 8.72429 18.3821ZM8.72429 23.1473C8.05656 23.1473 7.51336 22.6041 7.51336 21.9364C7.51336 21.2687 8.05656 20.7255 8.72429 20.7255C9.39202 20.7255 9.93523 21.2687 9.93523 21.9364C9.93523 22.6041 9.39195 23.1473 8.72429 23.1473Z" fill="#231F1E"/>
<path d="M12.2016 27.9705H5.2002V30.3139H12.2016V27.9705Z" fill="#231F1E"/>
<path d="M28.9314 27.9705H14.6748V30.3139H28.9314V27.9705Z" fill="#231F1E"/>
</g>
<defs>
<clipPath id="clip0_8_7266">
<rect width="40" height="40" fill="white" transform="translate(0.378906)"/>
</clipPath>
</defs>
</svg>
