<svg width="11" height="7" viewBox="0 0 11 7" fill="none" xmlns="http://www.w3.org/2000/svg">
<path fill-rule="evenodd" clip-rule="evenodd" d="M0.293 0.793081C0.480528 0.60561 0.734836 0.500295 1 0.500295C1.26516 0.500295 1.51947 0.60561 1.707 0.793081L5 4.08608L8.293 0.793081C8.38525 0.697571 8.49559 0.621389 8.6176 0.56898C8.7396 0.516571 8.87082 0.488985 9.0036 0.487831C9.13638 0.486677 9.26806 0.511978 9.39095 0.562259C9.51385 0.61254 9.6255 0.686793 9.71939 0.780686C9.81329 0.874579 9.88754 0.986231 9.93782 1.10913C9.9881 1.23202 10.0134 1.3637 10.0123 1.49648C10.0111 1.62926 9.98351 1.76048 9.9311 1.88249C9.87869 2.00449 9.80251 2.11483 9.707 2.20708L5.707 6.20708C5.51947 6.39455 5.26516 6.49987 5 6.49987C4.73484 6.49987 4.48053 6.39455 4.293 6.20708L0.293 2.20708C0.105529 2.01955 0.000213623 1.76525 0.000213623 1.50008C0.000213623 1.23492 0.105529 0.980609 0.293 0.793081Z" fill="#141414"/>
</svg>
