<svg width="13" height="13" viewBox="0 0 13 13" fill="none" xmlns="http://www.w3.org/2000/svg">
<path d="M0.6675 7.856V7.152H9.2435V7.856H0.6675ZM0.6675 5.648V4.944H9.2435V5.648H0.6675ZM8.2035 12.096C7.3715 12.096 6.59817 11.9573 5.8835 11.68C5.16883 11.392 4.54483 10.992 4.0115 10.48C3.48883 9.968 3.07817 9.36533 2.7795 8.672C2.4915 7.97867 2.3475 7.22133 2.3475 6.4C2.3475 5.57867 2.4915 4.82133 2.7795 4.128C3.07817 3.43467 3.48883 2.832 4.0115 2.32C4.54483 1.808 5.16883 1.41333 5.8835 1.136C6.59817 0.848 7.3715 0.704 8.2035 0.704C9.0355 0.704 9.8035 0.842666 10.5075 1.12C11.2222 1.38667 11.8302 1.792 12.3315 2.336L11.5635 3.088C11.1155 2.61867 10.6088 2.28267 10.0435 2.08C9.48883 1.86667 8.89683 1.76 8.2675 1.76C7.58483 1.76 6.9555 1.87733 6.3795 2.112C5.8035 2.336 5.30217 2.66133 4.8755 3.088C4.44883 3.504 4.11817 3.99467 3.8835 4.56C3.64883 5.11467 3.5315 5.728 3.5315 6.4C3.5315 7.072 3.64883 7.69067 3.8835 8.256C4.11817 8.81067 4.44883 9.30133 4.8755 9.728C5.30217 10.144 5.8035 10.4693 6.3795 10.704C6.9555 10.928 7.58483 11.04 8.2675 11.04C8.89683 11.04 9.48883 10.9333 10.0435 10.72C10.6088 10.5067 11.1155 10.1653 11.5635 9.696L12.3315 10.448C11.8302 10.992 11.2222 11.4027 10.5075 11.68C9.8035 11.9573 9.0355 12.096 8.2035 12.096Z" fill="#6B6B6B"/>
</svg>
