<svg width="24" height="25" viewBox="0 0 24 25" fill="none" xmlns="http://www.w3.org/2000/svg">
<path d="M12 15.209V17.209M6 21.209H18C18.5304 21.209 19.0391 20.9983 19.4142 20.6232C19.7893 20.2481 20 19.7394 20 19.209V13.209C20 12.6786 19.7893 12.1698 19.4142 11.7948C19.0391 11.4197 18.5304 11.209 18 11.209H6C5.46957 11.209 4.96086 11.4197 4.58579 11.7948C4.21071 12.1698 4 12.6786 4 13.209V19.209C4 19.7394 4.21071 20.2481 4.58579 20.6232C4.96086 20.9983 5.46957 21.209 6 21.209Z" stroke="#6F6F6F" stroke-width="2" stroke-linecap="round" stroke-linejoin="round"/>
<path d="M8 8.20898C8 5.99985 9.79086 4.20898 12 4.20898V4.20898C14.2091 4.20898 16 5.99985 16 8.20898V11.209H8V8.20898Z" stroke="#6F6F6F" stroke-width="2"/>
</svg>
