<svg width="24" height="25" viewBox="0 0 24 25" fill="none" xmlns="http://www.w3.org/2000/svg">
<path d="M3 8.20898L10.89 13.469C11.2187 13.6883 11.6049 13.8053 12 13.8053C12.3951 13.8053 12.7813 13.6883 13.11 13.469L21 8.20898M5 19.209H19C19.5304 19.209 20.0391 18.9983 20.4142 18.6232C20.7893 18.2481 21 17.7394 21 17.209V7.20898C21 6.67855 20.7893 6.16984 20.4142 5.79477C20.0391 5.4197 19.5304 5.20898 19 5.20898H5C4.46957 5.20898 3.96086 5.4197 3.58579 5.79477C3.21071 6.16984 3 6.67855 3 7.20898V17.209C3 17.7394 3.21071 18.2481 3.58579 18.6232C3.96086 18.9983 4.46957 19.209 5 19.209Z" stroke="#6F6F6F" stroke-width="2" stroke-linecap="round" stroke-linejoin="round"/>
</svg>
