<svg width="41" height="40" viewBox="0 0 41 40" fill="none" xmlns="http://www.w3.org/2000/svg">
<g clip-path="url(#clip0_8_7253)">
<path d="M38.5226 10.7808L37.2269 13.1805C36.0772 10.4081 34.2271 7.93228 31.8547 6.03665C28.6918 3.50931 24.7167 2.11743 20.6618 2.11743C16.2403 2.11743 11.996 3.74399 8.71059 6.69743C5.45043 9.62821 3.38465 13.6306 2.89355 17.9672L5.22379 18.2311C5.6502 14.465 7.44519 10.9884 10.2782 8.44157C13.1323 5.87579 16.8199 4.46274 20.6615 4.46274C24.2375 4.46274 27.6018 5.64064 30.3907 7.86892C32.3463 9.43149 33.8938 11.4465 34.9001 13.7038L32.6836 12.5077L31.57 14.5714L37.4328 17.7349L40.5861 11.8951L38.5226 10.7808Z" fill="#231F1E"/>
<path d="M36.1787 20.7988C35.7607 29.0636 28.9448 35.5375 20.6614 35.5375C17.0227 35.5375 13.4674 34.1847 10.6507 31.7284C8.54969 29.8963 6.9632 27.5547 6.04102 24.9702L8.48836 26.2908L9.60195 24.227L3.73922 21.0635L0.585938 26.9033L2.64937 28.0175L3.84711 25.7995C4.90594 28.7437 6.71648 31.4093 9.10938 33.4959C12.3534 36.3247 16.4559 37.8826 20.6615 37.8826C30.195 37.8826 38.0397 30.4305 38.5209 20.9173L36.1787 20.7988Z" fill="#231F1E"/>
<path d="M20.8117 18.8282H20.3607C19.8522 18.8282 19.4385 18.4145 19.4385 17.906C19.4385 17.3974 19.8521 16.9836 20.3607 16.9836H20.8117C21.3202 16.9836 21.7339 17.3974 21.7339 17.906H24.0777C24.0777 16.4341 23.0988 15.187 21.7581 14.7802V12.4946H19.4143V14.7802C18.0736 15.1869 17.0947 16.4341 17.0947 17.906C17.0947 19.7068 18.5599 21.172 20.3607 21.172H20.8117C21.3202 21.172 21.7339 21.5857 21.7339 22.0942C21.7339 22.6028 21.3202 23.0166 20.8117 23.0166H20.3607C19.8522 23.0166 19.4385 22.6028 19.4385 22.0942H17.0947C17.0947 23.5661 18.0736 24.8132 19.4143 25.22V27.5056H21.7581V25.22C23.0989 24.8133 24.0777 23.5661 24.0777 22.0942C24.0777 20.2934 22.6125 18.8282 20.8117 18.8282Z" fill="#231F1E"/>
</g>
<defs>
<clipPath id="clip0_8_7253">
<rect width="40" height="40" fill="white" transform="translate(0.585938)"/>
</clipPath>
</defs>
</svg>
