<svg width="33" height="40" viewBox="0 0 33 40" fill="none" xmlns="http://www.w3.org/2000/svg">
<path d="M32.5906 34.9086C32.1816 33.7109 31.1255 32.7155 29.8524 32.407L22.7923 30.3792L21.7434 28.9062C24.3405 29.0181 26.1841 28.5881 27.8098 26.8159C29.4629 24.9476 29.6787 22.8937 29.6055 20.5688C30.5148 20.2463 31.168 19.3779 31.168 18.3594C31.168 18.3594 31.1941 13.7709 31.168 13.6309C30.6061 5.49508 24.5486 0.0798437 16.7931 0C8.70836 0.0810938 2.92703 5.86859 2.41835 13.6306C2.39218 13.7707 2.41835 18.3594 2.41835 18.3594C2.41835 19.6517 3.46976 20.7031 4.7621 20.7031C5.31921 20.7031 5.83117 20.5074 6.23382 20.1816C7.16804 23.4333 9.21953 26.8974 11.8966 28.8001L10.7907 30.3802L3.7339 32.407C2.06007 32.8011 0.751558 34.4272 0.77773 36.1953V39.2188C0.77773 39.4242 0.861245 39.6258 1.00664 39.771C1.15195 39.9163 1.35351 40 1.55898 40H13.308C13.7385 40 14.0893 39.6492 14.0893 39.2188C14.0893 38.7883 13.7385 38.4375 13.308 38.4375H8.19953V36.875C8.19953 36.4436 7.84976 36.0938 7.41828 36.0938C6.98687 36.0938 6.63703 36.4436 6.63703 36.875V38.4375H2.34023V36.1953C2.34023 35.1156 3.07226 34.1805 4.1207 33.9211L10.9081 31.972C11.5339 32.9298 12.3948 33.7281 13.3963 34.282C15.4495 35.4413 18.1187 35.4424 20.19 34.282C21.1916 33.7281 22.0517 32.9297 22.6783 31.972L29.4375 33.9134L29.4656 33.9212C30.5141 34.1805 31.2461 35.1157 31.2461 36.1954V38.4375H26.9493V36.875C26.9493 36.4436 26.5994 36.0938 26.168 36.0938C25.7366 36.0938 25.3868 36.4436 25.3868 36.875V38.4375H20.3391C19.9087 38.4375 19.5579 38.7883 19.5579 39.2188C19.5579 39.6492 19.9087 40 20.3391 40H32.0273C32.2328 40 32.4344 39.9164 32.5796 39.771C32.725 39.6258 32.8086 39.4242 32.8086 39.2188V36.1953C32.8086 35.7555 32.7352 35.3227 32.5906 34.9086ZM16.793 28.9062C16.3622 28.9062 16.0117 28.5558 16.0117 28.125C16.0117 27.6942 16.3622 27.3438 16.793 27.3438H18.3555C18.7862 27.3438 19.1367 27.6942 19.1367 28.125C19.1367 28.5558 18.7862 28.9062 18.3555 28.9062H16.793ZM23.4295 27.3282C24.3402 26.3767 25.1631 25.2324 25.8605 23.9306C26.4923 22.7515 27.0008 21.4813 27.3678 20.1937C27.5688 20.3536 27.7963 20.4813 28.043 20.5688V21.875C28.043 24.9008 26.125 27.1328 23.4295 27.3282ZM16.793 5.46875C21.5698 5.46875 25.3299 8.73539 26.2587 13.3641C22.7737 13.571 20.0534 11.9657 18.9279 9.97148C18.7258 9.52461 18.0748 9.38016 17.6902 9.74289C14.0184 13.1902 9.34968 13.441 7.32718 13.3638C8.25625 8.73523 12.0163 5.46875 16.793 5.46875ZM29.6055 18.3594C29.6055 18.7902 29.255 19.1406 28.8242 19.1406C28.3934 19.1406 28.043 18.7902 28.043 18.3594V14.0625C28.043 13.6317 28.3934 13.2812 28.8242 13.2812C29.1821 13.2812 29.4839 13.5235 29.5759 13.8525C29.5948 14.1788 29.6055 14.509 29.6055 14.8438V18.3594ZM29.3179 11.7716C28.7701 11.6402 28.0335 11.7645 27.5479 12.0983C27.0312 10.3162 26.1202 8.69352 24.8616 7.3557C24.3954 6.86016 23.8906 6.41461 23.3535 6.0207C24.0433 5.74195 24.6665 5.11523 25.1294 4.50805C27.3066 6.29445 28.7411 8.79898 29.3179 11.7716ZM16.793 1.5625C19.318 1.5625 21.7432 2.26266 23.8568 3.59469L23.5523 3.96102C22.8705 4.79648 21.7378 4.98297 20.7337 4.60727C18.3094 3.68227 15.3074 3.67344 12.8632 4.60312C11.878 4.97766 10.7245 4.79195 10.0469 3.95641L9.74 3.5875C11.8515 2.26016 14.2727 1.5625 16.793 1.5625ZM8.46656 4.5C8.92937 5.10508 9.52921 5.71813 10.2414 6.01422C9.70101 6.40969 9.19312 6.85742 8.72437 7.3557C7.46578 8.69352 6.55476 10.3162 6.03804 12.0983C5.55937 11.7799 4.88562 11.6348 4.26812 11.7715C4.84578 8.79461 6.28367 6.28727 8.46656 4.5ZM5.54296 18.3594C5.54296 18.7902 5.1925 19.1406 4.76171 19.1406C4.33093 19.1406 3.98046 18.7902 3.98046 18.3594C3.98046 18.3594 3.99109 14.1788 4.00999 13.8525C4.10203 13.5235 4.40382 13.2812 4.76171 13.2812C5.1925 13.2812 5.54296 13.6317 5.54296 14.0625V18.3594ZM9.94101 24.4846C8.055 21.6509 6.95351 18.0947 7.12703 14.9198C11.0452 15.1202 15.1955 13.913 18.0647 11.4939C19.927 13.7893 22.4405 15.0485 26.4588 14.9191C26.4727 15.1519 26.4804 15.3871 26.4804 15.625C26.4804 18.0654 25.7525 20.8237 24.4833 23.1927C23.5477 24.939 22.3776 26.3596 21.0842 27.3438H20.5648C20.2423 26.4345 19.3739 25.7812 18.3554 25.7812H16.7929C15.5005 25.7812 14.4491 26.8327 14.4491 28.125C14.4491 28.2363 14.4575 28.3456 14.4726 28.4528C12.5781 27.7595 10.7381 25.733 9.94101 24.4846ZM16.7937 33.5938H16.7922C14.9225 33.5938 13.2031 32.6457 12.1995 31.0917L13.2372 29.6091C14.3771 30.1746 15.5739 30.4688 16.793 30.4688C17.7927 30.4642 19.2952 30.6358 20.0136 29.7798C20.123 29.7324 20.232 29.6825 20.3405 29.6301L21.384 31.0954C20.3801 32.6472 18.6619 33.5938 16.7937 33.5938Z" fill="#231F1E"/>
</svg>
