<svg width="50" height="50" viewBox="0 0 50 50" fill="none" xmlns="http://www.w3.org/2000/svg">
<g clip-path="url(#clip0_20_9187)">
<path d="M18.0416 12.1094C18.2987 12.1094 18.5505 12.0049 18.7321 11.8233C18.9137 11.6417 19.0182 11.3899 19.0182 11.1328C19.0182 10.8761 18.9137 10.6243 18.7321 10.4427C18.5505 10.26 18.2987 10.1562 18.0416 10.1562C17.7849 10.1562 17.5331 10.26 17.3512 10.4427C17.1696 10.6243 17.0651 10.8761 17.0651 11.1328C17.0651 11.3899 17.1696 11.6417 17.3512 11.8233C17.5331 12.0049 17.7849 12.1094 18.0416 12.1094Z" fill="black"/>
<path d="M49.9996 10.6975C50.04 4.87975 45.3422 0.0812529 39.5275 0.00114441C37.4641 -0.0274658 35.4881 0.526428 33.7825 1.58806C30.9776 0.53482 28.0231 0 24.9996 0C18.322 0 12.0441 2.60048 7.3223 7.3223C2.60048 12.0441 0 18.322 0 24.9996C0 26.8909 0.212097 28.7708 0.630187 30.5988C0.243759 30.9558 0 31.4651 0 32.0312V48.0468C0 49.1237 0.876235 49.9999 1.95312 49.9999H17.9683C18.5352 49.9999 19.0445 49.7558 19.4015 49.369C21.2288 49.7871 23.1086 49.9992 24.9996 49.9992C29.3117 49.9992 33.5632 48.883 37.2943 46.7716C37.7639 46.5061 37.9291 45.9102 37.6632 45.441C37.3977 44.9714 36.8019 44.8062 36.3327 45.0717C32.8941 47.0176 28.9753 48.0461 24.9996 48.0461C23.2841 48.0461 21.5793 47.8572 19.9215 47.4849V41.0156C20.4609 41.0156 20.898 40.5784 20.898 40.039C20.898 39.4996 20.4609 39.0625 19.9215 39.0625V32.0312C19.9215 30.9543 19.0452 30.0781 17.9683 30.0781H2.51465C2.14195 28.4198 1.95312 26.7151 1.95312 24.9996C1.95312 24.7883 1.95656 24.5773 1.9619 24.3671H12.0575C14.8575 24.3671 17.1356 22.0894 17.1356 19.289C17.1356 17.5659 18.5375 16.1644 20.2606 16.1644H20.9671C23.7671 16.1644 26.0448 13.8862 26.0448 11.0863C26.0448 8.28627 23.7671 6.00814 20.9671 6.00814H11.9591C15.67 3.4523 20.1626 1.95312 24.9996 1.95312C27.3815 1.95312 29.7153 2.31361 31.9568 3.02276C31.9442 3.03497 31.9313 3.04679 31.9191 3.05938C29.879 5.07125 28.7552 7.75718 28.7552 10.6224C28.7552 13.0524 29.5948 15.4217 31.121 17.3057C31.134 17.3252 31.1477 17.3443 31.1626 17.3626L31.9664 18.3925C31.6429 18.5516 31.4193 18.8835 31.4193 19.2684C31.4193 19.8078 31.8569 20.245 32.3959 20.245H33.3725C33.3854 20.245 33.398 20.2434 33.4106 20.243L35.1051 22.414H34.6405C31.53 22.414 28.9993 24.9447 28.9993 28.0552C28.9993 31.1657 31.53 33.6967 34.6405 33.6967H46.3451C45.3617 36.1106 43.967 38.3586 42.2004 40.3385C41.8411 40.7409 41.8762 41.3581 42.2786 41.7175C42.4652 41.8834 42.6971 41.965 42.9286 41.965C43.1972 41.965 43.4646 41.8552 43.6576 41.6389C47.747 37.0567 49.9992 31.1473 49.9992 24.9996C49.9992 21.9726 49.4632 19.0185 48.4092 16.2124C49.4281 14.5637 49.9862 12.6488 49.9996 10.6975ZM17.9691 40.0268C17.9691 40.031 17.9683 40.0348 17.9683 40.039C17.9683 40.0432 17.9691 40.047 17.9691 40.0512L17.9695 48.0464C17.9695 48.0464 17.9691 48.0468 17.9683 48.0468H1.95312V32.0312H5.97038V37.0441C5.97038 37.5835 6.40792 38.0207 6.94694 38.0207H12.9364C13.4758 38.0207 13.9129 37.5835 13.9129 37.0441V32.0312H17.9683L17.9691 40.0268ZM11.9598 32.0312V36.0675H7.9235V32.0312H11.9598ZM9.52872 7.96126H20.9671C22.6902 7.96126 24.0921 9.36316 24.0921 11.0863C24.0921 12.8094 22.6902 14.2113 20.9671 14.2113H20.2606C17.4606 14.2113 15.1825 16.4894 15.1825 19.2894C15.1825 21.0125 13.7806 22.4144 12.0575 22.4144H2.09884C2.22854 21.2581 2.44407 20.1275 2.73895 19.0292H10.9375C11.4765 19.0292 11.914 18.592 11.914 18.0527C11.914 17.5133 11.4765 17.0761 10.9375 17.0761H3.35655C4.00543 15.3095 4.86488 13.6436 5.904 12.1094H14.1353C14.6747 12.1094 15.1119 11.6722 15.1119 11.1328C15.1119 10.5934 14.6747 10.1562 14.1353 10.1562H7.38486C8.04099 9.3788 8.74671 8.64447 9.4982 7.95974C9.5085 7.96012 9.51842 7.96126 9.52872 7.96126ZM30.7083 10.6224C30.7083 8.28399 31.6253 6.09206 33.2904 4.44984C34.9548 2.808 37.1624 1.92222 39.5004 1.95389C44.2459 2.0195 48.0796 5.93566 48.0468 10.6838C48.0327 12.6793 47.3598 14.55 46.1009 16.0949C46.0899 16.1087 46.0792 16.1224 46.0685 16.1369L40.0989 23.7888L39.4187 24.6601C39.413 24.6673 39.4031 24.6803 39.3775 24.6803C39.3516 24.6803 39.3417 24.6673 39.336 24.6601L32.7617 16.2376C32.74 16.2037 32.7163 16.1712 32.6904 16.14C31.4125 14.5927 30.7083 12.6331 30.7083 10.6224ZM34.6405 31.7436C32.6068 31.7436 30.952 30.0891 30.952 28.0555C30.952 26.0215 32.6068 24.3671 34.6405 24.3671H35.4442C35.815 24.3671 36.1839 24.3305 36.5451 24.2588L37.7964 25.8621C38.1794 26.3523 38.7558 26.6334 39.3775 26.6334C39.9997 26.6334 40.5761 26.3519 40.9587 25.8617L41.6385 24.99L47.0012 18.1164C47.6951 20.3346 48.0461 22.6429 48.0461 24.9996C48.0461 27.3067 47.702 29.5772 47.0397 31.7436H34.6405Z" fill="black"/>
<path d="M39.3775 15.7329C42.1954 15.7329 44.4881 13.4403 44.4881 10.6224C44.4881 7.80447 42.1954 5.51184 39.3775 5.51184C36.5596 5.51184 34.267 7.80447 34.267 10.6224C34.267 13.4403 36.5596 15.7329 39.3775 15.7329ZM39.3775 7.46496C41.1185 7.46496 42.5349 8.88136 42.5349 10.6224C42.5349 12.3634 41.1185 13.7798 39.3775 13.7798C37.6365 13.7798 36.2201 12.3634 36.2201 10.6224C36.2201 8.88136 37.6365 7.46496 39.3775 7.46496Z" fill="black"/>
<path d="M25.9762 22.964C25.9762 22.9312 25.9766 22.8988 25.9781 22.8664C25.9976 22.3274 25.5768 21.8742 25.0378 21.8547C24.4976 21.8341 24.046 22.256 24.0261 22.795C24.0242 22.8511 24.0231 22.9076 24.0231 22.964V23.8071C24.0231 24.3465 24.4602 24.7836 24.9996 24.7836C25.539 24.7836 25.9762 24.3465 25.9762 23.8071V22.964Z" fill="black"/>
<path d="M23.6305 37.7522C23.5061 37.957 23.3547 38.1451 23.1807 38.311C22.7905 38.6833 22.776 39.3013 23.1483 39.6916C23.3402 39.8926 23.5973 39.9941 23.8552 39.9941C24.0974 39.9941 24.34 39.9044 24.5289 39.724C24.8268 39.4398 25.0862 39.1174 25.2998 38.7657C25.5798 38.3045 25.4329 37.7041 24.9721 37.4241C24.5109 37.1441 23.9105 37.291 23.6305 37.7522Z" fill="black"/>
<path d="M25.9762 28.0063C25.9762 27.4669 25.539 27.0298 24.9996 27.0298C24.4602 27.0298 24.0231 27.4669 24.0231 28.0063V28.9829C24.0231 29.5219 24.4602 29.9595 24.9996 29.9595C25.539 29.9595 25.9762 29.5219 25.9762 28.9829V28.0063Z" fill="black"/>
<path d="M25.9762 34.1583V33.1818C25.9762 32.6427 25.539 32.2052 24.9996 32.2052C24.4602 32.2052 24.0231 32.6427 24.0231 33.1818V34.1583C24.0231 34.6977 24.4602 35.1349 24.9996 35.1349C25.539 35.1349 25.9762 34.6977 25.9762 34.1583Z" fill="black"/>
<path d="M28.0685 18.3339C27.6596 18.3888 27.2598 18.4979 26.8799 18.6581C26.3828 18.8679 26.1501 19.4405 26.3595 19.9376C26.5171 20.3106 26.8791 20.5346 27.2598 20.5346C27.3865 20.5346 27.515 20.5101 27.639 20.4575C27.8595 20.3648 28.0914 20.3015 28.3287 20.2698C28.8631 20.1977 29.2381 19.7064 29.1664 19.172C29.0947 18.6371 28.6022 18.2621 28.0685 18.3339Z" fill="black"/>
<path d="M40.1039 44.6648C39.846 44.6648 39.595 44.5603 39.4134 44.3783C39.2307 44.196 39.1273 43.945 39.1273 43.6882C39.1273 43.4315 39.2307 43.1794 39.4134 42.9978C39.595 42.815 39.846 42.7117 40.1039 42.7117C40.3606 42.7117 40.6128 42.815 40.7943 42.9978C40.9759 43.1794 41.0804 43.4315 41.0804 43.6882C41.0804 43.945 40.9759 44.196 40.7943 44.3783C40.6128 44.5603 40.3606 44.6648 40.1039 44.6648Z" fill="black"/>
</g>
<defs>
<clipPath id="clip0_20_9187">
<rect width="50" height="50" fill="white"/>
</clipPath>
</defs>
</svg>
